<?xml version="1.0" encoding="UTF-8"?>
<svg width="16px" height="16px" viewBox="0 0 16 16" version="1.1" xmlns="http://www.w3.org/2000/svg" xmlns:xlink="http://www.w3.org/1999/xlink">
    <title>编组 8</title>
    <g id="页面-1" stroke="none" stroke-width="1" fill="none" fill-rule="evenodd">
        <g id="8" transform="translate(-1571.000000, -231.000000)">
            <g id="编组-8" transform="translate(1571.000000, 231.000000)">
                <rect id="矩形" fill-opacity="0" fill="#FFFFFF" x="0" y="0" width="16" height="16"></rect>
                <g id="算法库" transform="translate(1.000000, 0.000000)" fill="#000000" fill-rule="nonzero">
                    <path d="M12.6877738,7.98129001 C12.7468363,7.90535251 12.8025238,7.82772751 12.8565238,7.75179001 C13.8200863,6.39504001 14.0580238,5.14122751 13.5281488,4.21985251 C12.9982738,3.29847751 11.7933988,2.87660251 10.1362738,3.02847751 C10.0400863,3.03691501 9.94389885,3.04872751 9.84602385,3.06054001 C9.80889885,2.96941501 9.76839885,2.87997751 9.72958635,2.79222751 C9.03602385,1.28022751 8.06739885,0.448290005 7.00427385,0.448290005 C5.94114885,0.448290005 4.97421135,1.28360251 4.28064885,2.79391501 C4.24014885,2.87997751 4.20302385,2.96941501 4.16421135,3.05885251 C4.06802385,3.04704001 3.97183635,3.03522751 3.87733635,3.02679001 C2.22189885,2.87154001 1.01533635,3.29341501 0.485461347,4.21479001 C-0.0461011534,5.13616501 0.191836347,6.38997751 1.15371135,7.74672751 C1.20771135,7.82266501 1.26508635,7.90029001 1.32246135,7.97622751 C1.26339885,8.05216501 1.20771135,8.12979001 1.15371135,8.20572751 C0.190148847,9.56247751 -0.0494761534,10.81629 0.482086347,11.737665 C0.941086347,12.5358525 1.90633635,12.959415 3.23102385,12.959415 C3.43689885,12.959415 3.65121135,12.94929 3.87227385,12.92904 C3.96846135,12.9206025 4.06464885,12.90879 4.16252385,12.8969775 C4.19964885,12.9881025 4.24014885,13.07754 4.27896135,13.16529 C4.97252385,14.67729 5.94114885,15.5092275 7.00427385,15.5092275 C8.06739885,15.5092275 9.03433635,14.67729 9.72958635,13.16529 C9.77008635,13.0792275 9.80721135,12.98979 9.84602385,12.9003525 C9.94221135,12.912165 10.0383988,12.9239775 10.1328988,12.932415 C10.3573363,12.952665 10.5733363,12.9644775 10.7808988,12.9644775 C12.1038988,12.9644775 13.0657738,12.540915 13.5264613,11.7461025 C14.0580238,10.8247275 13.8200863,9.57091501 12.8582113,8.21416501 C12.8025238,8.13485251 12.7468363,8.05891501 12.6877738,7.98129001 L12.6877738,7.98129001 Z M3.78452385,11.97054 C2.54252385,12.08529 1.64139885,11.825415 1.31402385,11.2567275 C0.986648847,10.68804 1.21277385,9.77847751 1.93671135,8.76260251 L1.96202385,8.72716501 C2.39064885,9.18279001 2.88171135,9.62491501 3.42508635,10.0451025 C3.51621135,10.7234775 3.65458635,11.3681025 3.83346135,11.9654775 C3.81827385,11.967165 3.80139885,11.9688525 3.78452385,11.97054 Z M3.30527385,8.69679001 C3.04371135,8.46054001 2.79902385,8.22091501 2.57627385,7.97791501 C2.79902385,7.73491501 3.04202385,7.49529001 3.30527385,7.25904001 C3.29514885,7.49697751 3.28839885,7.73660251 3.28839885,7.97960251 C3.28839885,8.21922751 3.29514885,8.45885251 3.30527385,8.69679001 Z M3.42677385,5.91072751 C2.88339885,6.32922751 2.39233635,6.77304001 1.96371135,7.22697751 C1.95527385,7.21516501 1.94514885,7.20335251 1.93839885,7.19154001 C1.21614885,6.17229001 0.990023847,5.26272751 1.31739885,4.69572751 C1.59414885,4.21647751 2.27758635,3.95660251 3.22933635,3.95660251 C3.40652385,3.95660251 3.59383635,3.96504001 3.78789885,3.98360251 C3.80308635,3.98529001 3.81827385,3.98697751 3.83514885,3.98866501 C3.65627385,4.58604001 3.51789885,5.23235251 3.42677385,5.91072751 L3.42677385,5.91072751 Z M9.47308635,5.13110251 C9.27396135,5.00454001 9.06977385,4.87966501 8.86221135,4.75985251 C8.65464885,4.64004001 8.44539885,4.52529001 8.23614885,4.41729001 C8.56858635,4.30929001 8.89596135,4.21985251 9.21489885,4.14897751 C9.31277385,4.45610251 9.39883635,4.78347751 9.47308635,5.13110251 L9.47308635,5.13110251 Z M7.00596135,1.41185251 C7.65733635,1.41185251 8.34583635,2.08516501 8.87233635,3.24279001 C8.26652385,3.38622751 7.64046135,3.58872751 7.00933635,3.84691501 C6.37652385,3.58704001 5.74877385,3.38285251 5.14296135,3.23941501 C5.66608635,2.08347751 6.35458635,1.41185251 7.00596135,1.41185251 Z M4.79533635,4.14560251 C5.11596135,4.21647751 5.44333635,4.30591501 5.77746135,4.41560251 C5.56821135,4.52360251 5.35896135,4.63835251 5.14971135,4.75816501 C4.94046135,4.87797751 4.73627385,5.00285251 4.53714885,5.12941501 C4.61139885,4.78179001 4.69746135,4.45272751 4.79533635,4.14560251 Z M4.53714885,10.826415 C4.73627385,10.9529775 4.94046135,11.0778525 5.14802385,11.197665 C5.35558635,11.3174775 5.56483635,11.4322275 5.77408635,11.5402275 C5.44164885,11.6482275 5.11427385,11.737665 4.79533635,11.80854 C4.69746135,11.5031025 4.61139885,11.17404 4.53714885,10.826415 L4.53714885,10.826415 Z M7.00596135,14.5473525 C6.35458635,14.5473525 5.66608635,13.87404 5.13958635,12.716415 C5.74539885,12.5729775 6.37146135,12.3704775 7.00258635,12.11229 C7.63539885,12.372165 8.26314885,12.5763525 8.86896135,12.71979 C8.34414885,13.87404 7.65564885,14.5473525 7.00596135,14.5473525 Z M9.21489885,11.811915 C8.89427385,11.74104 8.56689885,11.6516025 8.23277385,11.541915 C8.44202385,11.433915 8.65127385,11.319165 8.86052385,11.1993525 C9.06977385,11.07954 9.27396135,10.954665 9.47308635,10.8281025 C9.39883635,11.1757275 9.31277385,11.50479 9.21489885,11.811915 Z M9.67896135,9.52535251 C9.27227385,9.82066501 8.83689885,10.1024775 8.37958635,10.3657275 C7.92396135,10.6289775 7.46158635,10.8618525 7.00258635,11.06604 C6.54358635,10.8618525 6.08289885,10.62729 5.62727385,10.36404 C5.17164885,10.10079 4.73796135,9.81729001 4.33127385,9.52197751 C4.27896135,9.03260251 4.25027385,8.51622751 4.25027385,7.97791501 C4.25027385,7.43791501 4.27896135,6.92154001 4.33127385,6.43216501 C4.73796135,6.13685251 5.17333635,5.85504001 5.63064885,5.59179001 C6.08627385,5.32854001 6.54864885,5.09566501 7.00764885,4.89147751 C7.46664885,5.09566501 7.92733635,5.33022751 8.38296135,5.59347751 C8.83858635,5.85672751 9.27227385,6.14022751 9.67896135,6.43554001 C9.73127385,6.92491501 9.75996135,7.44129001 9.75996135,7.97960251 C9.75996135,8.51960251 9.73127385,9.03429001 9.67896135,9.52535251 L9.67896135,9.52535251 Z M10.2257113,3.98697751 C10.4180863,3.96841501 10.6037113,3.95997751 10.7792113,3.95997751 C11.7343363,3.95997751 12.4194613,4.21985251 12.6962113,4.70079001 C13.0235863,5.26947751 12.7974613,6.17904001 12.0735238,7.19491501 L12.0482113,7.23035251 C11.6195863,6.77472751 11.1285238,6.33260251 10.5851488,5.91241501 C10.4940238,5.23404001 10.3556488,4.58941501 10.1767738,3.99204001 C10.1936488,3.99035251 10.2088363,3.98866501 10.2257113,3.98697751 L10.2257113,3.98697751 Z M10.7049613,7.26241501 C10.9665238,7.49866501 11.2112113,7.73829001 11.4339613,7.98129001 C11.2112113,8.22429001 10.9682113,8.46391501 10.7049613,8.70016501 C10.7150863,8.46222751 10.7218363,8.22260251 10.7218363,7.97960251 C10.7218363,7.73829001 10.7167738,7.49866501 10.7049613,7.26241501 L10.7049613,7.26241501 Z M12.6928363,11.2634775 C12.3654613,11.832165 11.4643363,12.0903525 10.2223363,11.973915 C10.2071488,11.9722275 10.1919613,11.97054 10.1750863,11.9688525 C10.3539613,11.3714775 10.4923363,10.7268525 10.5834613,10.0484775 C11.1268363,9.62997751 11.6178988,9.18616501 12.0465238,8.73222751 C12.0549613,8.74404001 12.0650863,8.75585251 12.0718363,8.76766501 C12.7957738,9.78522751 13.0202113,10.69479 12.6928363,11.2634775 L12.6928363,11.2634775 Z" id="形状" stroke="#000000" stroke-width="0.1"></path>
                    <path d="M6.28425,7.3845 L5.85225,7.3845 L5.85225,6.9525 C5.85225,6.841125 5.7375,6.75 5.5940625,6.75 C5.4523125,6.75 5.335875,6.841125 5.335875,6.9525 L5.335875,7.3845 L4.903875,7.3845 C4.7925,7.3845 4.701375,7.49925 4.701375,7.6426875 C4.701375,7.7844375 4.7925,7.900875 4.903875,7.900875 L5.335875,7.900875 L5.335875,8.332875 C5.335875,8.44425 5.450625,8.535375 5.5940625,8.535375 C5.7358125,8.535375 5.85225,8.44425 5.85225,8.332875 L5.85225,7.900875 L6.28425,7.900875 C6.395625,7.900875 6.48675,7.786125 6.48675,7.6426875 C6.48675,7.49925 6.395625,7.3845 6.28425,7.3845 L6.28425,7.3845 Z M8.758125,7.3845 L7.3794375,7.3845 C7.2680625,7.3845 7.1769375,7.49925 7.1769375,7.6426875 C7.1769375,7.7844375 7.2680625,7.900875 7.3794375,7.900875 L8.758125,7.900875 C8.8695,7.900875 8.960625,7.786125 8.960625,7.6426875 C8.9623125,7.49925 8.8711875,7.3845 8.758125,7.3845 L8.758125,7.3845 Z" id="形状"></path>
                </g>
            </g>
        </g>
    </g>
</svg>