<?xml version="1.0" encoding="UTF-8"?>
<svg width="33px" height="31px" viewBox="0 0 33 31" version="1.1" xmlns="http://www.w3.org/2000/svg" xmlns:xlink="http://www.w3.org/1999/xlink">
    <title>数据 (2)备份 5</title>
    <g id="页面-1" stroke="none" stroke-width="1" fill="none" fill-rule="evenodd">
        <g id="1备份-2" transform="translate(-1360.000000, -819.000000)" fill="#FFFFFF" fill-rule="nonzero">
            <g id="数据-(2)备份-5" transform="translate(1360.000000, 819.000000)">
                <path d="M7.10542736e-15,28.7019231 L7.10542736e-15,1.29807694 C7.10542736e-15,0.58116884 0.578215216,1.61648472e-12 1.29147983,1.61648472e-12 C2.00474445,1.61648472e-12 2.58295966,0.58116884 2.58295966,1.29807694 L2.58295966,27.4038462 L30.7085202,27.4038462 C31.4217848,27.4038462 32,27.985015 32,28.7019231 C32,29.4188312 31.4217848,30 30.7085202,30 L1.29147985,30 C0.948958099,30 0.620465146,29.8632387 0.378265692,29.6198021 C0.136066237,29.3763654 7.10542736e-15,29.0461945 7.10542736e-15,28.7019231 Z M9,13.2580645 C9,12.8086014 9.28589837,12.3932803 9.74999999,12.1685487 C10.2141016,11.9438171 10.7858984,11.9438171 11.25,12.1685487 C11.7141016,12.3932803 12,12.8086014 12,13.2580645 L12,23.7419355 C12,24.1913986 11.7141016,24.6067197 11.25,24.8314513 C10.7858984,25.0561829 10.2141016,25.0561829 9.74999999,24.8314513 C9.28589837,24.6067197 9,24.1913986 9,23.7419355 L9,13.2580645 Z M17,8.31707317 C17,7.58967374 17.6715729,7 18.5,7 C19.3284271,7 20,7.58967374 20,8.31707317 L20,23.6829268 C20,24.4103263 19.3284271,25 18.5,25 C17.6715729,25 17,24.4103263 17,23.6829268 L17,8.31707317 Z M26,2.32515337 C26,1.59329137 26.6715729,1 27.5,1 C28.3284271,1 29,1.59329137 29,2.32515337 L29,23.6748466 C29,24.4067086 28.3284271,25 27.5,25 C26.6715729,25 26,24.4067086 26,23.6748466 L26,2.32515337 Z" id="形状"></path>
            </g>
        </g>
    </g>
</svg>