<svg t="1630477457262" class="icon" viewBox="0 0 1024 1024" version="1.1" xmlns="http://www.w3.org/2000/svg" p-id="14896" width="200" height="200"><path d="M512 85.333333a42.666667 42.666667 0 0 1 42.666667 42.666667v341.333333h341.333333a42.666667 42.666667 0 0 1 42.666667 42.666667c0 235.648-191.018667 426.666667-426.666667 426.666667S85.333333 747.648 85.333333 512c0-231.68 184.618667-420.181333 414.72-426.496L512 85.333333z m-42.666667 87.978667A341.376 341.376 0 0 0 512 853.333333a341.376 341.376 0 0 0 338.688-298.666666H469.333333V173.312z m232.405334-43.562667a428.288 428.288 0 0 1 192.64 192.768 42.666667 42.666667 0 1 1-76.416 37.973334 342.954667 342.954667 0 0 0-154.24-154.325334 42.666667 42.666667 0 1 1 37.973333-76.416z" fill="#333333" p-id="14897"></path></svg>