<?xml version="1.0" encoding="UTF-8"?>
<svg width="18px" height="17px" viewBox="0 0 18 17" version="1.1" xmlns="http://www.w3.org/2000/svg" xmlns:xlink="http://www.w3.org/1999/xlink">
    <title>形状</title>
    <g id="页面-1" stroke="none" stroke-width="1" fill="none" fill-rule="evenodd" fill-opacity="0.701796738">
        <g id="5" transform="translate(-523.000000, -486.000000)" fill="#5F4FFB" fill-rule="nonzero">
            <path d="M540.256198,487.965938 L536.288017,487.965938 L536.288017,486 L534.800413,486 L534.800413,487.965938 L529.199587,487.965938 L529.199587,486 L527.711983,486 L527.711983,487.965938 L523.743802,487.965938 C523.334711,487.965938 523,488.287637 523,488.680824 L523,502.285114 C523,502.678301 523.334711,503 523.743802,503 L540.256198,503 C540.665289,503 541,502.678301 541,502.285114 L541,488.680824 C541,488.287637 540.665289,487.965938 540.256198,487.965938 Z M535,498 L526,498 L526,497 L535,497 L535,498 Z M538,494 L526,494 L526,493 L538,493 L538,494 Z" id="形状"></path>
        </g>
    </g>
</svg>