<?xml version="1.0" encoding="UTF-8"?>
<svg width="20px" height="20px" viewBox="0 0 20 20" version="1.1" xmlns="http://www.w3.org/2000/svg" xmlns:xlink="http://www.w3.org/1999/xlink">
    <title>编组</title>
    <g id="页面-1" stroke="none" stroke-width="1" fill="none" fill-rule="evenodd">
        <g id="5" transform="translate(-1543.000000, -20.000000)">
            <g id="编组" transform="translate(1543.000000, 20.000000)">
                <rect id="矩形" fill="#D8D8D8" opacity="0" x="0" y="0" width="20" height="20"></rect>
                <g id="中文" transform="translate(0.678930, 0.784778)" fill="#000000" fill-rule="nonzero">
                    <path d="M2.02176,1.34784 C1.64956426,1.34784 1.34784,1.64956426 1.34784,2.02176 L1.34784,16.51104 C1.34784,16.8832357 1.64956426,17.18496 2.02176,17.18496 L16.51104,17.18496 C16.8832357,17.18496 17.18496,16.8832357 17.18496,16.51104 L17.18496,2.02176 C17.18496,1.64956426 16.8832357,1.34784 16.51104,1.34784 L2.02176,1.34784 Z M2.02176,0 L16.51104,0 C17.6276272,0 18.5328,0.905172784 18.5328,2.02176 L18.5328,16.51104 C18.5328,17.6276272 17.6276272,18.5328 16.51104,18.5328 L2.02176,18.5328 C0.905172784,18.5328 0,17.6276272 0,16.51104 L0,2.02176 C0,0.905172784 0.905172784,0 2.02176,0 Z" id="形状"></path>
                    <path d="M8.80678656,3.83864832 L10.0622995,3.83864832 L10.0622995,5.82671232 L14.1900595,5.82671232 L14.1900595,10.8615686 L10.0622995,10.8615686 L10.0622995,14.7453696 L8.80678656,14.7453696 L8.80678656,10.8615686 L4.6904832,10.8615686 L4.6904832,5.82738624 L8.80678656,5.82738624 L8.80678656,3.8379744 L8.80678656,3.83864832 Z M5.91095232,9.67546944 L8.80678656,9.67546944 L8.80678656,7.01348544 L5.9102784,7.01348544 L5.9102784,9.67546944 L5.91095232,9.67546944 Z M10.0622995,9.67546944 L12.9695904,9.67546944 L12.9695904,7.01348544 L10.0616256,7.01348544 L10.0616256,9.67546944 L10.0622995,9.67546944 Z" id="形状"></path>
                </g>
            </g>
        </g>
    </g>
</svg>