<?xml version="1.0" encoding="UTF-8"?>
<svg width="20px" height="20px" viewBox="0 0 20 20" version="1.1" xmlns="http://www.w3.org/2000/svg" xmlns:xlink="http://www.w3.org/1999/xlink">
    <title>编组 2</title>
    <g id="页面-1" stroke="none" stroke-width="1" fill="none" fill-rule="evenodd">
        <g id="5" transform="translate(-1499.000000, -20.000000)">
            <g id="编组-2" transform="translate(1499.000000, 20.000000)">
                <g id="编组备份">
                    <rect id="矩形" fill="#D8D8D8" opacity="0" x="0" y="0" width="20" height="20"></rect>
                    <g id="中文" transform="translate(0.678930, 0.784778)" fill="#000000" fill-rule="nonzero">
                        <path d="M2.02176,1.34784 C1.64956426,1.34784 1.34784,1.64956426 1.34784,2.02176 L1.34784,16.51104 C1.34784,16.8832357 1.64956426,17.18496 2.02176,17.18496 L16.51104,17.18496 C16.8832357,17.18496 17.18496,16.8832357 17.18496,16.51104 L17.18496,2.02176 C17.18496,1.64956426 16.8832357,1.34784 16.51104,1.34784 L2.02176,1.34784 Z M2.02176,0 L16.51104,0 C17.6276272,0 18.5328,0.905172784 18.5328,2.02176 L18.5328,16.51104 C18.5328,17.6276272 17.6276272,18.5328 16.51104,18.5328 L2.02176,18.5328 C0.905172784,18.5328 0,17.6276272 0,16.51104 L0,2.02176 C0,0.905172784 0.905172784,0 2.02176,0 Z" id="形状"></path>
                    </g>
                </g>
                <path d="M7.09630978,15.0654905 L7.99096853,12.4884596 L12.0903751,12.4884596 L12.9850338,15.0654905 L14.5473484,15.0654905 L10.8752415,5.06549046 L9.21945518,5.06549046 L5.54734836,15.0654905 L7.09630978,15.0654905 Z M11.6497222,11.2279554 L8.43162135,11.2279554 L10.0206421,6.70414592 L10.0740546,6.70414592 L11.6497222,11.2279554 Z" id="A" fill="#000000" fill-rule="nonzero"></path>
            </g>
        </g>
    </g>
</svg>