<?xml version="1.0" encoding="UTF-8"?>
<svg width="20px" height="20px" viewBox="0 0 20 20" version="1.1" xmlns="http://www.w3.org/2000/svg" xmlns:xlink="http://www.w3.org/1999/xlink">
    <title>编组 6</title>
    <g id="页面-1" stroke="none" stroke-width="1" fill="none" fill-rule="evenodd">
        <g id="1备份-7" transform="translate(-1655.000000, -76.000000)">
            <g id="编组-6" transform="translate(1655.000000, 76.000000)">
                <rect id="矩形" fill="#D8D8D8" opacity="0" x="0" y="0" width="20" height="20"></rect>
                <path d="M10.6460177,18 L10.6460177,13.1733102 L15.7256637,13.1733102 L15.7256637,13.1819757 L17,13.1819757 L17,6.11958406 L10.6460177,6.11958406 L10.6460177,3 L9.33628319,3 L9.33628319,6.11958406 L3,6.11958406 L3,13.1819757 L4.27433628,13.1819757 L4.27433628,13.1733102 L9.33628319,13.1733102 L9.33628319,18 L10.6460177,18 Z M9.33628319,11.9601386 L4.27433628,11.9601386 L4.27433628,7.33275563 L9.33628319,7.33275563 L9.33628319,11.9601386 Z M15.7256637,11.9601386 L10.6460177,11.9601386 L10.6460177,7.33275563 L15.7256637,7.33275563 L15.7256637,11.9601386 Z" id="中" stroke="#000000" stroke-width="0.1" fill="#000000" fill-rule="nonzero"></path>
            </g>
        </g>
    </g>
</svg>