<?xml version="1.0" encoding="UTF-8"?>
<svg width="20px" height="20px" viewBox="0 0 20 20" version="1.1" xmlns="http://www.w3.org/2000/svg" xmlns:xlink="http://www.w3.org/1999/xlink">
    <title>编组 5</title>
    <g id="页面-1" stroke="none" stroke-width="1" fill="none" fill-rule="evenodd">
        <g id="1备份-7" transform="translate(-1577.000000, -21.000000)">
            <g id="编组-5" transform="translate(1577.000000, 21.000000)">
                <rect id="矩形" fill="#D8D8D8" opacity="0" x="0" y="0" width="20" height="20"></rect>
                <g id="编组-2" transform="translate(1.000000, 4.000000)" fill="#000000" fill-rule="nonzero" stroke="#000000" stroke-width="0.2">
                    <polygon id="E" points="8.52 12 8.52 10.864 1.464 10.864 1.464 6.672 7.864 6.672 7.864 5.536 1.464 5.536 1.464 1.712 8.248 1.712 8.248 0.576 0.152 0.576 0.152 12"></polygon>
                    <polygon id="N" points="10.464 12 10.464 2.608 10.512 2.608 17.008 12 18.352 12 18.352 0.576 17.04 0.576 17.04 9.872 16.992 9.872 10.528 0.576 9.152 0.576 9.152 12"></polygon>
                </g>
            </g>
        </g>
    </g>
</svg>