<?xml version="1.0" encoding="UTF-8"?>
<svg width="96px" height="24px" viewBox="0 0 96 24" version="1.1" xmlns="http://www.w3.org/2000/svg" xmlns:xlink="http://www.w3.org/1999/xlink">
    <title>编组 11</title>
    <g id="页面-1" stroke="none" stroke-width="1" fill="none" fill-rule="evenodd">
        <g id="2" transform="translate(-59.000000, -18.000000)" fill="#5F4FFB" fill-rule="nonzero">
            <g id="编组-11" transform="translate(59.000000, 18.000000)">
                <polygon id="路径" points="4.30409357 24 4.30409357 10.2290749 9.71111111 23.7885463 13.3157895 23.7885463 18.6959064 10.2290749 18.6959064 24 23 24 23 -7.28306304e-13 19.1263158 -7.28306304e-13 11.5134503 17.9735683 3.87368421 -7.28306304e-13 6.75015599e-14 -7.28306304e-13 6.75015599e-14 24"></polygon>
                <path d="M36.0355872,7 L36.3069988,7.00647619 C37.5614077,7.06692063 38.6453144,7.55047619 39.5587189,8.45714286 C40.519573,9.44656085 41,10.6428571 41,12.0460317 L41,12.0460317 L41,18.9539683 L40.9935943,19.2317249 C40.9338078,20.5144903 40.455516,21.6092063 39.5587189,22.515873 C38.5800712,23.505291 37.405694,24 36.0355872,24 L36.0355872,24 L30.9644128,24 L30.6931198,23.9934039 C29.4398181,23.9318401 28.3647687,23.4393298 27.4679715,22.515873 C26.4893238,21.5444444 26,20.3571429 26,18.9539683 L26,18.9539683 L26,12.0460317 L26.0065243,11.7681552 C26.067418,10.4842704 26.554567,9.38059965 27.4679715,8.45714286 C28.4288256,7.48571429 29.594306,7 30.9644128,7 L30.9644128,7 L36.0355872,7 Z M34.7022901,10 L32.2977099,10 L32.0928753,10.0086133 C31.554566,10.0545507 31.0795872,10.2842377 30.6679389,10.6976744 C30.2226463,11.1813953 30,11.7581395 30,12.427907 L30,12.427907 L30,19.572093 L30.0082462,19.791559 C30.0522257,20.3666954 30.2721233,20.8609819 30.6679389,21.2744186 C31.1310433,21.7581395 31.6743003,22 32.2977099,22 L32.2977099,22 L34.7022901,22 C35.3435115,22 35.8867684,21.7581395 36.3320611,21.2744186 C36.7773537,20.8093023 37,20.2418605 37,19.572093 L37,19.572093 L37,12.427907 L36.9917538,12.2080965 C36.9477743,11.6311226 36.7278767,11.1276486 36.3320611,10.6976744 C35.8867684,10.2325581 35.3435115,10 34.7022901,10 L34.7022901,10 Z" id="形状结合"></path>
                <path d="M45,5 C45.5490196,5 46.0196078,4.80392157 46.4117647,4.41176471 C46.8039216,4.01960784 47,3.54901961 47,3 C47,2.45098039 46.8039216,1.98039216 46.4117647,1.58823529 C46.0196078,1.19607843 45.5490196,1 45,1 C44.4509804,1 43.9803922,1.19607843 43.5882353,1.58823529 C43.1960784,1.98039216 43,2.45098039 43,3 C43,3.54901961 43.1960784,4.01960784 43.5882353,4.41176471 C43.9803922,4.80392157 44.4509804,5 45,5 Z" id="路径"></path>
                <polygon id="路径" points="47 24 47 7 43 7 43 24"></polygon>
                <path d="M53.8167939,24 L53.8167939,12.5015337 C53.8167939,11.7193252 54.0627651,11.0674847 54.5547074,10.5460123 C55.0296862,10.0419223 55.6318914,9.7898773 56.3613232,9.7898773 L56.3613232,9.7898773 L60,9.7898773 L60,7.18251534 L56.3613232,7.18251534 C55.4622561,7.18251534 54.6140797,7.40848671 53.8167939,7.86042945 L53.8167939,7.86042945 L53.8167939,7 L50,7 L50,24 L53.8167939,24 Z" id="路径"></path>
                <path d="M72.8846787,7 L73.1551821,7.00596805 C74.4005833,7.06166988 75.4087132,7.50728454 76.1795717,8.34281201 C77.040637,9.22011585 77.4711697,10.4375987 77.4711697,11.9952607 L77.4711697,11.9952607 L77.4711697,18.1453397 L77.4749918,18.529921 C77.5234047,20.9349868 78.0317408,22.7583465 79,24 L79,24 L75.3360791,24 L75.2742998,23.9458679 C75.1243822,23.8029144 74.9341021,23.5434439 74.7034596,23.1674566 C73.8423943,23.6508689 72.8056013,23.892575 71.5930807,23.892575 L71.5930807,23.892575 L66.9802306,23.892575 L66.7356677,23.8865364 C65.7686459,23.8382269 64.9363832,23.5000608 64.2388797,22.8720379 C63.4129599,22.1379674 63,21.090574 63,19.7298578 L63,19.7298578 L63,17.3933649 L63.0060518,17.1359013 C63.0585012,16.0350695 63.451871,15.1272098 64.1861614,14.4123223 C64.9417902,13.6961559 65.8643602,13.3380727 66.9538715,13.3380727 L66.9538715,13.3380727 L73.490939,13.3380727 L73.490939,11.9952607 L73.4859308,11.7699368 C73.4558814,11.1108847 73.2906096,10.6041074 72.9901153,10.2496051 C72.6738056,9.87361769 72.1905546,9.68562401 71.5403624,9.68562401 L71.5403624,9.68562401 L63.7116969,9.68562401 L63.7116969,7 L72.8846787,7 Z M73.7548638,16 L68.3618677,16 L68.2063603,16.0045718 C67.4021201,16.0533374 67,16.492228 67,17.3212435 L67,17.3212435 L67,19.5751295 L67.0048066,19.737831 C67.0560769,20.579277 67.5175097,21 68.3891051,21 L68.3891051,21 L71.7937743,21 C72.7561608,21 73.4915694,20.8186528 74,20.4559585 C73.8365759,19.6096718 73.7548638,18.806563 73.7548638,18.0466321 L73.7548638,18.0466321 L73.7548638,16 Z" id="形状结合"></path>
                <path d="M89.6434635,7 L89.9507346,7.0063593 C91.5749761,7.07419184 92.9666101,7.68468468 94.1256367,8.83783784 C95.3752122,10.0810811 96,11.5765766 96,13.3243243 L96,13.3243243 L96,16.8648649 L84.0747029,16.8648649 L84.0747029,18.0540541 L84.0813054,18.276464 C84.129724,19.0816441 84.4444444,19.7732733 85.0254669,20.3513514 C85.6593096,20.981982 86.4289757,21.2972973 87.3344652,21.2972973 L87.3344652,21.2972973 L95.9185059,21.2972973 L95.9185059,24 L85.9762309,24 L85.6878529,23.9939213 C84.1628706,23.9290813 82.846433,23.345522 81.7385399,22.2432432 C80.5795133,21.0900901 80,19.6936937 80,18.0540541 L80,18.0540541 L80,13.3243243 L80.0064857,13.024502 C80.0756663,11.4374201 80.6982922,10.0418654 81.8743633,8.83783784 C83.1058291,7.61261261 84.5998868,7 86.3565365,7 L86.3565365,7 L89.6434635,7 Z M88.2906574,10 L87.7093426,10 L87.4627067,10.0065657 C86.5675381,10.0547138 85.7731642,10.3676768 85.0795848,10.9454545 C84.3598616,11.5919192 84,12.359596 84,13.2484848 L84,13.2484848 L84,14 L92,14 L92,13.2484848 L91.9936119,13.0455083 C91.9425073,12.2422091 91.5847751,11.5421911 90.9204152,10.9454545 C90.1822376,10.3151515 89.3056517,10 88.2906574,10 L88.2906574,10 Z" id="形状结合"></path>
            </g>
        </g>
    </g>
</svg>