<?xml version="1.0" standalone="no"?><!DOCTYPE svg PUBLIC "-//W3C//DTD SVG 1.1//EN" "http://www.w3.org/Graphics/SVG/1.1/DTD/svg11.dtd"><svg t="1631002319182" class="icon" viewBox="0 0 1024 1024" version="1.1" xmlns="http://www.w3.org/2000/svg" p-id="11814" xmlns:xlink="http://www.w3.org/1999/xlink" width="200" height="200"><defs><style type="text/css"></style></defs><path d="M742.997055 682.967654h-454.038492a25.912585 25.912585 0 0 0-28.810703 28.128793 27.049102 27.049102 0 0 0 9.092135 22.162079 30.345001 30.345001 0 0 0 19.661742 5.682584H744.985959a25.685281 25.685281 0 0 0 20.059523-7.614663 29.776742 29.776742 0 0 0 6.02354-20.514129 24.548765 24.548765 0 0 0-28.071967-28.128793z m0-170.477531H288.617608a25.912585 25.912585 0 0 0-28.753877 28.412922 27.560534 27.560534 0 0 0 8.694354 21.934775 28.98118 28.98118 0 0 0 19.491265 5.682585h456.65248a25.798933 25.798933 0 0 0 20.059523-7.557837 29.890394 29.890394 0 0 0 6.02354-20.570956 24.548765 24.548765 0 0 0-28.015141-28.412922z m189.400537-312.542141L772.773797 36.573681A118.595536 118.595536 0 0 0 688.160116 0.432445H178.432297a150.53166 150.53166 0 0 0-84.443204 18.468399A99.274749 99.274749 0 0 0 57.222772 107.833289v788.685886c0 88.818794 36.254888 126.721632 121.209525 126.721632h673.897681a110.867221 110.867221 0 0 0 89.955311-30.799608 141.325873 141.325873 0 0 0 24.88972-95.922024V284.561664a121.720957 121.720957 0 0 0-34.663765-84.897811z m-185.53638-101.434131l130.244834 127.460368h-82.226996a52.109299 52.109299 0 0 1-48.017838-57.735058V98.513851z m159.623795 804.938077a48.529271 48.529271 0 0 1-54.382332 57.735057H171.897325a48.529271 48.529271 0 0 1-54.382332-57.735057V114.481913a48.586096 48.586096 0 0 1 54.609635-51.143259h448.924166a71.771041 71.771041 0 0 1 71.259608 72.282473v38.925703a93.705816 93.705816 0 0 0 42.903512 89.55753 205.539077 205.539077 0 0 0 99.95666 17.786489h38.868877a32.902164 32.902164 0 0 1 32.67486 33.129467v588.033831z m-637.756444-511.432594a29.435787 29.435787 0 0 0 19.54809 5.682584h456.652481a25.685281 25.685281 0 0 0 20.059522-7.614663 29.606265 29.606265 0 0 0 5.966714-20.514129 24.548765 24.548765 0 0 0-28.015141-28.412922H288.844912a25.855759 25.855759 0 0 0-28.753877 28.412922 27.674186 27.674186 0 0 0 8.637528 21.934776z" p-id="11815"></path></svg>