<?xml version="1.0" encoding="UTF-8"?>
<svg width="16px" height="18px" viewBox="0 0 16 18" version="1.1" xmlns="http://www.w3.org/2000/svg" xmlns:xlink="http://www.w3.org/1999/xlink">
    <title>编组 7</title>
    <g id="页面-1" stroke="none" stroke-width="1" fill="none" fill-rule="evenodd">
        <g id="8" transform="translate(-1571.000000, -182.000000)">
            <g id="编组-7" transform="translate(1571.000000, 183.000000)">
                <rect id="矩形" fill-opacity="0" fill="#D8D8D8" x="0" y="0" width="16" height="16"></rect>
                <g id="服务" transform="translate(1.182835, 0.603267)" fill="#262626" fill-rule="nonzero" stroke="#000000" stroke-width="0.4">
                    <path d="M1.31837994,15.0000007 C0.904743579,15.0000007 0.432016303,14.7551028 0.254743569,14.3265313 C0.195652657,14.1428579 0.136561762,13.9591844 0.136561762,13.7755109 L0.136561762,2.44898032 C0.136561762,1.10204154 1.20019812,7.29287422e-07 2.50019812,7.29287422e-07 L10.7729254,7.29287422e-07 C12.0729254,7.29287422e-07 13.1365618,1.10204154 13.1365618,2.44898032 L13.1365618,13.7755109 C13.1365618,14.4489803 12.6047436,15.0000007 11.9547436,15.0000007 C11.7774708,15.0000007 11.6001981,14.9387762 11.4229254,14.8775517 L6.99110721,12.6122456 C6.75474359,12.4897967 6.51837994,12.4897967 6.28201631,12.6122456 L1.85019813,14.8775517 C1.6729254,14.9387762 1.49565268,15.0000007 1.31837994,15.0000007 Z M2.50019812,0.918368079 C1.6729254,0.918368079 1.0229254,1.59183746 1.0229254,2.44898032 L1.0229254,13.7755109 C1.0229254,13.8367354 1.0229254,13.8979599 1.0820163,13.8979599 C1.14110721,14.0204089 1.31837993,14.0816334 1.43656177,14.0204089 L5.86837995,11.7551028 C6.34110722,11.5102048 6.9320163,11.5102048 7.40474358,11.7551028 L11.8365618,14.0204089 C12.0138345,14.1428579 12.2501981,13.9591844 12.2501981,13.7755109 L12.2501981,2.44898032 C12.2501981,1.59183746 11.6001981,0.918368079 10.7729254,0.918368079 L2.50019812,0.918368079 Z" id="形状"></path>
                    <path d="M5.44291071,3.70526786 L8.22005358,3.70526786 C8.46691071,3.70526786 8.65205358,3.89041073 8.65205358,4.19898214 C8.65205358,4.44583927 8.46691071,4.69269642 8.15833929,4.69269642 L5.38119642,4.69269642 C5.13433929,4.69269642 4.88748214,4.50755356 4.88748214,4.19898214 C4.94919642,3.89041071 5.13433927,3.70526786 5.44291071,3.70526786 Z" id="路径"></path>
                </g>
            </g>
        </g>
    </g>
</svg>