<?xml version="1.0" encoding="UTF-8"?>
<svg width="32px" height="32px" viewBox="0 0 32 32" version="1.1" xmlns="http://www.w3.org/2000/svg" xmlns:xlink="http://www.w3.org/1999/xlink">
    <title>头像（通用）</title>
    <g id="页面-1" stroke="none" stroke-width="1" fill="none" fill-rule="evenodd">
        <g id="2" transform="translate(-1826.000000, -14.000000)" fill="#000000" fill-rule="nonzero">
            <g id="头像（通用）" transform="translate(1826.000000, 14.000000)">
                <path d="M27.31375,4.68625 C21.061875,-1.5534375 10.9384375,-1.5534375 4.68625,4.68625 C-1.5534375,10.9384375 -1.5534375,21.0615625 4.68625,27.31375 C10.938125,33.553125 21.0615625,33.5534375 27.31375,27.31375 C33.5534375,21.061875 33.5534375,10.938125 27.31375,4.68625 Z M7.763125,27.31375 C7.7646875,27.29125 7.765625,27.26875 7.765625,27.2459375 C7.765625,25.0475 8.6225,22.979375 10.17625,21.4228125 C11.7325,19.86625 13.7978125,19.0125 15.999375,19.0125 C18.1978125,19.0125 20.2659375,19.869375 21.8225,21.4228125 C23.37875,22.979375 24.2328125,25.0475 24.2328125,27.2459375 C24.2328125,27.2690625 24.23375,27.291875 24.2353125,27.3146875 C21.9246875,29.0003125 19.07875,29.9965625 16,30 C12.9209375,29.9965625 10.074375,29 7.763125,27.31375 Z M10.915,11.81125 C10.915,9.0071875 13.1984375,6.7240625 16.0021875,6.7240625 C18.80625,6.7240625 21.089375,9.0071875 21.089375,11.81125 C21.089375,14.6153125 18.80625,16.89875 16.0021875,16.89875 C13.1984375,16.89875 10.915,14.615625 10.915,11.81125 Z M26.155625,25.6265625 C25.8121875,23.4340625 24.7740625,21.4709375 23.273125,19.9725 C22.2646875,18.9640625 21.0503125,18.1678125 19.696875,17.64375 C21.625625,16.4203125 22.9065625,14.264375 22.9065625,11.8115625 C22.9065625,7.9990625 19.8146875,4.9075 16.0025,4.9075 C12.19,4.9075 9.0984375,7.999375 9.0984375,11.8115625 C9.0984375,14.264375 10.379375,16.420625 12.308125,17.64375 C10.9546875,18.164375 9.7403125,18.9640625 8.731875,19.9725 C7.2303125,21.47375 6.1921875,23.4359375 5.845625,25.628125 C3.4659375,23.1190625 2.004375,19.7303125 2,16 C2.0090625,8.271875 8.271875,2.0090625 16,2 C23.728125,2.0090625 29.9909375,8.271875 30,16 C29.995625,19.7296875 28.5346875,23.1178125 26.155625,25.6265625 Z" id="形状"></path>
            </g>
        </g>
    </g>
</svg>