<?xml version="1.0" standalone="no"?><!DOCTYPE svg PUBLIC "-//W3C//DTD SVG 1.1//EN" "http://www.w3.org/Graphics/SVG/1.1/DTD/svg11.dtd"><svg t="1632721162371" class="icon" viewBox="0 0 1024 1024" version="1.1" xmlns="http://www.w3.org/2000/svg" p-id="4672" xmlns:xlink="http://www.w3.org/1999/xlink" width="200" height="200"><defs><style type="text/css"></style></defs><path d="M512 42.666667C252.8 42.666667 42.666667 252.8 42.666667 512s210.133333 469.333333 469.333333 469.333333 469.333333-210.133333 469.333333-469.333333S771.2 42.666667 512 42.666667z m0 853.376c-211.712 0-384-172.330667-384-384.042667s172.330667-384 384-384 384.042667 172.330667 384.042667 384-172.330667 384.042667-384.042667 384.042667z" p-id="4673"></path><path d="M639.957333 341.333333H384a42.666667 42.666667 0 0 0-42.666667 42.666667v255.957333A42.666667 42.666667 0 0 0 384 682.666667h255.957333A42.666667 42.666667 0 0 0 682.666667 639.957333V384a42.666667 42.666667 0 0 0-42.709334-42.666667z" p-id="4674"></path></svg>