<?xml version="1.0" standalone="no"?><!DOCTYPE svg PUBLIC "-//W3C//DTD SVG 1.1//EN" "http://www.w3.org/Graphics/SVG/1.1/DTD/svg11.dtd"><svg t="1632721284679" class="icon" viewBox="0 0 1448 1024" version="1.1" xmlns="http://www.w3.org/2000/svg" p-id="10632" xmlns:xlink="http://www.w3.org/1999/xlink" width="282.8125" height="200"><defs><style type="text/css"></style></defs><path d="M828.611208 483.676925L763.647897 548.640237V242.666738c0-1.687515-0.108373-3.368149-0.318237-4.945571V131.37675c0-21.901572-18.005322-39.801962-40.008386-39.905174-21.901572 0-39.803682 17.895229-39.803682 39.796802v417.263486l-64.963312-64.963311c-15.474909-15.583282-40.959656-15.583282-56.542937 0-15.583282 15.47835-15.583282 40.959656 0 56.541217l132.24545 132.455315c0.318237 0.423169 0.631313 0.736245 0.94955 1.054482 5.157156 5.157156 11.367074 8.530466 18.005322 10.317753 0.631313 0.103212 1.157694 0.313076 1.789007 0.421449l1.579143 0.314796c0.944389 0.209864 1.998871 0.318237 2.94498 0.421449h0.529821c1.054482 0.108373 2.210456 0.209864 3.36815 0.209864h0.209864c1.157694 0 2.210456-0.103212 3.37159-0.209864h0.524661c1.054482-0.103212 1.998871-0.209864 2.94498-0.421449l1.582583-0.314796c0.627873-0.108373 1.259186-0.318237 1.790727-0.421449 6.631367-1.789007 12.841285-5.162317 18.003602-10.317753 0.314796-0.421449 0.633033-0.739686 0.946109-1.054482l132.353824-132.346942c15.581562-15.48007 15.581562-40.959656 0-56.542938-15.476629-15.581562-40.957936-15.581562-56.539498 0.00172z m0 0" p-id="10633"></path><path d="M1127.633383 408.920521c0-22.323021-18.111974-40.429835-40.538208-40.326622-22.214649 0.108373-40.326623 18.213466-40.21825 40.536487l0.631313 441.165649-135.407176 0.209865c-0.837737 0-1.680634-0.103212-2.523532-0.103212l-185.733316 0.313076-185.728154-0.313076c-0.842897 0-1.685795 0.103212-2.530413 0.103212l-135.402016-0.209865 0.633033-441.165649c0.103212-22.323021-18.005322-40.428115-40.225131-40.536487-22.426233-0.103212-40.536487 18.003602-40.536487 40.326622l-0.736245 481.702137c-0.103212 22.426233 18.005322 40.538207 40.326623 40.538207 1.157694 0 2.311947 0 3.366429-0.103211l202.159495 0.313076v0.421448l38.640828-0.108372c0.842897 0 1.685795 0.108373 2.530412 0.108372l117.608279-0.209864 117.608278 0.209864c0.842897 0 1.685795-0.108373 2.523532-0.108372l38.645989 0.108372v-0.421448l202.154334-0.313076c1.052762 0.103212 2.210456 0.103212 3.371589 0.103211 22.317861 0 40.429835-18.111974 40.321463-40.538207l-0.942669-481.702137z m0 0" p-id="10634"></path></svg>