<?xml version="1.0" standalone="no"?><!DOCTYPE svg PUBLIC "-//W3C//DTD SVG 1.1//EN" "http://www.w3.org/Graphics/SVG/1.1/DTD/svg11.dtd"><svg t="1632730072797" class="icon" viewBox="0 0 1024 1024" version="1.1" xmlns="http://www.w3.org/2000/svg" p-id="6593" xmlns:xlink="http://www.w3.org/1999/xlink" width="200" height="200"><defs><style type="text/css"></style></defs><path d="M725.4 105.7H151.8c-27.1 0-49.2 22-49.2 49.1v711.8c0 27.1 22.1 49.1 49.2 49.1H866c27.1 0 49.2-22 49.2-49.1V294.8L725.4 105.7z m-399.4 40h338.8v241.9c0 12.9-10.5 23.3-23.5 23.3H349.5c-12.9 0-23.5-10.5-23.5-23.3V145.7z m5.4 727.6V612.5c0-4.1 3.4-7.4 7.5-7.4h363.4c4.1 0 7.5 3.3 7.5 7.4v260.8H331.4z m543.8-6.8c0 4.9-4.2 9.1-9.2 9.1H749.9V612.5c0-26.1-21.3-47.4-47.5-47.4H339c-26.2 0-47.5 21.3-47.5 47.4v263.2H151.8c-5 0-9.2-4.2-9.2-9.1V154.8c0-4.9 4.2-9.1 9.2-9.1H286v241.9c0 34.9 28.5 63.3 63.5 63.3h291.8c35 0 63.5-28.4 63.5-63.3V145.7h4l166.4 165.8v555z" fill="#403E3E" p-id="6594"></path><path d="M638.4 664H400.8c-11 0-20 9-20 20s9 20 20 20h237.6c11 0 20-9 20-20s-8.9-20-20-20zM638.4 765.1H400.8c-11 0-20 9-20 20s9 20 20 20h237.6c11 0 20-9 20-20s-8.9-20-20-20z" fill="#403E3E" p-id="6595"></path></svg>