<?xml version="1.0" standalone="no"?><!DOCTYPE svg PUBLIC "-//W3C//DTD SVG 1.1//EN" "http://www.w3.org/Graphics/SVG/1.1/DTD/svg11.dtd"><svg t="1632721148797" class="icon" viewBox="0 0 1024 1024" version="1.1" xmlns="http://www.w3.org/2000/svg" p-id="1736" xmlns:xlink="http://www.w3.org/1999/xlink" width="200" height="200"><defs><style type="text/css"></style></defs><path d="M522.52 895C312.18 895 141 723.85 141 513.5S312.18 132 522.52 132 904 303.16 904 513.5 732.87 895 522.52 895z m0-705.56c-178.7 0-324.09 145.38-324.09 324.09s145.39 324.06 324.09 324.06S846.61 692.2 846.61 513.5 701.23 189.42 522.52 189.42z" p-id="1737"></path><path d="M439.31 676V351.19a5.77 5.77 0 0 1 8.79-4.84l246.6 162.49a5.7 5.7 0 0 1 0 9.51L448.09 680.84a5.77 5.77 0 0 1-8.78-4.84z" p-id="1738"></path></svg>