<?xml version="1.0" encoding="UTF-8"?>
<svg width="400px" height="400px" viewBox="0 0 400 400" version="1.1" xmlns="http://www.w3.org/2000/svg" xmlns:xlink="http://www.w3.org/1999/xlink">
    <title>PlatON-竖-白底</title>
    <g id="PlatON-竖-白底" stroke="none" stroke-width="1" fill="none" fill-rule="evenodd">
        <g id="Wechatlogo-黑" transform="translate(35.000000, 10.000000)" fill-rule="nonzero">
            <g id="Group" transform="translate(0.000000, 305.203620)" fill="#1D2337">
                <path d="M180.067448,37.4841629 L180.067448,37.4841629 L180.067448,26.7375566 L166.189583,26.7375566 L166.189583,11.9502262 L166.103385,11.9502262 L153.777083,11.9502262 L153.777083,57 C153.777083,67.4886878 160.155729,73.9366516 170.499479,73.9366516 L181.791406,73.9366516 L181.791406,62.760181 L170.154687,62.760181 C167.051562,62.760181 166.189583,61.9004525 166.189583,58.8054299 L166.189583,37.4841629 L180.067448,37.4841629 L180.067448,37.4841629 Z" id="Shape"></path>
                <path d="M226.786719,0.429864253 C205.582031,0.429864253 188.342448,16.9366516 188.342448,37.2262443 C188.342448,57.5158371 205.582031,74.0226244 226.786719,74.0226244 C247.991406,74.0226244 265.23099,57.5158371 265.23099,37.2262443 C265.23099,16.9366516 247.991406,0.429864253 226.786719,0.429864253 Z M226.786719,62.0723982 C212.995052,62.0723982 201.789323,50.8959276 201.789323,37.2262443 C201.789323,23.5565611 212.995052,12.3800905 226.786719,12.3800905 C240.578385,12.3800905 251.784115,23.5565611 251.784115,37.2262443 C251.784115,50.8959276 240.578385,62.0723982 226.786719,62.0723982 Z" id="Shape"></path>
                <polygon id="Shape" points="317.553125 0.429864253 317.553125 48.5746606 282.298177 0.429864253 272.64401 0.429864253 272.64401 73.9366516 272.64401 73.9366516 272.730208 73.9366516 285.401302 73.9366516 285.401302 24.6742081 320.65625 73.9366516 330.310417 73.9366516 330.310417 0.429864253"></polygon>
                <polygon id="Shape" points="64.7346354 74.0226244 64.7346354 0.429864253 64.8208333 0.429864253 77.7505208 0.429864253 77.7505208 74.0226244 77.7505208 74.0226244"></polygon>
                <path d="M140.933594,22.6968326 L129.124479,22.6968326 L129.124479,27.8552036 C127.659115,26.6515837 126.021354,25.6199095 124.297396,24.8461538 C121.021875,23.2986425 117.401563,22.5248869 113.522656,22.5248869 C105.851042,22.5248869 99.4723958,24.8461538 94.7315104,29.4886878 C89.990625,34.1312217 87.5770833,40.321267 87.5770833,47.800905 C87.5770833,51.239819 88.1804687,54.5067873 89.3872396,57.5158371 C90.5940104,60.5248869 92.4041667,63.1900452 94.8177083,65.5972851 C97.3174479,68.0045249 100.161979,69.8959276 103.351302,71.1855204 C106.540625,72.4751131 109.988542,73.0769231 113.436458,73.0769231 C117.401563,73.0769231 121.021875,72.3031674 124.125,70.9276018 C125.676563,70.239819 127.228125,69.2941176 128.521094,68.1764706 L128.521094,74.1085973 L140.847396,74.1085973 L140.933594,22.6968326 Z M128.952083,47.800905 C128.952083,52.0135747 127.572917,55.4524887 124.986979,58.0316742 C122.314844,60.6968326 118.866927,61.9864253 114.643229,61.9864253 C110.419531,61.9864253 106.971615,60.6968326 104.299479,58.0316742 C101.627344,55.4524887 100.334375,51.9276018 100.334375,47.7149321 C100.334375,43.5022624 101.713542,40.0633484 104.299479,37.4841629 C106.971615,34.8190045 110.419531,33.5294118 114.643229,33.5294118 C118.866927,33.5294118 122.314844,34.9049774 124.986979,37.4841629 C127.659115,40.2352941 128.952083,43.6742081 128.952083,47.800905 Z" id="Shape"></path>
                <path d="M53.8736979,15.9909502 C52.4945312,12.9819005 50.684375,10.2307692 48.4432292,7.99547511 C46.1158854,5.67420814 43.44375,3.86877828 40.340625,2.57918552 C37.2375,1.20361991 33.8757812,0.515837104 30.4278646,0.515837104 L0.689583333,0.515837104 L0.689583333,74.1085973 L13.3606771,74.1085973 L13.3606771,51.4117647 L30.3416667,51.4117647 C33.8757812,51.4117647 37.1513021,50.7239819 40.2544271,49.3484163 C43.3575521,47.9728507 46.1158854,46.1674208 48.3570312,43.9321267 C50.684375,41.6108597 52.4945312,38.9457014 53.7875,35.8506787 C55.1666667,32.7556561 55.85625,29.4027149 55.85625,25.9638009 C55.85625,22.5248869 55.1666667,19 53.8736979,15.9909502 Z M43.1851562,25.7918552 C43.1851562,29.2307692 41.8921875,32.3257919 39.3924479,34.8190045 C36.8927083,37.3122172 33.7895833,38.60181 30.3416667,38.60181 L13.3606771,38.60181 L13.3606771,13.0678733 L30.3416667,13.0678733 C33.7895833,13.0678733 36.8927083,14.3574661 39.3924479,16.8506787 C41.8921875,19.2579186 43.1851562,22.2669683 43.1851562,25.7918552 Z" id="Shape"></path>
            </g>
            <g id="Group" transform="translate(39.651042, 0.000000)">
                <polygon id="Rectangle-path" fill="#FBB613" points="94.8177083 94.8280543 156.79401 94.8280543 156.79401 156.642534 94.8177083 156.642534"></polygon>
                <g transform="translate(34.479167, 34.389140)" fill="#1D2337" id="Shape">
                    <path d="M30.6002604,182.090498 L155.932031,182.090498 C170.413281,182.090498 182.222396,170.312217 182.222396,155.868778 L182.222396,30.8642534 L153.432292,30.8642534 L153.432292,153.289593 L30.6002604,153.289593 L30.6002604,182.090498 Z"></path>
                    <path d="M152.139323,29.4886878 L152.139323,0.687782805 L26.8075521,0.687782805 C12.3263021,0.687782805 0.5171875,12.4660633 0.5171875,26.9095023 L0.5171875,151.914027 L29.3072917,151.914027 L29.3072917,29.4886878 L152.139323,29.4886878 Z"></path>
                </g>
                <polygon id="Rectangle-path" fill="#00B6DC" points="216.701562 0.773755656 251.094531 0.773755656 251.094531 35.0769231 216.701562 35.0769231"></polygon>
                <polygon id="Rectangle-path" fill="#EA106E" points="0.603385417 216.479638 34.9963542 216.479638 34.9963542 250.782805 0.603385417 250.782805"></polygon>
            </g>
        </g>
    </g>
</svg>