<?xml version="1.0" encoding="UTF-8"?>
<svg width="24px" height="25px" viewBox="0 0 24 25" version="1.1" xmlns="http://www.w3.org/2000/svg" xmlns:xlink="http://www.w3.org/1999/xlink">
    <title>512*512</title>
    <defs>
        <polygon id="path-1" points="8.38926175e-05 -1.48029737e-14 21.8661913 -1.48029737e-14 21.8661913 24.996741 8.38926175e-05 24.996741"></polygon>
        <polygon id="path-3" points="8.38926175e-05 -1.48029737e-14 21.8661913 -1.48029737e-14 21.8661913 24.996741 8.38926175e-05 24.996741"></polygon>
        <polygon id="path-5" points="8.38926175e-05 -1.48029737e-14 21.8661913 -1.48029737e-14 21.8661913 24.996741 8.38926175e-05 24.996741"></polygon>
        <polygon id="path-7" points="8.38926176e-05 0 21.8661913 0 21.8661913 24.996741 8.38926176e-05 24.996741"></polygon>
    </defs>
    <g id="页面-1" stroke="none" stroke-width="1" fill="none" fill-rule="evenodd">
        <g id="1备份" transform="translate(-795.000000, -448.000000)">
            <g id="512*512" transform="translate(795.000000, 448.000000)">
                <g id="Fill-1-Clipped">
                    <mask id="mask-2" fill="white">
                        <use xlink:href="#path-1"></use>
                    </mask>
                    <g id="path-1"></g>
                    <path d="M19.0676175,8.6457547 L19.0676175,17.3440824 L11.6989094,21.6933534 L11.6989094,24.996741 L20.721141,19.6716981 C21.4277265,19.2544597 21.8662752,18.4783019 21.8662752,17.6442539 L21.8662752,6.9939537 L19.0676175,8.6457547 Z M2.79853188,8.6457547 L8.38926176e-05,6.9939537 L8.38926176e-05,17.6442539 C8.38926176e-05,18.4783019 0.438422819,19.2544597 1.14500839,19.6716981 L10.1670302,24.996741 L10.1670302,21.6933534 L2.79853188,17.3440824 L2.79853188,8.6457547 Z M10.9331796,2.94035163 L18.3018876,7.28962265 L21.1001259,5.6378216 L12.0781041,0.312778731 C11.3715185,-0.104459691 10.4946309,-0.104459691 9.7880453,0.312778731 L0.76581376,5.6378216 L3.56447148,7.28962265 L10.9331796,2.94035163 Z" id="Fill-1" fill="#122039" fill-rule="nonzero" mask="url(#mask-2)"></path>
                </g>
                <g id="Path-Clipped">
                    <mask id="mask-4" fill="white">
                        <use xlink:href="#path-3"></use>
                    </mask>
                    <g id="path-1"></g>
                    <path d="M13.9717702,6.53726415 L10.9331795,8.330789 L7.89395975,6.53726415 L5.0957215,8.18885075 L9.78825505,10.9585764 C10.4948406,11.375386 11.3717282,11.375386 12.0781041,10.9585764 L16.7704278,8.1890652 L13.9717702,6.53726415 Z" id="Path" fill="#FCB811" fill-rule="nonzero" mask="url(#mask-4)"></path>
                </g>
                <g id="Path-Clipped">
                    <mask id="mask-6" fill="white">
                        <use xlink:href="#path-5"></use>
                    </mask>
                    <g id="path-1"></g>
                    <path d="M11.6989094,19.8856776 L14.4973574,18.2340909 L14.4973574,14.6468268 L17.5361577,12.8533019 L17.5361577,9.54969985 L12.8438339,12.319211 C12.1372483,12.736235 11.6989094,13.5123928 11.6989094,14.3466553 L11.6989094,19.8856776 Z" id="Path" fill="#00BEDE" fill-rule="nonzero" mask="url(#mask-6)"></path>
                </g>
                <g id="Path-Clipped" transform="translate(2.000000, 0.000000)">
                    <mask id="mask-8" fill="white">
                        <use xlink:href="#path-7"></use>
                    </mask>
                    <g id="path-1"></g>
                    <path d="M2.32999161,12.8533019 L5.36879195,14.6468267 L5.36879195,18.2340909 L8.1670302,19.8856775 L8.1670302,14.3466552 C8.1670302,13.5123928 7.728901,12.736235 7.0221057,12.319211 L2.32999161,9.54969985 L2.32999161,12.8533019 Z" id="Path" fill="#EC0A6E" fill-rule="nonzero" mask="url(#mask-8)"></path>
                </g>
            </g>
        </g>
    </g>
</svg>