<?xml version="1.0" encoding="UTF-8"?>
<svg width="20px" height="20px" viewBox="0 0 20 20" version="1.1" xmlns="http://www.w3.org/2000/svg" xmlns:xlink="http://www.w3.org/1999/xlink">
    <title>2.icon_zhong</title>
    <g id="2期" stroke="none" stroke-width="1" fill="none" fill-rule="evenodd">
        <g id="1.首页" transform="translate(-1263.000000, -13.000000)" fill="#1CC2EB" fill-rule="nonzero">
            <g id="2.icon_zhong" transform="translate(1262.999621, 13.000000)">
                <path d="M9.99998236,0 C15.522912,0 19.9999295,4.47705275 19.9999295,9.99998236 C19.9999295,15.522665 15.522912,20 9.99998236,20 C4.47733498,20 -1.97386552e-12,15.522665 -1.97386552e-12,9.99998236 C-1.97386552e-12,4.47705275 4.47733498,0 9.99998236,0 Z M10.5399338,5 L9.44969894,5 L9.44969894,6.85224839 L5.50037879,6.85224839 L5.50037879,12.0235546 L6.55723911,12.0235546 L6.55723911,11.4132762 L9.44969894,11.4132762 L9.44969894,15 L10.5399338,15 L10.5399338,11.4132762 L13.4435185,11.4132762 L13.4435185,12.0235546 L14.5003788,12.0235546 L14.5003788,6.85224839 L10.5399338,6.85224839 L10.5399338,5 Z M9.44969894,7.84796574 L9.44969894,10.4175589 L6.55723911,10.4175589 L6.55723911,7.84796574 L9.44969894,7.84796574 Z M13.4435185,7.84796574 L13.4435185,10.4175589 L10.5399338,10.4175589 L10.5399338,7.84796574 L13.4435185,7.84796574 Z" id="形状"></path>
            </g>
        </g>
    </g>
</svg>