<?xml version="1.0" encoding="UTF-8"?>
<svg width="14px" height="14px" viewBox="0 0 14 14" version="1.1" xmlns="http://www.w3.org/2000/svg" xmlns:xlink="http://www.w3.org/1999/xlink">
    <title>1.icon1</title>
    <g id="3期" stroke="none" stroke-width="1" fill="none" fill-rule="evenodd">
        <g id="8.My-Algorithms备份" transform="translate(-465.000000, -333.000000)" fill="#FFFFFF">
            <g id="1.icon1" transform="translate(465.000000, 333.000000)">
                <path d="M0,7 C0,10.8652874 3.13471264,14 7,14 C10.8652874,14 14,10.8652874 14,7 C14,3.13471264 10.8652874,0 7,0 C3.13471264,0 0,3.13471264 0,7 Z M7,3 C7.55228475,3 8,3.44771525 8,4 L8,8 C8,8.55228475 7.55228475,9 7,9 C6.44771525,9 6,8.55228475 6,8 L6,4 C6,3.44771525 6.44771525,3 7,3 Z M6,11 C6,10.4483307 6.4470405,10 7,10 C7.55140187,10 8,10.4483307 8,11 C8,11.5516693 7.5529595,12 7,12 C6.44859813,12 6,11.5516693 6,11 Z" id="形状"></path>
            </g>
        </g>
    </g>
</svg>