<?xml version="1.0" encoding="UTF-8"?>
<svg width="72px" height="150px" viewBox="0 0 72 150" version="1.1" xmlns="http://www.w3.org/2000/svg" xmlns:xlink="http://www.w3.org/1999/xlink">
    <title>1.image4</title>
    <g id="3期" stroke="none" stroke-width="1" fill="none" fill-rule="evenodd">
        <g id="1.cases" transform="translate(-782.000000, -214.000000)">
            <g id="1.image4" transform="translate(782.000000, 214.000000)">
                <g id="编组" transform="translate(1.301578, 100.800000)">
                    <path d="M49.0306993,1.63204371 C36.2270895,-1.61336346 20.9003659,-0.0169327269 10.4421741,6.40713438 C3.5143729,10.6628037 0.0370408196,16.2298078 0.0143491463,21.7893561 L0,21.7893561 L0,27.580567 L0.0146828474,27.580567 C-0.00400441293,33.1296416 3.41893439,38.6705504 10.2903401,42.8914259 C16.823373,46.9046039 25.3013825,49.0007514 33.8913488,49.1866141 C43.3769688,49.3907612 52.9999068,47.25982 60.2674157,42.795388 C67.2936587,38.4795397 70.7628151,32.8141899 70.6860639,27.1775983 L70.6965755,27.1775983 L70.6965755,21.4556199 L70.6868981,21.4556199 C70.6850628,21.2417091 70.6887335,21.0277984 70.6767203,20.8140652 C70.3740534,15.5376602 66.9614593,10.3240969 60.4287602,6.31109645 C58.7038593,5.25166149 56.8436426,4.32572101 54.8816472,3.5330975" id="Fill-9" fill="#8582EE"></path>
                    <path d="M49.6526514,1.79404779 C36.7264064,-1.66384994 21.0703198,-0.121207542 10.4422742,6.40724089 C-3.40415143,14.9125438 -3.46938999,28.6571503 10.2904402,37.1091975 C16.8234731,41.1223755 25.3014827,43.2187005 33.8912821,43.4043856 C43.3769021,43.6087103 52.99984,41.4775915 60.267349,37.0131596 C67.5351916,32.5489051 71.0090198,26.6408865 70.6766535,20.8143493 C70.3739866,15.5377667 66.9615594,10.3242034 60.4285266,6.31120297 C58.5664746,5.16726883 56.5462482,4.17901909 54.410895,3.34627623" id="Fill-11" fill="#CAC9FF"></path>
                </g>
                <g id="编组" transform="translate(8.677188, 4.800000)" fill="#8582EE">
                    <path d="M56.6302648,5.67012445 C56.5914653,5.71763036 53.1775978,10.3935463 46.2252877,14.2803364 L46.2252877,14.2803364 C46.2084532,14.2891856 45.8914844,14.4582507 45.7207349,14.553573 L45.7207349,14.553573 C37.5265229,18.9792291 33.8004964,15.2422533 33.4027222,14.7987097 L33.4027222,14.7987097 L30.9309429,12.0554767 L28.4832129,17.5490841 C28.0894469,18.4349294 24.3975703,26.3188911 16.2039996,31.0551985 L16.2039996,31.0551985 C16.0332501,31.1506761 15.8626609,31.2546923 15.6997675,31.3458229 L15.6997675,31.3458229 C9.80947113,34.6387892 6.44738957,34.5319785 5.55291875,34.4251679 L5.55291875,34.4251679 C5.39162862,34.4059171 5.31066289,34.3866664 5.3095406,34.3871321 L5.3095406,34.3871321 L1.32650805,33.1462345 L0.5747293,39.1270103 C0.445665129,40.1850257 -2.5899883,65.2051116 6.70792283,76.6799606 L6.70792283,76.6799606 C15.1009418,87.0348501 27.1183392,90.2613703 29.4440596,90.8033412 L29.4440596,90.8033412 L31.1626171,91.2 L32.8736393,88.8860278 C35.1806012,85.7543642 47.1396392,69.1235723 55.4447983,49.4333072 L55.4447983,49.4333072 C64.653086,27.6124178 61.4811536,6.06259152 61.3386219,5.15656391 L61.3386219,5.15656391 L60.5852399,0 L56.6302648,5.67012445 Z" id="Fill-33"></path>
                </g>
                <g id="编组" fill="#3C3588">
                    <path d="M65.3956113,10.5608435 C65.426674,10.5204668 65.4447,10.496396 65.4472751,10.4932901 L69.4175036,4.82129178 L60.8189364,0 L56.848547,5.67184306 C56.8482251,5.67230894 56.8472594,5.6735513 56.8458109,5.67541484 C56.8403387,5.68271371 56.8178062,5.71237508 56.7970441,5.73939643 C56.782237,5.75880831 56.7555199,5.79266265 56.7342749,5.81999459 C56.709972,5.8512089 56.6827721,5.88583971 56.649939,5.92699291 C56.6280503,5.95416955 56.5989189,5.99004272 56.5733284,6.02141233 C56.5128126,6.09641987 56.4381334,6.18633573 56.3566944,6.28339517 C56.321769,6.32516956 56.2870046,6.36632276 56.2483774,6.41197952 C56.1231611,6.55888869 55.9829766,6.7202403 55.8180065,6.90348852 C55.816397,6.90519677 55.8152704,6.90674972 55.8135,6.90845796 C55.6313085,7.11096278 55.4143526,7.3417313 55.1835553,7.58228342 C55.1272241,7.64082967 55.0699271,7.7001524 55.0106988,7.76071749 C54.7628412,8.01462498 54.4951871,8.28266433 54.1966314,8.56778614 C54.0852564,8.67431858 53.9619713,8.78690753 53.8433538,8.89716706 C53.7329445,9.00012771 53.6276854,9.10029305 53.5108383,9.20604902 C53.3870704,9.31801679 53.2512316,9.43510929 53.1208649,9.55002767 C52.994039,9.66152955 52.8723635,9.7710126 52.7392607,9.88499921 C52.5913509,10.01172 52.4304044,10.1424785 52.2742863,10.271684 C52.1460119,10.3779059 52.0238535,10.4824195 51.8901069,10.590039 C51.7224007,10.7251457 51.5414968,10.8630478 51.3652604,11.000018 C51.2276511,11.1070164 51.0969625,11.2124618 50.954042,11.3202366 C50.7761962,11.4547221 50.5848308,11.5907606 50.3987766,11.726178 C50.2452336,11.8381457 50.0981285,11.949337 49.9389524,12.0616154 C49.7405054,12.2015363 49.5283779,12.341923 49.3214007,12.4821545 C49.1610979,12.5908611 49.0077159,12.6995677 48.841941,12.8081189 C48.5937615,12.9710235 48.3310968,13.1326857 48.0711682,13.2946585 C47.9343637,13.3800708 47.8048017,13.4661043 47.6646173,13.5510507 C47.2579055,13.7978146 46.8376742,14.042715 46.4036014,14.2845095 C46.386863,14.2935166 46.0685108,14.462633 45.8971028,14.5579842 C45.5127625,14.7648372 45.1395275,14.951502 44.7746618,15.1237242 C44.6529863,15.1813387 44.5369438,15.2290143 44.4173606,15.2829017 C44.178355,15.3905212 43.9399932,15.4970537 43.7095178,15.5905413 C43.5648269,15.6492429 43.4252863,15.6997138 43.2839753,15.7531353 C43.0959897,15.8241051 42.9078433,15.8952303 42.7254909,15.9570377 C42.583697,16.0051792 42.4460877,16.0471089 42.3076737,16.0899704 C42.1341734,16.1437025 41.9611559,16.1966581 41.7929668,16.2424701 C41.6936628,16.2694915 41.5975777,16.2923199 41.5000442,16.3167012 C41.067259,16.4250972 40.6483152,16.513926 40.2530306,16.573404 C40.2129549,16.5793052 40.1760982,16.5817899 40.1365053,16.5873806 C39.8368229,16.629155 39.5519476,16.6532257 39.273993,16.6703082 L31.0502702,12.0591307 L28.5932608,17.5542479 C28.5760395,17.5926058 28.5443331,17.660625 28.5147189,17.7246066 C28.5011994,17.7536468 28.4931521,17.7719716 28.4770574,17.8061365 C28.4279687,17.9095631 28.3664872,18.0364392 28.2932565,18.1828825 C28.282795,18.2041579 28.2683098,18.2311792 28.2572045,18.2532311 C28.195562,18.3756037 28.1252284,18.5113316 28.0474912,18.6585514 C28.0181989,18.714147 27.9847221,18.7756439 27.9528547,18.834656 C27.8968453,18.938859 27.8340761,19.0520692 27.7708242,19.1662111 C27.6139013,19.448227 27.4399181,19.7530713 27.2377693,20.0885087 C27.2305267,20.1006217 27.2248936,20.1110265 27.2173291,20.1232948 C27.0266075,20.4388544 26.8082031,20.781746 26.576762,21.1351977 C26.5061065,21.2426619 26.429335,21.3549402 26.3549777,21.4656656 C26.1861448,21.7166225 26.0062066,21.9751889 25.8174164,22.239967 C25.7269644,22.3666878 25.6361906,22.4932533 25.5410712,22.6226142 C25.322184,22.9206255 25.087363,23.2260909 24.8433681,23.5354388 C24.7698156,23.6286158 24.7025399,23.7193082 24.6267341,23.813417 C24.290034,24.2305397 23.9279044,24.655893 23.5456564,25.0838863 C23.4650222,25.1739574 23.3777892,25.2648051 23.2952237,25.3551868 C22.8621166,25.8293028 22.4014877,26.3055928 21.9109227,26.7797088 C21.834795,26.8533187 21.7644614,26.9272391 21.6868852,27.0005384 C21.4704121,27.205528 21.239132,27.4077222 21.0117146,27.6106929 C20.8380533,27.7656774 20.6709908,27.9220596 20.4907307,28.0754911 C20.243195,28.2860713 19.9795646,28.4912161 19.719797,28.6977586 C19.5419511,28.8392324 19.3719916,28.9836569 19.1881907,29.1228013 C18.892371,29.3470474 18.5783643,29.5627523 18.2670938,29.7796996 C18.1037331,29.8938415 17.9490635,30.0123317 17.7811963,30.1239888 C17.2941721,30.4484003 16.7899267,30.7630282 16.2665287,31.0646113 C16.0952816,31.1599625 15.9238736,31.2641655 15.7603519,31.3553237 C15.3610436,31.5777063 14.9765424,31.780677 14.6002495,31.9730876 C14.4806662,32.0344292 14.3651066,32.0903354 14.2477766,32.1485711 C13.9912279,32.2762237 13.7387028,32.3987515 13.4932594,32.5128934 C13.3709401,32.570042 13.2497473,32.6256377 13.1301641,32.6795251 C12.8855254,32.789474 12.6474855,32.8921241 12.414435,32.9894941 C12.3172233,33.0300261 12.2175974,33.0733534 12.122478,33.1117113 C12.011264,33.1565916 11.9084191,33.1933966 11.7999412,33.2354815 C11.463402,33.3660847 11.1389339,33.4847302 10.8289509,33.589865 C10.7166102,33.6279123 10.6041086,33.6661148 10.4951479,33.7012115 C10.1542631,33.8105393 9.82689795,33.9085305 9.5201339,33.9900604 C9.48762271,33.9984464 9.45173164,34.0100935 9.41954234,34.0184794 C9.12758537,34.0941082 8.85156211,34.1580897 8.59082876,34.2116665 C8.5175981,34.2267302 8.45289761,34.2365138 8.38208114,34.2500244 C8.20037254,34.2846552 8.02123907,34.3177331 7.85578606,34.3428909 C7.75680396,34.3579545 7.66635202,34.3686699 7.57316399,34.3806276 C7.46082333,34.3950701 7.34703415,34.4104443 7.2430627,34.420849 C7.1555078,34.4295456 7.07535644,34.4352915 6.99407846,34.4415033 C6.89815434,34.4488022 6.80126454,34.4565669 6.71370964,34.4609152 C6.63790383,34.4646423 6.56837494,34.4663505 6.4986851,34.4680588 C6.42126983,34.4700776 6.34304983,34.4720964 6.27335999,34.4720964 C6.20978612,34.4719411 6.15136254,34.4706988 6.09422653,34.4691458 C6.03290591,34.4672823 5.9712634,34.4658846 5.91734632,34.462934 C5.86906236,34.460294 5.82528491,34.4573434 5.78295598,34.4540822 C5.72823417,34.4498892 5.67479993,34.445541 5.63021774,34.4407268 C5.59802844,34.4373103 5.56648293,34.4338938 5.53960486,34.4303221 C5.50065581,34.4251973 5.46396,34.4203832 5.4365991,34.4158796 C5.41760741,34.4127737 5.39378732,34.4092019 5.38042876,34.4068725 C5.37222049,34.4053195 5.36127613,34.403456 5.35516016,34.4022136 C5.35226312,34.4017478 5.34952703,34.4012819 5.34727378,34.400816 C5.34485959,34.4003501 5.34276728,34.3998842 5.34099687,34.3994183 C5.33906551,34.3991077 5.33745605,34.3987971 5.33584658,34.3984866 C5.33455901,34.3983313 5.33359333,34.398176 5.33262765,34.3980207 C5.33166197,34.3978654 5.33101819,34.3977101 5.33053535,34.3977101 C5.33021345,34.3975548 5.33005251,34.3975548 5.33005251,34.3977101 L1.3316584,33.1561257 L0.576819277,39.1388696 C0.447418285,40.1972057 -2.5999429,65.2248751 6.73382795,76.7032021 C10.3100594,81.0996065 14.5413431,84.2114098 18.4063125,86.3785529 L27.0048797,91.2 C23.1400712,89.0328568 18.9084656,85.9210536 15.3325561,81.5246492 C5.9986243,70.0463222 9.04598549,45.0186528 9.17554743,43.9603167 L9.93022561,37.9777281 L13.9286197,39.2191571 C13.9291026,39.2188466 13.9477723,39.2227289 13.9793179,39.2284749 C13.9888137,39.2301831 13.9957344,39.2315808 14.0079663,39.2335996 C14.0144042,39.2346867 14.0277628,39.2362396 14.0350054,39.2373267 C14.0639757,39.2421408 14.096326,39.2464891 14.138333,39.2519244 C14.1663377,39.2554962 14.1943424,39.2584468 14.2283021,39.2621739 C14.2741719,39.2671433 14.325031,39.271181 14.3816841,39.2755293 C14.4104936,39.2778587 14.43029,39.280654 14.4616745,39.2825176 C14.4776083,39.2836046 14.499336,39.2836046 14.5160745,39.2843811 C14.5704744,39.2873317 14.6303465,39.2888847 14.6926328,39.2904376 C14.7505735,39.2921458 14.8073876,39.2932329 14.8719272,39.2933882 C14.9422608,39.2935435 15.0188714,39.2915247 15.0970914,39.2896611 C15.1481114,39.2884188 15.1906013,39.2893505 15.2448403,39.2870211 C15.2654414,39.2862446 15.2913538,39.2834493 15.3122768,39.2823623 C15.4003146,39.278014 15.4962387,39.2704045 15.5928066,39.2629504 C15.6747284,39.2567386 15.7535922,39.2511479 15.841469,39.2422961 C15.9457623,39.2318913 16.0589077,39.2165171 16.1717312,39.2020747 C16.2470542,39.1924464 16.313847,39.1867005 16.3930326,39.1752086 C16.4121853,39.1724133 16.4352006,39.1671333 16.4545142,39.164338 C16.6201282,39.1391802 16.7984569,39.1062576 16.9801655,39.0714715 C17.0513039,39.0579608 17.1156825,39.0483325 17.189235,39.0331136 C17.4501293,38.9795368 17.7259916,38.9157105 18.0182705,38.8399265 C18.0253521,38.838063 18.0311462,38.8371312 18.0382279,38.8352677 C18.0634965,38.8287453 18.0935935,38.8180299 18.1188621,38.8113522 C18.4256261,38.7299776 18.7523475,38.632297 19.0930713,38.5228139 C19.2028368,38.4875619 19.3150165,38.4495146 19.4281619,38.4110014 C19.737823,38.3060219 20.0608426,38.1878424 20.3968989,38.0575498 C20.4709343,38.0288202 20.5353129,38.0094083 20.6107968,37.9794363 C20.6466879,37.9651492 20.685637,37.9474455 20.7218499,37.9328478 C20.8161646,37.8948005 20.9145029,37.8520944 21.0107489,37.8118729 C21.245087,37.7141923 21.4840926,37.6109211 21.7300189,37.5003509 C21.8487974,37.4469294 21.9688635,37.3916444 22.0903781,37.335117 C22.337431,37.2201986 22.5905998,37.0972049 22.848758,36.9689311 C22.9652833,36.911006 23.0790725,36.8558763 23.1975291,36.7951559 C23.5743049,36.60259 23.9589671,36.399464 24.3589191,36.1767708 C24.5224408,36.0856126 24.6936879,35.9815648 24.8650959,35.8860583 C25.3886549,35.5846306 25.8927394,35.2698474 26.3799244,34.9454359 C26.5476307,34.8337787 26.7021393,34.7152886 26.865661,34.6011467 C27.1769315,34.3841994 27.4909382,34.1684945 27.7869188,33.9442484 C27.9718463,33.8040169 28.1427715,33.6589713 28.321905,33.5164104 C28.5802241,33.3109549 28.842406,33.1070525 29.0884932,32.8975594 C29.2698799,32.7430408 29.43823,32.5855715 29.6131788,32.4293446 C29.8396306,32.2271504 30.069945,32.0263539 30.2856133,31.8221408 C30.3097553,31.7993124 30.3367943,31.7769499 30.3606144,31.7541215 C30.4140487,31.70334 30.4565385,31.6520927 30.509329,31.6013112 C31.0003768,31.1267293 31.4606838,30.6509051 31.8942737,30.176168 C31.9433624,30.1224359 32.0029126,30.0683932 32.0513575,30.0146611 C32.0843515,29.9778561 32.1112296,29.9422936 32.1440627,29.9054886 C32.5269544,29.4767188 32.889245,29.0518314 33.2259451,28.633777 C33.2388208,28.6179369 33.2544326,28.6013203 33.2671474,28.5854802 C33.3287899,28.5087645 33.3788443,28.4370181 33.4388773,28.3609235 C33.6844817,28.0497121 33.9191417,27.7439361 34.1394775,27.4443718 C34.1758514,27.394988 34.2194679,27.3420324 34.2550371,27.2931144 C34.3139435,27.2122057 34.3602961,27.1393722 34.4171102,27.0597059 C34.6054176,26.7960148 34.7829416,26.540399 34.9512917,26.2902186 C34.9966786,26.2226653 35.0518832,26.1485895 35.0956607,26.0822785 C35.1254358,26.0372429 35.1471636,25.9993509 35.1764558,25.9547812 C35.4083798,25.601019 35.6258185,25.2592144 35.816862,24.9431889 C35.8176667,24.9421018 35.8184715,24.9408595 35.8191152,24.9396171 C35.8237827,24.9320076 35.8266797,24.926417 35.8311862,24.9188076 C36.036554,24.5780901 36.2108591,24.2726246 36.3697133,23.9867264 C36.3866126,23.9565991 36.4105937,23.91762 36.4268493,23.8879587 C36.4720752,23.8056523 36.508932,23.7353036 36.5504562,23.6582772 C36.5831283,23.5974015 36.6161224,23.5368364 36.6465412,23.4793773 C36.7246003,23.3315363 36.7938073,23.1975166 36.8557717,23.0746782 C36.867038,23.0523157 36.8810403,23.0260708 36.8916628,23.0044848 C36.8937551,23.0002919 36.8966521,22.9948565 36.8989054,22.9908189 C36.9695609,22.8490344 37.0278235,22.7283701 37.0754637,22.6277389 C37.089627,22.5979222 37.095743,22.5836351 37.1079749,22.5577008 C37.134853,22.4994652 37.1643062,22.4371918 37.1815274,22.3988339 C37.1850683,22.3906033 37.1884481,22.3829938 37.1916671,22.375695 L39.0740974,18.1659553 L43.3939017,20.588093 C43.4177218,20.6012931 43.4418638,20.6146485 43.4661667,20.6280039 C43.4790424,20.6349921 43.4964246,20.6415145 43.5094613,20.6483475 C43.7042066,20.7527058 43.9163341,20.8555112 44.1534083,20.9519494 C44.1569491,20.9533471 44.1595243,20.9550553 44.163226,20.956453 C44.1725609,20.9603354 44.1846319,20.9631307 44.1941278,20.9670131 C44.3957937,21.0476112 44.6156467,21.121687 44.8480534,21.1897063 C44.8760581,21.1979369 44.8982687,21.208497 44.9265953,21.2165723 C44.9402758,21.2202994 44.9568533,21.2224735 44.9706947,21.2262006 C45.1958588,21.2880081 45.4356691,21.3414296 45.6889989,21.3863099 C45.7118533,21.3903475 45.730845,21.3968699 45.7536994,21.4007523 C45.7873372,21.4063429 45.8267691,21.4075853 45.8607288,21.4128653 C46.0817084,21.4470302 46.3121838,21.473741 46.5540864,21.4914446 C46.5904603,21.4940847 46.6218449,21.5010729 46.6588626,21.5032471 C46.6714164,21.5040235 46.6860625,21.5029365 46.6987773,21.5037129 C46.9775367,21.519553 47.2715859,21.5212613 47.5775453,21.5110118 C47.6081251,21.5099248 47.6346813,21.5130307 47.6659049,21.5117883 C47.7061415,21.5099248 47.7526551,21.5016941 47.7935355,21.4993647 C48.0951492,21.4830587 48.4077073,21.4546397 48.7350725,21.4088276 C48.7664571,21.4044794 48.7936571,21.4049453 48.8252026,21.4001311 C48.8335718,21.3988888 48.8430676,21.3959381 48.8514369,21.3948511 C49.2468824,21.3355284 49.6658262,21.2465443 50.0990942,21.1381483 C50.1472172,21.1260353 50.1892242,21.1221529 50.237991,21.109574 C50.2875626,21.0965292 50.3411577,21.0777385 50.3912121,21.0640725 C50.5595622,21.0182605 50.7325797,20.9653048 50.9065628,20.9112621 C51.0449768,20.8684007 51.1822642,20.8266263 51.324219,20.7784848 C51.5064105,20.7165221 51.694396,20.6455522 51.8825425,20.5744271 C51.9911813,20.5335844 52.0943481,20.5009725 52.2047574,20.4568687 C52.2382342,20.4435133 52.2742863,20.4256543 52.3079241,20.4119884 C52.5385604,20.3185007 52.7767613,20.2119683 53.0159278,20.1045041 C53.135511,20.0504614 53.2513925,20.0027858 53.37339,19.9453266 C53.7382557,19.772949 54.1113297,19.5864396 54.4958309,19.3795865 C54.667078,19.28408 54.9854302,19.1149637 55.0021686,19.1061118 C55.4364023,18.8641621 55.8564727,18.6192617 56.2631845,18.3726531 C56.3961263,18.2918996 56.5189285,18.2102144 56.6489733,18.1293057 C56.9164664,17.9628293 57.1862127,17.7963529 57.4414739,17.6291001 C57.5992015,17.5255183 57.745019,17.422247 57.8980791,17.3186652 C58.1127818,17.173309 58.3321519,17.0279528 58.5373587,16.8830624 C58.7012022,16.7675229 58.8524919,16.6530704 59.0105414,16.5379967 C59.1916062,16.4061512 59.3781432,16.2735292 59.5514826,16.1426154 C59.7027723,16.0283182 59.8416692,15.9165057 59.9871648,15.8032956 C60.1547101,15.6726924 60.3274057,15.5413128 60.4873866,15.4125731 C60.6222597,15.3038665 60.7453838,15.1987318 60.8747848,15.0915781 C61.030581,14.9623726 61.1912057,14.8319247 61.3391155,14.7055145 C61.4683555,14.5949444 61.5858465,14.4890331 61.7089706,14.3807924 C61.8432,14.2626129 61.9822577,14.1425698 62.1094055,14.0274961 C62.2264136,13.9215848 62.3313507,13.8215748 62.4422429,13.7186141 C62.5518474,13.6165852 62.6686946,13.5109846 62.7725051,13.4120616 C62.7808743,13.4039862 62.7868293,13.3974639 62.7953595,13.3893885 C63.0943981,13.1034902 63.3610865,12.8366932 63.609266,12.5821646 C63.669299,12.5205124 63.7249865,12.4632085 63.7821225,12.4037305 C64.0134027,12.1627125 64.2293929,11.9328757 64.4122281,11.7300603 C64.4123891,11.7295944 64.4128719,11.7291286 64.4133548,11.7286627 C64.4146423,11.7274203 64.4152861,11.7263332 64.4165737,11.7250909 C64.5823486,11.5407556 64.7212454,11.3808016 64.8467837,11.2334266 C64.8870203,11.1865275 64.9185658,11.1487908 64.9546179,11.105774 C65.0392757,11.0046769 65.1126673,10.9164693 65.1749536,10.8391323 C65.1862199,10.8254664 65.2047287,10.8035697 65.2151903,10.790525 C65.2285488,10.7740637 65.234021,10.7664542 65.2462529,10.7512353 C65.2824659,10.7057338 65.3083783,10.6729666 65.3346126,10.6392675 C65.3598812,10.6069661 65.3796776,10.5819636 65.3956113,10.5608435" id="Fill-37"></path>
                </g>
            </g>
        </g>
    </g>
</svg>