<?xml version="1.0" encoding="UTF-8"?>
<svg width="72px" height="142px" viewBox="0 0 72 142" version="1.1" xmlns="http://www.w3.org/2000/svg" xmlns:xlink="http://www.w3.org/1999/xlink">
    <title>1.image1</title>
    <g id="3期" stroke="none" stroke-width="1" fill="none" fill-rule="evenodd">
        <g id="1.cases" transform="translate(-133.000000, -214.000000)">
            <g id="1.image1" transform="translate(133.000000, 214.000000)">
                <path d="M5.1881031,35.5102534 L5.1881031,67.0972776 L0.00967339772,67.0972776 L0.00967339772,39.4334825 C0.00967339772,39.1316956 0.111211235,38.8299088 0.415824747,38.7293132 L5.1881031,35.5102534 Z" id="路径" fill="#3C3588" fill-rule="nonzero"></path>
                <path d="M5.59425445,35.5102534 L27.6279651,48.1853013 C27.9325786,48.3864926 28.1356543,48.788875 28.1356543,49.1912575 L28.1356543,59.4520106 L70.3753946,83.6955547 C71.2892351,84.1985328 72,85.5062758 71.8984622,86.512232 L71.8984622,137.212424 C71.8984622,138.21838 71.0861595,138.620762 70.1723189,138.117784 L6.50809498,101.601575 C5.59425445,101.098597 4.88348959,99.7908537 4.98502742,98.7848975 L4.98502742,35.9126359 C5.08656526,35.5102534 5.28964093,35.3090621 5.59425445,35.5102534 Z" id="路径" fill="#3C3588" fill-rule="nonzero"></path>
                <g id="编组" transform="translate(15.341887, 0.000000)">
                    <polygon id="路径" fill="#BAADFE" points="5.1784297 4.52680284 0 1.40833866 0 0 5.1784297 3.11846418"></polygon>
                    <polygon id="路径" fill="#BAADFE" points="11.0676243 11.6690918 0 4.92918531 0 3.52084665 11.0676243 10.1601575"></polygon>
                    <polygon id="路径" fill="#BAADFE" points="11.7783891 15.6929165 2.74152161 10.1601575 2.74152161 8.75181882 11.7783891 14.1839822"></polygon>
                    <polygon id="路径" fill="#BAADFE" points="11.7783891 19.2137632 2.74152161 13.6810041 2.74152161 12.2726655 11.7783891 17.7048289"></polygon>
                    <polygon id="路径" fill="#BAADFE" points="17.8706594 26.3560521 9.03686751 21.0244843 9.03686751 19.6161456 17.8706594 24.9477134"></polygon>
                    <polygon id="路径" fill="#BAADFE" points="24.8767701 16.4976815 8.42764049 6.53871521 8.42764049 5.02978093 24.8767701 14.9887472"></polygon>
                    <polygon id="路径" fill="#BAADFE" points="35.0305538 22.6340142 27.2121404 17.9060201 27.2121404 16.3970858 35.0305538 21.2256755"></polygon>
                    <polygon id="路径" fill="#BAADFE" points="48.636624 30.8828549 37.9751511 24.4447353 37.9751511 23.0363967 48.636624 29.4745163"></polygon>
                    <polygon id="路径" fill="#BAADFE" points="22.9475512 18.8113807 13.707608 13.178026 13.707608 11.7696874 22.9475512 17.403042"></polygon>
                    <polygon id="路径" fill="#BAADFE" points="19.9014161 20.5215062 14.6214486 17.3024464 14.6214486 15.8941077 19.9014161 19.1131675"></polygon>
                    <polygon id="路径" fill="#BAADFE" points="23.6583161 26.3560521 14.6214486 20.8232931 14.6214486 19.4149544 23.6583161 24.9477134"></polygon>
                    <polygon id="路径" fill="#BAADFE" points="32.4921079 28.1667732 22.439862 22.0304405 22.439862 20.6221018 32.4921079 26.7584346"></polygon>
                    <polygon id="路径" fill="#BAADFE" points="39.8028322 32.5929804 34.5228647 29.3739206 34.5228647 27.965582 39.8028322 31.1846418"></polygon>
                    <polygon id="路径" fill="#BAADFE" points="48.636624 37.9245482 42.0366646 34.0013191 42.0366646 32.4923848 48.636624 36.5162096"></polygon>
                    <polygon id="路径" fill="#BAADFE" points="37.1628484 34.5042972 25.6890728 27.5631995 25.6890728 26.1548608 37.1628484 33.0959585"></polygon>
                    <polygon id="路径" fill="#BAADFE" points="42.2397403 37.6227614 38.7874538 35.5102534 38.7874538 34.1019147 42.2397403 36.2144227"></polygon>
                    <polygon id="路径" fill="#BAADFE" points="26.9075269 31.8888111 20.4091053 27.8649864 20.4091053 26.4566477 26.9075269 30.4804724"></polygon>
                    <polygon id="路径" fill="#BAADFE" points="11.7783891 29.7763031 2.74152161 24.3441397 2.74152161 22.8352054 11.7783891 28.3679645"></polygon>
                    <polygon id="路径" fill="#BAADFE" points="11.7783891 33.2971498 2.74152161 27.8649864 2.74152161 26.4566477 11.7783891 31.8888111"></polygon>
                    <polygon id="路径" fill="#BAADFE" points="19.9014161 34.7054884 14.6214486 31.4864286 14.6214486 30.07809 19.9014161 33.2971498"></polygon>
                    <polygon id="路径" fill="#BAADFE" points="22.7444755 39.9364606 14.6214486 35.0072753 14.6214486 33.5989366 22.7444755 38.5281219"></polygon>
                    <polygon id="路径" fill="#BAADFE" points="30.1567377 40.9424168 22.439862 36.2144227 22.439862 34.806084 30.1567377 39.4334825"></polygon>
                    <polygon id="路径" fill="#BAADFE" points="35.7413187 44.2620722 31.6798052 41.8477774 31.6798052 40.4394387 35.7413187 42.8537335"></polygon>
                    <polygon id="路径" fill="#BAADFE" points="42.5443538 48.3864926 37.5689998 45.368624 37.5689998 43.9602853 42.5443538 46.9781539"></polygon>
                    <polygon id="路径" fill="#BAADFE" points="39.8028322 50.2978093 30.6644268 44.7650503 30.6644268 43.3567116 39.8028322 48.8894707"></polygon>
                    <polygon id="路径" fill="#BAADFE" points="11.7783891 36.918592 2.74152161 31.385833 2.74152161 29.9774944 11.7783891 35.4096578"></polygon>
                    <polygon id="路径" fill="#BAADFE" points="11.7783891 40.4394387 2.74152161 34.9066797 2.74152161 33.498341 11.7783891 38.9305044"></polygon>
                    <polygon id="路径" fill="#BAADFE" points="19.9014161 41.7471817 14.6214486 38.5281219 14.6214486 37.1197833 19.9014161 40.3388431"></polygon>
                    <polygon id="路径" fill="#BAADFE" points="31.172116 52.2091261 14.6214486 42.0489686 14.6214486 40.6406299 31.172116 50.7001918"></polygon>
                    <polygon id="路径" fill="#BAADFE" points="32.4921079 49.3924487 22.439862 43.256116 22.439862 41.8477774 32.4921079 47.9841101"></polygon>
                    <polygon id="路径" fill="#BAADFE" points="39.8028322 53.818656 34.5228647 50.5995962 34.5228647 49.1912575 39.8028322 52.4103173"></polygon>
                    <polygon id="路径" fill="#BAADFE" points="48.636624 59.1502238 42.0366646 55.2269946 42.0366646 53.7180604 48.636624 57.7418851"></polygon>
                    <polygon id="路径" fill="#BAADFE" points="42.5443538 59.0496281 33.2028728 53.4162735 33.2028728 51.9073392 42.5443538 57.6412895"></polygon>
                    <polygon id="路径" fill="#BAADFE" points="28.4305944 43.3567116 24.5721566 41.0430124 24.5721566 39.6346737 28.4305944 41.948373"></polygon>
                    <polygon id="路径" fill="#BAADFE" points="5.1784297 43.4573072 0 40.3388431 0 38.8299088 5.1784297 42.0489686"></polygon>
                    <polygon id="路径" fill="#BAADFE" points="11.0676243 50.5995962 0 43.8596897 0 42.4513511 11.0676243 49.0906619"></polygon>
                    <polygon id="路径" fill="#BAADFE" points="11.7783891 54.5228253 2.74152161 49.0906619 2.74152161 47.6823232 11.7783891 53.1144866"></polygon>
                    <polygon id="路径" fill="#BAADFE" points="11.7783891 58.1442676 2.74152161 52.6115085 2.74152161 51.2031699 11.7783891 56.6353333"></polygon>
                    <polygon id="路径" fill="#BAADFE" points="17.8706594 65.2865565 9.03686751 59.9549887 9.03686751 58.54665 17.8706594 63.8782178"></polygon>
                    <polygon id="路径" fill="#BAADFE" points="17.5660458 50.901383 8.42764049 45.368624 8.42764049 43.9602853 17.5660458 49.4930444"></polygon>
                    <polygon id="路径" fill="#BAADFE" points="24.4706188 55.126399 19.9014161 52.3097217 19.9014161 50.901383 24.4706188 53.7180604"></polygon>
                    <polygon id="路径" fill="#BAADFE" points="42.0366646 65.7895346 27.4152161 56.9371201 27.4152161 55.5287815 42.0366646 64.3811959"></polygon>
                    <polygon id="路径" fill="#BAADFE" points="22.9475512 57.7418851 13.707608 52.1085305 13.707608 50.7001918 22.9475512 56.3335464"></polygon>
                    <polygon id="路径" fill="#BAADFE" points="24.8767701 62.4698792 14.6214486 56.2329508 14.6214486 54.8246122 24.8767701 61.0615405"></polygon>
                    <polygon id="路径" fill="#BAADFE" points="21.6275593 64.0794091 14.6214486 59.7537975 14.6214486 58.3454588 21.6275593 62.5704748"></polygon>
                    <polygon id="路径" fill="#BAADFE" points="35.1320917 68.7068075 27.4152161 63.9788135 27.4152161 62.5704748 35.1320917 67.1978732"></polygon>
                    <polygon id="路径" fill="#BAADFE" points="37.1628484 73.4348016 23.6583161 65.2865565 23.6583161 63.8782178 37.1628484 72.0264629"></polygon>
                    <polygon id="路径" fill="#BAADFE" points="42.2397403 76.5532658 38.7874538 74.4407578 38.7874538 73.0324191 42.2397403 75.1449271"></polygon>
                    <polygon id="路径" fill="#BAADFE" points="26.9075269 70.8193155 20.4091053 66.7954908 20.4091053 65.3871521 26.9075269 69.4109769"></polygon>
                    <polygon id="路径" fill="#BAADFE" points="40.6151349 79.0681562 28.4305944 71.7246761 28.4305944 70.2157418 40.6151349 77.6598176"></polygon>
                    <polygon id="路径" fill="#BAADFE" points="46.0981781 82.3878117 42.442816 80.1747081 42.442816 78.7663694 46.0981781 80.979473"></polygon>
                    <polygon id="路径" fill="#BAADFE" points="11.7783891 68.7068075 2.74152161 63.1740485 2.74152161 61.7657098 11.7783891 67.2984689"></polygon>
                    <polygon id="路径" fill="#BAADFE" points="11.7783891 72.2276542 2.74152161 66.7954908 2.74152161 65.2865565 11.7783891 70.8193155"></polygon>
                    <polygon id="路径" fill="#BAADFE" points="29.5475106 79.4705387 14.6214486 70.416933 14.6214486 68.9079988 29.5475106 77.9616044"></polygon>
                    <polygon id="路径" fill="#BAADFE" points="22.7444755 78.866965 14.6214486 73.9377797 14.6214486 72.529441 22.7444755 77.4586263"></polygon>
                    <polygon id="路径" fill="#BAADFE" points="35.7413187 83.1925766 31.6798052 80.7782818 31.6798052 79.3699431 35.7413187 81.7842379"></polygon>
                    <polygon id="路径" fill="#BAADFE" points="42.5443538 87.316997 37.5689998 84.2991284 37.5689998 82.8907898 42.5443538 85.9086583"></polygon>
                    <polygon id="路径" fill="#BAADFE" points="39.8028322 89.2283137 30.6644268 83.6955547 30.6644268 82.287216 39.8028322 87.7193794"></polygon>
                    <polygon id="路径" fill="#BAADFE" points="28.4305944 82.287216 24.5721566 79.9735168 24.5721566 78.5651782 28.4305944 80.8788774"></polygon>
                    <polygon id="路径" fill="#BAADFE" points="5.1784297 74.0383753 0 70.9199111 0 69.4109769 5.1784297 72.6300367"></polygon>
                    <polygon id="路径" fill="#BAADFE" points="11.0676243 81.0800686 0 74.4407578 0 72.9318235 11.0676243 79.67173"></polygon>
                    <polygon id="路径" fill="#BAADFE" points="11.7783891 85.1038934 2.74152161 79.67173 2.74152161 78.1627957 11.7783891 83.6955547"></polygon>
                    <polygon id="路径" fill="#BAADFE" points="11.7783891 88.62474 2.74152161 83.1925766 2.74152161 81.7842379 11.7783891 87.2164014"></polygon>
                    <polygon id="路径" fill="#ADCBFE" points="17.8706594 95.8676246 9.03686751 90.5360568 9.03686751 89.1277181 17.8706594 94.4592859"></polygon>
                    <polygon id="路径" fill="#BAADFE" points="17.5660458 81.4824511 8.42764049 75.9496921 8.42764049 74.5413534 17.5660458 80.0741124"></polygon>
                    <polygon id="路径" fill="#BAADFE" points="24.4706188 85.7074671 19.9014161 82.8907898 19.9014161 81.4824511 24.4706188 84.2991284"></polygon>
                    <polygon id="路径" fill="#ADCBFE" points="48.636624 100.394427 27.4152161 87.5181882 27.4152161 86.1098496 48.636624 98.8854931"></polygon>
                    <polygon id="路径" fill="#BAADFE" points="22.9475512 88.3229532 13.707608 82.6895985 13.707608 81.2812599 22.9475512 86.9146145"></polygon>
                    <polygon id="路径" fill="#ADCBFE" points="24.8767701 93.0509472 14.6214486 86.8140189 14.6214486 85.4056802 24.8767701 91.6426086"></polygon>
                    <polygon id="路径" fill="#ADCBFE" points="21.6275593 94.6604771 14.6214486 90.3348655 14.6214486 88.9265269 21.6275593 93.1515429"></polygon>
                    <polygon id="路径" fill="#ADCBFE" points="35.1320917 99.2878756 27.4152161 94.5598815 27.4152161 93.1515429 35.1320917 97.7789413"></polygon>
                    <polygon id="路径" fill="#ADCBFE" points="41.8335889 103.3117 37.1628484 100.495023 37.1628484 99.0866844 41.8335889 101.903362"></polygon>
                    <polygon id="路径" fill="#ADCBFE" points="37.1628484 104.01587 23.6583161 95.8676246 23.6583161 94.3586903 37.1628484 102.607531"></polygon>
                    <polygon id="路径" fill="#ADCBFE" points="26.9075269 101.400384 20.4091053 97.3765588 20.4091053 95.9682202 26.9075269 99.8914493"></polygon>
                </g>
                <path d="M72,136.910637 C72,137.715402 71.5938487,138.520167 70.8830838,138.922549 L66.8215703,141.43744 L66.8215703,89.5301006 L72,86.3110408 L72,136.910637 Z" id="路径" fill="#3C3588" fill-rule="nonzero"></path>
                <path d="M0.618900421,39.1316956 L22.6526111,51.8067436 C22.9572246,52.0079348 23.2618381,52.4103173 23.1603003,52.8126998 L23.1603003,63.0734529 L65.4000406,87.316997 C66.3138811,87.8199751 67.024646,89.1277181 66.9231081,90.1336743 L66.9231081,140.833866 C66.9231081,141.839822 66.1108054,142.3428 65.1969649,141.739227 L1.53274096,105.223017 C0.618900421,104.720039 -0.0918644395,103.412296 0.00967339772,102.40634 L0.00967339772,39.5340781 C0.111211235,39.1316956 0.314286909,38.9305044 0.618900421,39.1316956 Z" id="路径" fill="#AFADFE" fill-rule="nonzero"></path>
                <path d="M46.2093893,111.560541 L60.7293001,119.909977 C61.1354514,120.111169 61.4400649,120.614147 61.4400649,121.117125 L61.4400649,130.975495 C61.4400649,131.981452 60.3231487,132.685621 59.4093082,132.182643 L44.8893975,123.933802 C44.4832461,123.732611 44.1786326,123.229633 44.1786326,122.726655 L44.1786326,112.767688 C44.0770948,111.661137 45.2955488,110.956967 46.2093893,111.560541 Z" id="路径" fill="#3C3588" fill-rule="nonzero"></path>
                <polygon id="路径" fill="#FFFFFF" points="51.0832055 120.211764 46.7170785 117.596278 46.7170785 116.087344 51.0832055 118.70283"></polygon>
                <polygon id="路径" fill="#FFFFFF" points="58.292392 124.537376 52.9108866 121.318316 52.9108866 119.809382 58.292392 123.028442"></polygon>
                <polygon id="路径" fill="#FFFFFF" points="56.3631731 127.253458 46.7170785 121.418912 46.7170785 119.909977 56.3631731 125.744523"></polygon>
            </g>
        </g>
    </g>
</svg>