<?xml version="1.0" encoding="UTF-8"?>
<svg width="72px" height="162px" viewBox="0 0 72 162" version="1.1" xmlns="http://www.w3.org/2000/svg" xmlns:xlink="http://www.w3.org/1999/xlink">
    <title>1.image3</title>
    <g id="3期" stroke="none" stroke-width="1" fill="none" fill-rule="evenodd">
        <g id="1.cases" transform="translate(-782.000000, -487.000000)" fill-rule="nonzero">
            <g id="1.image3" transform="translate(782.000000, 487.000000)">
                <polygon id="路径" fill="#B7ADFE" points="72 142.703844 46.5676005 157.263671 46.5676005 42.451543 72 27.8917163"></polygon>
                <polygon id="路径" fill="#D7D8FF" points="46.5676005 157.263671 0 129.284245 0 14.5598267 46.5676005 42.451543"></polygon>
                <polygon id="路径" fill="#E0E2FE" points="72 27.8917163 46.5676005 42.451543 0 14.5598267 25.4323995 0"></polygon>
                <polygon id="路径" fill="#3C3588" points="70.1583435 148.492691 46.5676005 162 46.5676005 157.263671 70.1583435 143.756362"></polygon>
                <polygon id="路径" fill="#3C3588" points="46.5676005 162 1.31546894 134.897672 1.31546894 130.161343 46.5676005 157.263671"></polygon>
                <polygon id="路径" fill="#483FA3" points="68.9305725 139.809421 49.637028 150.860855 49.637028 45.3459664 68.9305725 34.2945317"></polygon>
                <polygon id="路径" fill="#8369F9" points="68.9305725 139.809421 49.637028 150.860855 49.637028 128.407147 68.9305725 117.443422"></polygon>
                <g id="编组" transform="translate(65.861145, 119.811586)">
                    <polygon id="路径" fill="#152A85" points="1 18.7698971 0 19.2084461 0 0.526258798 1 0"></polygon>
                    <polygon id="路径" fill="#4B49F2" points="0.6 0.175419599 1 0 1 18.7698971 0 19.2084461 0 18.6821873 0.6 18.4190579"></polygon>
                </g>
                <g id="编组" transform="translate(63.317905, 121.302653)">
                    <polygon id="路径" fill="#152A85" points="1 18.6821873 0 19.1207363 0 0.438548998 1 0"></polygon>
                    <polygon id="路径" fill="#4B49F2" points="0.6 0.175419599 1 0 1 18.6821873 0 19.1207363 0 18.6821873 0.6 18.3313481"></polygon>
                </g>
                <g id="编组" transform="translate(60.730816, 122.706010)">
                    <polygon id="路径" fill="#152A85" points="0.95 18.6821873 0.05 19.2084461 0.05 0.438548998 0.95 0"></polygon>
                    <polygon id="路径" fill="#4B49F2" points="0.65 0.175419599 0.95 0 0.95 18.6821873 0.05 19.2084461 0.05 18.6821873 0.65 18.4190579"></polygon>
                </g>
                <g id="编组" transform="translate(58.143727, 124.109367)">
                    <polygon id="路径" fill="#152A85" points="1 18.7698971 0 19.2084461 0 0.526258798 1 0"></polygon>
                    <polygon id="路径" fill="#4B49F2" points="0.6 0.175419599 1 0 1 18.7698971 0 19.2084461 0 18.7698971 0.6 18.4190579"></polygon>
                </g>
                <g id="编组" transform="translate(55.556638, 125.600433)">
                    <polygon id="路径" fill="#152A85" points="0.95 18.6821873 0.05 19.1207363 0.05 0.438548998 0.95 0"></polygon>
                    <polygon id="路径" fill="#4B49F2" points="0.65 0.175419599 0.95 0 0.95 18.6821873 0.05 19.1207363 0.05 18.6821873 0.65 18.3313481"></polygon>
                </g>
                <g id="编组" transform="translate(52.969549, 127.003790)">
                    <polygon id="路径" fill="#152A85" points="1 18.6821873 0 19.2084461 0 0.438548998 1 0"></polygon>
                    <polygon id="路径" fill="#4B49F2" points="0.6 0.175419599 1 0 1 18.6821873 0 19.2084461 0 18.6821873 0.6 18.4190579"></polygon>
                </g>
                <g id="编组" transform="translate(50.426309, 128.407147)">
                    <polygon id="路径" fill="#152A85" points="1 18.7698971 0 19.2084461 0 0.526258798 1 0"></polygon>
                    <polygon id="路径" fill="#4B49F2" points="0.6 0.175419599 1 0 1 18.7698971 0 19.2084461 0 18.7698971 0.6 18.4190579"></polygon>
                </g>
                <polygon id="路径" fill="#152A85" points="68.9305725 139.809421 49.637028 150.860855 49.637028 149.194369 68.9305725 138.230644"></polygon>
                <polygon id="路径" fill="#25166B" points="68.9305725 139.809421 67.4397077 139.020032 67.4397077 35.1716297 68.9305725 34.2945317"></polygon>
                <path d="M70.3337393,140.423389 C70.5968331,140.24797 70.772229,140.511099 70.772229,140.861938 C70.772229,141.212777 70.5968331,141.651326 70.3337393,141.826746 C70.0706456,142.002166 69.8952497,141.739036 69.8952497,141.388197 C69.8075518,140.949648 70.0706456,140.598809 70.3337393,140.423389 Z" id="路径" fill="#152A85"></path>
                <path d="M48.2338611,153.0536 C48.4969549,152.878181 48.6723508,153.14131 48.6723508,153.492149 C48.6723508,153.842989 48.4969549,154.281538 48.2338611,154.456957 C47.9707674,154.632377 47.7953715,154.369247 47.7953715,154.018408 C47.7953715,153.579859 47.9707674,153.14131 48.2338611,153.0536 Z" id="路径" fill="#152A85"></path>
                <path d="M70.3337393,30.6984299 C70.5968331,30.5230103 70.772229,30.7861397 70.772229,31.1369789 C70.772229,31.4878181 70.5968331,31.9263671 70.3337393,32.1017867 C70.0706456,32.2772063 69.8952497,32.1017867 69.8952497,31.6632377 C69.8075518,31.3123985 70.0706456,30.8738495 70.3337393,30.6984299 Z" id="路径" fill="#152A85"></path>
                <path d="M48.2338611,43.328641 C48.4969549,43.1532214 48.6723508,43.4163508 48.6723508,43.76719 C48.6723508,44.1180292 48.4969549,44.5565782 48.2338611,44.7319978 C47.9707674,44.9074174 47.7953715,44.644288 47.7953715,44.2934488 C47.7953715,43.9426096 47.9707674,43.5040606 48.2338611,43.328641 Z" id="路径" fill="#152A85"></path>
                <polygon id="路径" fill="#25166B" points="68.9305725 54.9063346 49.637028 65.8700596 49.637028 63.4141852 68.9305725 52.4504602"></polygon>
                <polygon id="路径" fill="#25166B" points="68.9305725 87.2712507 49.637028 98.2349756 49.637028 95.7791012 68.9305725 84.8153763"></polygon>
                <g id="编组" transform="translate(50.952497, 59.435609)" fill="#25166B">
                    <path d="M14.7332521,0.0316351508 C14.9963459,-0.0560746489 15.1717418,0.0316351508 15.1717418,0.38247435 C15.1717418,0.733313548 14.9963459,1.08415275 14.7332521,1.25957235 C14.4701583,1.34728215 14.2947625,1.25957235 14.2947625,0.908733148 C14.2947625,0.557893949 14.5578563,0.20705475 14.7332521,0.0316351508 Z" id="路径"></path>
                    <path d="M9.99756395,2.75063894 C10.2606577,2.66292914 10.4360536,2.75063894 10.4360536,3.10147814 C10.4360536,3.45231734 10.2606577,3.80315654 9.99756395,3.97857614 C9.73447016,4.06628594 9.5590743,3.97857614 9.5590743,3.62773694 C9.5590743,3.27689774 9.73447016,2.92605854 9.99756395,2.75063894 Z" id="路径"></path>
                    <path d="M5.26187576,5.55735253 C5.52496955,5.46964273 5.70036541,5.55735253 5.70036541,5.90819173 C5.70036541,6.25903093 5.52496955,6.60987013 5.26187576,6.78528973 C4.99878197,6.87299953 4.82338611,6.78528973 4.82338611,6.43445053 C4.82338611,5.99590153 4.99878197,5.64506233 5.26187576,5.55735253 Z" id="路径"></path>
                    <path d="M0.438489647,8.27635632 C0.701583435,8.10093672 0.876979294,8.27635632 0.876979294,8.62719552 C0.876979294,8.97803472 0.701583435,9.32887392 0.438489647,9.50429352 C0.175395859,9.67971312 0,9.50429352 0,9.15345432 C0.0876979294,8.71490532 0.263093788,8.36406612 0.438489647,8.27635632 Z" id="路径"></path>
                    <path d="M12.365408,7.22383872 C12.6285018,7.13612892 12.8038977,7.22383872 12.8038977,7.57467792 C12.8038977,7.92551712 12.6285018,8.27635632 12.365408,8.45177592 C12.1023143,8.53948572 11.9269184,8.45177592 11.9269184,8.10093672 C11.9269184,7.75009752 12.1023143,7.31154852 12.365408,7.22383872 Z" id="路径"></path>
                    <path d="M7.62971985,9.94284251 C7.89281364,9.85513271 8.0682095,9.94284251 8.0682095,10.2936817 C8.0682095,10.6445209 7.89281364,10.9953601 7.62971985,11.1707797 C7.36662607,11.2584895 7.19123021,11.1707797 7.19123021,10.8199405 C7.19123021,10.4691013 7.36662607,10.0305523 7.62971985,9.94284251 Z" id="路径"></path>
                    <path d="M2.80633374,12.6618463 C3.06942753,12.5741365 3.24482339,12.6618463 3.24482339,13.0126855 C3.24482339,13.3635247 3.06942753,13.7143639 2.80633374,13.8897835 C2.54323995,14.0652031 2.36784409,13.8897835 2.36784409,13.5389443 C2.45554202,13.1881051 2.63093788,12.7495561 2.80633374,12.6618463 Z" id="路径"></path>
                    <path d="M14.7332521,11.6093287 C14.9963459,11.4339091 15.1717418,11.6093287 15.1717418,11.9601679 C15.1717418,12.3110071 14.9963459,12.6618463 14.7332521,12.8372659 C14.4701583,12.9249757 14.2947625,12.8372659 14.2947625,12.4864267 C14.2947625,12.1355875 14.5578563,11.7847483 14.7332521,11.6093287 Z" id="路径"></path>
                    <path d="M9.99756395,14.3283325 C10.2606577,14.2406227 10.4360536,14.3283325 10.4360536,14.6791717 C10.4360536,15.0300109 10.2606577,15.3808501 9.99756395,15.5562697 C9.73447016,15.6439795 9.5590743,15.5562697 9.5590743,15.2054305 C9.5590743,14.8545913 9.73447016,14.5037521 9.99756395,14.3283325 Z" id="路径"></path>
                    <path d="M5.26187576,17.0473363 C5.52496955,16.9596265 5.70036541,17.0473363 5.70036541,17.3981755 C5.70036541,17.7490147 5.52496955,18.0998539 5.26187576,18.2752735 C4.99878197,18.3629833 4.82338611,18.2752735 4.82338611,17.9244343 C4.82338611,17.5735951 4.99878197,17.2227559 5.26187576,17.0473363 Z" id="路径"></path>
                    <path d="M0.438489647,19.7663401 C0.701583435,19.6786303 0.876979294,19.7663401 0.876979294,20.1171793 C0.876979294,20.4680185 0.701583435,20.8188577 0.438489647,20.9942773 C0.175395859,21.1696969 0,20.9942773 0,20.6434381 C0.0876979294,20.2925989 0.263093788,19.9417597 0.438489647,19.7663401 Z" id="路径"></path>
                    <path d="M14.7332521,23.1870223 C14.9963459,23.0116027 15.1717418,23.1870223 15.1717418,23.5378615 C15.1717418,23.8887007 14.9963459,24.2395399 14.7332521,24.4149595 C14.4701583,24.5903791 14.2947625,24.4149595 14.2947625,24.0641203 C14.2947625,23.7132811 14.5578563,23.2747321 14.7332521,23.1870223 Z" id="路径"></path>
                    <path d="M9.99756395,25.9060261 C10.2606577,25.8183163 10.4360536,25.9060261 10.4360536,26.2568653 C10.4360536,26.6077045 10.2606577,26.9585437 9.99756395,27.1339633 C9.73447016,27.2216731 9.5590743,27.1339633 9.5590743,26.7831241 C9.5590743,26.4322849 9.73447016,26.0814457 9.99756395,25.9060261 Z" id="路径"></path>
                    <path d="M5.26187576,28.6250298 C5.52496955,28.53732 5.70036541,28.6250298 5.70036541,28.975869 C5.70036541,29.3267082 5.52496955,29.6775474 5.26187576,29.852967 C4.99878197,29.9406768 4.82338611,29.852967 4.82338611,29.5021278 C4.82338611,29.1512886 4.99878197,28.8004494 5.26187576,28.6250298 Z" id="路径"></path>
                    <path d="M0.438489647,31.3440336 C0.701583435,31.2563238 0.876979294,31.3440336 0.876979294,31.6948728 C0.876979294,32.045712 0.701583435,32.3965512 0.438489647,32.5719708 C0.175395859,32.7473904 0,32.5719708 0,32.2211316 C0,31.8702924 0.263093788,31.5194532 0.438489647,31.3440336 Z" id="路径"></path>
                    <path d="M12.365408,18.8015323 C12.6285018,18.7138225 12.8038977,18.8015323 12.8038977,19.1523715 C12.8038977,19.5032107 12.6285018,19.8540499 12.365408,20.0294695 C12.1023143,20.1171793 11.9269184,20.0294695 11.9269184,19.6786303 C11.9269184,19.2400813 12.1023143,18.8892421 12.365408,18.8015323 Z" id="路径"></path>
                    <path d="M7.62971985,21.5205361 C7.89281364,21.4328263 8.0682095,21.5205361 8.0682095,21.8713753 C8.0682095,22.2222145 7.89281364,22.5730537 7.62971985,22.7484733 C7.36662607,22.8361831 7.19123021,22.7484733 7.19123021,22.3976341 C7.19123021,22.0467949 7.36662607,21.6082459 7.62971985,21.5205361 Z" id="路径"></path>
                    <path d="M2.80633374,24.2395399 C3.06942753,24.1518301 3.24482339,24.2395399 3.24482339,24.5903791 C3.24482339,24.9412183 3.06942753,25.2920575 2.80633374,25.4674771 C2.54323995,25.5551869 2.36784409,25.4674771 2.36784409,25.1166379 C2.36784409,24.7657987 2.63093788,24.3272497 2.80633374,24.2395399 Z" id="路径"></path>
                </g>
                <g id="编组" transform="translate(50.952497, 91.888235)" fill="#25166B">
                    <path d="M14.7332521,0.0316351508 C14.9963459,-0.0560746489 15.1717418,0.0316351508 15.1717418,0.38247435 C15.1717418,0.733313548 14.9963459,1.08415275 14.7332521,1.25957235 C14.4701583,1.43499195 14.2947625,1.25957235 14.2947625,0.908733148 C14.2947625,0.557893949 14.5578563,0.11934495 14.7332521,0.0316351508 Z" id="路径"></path>
                    <path d="M9.99756395,2.75063894 C10.2606577,2.66292914 10.4360536,2.75063894 10.4360536,3.10147814 C10.4360536,3.45231734 10.2606577,3.80315654 9.99756395,3.97857614 C9.73447016,4.06628594 9.5590743,3.97857614 9.5590743,3.62773694 C9.5590743,3.27689774 9.73447016,2.83834874 9.99756395,2.75063894 Z" id="路径"></path>
                    <path d="M5.26187576,5.46964273 C5.52496955,5.29422313 5.70036541,5.46964273 5.70036541,5.82048193 C5.70036541,6.17132113 5.52496955,6.52216033 5.26187576,6.69757993 C4.99878197,6.78528973 4.82338611,6.69757993 4.82338611,6.34674073 C4.82338611,5.99590153 4.99878197,5.55735253 5.26187576,5.46964273 Z" id="路径"></path>
                    <path d="M0.438489647,8.18864652 C0.701583435,8.10093672 0.876979294,8.18864652 0.876979294,8.53948572 C0.876979294,8.89032492 0.701583435,9.24116412 0.438489647,9.41658372 C0.175395859,9.50429352 0,9.41658372 0,9.06574452 C0.0876979294,8.71490532 0.263093788,8.36406612 0.438489647,8.18864652 Z" id="路径"></path>
                    <path d="M12.365408,7.13612892 C12.6285018,6.96070933 12.8038977,7.13612892 12.8038977,7.48696812 C12.8038977,7.83780732 12.6285018,8.18864652 12.365408,8.36406612 C12.1023143,8.45177592 11.9269184,8.36406612 11.9269184,8.01322692 C11.9269184,7.66238772 12.1023143,7.31154852 12.365408,7.13612892 Z" id="路径"></path>
                    <path d="M7.62971985,9.85513271 C7.89281364,9.67971312 8.0682095,9.85513271 8.0682095,10.2059719 C8.0682095,10.5568111 7.89281364,10.9076503 7.62971985,11.0830699 C7.36662607,11.1707797 7.19123021,11.0830699 7.19123021,10.7322307 C7.19123021,10.3813915 7.36662607,10.0305523 7.62971985,9.85513271 Z" id="路径"></path>
                    <path d="M2.80633374,12.5741365 C3.06942753,12.4864267 3.24482339,12.5741365 3.24482339,12.9249757 C3.24482339,13.2758149 3.06942753,13.6266541 2.80633374,13.8020737 C2.54323995,13.8897835 2.36784409,13.8020737 2.36784409,13.4512345 C2.36784409,13.1003953 2.63093788,12.7495561 2.80633374,12.5741365 Z" id="路径"></path>
                    <path d="M14.7332521,11.6093287 C14.9963459,11.5216189 15.1717418,11.6093287 15.1717418,11.9601679 C15.1717418,12.3110071 14.9963459,12.6618463 14.7332521,12.8372659 C14.4701583,12.9249757 14.2947625,12.8372659 14.2947625,12.4864267 C14.2947625,12.1355875 14.5578563,11.6970385 14.7332521,11.6093287 Z" id="路径"></path>
                    <path d="M9.99756395,14.3283325 C10.2606577,14.2406227 10.4360536,14.3283325 10.4360536,14.6791717 C10.4360536,15.0300109 10.2606577,15.3808501 9.99756395,15.5562697 C9.73447016,15.7316893 9.5590743,15.5562697 9.5590743,15.2054305 C9.5590743,14.8545913 9.73447016,14.4160423 9.99756395,14.3283325 Z" id="路径"></path>
                    <path d="M5.26187576,17.0473363 C5.52496955,16.8719167 5.70036541,17.0473363 5.70036541,17.3981755 C5.70036541,17.7490147 5.52496955,18.0998539 5.26187576,18.2752735 C4.99878197,18.4506931 4.82338611,18.2752735 4.82338611,17.9244343 C4.82338611,17.5735951 4.99878197,17.1350461 5.26187576,17.0473363 Z" id="路径"></path>
                    <path d="M0.438489647,19.7663401 C0.701583435,19.6786303 0.876979294,19.7663401 0.876979294,20.1171793 C0.876979294,20.4680185 0.701583435,20.8188577 0.438489647,20.9942773 C0.175395859,21.0819871 0,20.9942773 0,20.6434381 C0.0876979294,20.2925989 0.263093788,19.8540499 0.438489647,19.7663401 Z" id="路径"></path>
                    <path d="M14.7332521,23.0993125 C14.9963459,23.0116027 15.1717418,23.0993125 15.1717418,23.4501517 C15.1717418,23.8009909 14.9963459,24.1518301 14.7332521,24.3272497 C14.4701583,24.4149595 14.2947625,24.3272497 14.2947625,23.9764105 C14.2947625,23.6255713 14.5578563,23.2747321 14.7332521,23.0993125 Z" id="路径"></path>
                    <path d="M9.99756395,25.9060261 C10.2606577,25.8183163 10.4360536,25.9060261 10.4360536,26.2568653 C10.4360536,26.6077045 10.2606577,26.9585437 9.99756395,27.1339633 C9.73447016,27.3093828 9.5590743,27.1339633 9.5590743,26.7831241 C9.5590743,26.3445751 9.73447016,25.9937359 9.99756395,25.9060261 Z" id="路径"></path>
                    <path d="M5.26187576,28.6250298 C5.52496955,28.4496102 5.70036541,28.6250298 5.70036541,28.975869 C5.70036541,29.3267082 5.52496955,29.6775474 5.26187576,29.852967 C4.99878197,30.0283866 4.82338611,29.852967 4.82338611,29.5021278 C4.82338611,29.1512886 4.99878197,28.7127396 5.26187576,28.6250298 Z" id="路径"></path>
                    <path d="M0.438489647,31.3440336 C0.701583435,31.2563238 0.876979294,31.3440336 0.876979294,31.6948728 C0.876979294,32.045712 0.701583435,32.3965512 0.438489647,32.5719708 C0.175395859,32.6596806 0,32.5719708 0,32.2211316 C0,31.8702924 0.263093788,31.4317434 0.438489647,31.3440336 Z" id="路径"></path>
                    <path d="M12.365408,18.7138225 C12.6285018,18.6261127 12.8038977,18.7138225 12.8038977,19.0646617 C12.8038977,19.4155009 12.6285018,19.7663401 12.365408,19.9417597 C12.1023143,20.1171793 11.9269184,19.9417597 11.9269184,19.5909205 C11.9269184,19.2400813 12.1023143,18.8892421 12.365408,18.7138225 Z" id="路径"></path>
                    <path d="M7.62971985,21.4328263 C7.89281364,21.3451165 8.0682095,21.4328263 8.0682095,21.7836655 C8.0682095,22.1345047 7.89281364,22.4853439 7.62971985,22.6607635 C7.36662607,22.8361831 7.19123021,22.6607635 7.19123021,22.3099243 C7.19123021,21.9590851 7.36662607,21.6082459 7.62971985,21.4328263 Z" id="路径"></path>
                    <path d="M2.80633374,24.1518301 C3.06942753,23.9764105 3.24482339,24.1518301 3.24482339,24.5026693 C3.24482339,24.8535085 3.06942753,25.2043477 2.80633374,25.3797673 C2.54323995,25.4674771 2.36784409,25.3797673 2.36784409,25.0289281 C2.36784409,24.6780889 2.63093788,24.3272497 2.80633374,24.1518301 Z" id="路径"></path>
                </g>
                <polygon id="路径" fill="#9489FE" points="65.6857491 50.783974 62.8794153 52.3627504 62.8794153 43.328641 65.6857491 41.7498646"></polygon>
                <polygon id="路径" fill="#25166B" points="59.9853837 54.0292366 57.1790499 55.608013 57.1790499 46.5739036 59.9853837 44.9951272"></polygon>
                <polygon id="路径" fill="#9489FE" points="54.1973203 57.2744992 51.3909866 58.9409854 51.3909866 49.906876 54.1973203 48.3280996"></polygon>
                <polygon id="路径" fill="#C6BEFE" points="40.954933 75.3427179 4.56029233 53.5029778 4.56029233 26.7514889 40.954933 48.591229"></polygon>
                <polygon id="路径" fill="#C6BEFE" points="40.954933 109.988089 4.56029233 88.1483487 4.56029233 61.3968598 40.954933 83.2365999"></polygon>
                <polygon id="路径" fill="#C6BEFE" points="40.954933 144.37033 4.56029233 122.79372 4.56029233 96.0422306 40.954933 117.881971"></polygon>
                <polygon id="路径" fill="#25166B" points="42.0073082 117.092583 40.954933 117.881971 4.56029233 96.0422306 5.52496955 95.6036816"></polygon>
                <polygon id="路径" fill="#25166B" points="42.0073082 82.4472117 40.954933 83.2365999 4.56029233 61.3968598 5.52496955 60.870601"></polygon>
                <polygon id="路径" fill="#25166B" points="42.0073082 47.8895506 40.954933 48.591229 4.56029233 26.7514889 5.61266748 26.4006497"></polygon>
                <polygon id="路径" fill="#25166B" points="42.0073082 74.6410395 40.954933 75.2550081 40.954933 48.591229 42.0073082 47.8895506"></polygon>
                <polygon id="路径" fill="#25166B" points="42.0073082 109.023281 40.8672351 109.724959 40.8672351 83.2365999 42.0073082 82.4472117"></polygon>
                <polygon id="路径" fill="#25166B" points="42.0073082 143.580942 40.8672351 144.28262 40.8672351 117.881971 42.0073082 117.092583"></polygon>
                <polygon id="路径" fill="#EFF0FF" opacity="0.669131324" points="40.8672351 144.28262 25.6077954 135.423931 22.8891596 107.093665 40.8672351 117.881971"></polygon>
                <polygon id="路径" fill="#EFF0FF" opacity="0.669131324" points="40.8672351 109.988089 22.0998782 98.6735246 19.3812424 70.3432593 40.8672351 83.2365999"></polygon>
                <polygon id="路径" fill="#EFF0FF" opacity="0.669131324" points="40.8672351 75.2550081 18.591961 61.9231186 15.8733252 33.5928533 40.8672351 48.591229"></polygon>
                <g id="编组" transform="translate(12.803898, 39.206280)">
                    <polygon id="路径" fill="#FFFFFF" points="16.4872107 20.6118029 13.3300853 18.6821873 13.3300853 14.4721169 16.4872107 16.4017325"></polygon>
                    <polygon id="路径" fill="#8369F9" points="12.0146163 17.8050893 8.85749086 15.8754737 8.85749086 11.6654034 12.0146163 13.5950189"></polygon>
                    <polygon id="路径" fill="#483FA3" points="7.62971985 15.0860855 4.4725944 13.0687602 4.4725944 8.85868977 7.62971985 10.8760152"></polygon>
                    <polygon id="路径" fill="#8369F9" points="3.24482339 12.279372 0 10.3497564 0 6.13968598 3.24482339 8.06930157"></polygon>
                    <polygon id="路径" fill="#483FA3" points="16.4872107 14.4721169 13.3300853 12.5425014 13.3300853 8.33243097 16.4872107 10.2620466"></polygon>
                    <polygon id="路径" fill="#8369F9" points="12.0146163 11.6654034 8.85749086 9.73578776 8.85749086 5.52571738 12.0146163 7.45533297"></polygon>
                    <polygon id="路径" fill="#8369F9" points="7.62971985 8.94639957 4.4725944 6.92907417 4.4725944 2.71900379 7.62971985 4.73632918"></polygon>
                    <polygon id="路径" fill="#483FA3" points="3.24482339 6.13968598 0 4.21007038 0 0 3.24482339 1.92961559"></polygon>
                    <path d="M19.819732,12.4547916 C20.5213155,13.0687602 20.9598051,14.3844071 20.7844093,15.3492149 C20.6090134,16.3140227 19.90743,16.5771521 19.2058465,15.9631835 C18.5042631,15.3492149 18.0657734,14.0335679 18.2411693,13.0687602 C18.4165652,12.1039524 19.1181486,11.840823 19.819732,12.4547916 Z" id="路径" fill="#483FA3"></path>
                    <path d="M19.819732,17.8927991 C20.5213155,18.5067677 20.9598051,19.8224147 20.7844093,20.7872225 C20.6090134,21.7520303 19.90743,22.0151597 19.2058465,21.4011911 C18.5042631,20.7872225 18.0657734,19.4715755 18.2411693,18.5067677 C18.4165652,17.5419599 19.1181486,17.2788305 19.819732,17.8927991 Z" id="路径" fill="#FFFFFF"></path>
                    <polygon id="路径" fill="#483FA3" points="17.36419 56.3096914 14.2070646 54.3800758 14.2070646 50.1700054 17.36419 52.099621"></polygon>
                    <polygon id="路径" fill="#B5A5FF" points="12.9792935 53.5029778 9.73447016 51.5733622 9.73447016 47.3632918 12.9792935 49.2929074"></polygon>
                    <polygon id="路径" fill="#8369F9" points="8.50669915 50.783974 5.34957369 48.7666486 5.34957369 44.5565782 8.50669915 46.5739036"></polygon>
                    <polygon id="路径" fill="#483FA3" points="4.12180268 47.9772604 0.964677223 46.0476448 0.964677223 41.8375744 4.12180268 43.76719"></polygon>
                    <polygon id="路径" fill="#8369F9" points="17.36419 50.1700054 14.2070646 48.2403898 14.2070646 44.0303194 17.36419 45.959935"></polygon>
                    <polygon id="路径" fill="#8369F9" points="12.9792935 47.3632918 9.73447016 45.4336762 9.73447016 41.2236058 12.9792935 43.1532214"></polygon>
                    <polygon id="路径" fill="#483FA3" points="8.50669915 44.644288 5.34957369 42.6269626 5.34957369 38.4168923 8.50669915 40.4342177"></polygon>
                    <polygon id="路径" fill="#FFFFFF" points="4.12180268 41.8375744 0.964677223 39.9079589 0.964677223 35.6978885 4.12180268 37.6275041"></polygon>
                    <path d="M20.6967113,48.15268 C21.3982948,48.7666486 21.8367844,50.0822956 21.6613886,51.0471034 C21.4859927,52.0119112 20.7844093,52.2750406 20.0828258,51.661072 C19.3812424,51.0471034 18.9427527,49.7314564 19.1181486,48.7666486 C19.2935445,47.8018408 19.9951279,47.5387114 20.6967113,48.15268 Z" id="路径" fill="#483FA3"></path>
                    <path d="M20.6967113,53.5906876 C21.3982948,54.2046562 21.8367844,55.5203032 21.6613886,56.485111 C21.4859927,57.4499188 20.7844093,57.7130482 20.0828258,57.0990796 C19.3812424,56.485111 18.9427527,55.169464 19.1181486,54.2046562 C19.3812424,53.2398484 19.9951279,52.976719 20.6967113,53.5906876 Z" id="路径" fill="#FFFFFF"></path>
                    <polygon id="路径" fill="#FFFFFF" points="16.3995128 91.7444505 13.2423873 89.8148349 13.2423873 85.6047645 16.3995128 87.5343801"></polygon>
                    <polygon id="路径" fill="#B5A5FF" points="12.0146163 88.9377369 8.85749086 87.0081213 8.85749086 82.7980509 12.0146163 84.7276665"></polygon>
                    <polygon id="路径" fill="#483FA3" points="7.62971985 86.1310233 4.38489647 84.2014077 4.38489647 79.9913373 7.62971985 81.9209529"></polygon>
                    <polygon id="路径" fill="#8369F9" points="3.15712546 83.3243097 0 81.3946941 0 77.1846237 3.15712546 79.2019491"></polygon>
                    <polygon id="路径" fill="#8369F9" points="16.3995128 85.6047645 13.2423873 83.6751489 13.2423873 79.4650785 16.3995128 81.3946941"></polygon>
                    <polygon id="路径" fill="#483FA3" points="12.0146163 82.7980509 8.85749086 80.8684353 8.85749086 76.6583649 12.0146163 78.5879805"></polygon>
                    <polygon id="路径" fill="#8369F9" points="7.62971985 79.9913373 4.38489647 78.0617217 4.38489647 73.8516513 7.62971985 75.7812669"></polygon>
                    <polygon id="路径" fill="#483FA3" points="3.15712546 77.2723335 0 75.2550081 0 71.0449377 3.15712546 73.0622631"></polygon>
                    <path d="M19.819732,83.5874391 C20.5213155,84.2014077 20.9598051,85.5170547 20.7844093,86.4818625 C20.6090134,87.4466703 19.90743,87.7097997 19.2058465,87.0958311 C18.5042631,86.4818625 18.0657734,85.1662155 18.2411693,84.2014077 C18.4165652,83.2365999 19.1181486,82.8857607 19.819732,83.5874391 Z" id="路径" fill="#483FA3"></path>
                    <path d="M19.819732,89.0254467 C20.5213155,89.6394153 20.9598051,90.9550623 20.7844093,91.9198701 C20.6090134,92.8846779 19.90743,93.1478073 19.2058465,92.5338387 C18.5042631,91.9198701 18.0657734,90.6042231 18.2411693,89.6394153 C18.4165652,88.6746075 19.1181486,88.3237683 19.819732,89.0254467 Z" id="路径" fill="#FFFFFF"></path>
                </g>
            </g>
        </g>
    </g>
</svg>