<?xml version="1.0" encoding="UTF-8"?>
<svg width="102px" height="162px" viewBox="0 0 102 162" version="1.1" xmlns="http://www.w3.org/2000/svg" xmlns:xlink="http://www.w3.org/1999/xlink">
    <title>1.image2</title>
    <defs>
        <path d="M42.7927655,2.09701698 L6.87365404,22.8171004 L0.0383354036,22.8513956 L0,29.8144781 L0.0019361315,29.8144781 C-0.0507266452,32.212445 1.68830666,34.7514461 5.1357824,36.7239984 L5.1357824,36.7239984 L38.2660901,55.6823102 C44.468681,59.2316712 53.8426552,59.6019823 59.2030289,56.5100192 L59.2030289,56.5100192 L98.3845219,33.9083236 C100.765964,32.5345887 101.951651,30.7080801 101.993858,28.791402 L101.993858,28.791402 L101.998118,28.791402 L101.998118,22.3385089 L97.6394985,22.3604732 C97.3889631,22.19786 97.1318449,22.0383295 96.8603992,21.8826524 L96.8603992,21.8826524 L63.7297043,2.92434061 C60.3488315,0.989936962 56.0269988,0 51.9254978,0 L51.9254978,0 C48.5020301,0 45.231904,0.690142929 42.7927655,2.09701698" id="path-1"></path>
        <path d="M42.7946478,2.09701687 L3.6131547,24.6987125 C-1.74721896,27.7910609 -1.06453899,33.1750226 5.13766464,36.7239983 L5.13766464,36.7239983 L38.2679723,55.6823101 C44.4705632,59.231671 53.8445374,59.6023675 59.2049111,56.5100191 L59.2049111,56.5100191 L98.3864042,33.9083235 C103.747165,30.815975 103.064485,25.4320133 96.8622815,21.8830377 L96.8622815,21.8830377 L63.7315865,2.9243405 C60.3511009,0.990322189 56.0281065,0 51.92738,0 L51.92738,0 C48.5031379,0 45.2341735,0.690142817 42.7946478,2.09701687" id="path-3"></path>
        <path d="M0.0128859452,1.41881957 L0.0109498137,73.3824888 C-0.0866312136,74.1932429 0.468651299,75.0675779 1.65046596,75.7303616 L1.65046596,75.7303616 L31.8010673,92.6367413 C33.787151,93.7503721 36.7738274,93.8424682 38.4725892,92.8425125 L38.4725892,92.8425125 L71.2834352,73.5323859 C72.2553732,72.9609276 72.5930345,72.1559536 72.3343674,71.3633105 L72.3343674,71.3633105 L72.3355291,0 L0.0128859452,1.41881957 Z" id="path-5"></path>
        <path d="M33.9476204,0.693610871 L1.13638714,20.0033522 C-0.562374632,21.0033079 -0.330038853,22.7161414 1.65565761,23.8293868 L1.65565761,23.8293868 L31.8066462,40.7361518 C33.7919554,41.8493973 36.7786318,41.9414934 38.4781681,40.9415377 L38.4781681,40.9415377 L71.2890141,21.631411 C72.9877758,20.632226 72.7554401,18.9190072 70.7701308,17.8057617 L70.7701308,17.8057617 L40.618755,0.898996757 C39.5565933,0.303262087 38.2071097,0 36.9222928,0 L36.9222928,0 C35.8055322,0 34.737562,0.228891588 33.9476204,0.693610871" id="path-7"></path>
        <path d="M20.7980827,0.424643989 L0.696391029,12.2549481 C-0.344473263,12.8672523 -0.202361211,13.9173021 1.01430382,14.5989675 L1.01430382,14.5989675 L19.4865472,24.9568898 C20.702825,25.6389405 22.5328565,25.6952001 23.5733336,25.0828958 L23.5733336,25.0828958 L43.6754124,13.2529771 C44.7158895,12.6402875 44.5733902,11.590623 43.3574996,10.9085723 L43.3574996,10.9085723 L24.8852563,0.551035303 C24.2339416,0.185733578 23.4072135,0 22.6195952,0 L22.6195952,0 C21.9357535,0 21.2817283,0.139878192 20.7980827,0.424643989" id="path-9"></path>
        <path d="M26.2175697,0.228120909 L1.80372598,14.5762325 C0.777963518,15.1792886 -0.029016089,16.7560973 0.000800336055,18.097849 L0.000800336055,18.097849 C0.0143532565,18.7093826 0.204868596,19.1563763 0.498773357,19.4157096 L0.498773357,19.4157096 L0.499160583,19.4157096 C0.611068983,19.5155125 0.734594173,19.5945071 0.874770093,19.6334264 L0.874770093,19.6334264 L7.01966423,23.2822049 L33.6499913,3.79328079 L27.5806063,0.199991135 C27.5353008,0.164925252 27.4849614,0.140263532 27.4353964,0.114445794 L27.4353964,0.114445794 C27.2932843,0.0396899554 27.135296,0 26.9645292,0 L26.9645292,0 C26.734904,0 26.4824325,0.0720584628 26.2175697,0.228120909" id="path-11"></path>
        <path d="M26.2175895,0.234671678 L1.80413304,14.5831686 C0.778370578,15.1862247 -0.0293834821,16.7626481 0.000820169221,18.1051704 L0.000820169221,18.1051704 C0.0306365943,19.4473075 0.886793942,20.0468955 1.91294363,19.4434541 L1.91294363,19.4434541 L26.3260129,5.09495719 C27.3521626,4.49190107 28.1591422,2.9154777 28.129713,1.57295532 L28.129713,1.57295532 C28.1076411,0.585330508 27.6379356,0 26.9827487,0 L26.9827487,0 C26.7477023,0 26.4886479,0.0755265171 26.2175895,0.234671678" id="path-13"></path>
        <path d="M26.2179366,0.227735569 L1.80409287,14.5766178 C0.778330409,15.1792886 -0.0286491988,16.7560973 0.000779999961,18.0986197 L0.000779999961,18.0986197 C0.0147201467,18.7093826 0.205235486,19.1563763 0.499527473,19.416095 L0.499527473,19.416095 C0.611435874,19.5151272 0.734573837,19.5945071 0.875136983,19.6334264 L0.875136983,19.6334264 L7.0196439,23.2825903 L33.6503582,3.79328079 L27.5805859,0.199991135 C27.5352804,0.165310591 27.4857155,0.140263532 27.4357633,0.114445794 L27.4357633,0.114445794 C27.2936512,0.0400752948 27.1352757,0 26.9645089,0 L26.9645089,0 C26.7348837,0 26.4827994,0.0720584628 26.2179366,0.227735569" id="path-15"></path>
        <path d="M26.2171821,0.234671678 L1.80411284,14.5831686 C0.778350376,15.1862247 -0.029016458,16.7630334 0.000799967038,18.1051704 L0.000799967038,18.1051704 C0.0306163921,19.4476928 0.886386513,20.0468955 1.91292343,19.4438394 L1.91292343,19.4438394 L26.3259927,5.09534253 C27.3521424,4.49228641 28.159122,2.9154777 28.1296928,1.57334066 L28.1296928,1.57334066 C28.1076209,0.585330508 27.6379154,0 26.9827285,0 L26.9827285,0 C26.7472949,0 26.4882405,0.0755265171 26.2171821,0.234671678" id="path-17"></path>
        <path d="M26.2175701,0.227735569 L1.80372635,14.5762325 C0.777576659,15.1792886 -0.0290157219,16.7560973 0.000800703174,18.0982343 L0.000800703174,18.0982343 C0.0147408499,18.7089972 0.205256189,19.1559909 0.498773724,19.4157096 L0.498773724,19.4157096 L0.49916095,19.4157096 C0.611069351,19.5151272 0.734207314,19.5941218 0.875157687,19.6334264 L0.875157687,19.6334264 L7.0196646,23.2822049 L33.6499916,3.79289545 L27.5802194,0.199991135 C27.5353012,0.164925252 27.485349,0.139878192 27.4353968,0.114060454 L27.4353968,0.114060454 C27.2936719,0.0396899554 27.1352964,0 26.9649168,0 L26.9649168,0 C26.7349044,0 26.4828201,0.0720584628 26.2175701,0.227735569" id="path-19"></path>
        <path d="M26.2179565,0.234671678 L1.80450007,14.5835539 C0.778350373,15.1862247 -0.0290164602,16.7634187 0.000799964807,18.1051704 L0.000799964807,18.1051704 C0.0310036161,19.4476928 0.886773737,20.0468955 1.91292343,19.4442248 L1.91292343,19.4442248 L26.3259927,5.09534253 C27.3517551,4.49267175 28.1595092,2.9154777 28.1296928,1.57334066 L28.1296928,1.57334066 C28.1072337,0.585715847 27.6379154,0.000385339373 26.9823413,0 L26.9823413,0 C26.7472949,0 26.4886277,0.0755265171 26.2179565,0.234671678" id="path-21"></path>
        <path d="M26.2175701,0.22735023 L1.80372635,14.5762325 C0.777576659,15.1789032 -0.0290157219,16.755712 0.000800703174,18.097849 L0.000800703174,18.097849 C0.0147408499,18.7089972 0.205256189,19.1556056 0.498773724,19.4157096 L0.498773724,19.4157096 L0.49916095,19.4157096 C0.611069351,19.5147419 0.734207314,19.5937364 0.875157687,19.6330411 L0.875157687,19.6330411 L7.0196646,23.2822049 L33.6499916,3.79289545 L27.5802194,0.199220456 C27.5353012,0.164539912 27.485349,0.140263532 27.4353968,0.114060454 L27.4353968,0.114060454 C27.2932847,0.0396899554 27.1349092,0 26.9641424,0 L26.9641424,0 C26.7345172,0 26.4824328,0.0716731234 26.2175701,0.22735023" id="path-23"></path>
        <path d="M26.2179565,0.234671678 L1.80450007,14.5831686 C0.778350373,15.18661 -0.0290164602,16.7630334 0.000799964807,18.1047851 L0.000799964807,18.1047851 C0.0310036161,19.4473075 0.886773737,20.0465102 1.91292343,19.4434541 L1.91292343,19.4434541 L26.3259927,5.09534253 C27.3517551,4.49190107 28.1595092,2.9154777 28.1296928,1.57334066 L28.1296928,1.57334066 C28.1072337,0.585330508 27.6379154,0 26.9827285,0 L26.9827285,0 C26.7476821,0 26.4886277,0.0755265171 26.2179565,0.234671678" id="path-25"></path>
        <path d="M20.7980827,0.425029328 L0.696391029,12.2553334 C-0.344473263,12.8676377 -0.202361211,13.9173021 1.01430382,14.5989675 L1.01430382,14.5989675 L4.0486091,16.3006262 L20.7980827,6.44325966 C21.8393342,5.83095539 23.6685912,5.88721494 24.8852563,6.56926563 L24.8852563,6.56926563 L40.3231943,15.2259146 L43.6754124,13.2529771 C44.7158895,12.6406728 44.5733902,11.5910083 43.3574996,10.9085723 L43.3574996,10.9085723 L24.8852563,0.551035303 C24.2339416,0.186118917 23.4076007,0 22.6203696,0 L22.6203696,0 C21.936528,0 21.2821155,0.140263532 20.7980827,0.425029328" id="path-27"></path>
        <polygon id="path-29" points="0 3.53857146 22.8796531 16.6832682 22.8796531 13.145082 0 0"></polygon>
        <polygon id="path-31" points="0 3.53857146 7.01808944 7.571148 7.01808944 4.03257654 0 0"></polygon>
        <polygon id="path-33" points="0 3.53857146 13.1947361 11.1193529 13.1947361 7.58078149 0 0"></polygon>
        <polygon id="path-35" points="0 3.53857146 16.2824787 12.9169611 16.2824787 9.37838966 0 0"></polygon>
        <polygon id="path-37" points="0 3.5389568 3.92995971 5.77315449 3.92995971 2.23496836 0 0"></polygon>
        <polygon id="path-39" points="0 3.53818612 22.8796531 16.6832682 22.8796531 13.1443114 0 0"></polygon>
        <polygon id="path-41" points="0 3.53857146 7.01847667 7.571148 7.01847667 4.03257654 0 0"></polygon>
        <polygon id="path-43" points="0 3.53857146 13.1943489 11.1193529 13.1943489 7.58078149 0 0"></polygon>
        <polygon id="path-45" points="0 3.5389568 16.2828659 12.9169611 16.2828659 9.37838966 0 0"></polygon>
        <polygon id="path-47" points="0 3.5389568 3.92995971 5.77353983 3.92995971 2.23496836 0 0"></polygon>
        <polygon id="path-49" points="0 3.5389568 22.8800403 16.6840388 22.8800403 13.1454674 0 0"></polygon>
        <path d="M8.51936581,0 C7.96137271,0.00154135749 7.4591402,0.129859369 7.0277701,0.378788604 L7.0277701,0.378788604 C6.09687808,0.916337029 0.991686552,3.84954034 0,4.41907193 L0,4.41907193 C1.07997415,3.84954034 2.57892715,4.0067588 4.27575279,4.97935538 L4.27575279,4.97935538 C9.09672022,7.7433947 13.9173004,10.5170675 18.7374934,13.2868869 L18.7374934,13.2868869 C18.7371062,13.290355 18.7371062,13.2942084 18.7371062,13.2976764 L18.7371062,13.2976764 C23.5925367,16.0871481 28.4487417,18.8731518 33.3041723,21.6684036 L33.3041723,21.6684036 C36.5742984,23.5504011 39.2039522,27.8758356 39.2364792,31.6721991 L39.2364792,31.6721991 C39.3030821,39.4337047 39.330188,47.1747874 39.2279602,54.8384169 L39.2279602,54.8384169 C39.2016288,56.7743619 38.544893,57.955427 37.5501087,58.484498 L37.5501087,58.484498 L37.5504959,58.4929755 C37.5504959,58.4929755 43.6578291,54.9917819 44.7509689,54.3586693 L44.7509689,54.3586693 C45.7004478,53.8091754 46.3192354,52.6327343 46.3444052,50.7491954 L46.3444052,50.7491954 C46.4466329,43.0859513 46.4191398,35.3448687 46.3533114,27.5829777 L46.3533114,27.5829777 C46.3207843,23.7869995 43.6911306,19.461565 40.4206172,17.5791822 L40.4206172,17.5791822 C35.5655739,14.7843157 30.7093689,11.9983121 25.8539383,9.20884034 L25.8539383,9.20884034 L25.8539383,9.19766549 C21.0337453,6.42823142 16.2131651,3.65455861 11.3925849,0.890519291 L11.3925849,0.890519291 C10.3497845,0.292857923 9.38249323,0.00269737561 8.54066325,0 L8.54066325,0 L8.51936581,0 Z" id="path-51"></path>
        <path d="M5.5288171,0.499014488 C4.41902653,1.52787061 3.39984691,2.68774213 2.28850743,3.71390088 L2.28850743,3.71390088 C1.5651687,4.38207935 0.838732164,5.06721276 0.00348503669,5.54888697 L0.00348503669,5.54888697 C0.0019361315,5.5569791 0,5.56661258 0,5.56661258 L0,5.56661258 L6.82331462,1.63460962 C7.43048545,1.33443025 7.97182782,0.909015581 8.49303442,0.452003085 L8.49303442,0.452003085 C7.89399533,0.16569593 7.33329165,0 6.8260252,0 L6.8260252,0 C6.33889452,0 5.90171602,0.152979731 5.5288171,0.499014488" id="path-53"></path>
        <path d="M11.3925849,0.890430612 C16.2131651,3.65446994 9.09633299,7.74330602 4.27575279,4.9792667 C2.57892715,4.00628478 1.07997415,3.84945166 0,4.41898325 C0.991686552,3.84945166 6.09649085,0.91624835 7.0277701,0.378699925" id="path-55"></path>
        <path d="M1.7996486,0.329465164 C1.79190408,0.334474576 1.78415955,0.33832797 1.77680225,0.342566703 L1.77680225,0.342566703 C1.72297779,0.372237834 1.67418728,0.410386432 1.62268618,0.443140279 L1.62268618,0.443140279 C0.646101456,1.06160997 0.0524835399,2.31935769 0.0389306194,4.15935319 L0.0389306194,4.15935319 C-0.0164427413,11.7297305 -0.00792376275,19.3374858 0.0342839039,26.964508 L0.0342839039,26.964508 C0.0567430292,30.9978552 2.84283625,35.3360058 6.15904228,37.2411237 L6.15904228,37.2411237 L9.42994283,39.1169558 C11.7323904,40.4359724 12.7612507,41.8016152 13.8137318,44.1402398 L13.8137318,44.1402398 C14.7574022,46.2395687 15.6166574,48.3573939 16.5483239,50.4598056 L16.5483239,50.4598056 C17.1214188,51.7530045 17.6979988,53.0631584 18.3837765,54.3116579 L18.3837765,54.3116579 C19.5524255,56.4398873 20.9359851,57.3635458 22.1975684,56.741608 L22.1975684,56.741608 C22.3005706,56.6903579 22.395441,56.6240795 22.4949582,56.5666639 L22.4949582,56.5666639 C23.3302053,56.0849897 24.0566418,55.3998563 24.7799805,54.7316778 L24.7799805,54.7316778 C25.89132,53.7055191 26.9104996,52.5456476 28.0202902,51.5167915 L28.0202902,51.5167915 C28.7811899,50.8108497 29.8100502,50.9083406 30.9845075,51.4697801 L30.9845075,51.4697801 C31.2021287,51.5738217 31.4232349,51.6882675 31.6501495,51.8223656 L31.6501495,51.8223656 L35.2370268,53.8870139 C36.7700557,54.7713678 38.2624258,54.9732856 39.3497573,54.3948912 L39.3497573,54.3948912 C40.3445416,53.8658203 41.0012774,52.6847551 41.0276088,50.7488101 L41.0276088,50.7488101 C41.1298366,43.0851806 41.1027307,35.344098 41.0361278,27.5825923 L41.0361278,27.5825923 C41.0036008,23.7862288 38.373947,19.4607944 35.1038209,17.5787969 L35.1038209,17.5787969 C30.2483903,14.783545 25.3921853,11.9975414 20.5367548,9.20806966 L20.5367548,9.20806966 C20.5367548,9.2046016 20.5367548,9.20074821 20.537142,9.19728016 L20.537142,9.19728016 C15.716949,6.42746074 10.8963688,3.65378793 6.0754014,0.889748612 L6.0754014,0.889748612 C5.02834148,0.289389869 4.05640347,0 3.21186291,0 L3.21186291,0 C2.68794573,0 2.21320629,0.111363079 1.7996486,0.329465164" id="path-57"></path>
        <path d="M1.79979104,0.329465164 C1.79165928,0.334474576 1.78430199,0.33832797 1.77694469,0.342566703 L1.77694469,0.342566703 C1.722733,0.372237834 1.67394249,0.410386432 1.62244139,0.443140279 L1.62244139,0.443140279 C0.646243892,1.06160997 0.0522387493,2.31935769 0.0390730551,4.15935319 L0.0390730551,4.15935319 C-0.0163003057,11.7297305 -0.00816855339,19.3374858 0.0344263395,26.964508 L0.0344263395,26.964508 C0.0464303548,29.1362807 0.863865072,31.3932134 2.12970784,33.3137448 L2.12970784,33.3137448 C1.63638154,32.0590798 1.34828517,30.7473846 1.3413151,29.4661312 L1.3413151,29.4661312 C1.29949466,21.839109 1.29097568,14.2309684 1.34634904,6.66059106 L1.34634904,6.66059106 C1.35951474,4.82136624 1.95351988,3.56323318 2.92933015,2.94476349 L2.92933015,2.94476349 C2.98121848,2.9116243 3.03000899,2.8734757 3.08422067,2.84457525 L3.08422067,2.84457525 C3.09157797,2.83995118 3.09893527,2.83571245 3.10706702,2.83147371 L3.10706702,2.83147371 C4.18704117,2.26155678 5.68560695,2.41838991 7.38281982,3.39175716 L7.38281982,3.39175716 C12.2034,6.15541114 17.023593,8.92908395 21.8441732,11.6989034 L21.8441732,11.6989034 C21.8441732,11.7023714 21.843786,11.7062248 21.843786,11.7096929 L21.843786,11.7096929 C26.6996037,14.4995499 31.5554215,17.2855536 36.4108521,20.0804201 L36.4108521,20.0804201 C37.8796015,20.9258547 39.2166939,22.2656797 40.2494264,23.8270748 L40.2494264,23.8270748 C39.2286979,21.2402916 37.3142511,18.8508021 35.1039633,17.5787969 L35.1039633,17.5787969 C30.2485328,14.783545 25.3923278,11.9975414 20.53651,9.20806966 L20.53651,9.20806966 C20.53651,9.2046016 20.5368972,9.20074821 20.5368972,9.19728016 L20.5368972,9.19728016 C15.7167042,6.42746074 10.896124,3.65378793 6.07554383,0.889748612 L6.07554383,0.889748612 C5.02809669,0.289389869 4.05654591,0 3.21200535,0 L3.21200535,0 C2.68808817,0 2.21334872,0.111363079 1.79979104,0.329465164" id="path-59"></path>
    </defs>
    <g id="3期" stroke="none" stroke-width="1" fill="none" fill-rule="evenodd">
        <g id="1.cases" transform="translate(-133.000000, -487.000000)">
            <g id="1.image2" transform="translate(184.000000, 568.000000) scale(-1, 1) translate(-184.000000, -568.000000) translate(133.000000, 487.000000)">
                <g id="编组" transform="translate(0.001882, 103.393104)">
                    <mask id="mask-2" fill="white">
                        <use xlink:href="#path-1"></use>
                    </mask>
                    <g id="Clip-2"></g>
                    <path d="M42.7927655,2.09701698 L6.87365404,22.8171004 L0.0383354036,22.8513956 L0,29.8144781 L0.0019361315,29.8144781 C-0.0507266452,32.212445 1.68830666,34.7514461 5.1357824,36.7239984 L5.1357824,36.7239984 L38.2660901,55.6823102 C44.468681,59.2316712 53.8426552,59.6019823 59.2030289,56.5100192 L59.2030289,56.5100192 L98.3845219,33.9083236 C100.765964,32.5345887 101.951651,30.7080801 101.993858,28.791402 L101.993858,28.791402 L101.998118,28.791402 L101.998118,22.3385089 L97.6394985,22.3604732 C97.3889631,22.19786 97.1318449,22.0383295 96.8603992,21.8826524 L96.8603992,21.8826524 L63.7297043,2.92434061 C60.3488315,0.989936962 56.0269988,0 51.9254978,0 L51.9254978,0 C48.5020301,0 45.231904,0.690142929 42.7927655,2.09701698" id="Fill-1" fill="#3C3588" mask="url(#mask-2)"></path>
                </g>
                <g id="编组" transform="translate(0.000000, 96.940982)">
                    <mask id="mask-4" fill="white">
                        <use xlink:href="#path-3"></use>
                    </mask>
                    <g id="Clip-4"></g>
                    <path d="M42.7946478,2.09701687 L3.6131547,24.6987125 C-1.74721896,27.7910609 -1.06453899,33.1750226 5.13766464,36.7239983 L5.13766464,36.7239983 L38.2679723,55.6823101 C44.4705632,59.231671 53.8445374,59.6023675 59.2049111,56.5100191 L59.2049111,56.5100191 L98.3864042,33.9083235 C103.747165,30.815975 103.064485,25.4320133 96.8622815,21.8830377 L96.8622815,21.8830377 L63.7315865,2.9243405 C60.3511009,0.990322189 56.0281065,0 51.92738,0 L51.92738,0 C48.5031379,0 45.2341735,0.690142817 42.7946478,2.09701687" id="Fill-3" fill="#CBC6FF" mask="url(#mask-4)"></path>
                </g>
                <g id="编组" transform="translate(11.743251, 55.932781)">
                    <mask id="mask-6" fill="white">
                        <use xlink:href="#path-5"></use>
                    </mask>
                    <g id="Clip-6"></g>
                    <path d="M0.0128859452,1.41881957 L0.0109498137,73.3824888 C-0.0866312136,74.1932429 0.468651299,75.0675779 1.65046596,75.7303616 L1.65046596,75.7303616 L31.8010673,92.6367413 C33.787151,93.7503721 36.7738274,93.8424682 38.4725892,92.8425125 L38.4725892,92.8425125 L71.2834352,73.5323859 C72.2553732,72.9609276 72.5930345,72.1559536 72.3343674,71.3633105 L72.3343674,71.3633105 L72.3355291,0 L0.0128859452,1.41881957 Z" id="Fill-5" fill="#E0E2FE" mask="url(#mask-6)"></path>
                </g>
                <g id="编组" transform="translate(11.739608, 35.468948)">
                    <mask id="mask-8" fill="white">
                        <use xlink:href="#path-7"></use>
                    </mask>
                    <g id="Clip-8"></g>
                    <path d="M33.9476204,0.693610871 L1.13638714,20.0033522 C-0.562374632,21.0033079 -0.330038853,22.7161414 1.65565761,23.8293868 L1.65565761,23.8293868 L31.8066462,40.7361518 C33.7919554,41.8493973 36.7786318,41.9414934 38.4781681,40.9415377 L38.4781681,40.9415377 L71.2890141,21.631411 C72.9877758,20.632226 72.7554401,18.9190072 70.7701308,17.8057617 L70.7701308,17.8057617 L40.618755,0.898996757 C39.5565933,0.303262087 38.2071097,0 36.9222928,0 L36.9222928,0 C35.8055322,0 34.737562,0.228891588 33.9476204,0.693610871" id="Fill-7" fill="#D7D8FF" mask="url(#mask-8)"></path>
                </g>
                <g id="编组" transform="translate(25.596608, 43.179203)">
                    <mask id="mask-10" fill="white">
                        <use xlink:href="#path-9"></use>
                    </mask>
                    <g id="Clip-10"></g>
                    <path d="M20.7980827,0.424643989 L0.696391029,12.2549481 C-0.344473263,12.8672523 -0.202361211,13.9173021 1.01430382,14.5989675 L1.01430382,14.5989675 L19.4865472,24.9568898 C20.702825,25.6389405 22.5328565,25.6952001 23.5733336,25.0828958 L23.5733336,25.0828958 L43.6754124,13.2529771 C44.7158895,12.6402875 44.5733902,11.590623 43.3574996,10.9085723 L43.3574996,10.9085723 L24.8852563,0.551035303 C24.2339416,0.185733578 23.4072135,0 22.6195952,0 L22.6195952,0 C21.9357535,0 21.2817283,0.139878192 20.7980827,0.424643989" id="Fill-9" fill="#B7ADFE" mask="url(#mask-10)"></path>
                </g>
                <g id="编组" transform="translate(55.884032, 104.011574)">
                    <mask id="mask-12" fill="white">
                        <use xlink:href="#path-11"></use>
                    </mask>
                    <g id="Clip-12"></g>
                    <path d="M26.2175697,0.228120909 L1.80372598,14.5762325 C0.777963518,15.1792886 -0.029016089,16.7560973 0.000800336055,18.097849 L0.000800336055,18.097849 C0.0143532565,18.7093826 0.204868596,19.1563763 0.498773357,19.4157096 L0.498773357,19.4157096 L0.499160583,19.4157096 C0.611068983,19.5155125 0.734594173,19.5945071 0.874770093,19.6334264 L0.874770093,19.6334264 L7.01966423,23.2822049 L33.6499913,3.79328079 L27.5806063,0.199991135 C27.5353008,0.164925252 27.4849614,0.140263532 27.4353964,0.114445794 L27.4353964,0.114445794 C27.2932843,0.0396899554 27.135296,0 26.9645292,0 L26.9645292,0 C26.734904,0 26.4824325,0.0720584628 26.2175697,0.228120909" id="Fill-11" fill="#5249B4" mask="url(#mask-12)"></path>
                </g>
                <g id="编组" transform="translate(62.094735, 107.681932)">
                    <mask id="mask-14" fill="white">
                        <use xlink:href="#path-13"></use>
                    </mask>
                    <g id="Clip-14"></g>
                    <path d="M26.2175895,0.234671678 L1.80413304,14.5831686 C0.778370578,15.1862247 -0.0293834821,16.7626481 0.000820169221,18.1051704 L0.000820169221,18.1051704 C0.0306365943,19.4473075 0.886793942,20.0468955 1.91294363,19.4434541 L1.91294363,19.4434541 L26.3260129,5.09495719 C27.3521626,4.49190107 28.1591422,2.9154777 28.129713,1.57295532 L28.129713,1.57295532 C28.1076411,0.585330508 27.6379356,0 26.9827487,0 L26.9827487,0 C26.7477023,0 26.4886479,0.0755265171 26.2175895,0.234671678" id="Fill-13" fill="#B7ADFE" mask="url(#mask-14)"></path>
                </g>
                <g id="编组" transform="translate(55.918903, 93.299140)">
                    <mask id="mask-16" fill="white">
                        <use xlink:href="#path-15"></use>
                    </mask>
                    <g id="Clip-16"></g>
                    <path d="M26.2179366,0.227735569 L1.80409287,14.5766178 C0.778330409,15.1792886 -0.0286491988,16.7560973 0.000779999961,18.0986197 L0.000779999961,18.0986197 C0.0147201467,18.7093826 0.205235486,19.1563763 0.499527473,19.416095 L0.499527473,19.416095 C0.611435874,19.5151272 0.734573837,19.5945071 0.875136983,19.6334264 L0.875136983,19.6334264 L7.0196439,23.2825903 L33.6503582,3.79328079 L27.5805859,0.199991135 C27.5352804,0.165310591 27.4857155,0.140263532 27.4357633,0.114445794 L27.4357633,0.114445794 C27.2936512,0.0400752948 27.1352757,0 26.9645089,0 L26.9645089,0 C26.7348837,0 26.4827994,0.0720584628 26.2179366,0.227735569" id="Fill-15" fill="#5249B4" mask="url(#mask-16)"></path>
                </g>
                <g id="编组" transform="translate(62.129993, 96.969497)">
                    <mask id="mask-18" fill="white">
                        <use xlink:href="#path-17"></use>
                    </mask>
                    <g id="Clip-18"></g>
                    <path d="M26.2171821,0.234671678 L1.80411284,14.5831686 C0.778350376,15.1862247 -0.029016458,16.7630334 0.000799967038,18.1051704 L0.000799967038,18.1051704 C0.0306163921,19.4476928 0.886386513,20.0468955 1.91292343,19.4438394 L1.91292343,19.4438394 L26.3259927,5.09534253 C27.3521424,4.49228641 28.159122,2.9154777 28.1296928,1.57334066 L28.1296928,1.57334066 C28.1076209,0.585330508 27.6379154,0 26.9827285,0 L26.9827285,0 C26.7472949,0 26.4882405,0.0755265171 26.2171821,0.234671678" id="Fill-17" fill="#B7ADFE" mask="url(#mask-18)"></path>
                </g>
                <g id="编组" transform="translate(55.848795, 82.617147)">
                    <mask id="mask-20" fill="white">
                        <use xlink:href="#path-19"></use>
                    </mask>
                    <g id="Clip-20"></g>
                    <path d="M26.2175701,0.227735569 L1.80372635,14.5762325 C0.777576659,15.1792886 -0.0290157219,16.7560973 0.000800703174,18.0982343 L0.000800703174,18.0982343 C0.0147408499,18.7089972 0.205256189,19.1559909 0.498773724,19.4157096 L0.498773724,19.4157096 L0.49916095,19.4157096 C0.611069351,19.5151272 0.734207314,19.5941218 0.875157687,19.6334264 L0.875157687,19.6334264 L7.0196646,23.2822049 L33.6499916,3.79289545 L27.5802194,0.199991135 C27.5353012,0.164925252 27.485349,0.139878192 27.4353968,0.114060454 L27.4353968,0.114060454 C27.2936719,0.0396899554 27.1352964,0 26.9649168,0 L26.9649168,0 C26.7349044,0 26.4828201,0.0720584628 26.2175701,0.227735569" id="Fill-19" fill="#5249B4" mask="url(#mask-20)"></path>
                </g>
                <g id="编组" transform="translate(62.059518, 86.287119)">
                    <mask id="mask-22" fill="white">
                        <use xlink:href="#path-21"></use>
                    </mask>
                    <g id="Clip-22"></g>
                    <path d="M26.2179565,0.234671678 L1.80450007,14.5835539 C0.778350373,15.1862247 -0.0290164602,16.7634187 0.000799964807,18.1051704 L0.000799964807,18.1051704 C0.0310036161,19.4476928 0.886773737,20.0468955 1.91292343,19.4442248 L1.91292343,19.4442248 L26.3259927,5.09534253 C27.3517551,4.49267175 28.1595092,2.9154777 28.1296928,1.57334066 L28.1296928,1.57334066 C28.1072337,0.585715847 27.6379154,0.000385339373 26.9823413,0 L26.9823413,0 C26.7472949,0 26.4886277,0.0755265171 26.2179565,0.234671678" id="Fill-21" fill="#B7ADFE" mask="url(#mask-22)"></path>
                </g>
                <g id="编组" transform="translate(55.848795, 71.935154)">
                    <mask id="mask-24" fill="white">
                        <use xlink:href="#path-23"></use>
                    </mask>
                    <g id="Clip-24"></g>
                    <path d="M26.2175701,0.22735023 L1.80372635,14.5762325 C0.777576659,15.1789032 -0.0290157219,16.755712 0.000800703174,18.097849 L0.000800703174,18.097849 C0.0147408499,18.7089972 0.205256189,19.1556056 0.498773724,19.4157096 L0.498773724,19.4157096 L0.49916095,19.4157096 C0.611069351,19.5147419 0.734207314,19.5937364 0.875157687,19.6330411 L0.875157687,19.6330411 L7.0196646,23.2822049 L33.6499916,3.79289545 L27.5802194,0.199220456 C27.5353012,0.164539912 27.485349,0.140263532 27.4353968,0.114060454 L27.4353968,0.114060454 C27.2932847,0.0396899554 27.1349092,0 26.9641424,0 L26.9641424,0 C26.7345172,0 26.4824328,0.0716731234 26.2175701,0.22735023" id="Fill-23" fill="#5249B4" mask="url(#mask-24)"></path>
                </g>
                <g id="编组" transform="translate(62.059518, 75.605126)">
                    <mask id="mask-26" fill="white">
                        <use xlink:href="#path-25"></use>
                    </mask>
                    <g id="Clip-26"></g>
                    <path d="M26.2179565,0.234671678 L1.80450007,14.5831686 C0.778350373,15.18661 -0.0290164602,16.7630334 0.000799964807,18.1047851 L0.000799964807,18.1047851 C0.0310036161,19.4473075 0.886773737,20.0465102 1.91292343,19.4434541 L1.91292343,19.4434541 L26.3259927,5.09534253 C27.3517551,4.49190107 28.1595092,2.9154777 28.1296928,1.57334066 L28.1296928,1.57334066 C28.1072337,0.585330508 27.6379154,0 26.9827285,0 L26.9827285,0 C26.7476821,0 26.4886277,0.0755265171 26.2179565,0.234671678" id="Fill-25" fill="#B7ADFE" mask="url(#mask-26)"></path>
                </g>
                <g id="编组" transform="translate(25.596608, 43.216581)">
                    <mask id="mask-28" fill="white">
                        <use xlink:href="#path-27"></use>
                    </mask>
                    <g id="Clip-28"></g>
                    <path d="M20.7980827,0.425029328 L0.696391029,12.2553334 C-0.344473263,12.8676377 -0.202361211,13.9173021 1.01430382,14.5989675 L1.01430382,14.5989675 L4.0486091,16.3006262 L20.7980827,6.44325966 C21.8393342,5.83095539 23.6685912,5.88721494 24.8852563,6.56926563 L24.8852563,6.56926563 L40.3231943,15.2259146 L43.6754124,13.2529771 C44.7158895,12.6406728 44.5733902,11.5910083 43.3574996,10.9085723 L43.3574996,10.9085723 L24.8852563,0.551035303 C24.2339416,0.186118917 23.4076007,0 22.6203696,0 L22.6203696,0 C21.936528,0 21.2821155,0.140263532 20.7980827,0.425029328" id="Fill-27" fill="#3C3588" mask="url(#mask-28)"></path>
                </g>
                <g id="编组" transform="translate(16.929867, 73.467264)">
                    <mask id="mask-30" fill="white">
                        <use xlink:href="#path-29"></use>
                    </mask>
                    <g id="Clip-30"></g>
                    <polygon id="Fill-29" fill="#ADB4FE" mask="url(#mask-30)" points="0 3.53857146 22.8796531 16.6832682 22.8796531 13.145082 0 0"></polygon>
                </g>
                <g id="编组" transform="translate(16.929867, 80.267347)">
                    <mask id="mask-32" fill="white">
                        <use xlink:href="#path-31"></use>
                    </mask>
                    <g id="Clip-32"></g>
                    <polygon id="Fill-31" fill="#ADB4FE" mask="url(#mask-32)" points="0 3.53857146 7.01808944 7.571148 7.01808944 4.03257654 0 0"></polygon>
                </g>
                <g id="编组" transform="translate(26.614784, 85.832033)">
                    <mask id="mask-34" fill="white">
                        <use xlink:href="#path-33"></use>
                    </mask>
                    <g id="Clip-34"></g>
                    <polygon id="Fill-33" fill="#ADB4FE" mask="url(#mask-34)" points="0 3.53857146 13.1947361 11.1193529 13.1947361 7.58078149 0 0"></polygon>
                </g>
                <g id="编组" transform="translate(16.929867, 86.808869)">
                    <mask id="mask-36" fill="white">
                        <use xlink:href="#path-35"></use>
                    </mask>
                    <g id="Clip-36"></g>
                    <polygon id="Fill-35" fill="#ADB4FE" mask="url(#mask-36)" points="0 3.53857146 16.2824787 12.9169611 16.2824787 9.37838966 0 0"></polygon>
                </g>
                <g id="编组" transform="translate(35.879561, 97.719368)">
                    <mask id="mask-38" fill="white">
                        <use xlink:href="#path-37"></use>
                    </mask>
                    <g id="Clip-38"></g>
                    <polygon id="Fill-37" fill="#ADB4FE" mask="url(#mask-38)" points="0 3.5389568 3.92995971 5.77315449 3.92995971 2.23496836 0 0"></polygon>
                </g>
                <g id="编组" transform="translate(16.929867, 93.646330)">
                    <mask id="mask-40" fill="white">
                        <use xlink:href="#path-39"></use>
                    </mask>
                    <g id="Clip-40"></g>
                    <polygon id="Fill-39" fill="#ADB4FE" mask="url(#mask-40)" points="0 3.53818612 22.8796531 16.6832682 22.8796531 13.1443114 0 0"></polygon>
                </g>
                <g id="编组" transform="translate(16.929867, 100.472232)">
                    <mask id="mask-42" fill="white">
                        <use xlink:href="#path-41"></use>
                    </mask>
                    <g id="Clip-42"></g>
                    <polygon id="Fill-41" fill="#ADB4FE" mask="url(#mask-42)" points="0 3.53857146 7.01847667 7.571148 7.01847667 4.03257654 0 0"></polygon>
                </g>
                <g id="编组" transform="translate(26.615171, 106.036918)">
                    <mask id="mask-44" fill="white">
                        <use xlink:href="#path-43"></use>
                    </mask>
                    <g id="Clip-44"></g>
                    <polygon id="Fill-43" fill="#ADB4FE" mask="url(#mask-44)" points="0 3.53857146 13.1943489 11.1193529 13.1943489 7.58078149 0 0"></polygon>
                </g>
                <g id="编组" transform="translate(16.929867, 107.013753)">
                    <mask id="mask-46" fill="white">
                        <use xlink:href="#path-45"></use>
                    </mask>
                    <g id="Clip-46"></g>
                    <polygon id="Fill-45" fill="#ADB4FE" mask="url(#mask-46)" points="0 3.5389568 16.2828659 12.9169611 16.2828659 9.37838966 0 0"></polygon>
                </g>
                <g id="编组" transform="translate(35.879561, 117.923867)">
                    <mask id="mask-48" fill="white">
                        <use xlink:href="#path-47"></use>
                    </mask>
                    <g id="Clip-48"></g>
                    <polygon id="Fill-47" fill="#ADB4FE" mask="url(#mask-48)" points="0 3.5389568 3.92995971 5.77353983 3.92995971 2.23496836 0 0"></polygon>
                </g>
                <g id="编组" transform="translate(16.929867, 113.491308)">
                    <mask id="mask-50" fill="white">
                        <use xlink:href="#path-49"></use>
                    </mask>
                    <g id="Clip-50"></g>
                    <polygon id="Fill-49" fill="#ADB4FE" mask="url(#mask-50)" points="0 3.5389568 22.8800403 16.6840388 22.8800403 13.1454674 0 0"></polygon>
                </g>
                <g id="编组" transform="translate(25.392311, 0.000000)">
                    <mask id="mask-52" fill="white">
                        <use xlink:href="#path-51"></use>
                    </mask>
                    <g id="Clip-52"></g>
                    <path d="M8.51936581,0 C7.96137271,0.00154135749 7.4591402,0.129859369 7.0277701,0.378788604 L7.0277701,0.378788604 C6.09687808,0.916337029 0.991686552,3.84954034 0,4.41907193 L0,4.41907193 C1.07997415,3.84954034 2.57892715,4.0067588 4.27575279,4.97935538 L4.27575279,4.97935538 C9.09672022,7.7433947 13.9173004,10.5170675 18.7374934,13.2868869 L18.7374934,13.2868869 C18.7371062,13.290355 18.7371062,13.2942084 18.7371062,13.2976764 L18.7371062,13.2976764 C23.5925367,16.0871481 28.4487417,18.8731518 33.3041723,21.6684036 L33.3041723,21.6684036 C36.5742984,23.5504011 39.2039522,27.8758356 39.2364792,31.6721991 L39.2364792,31.6721991 C39.3030821,39.4337047 39.330188,47.1747874 39.2279602,54.8384169 L39.2279602,54.8384169 C39.2016288,56.7743619 38.544893,57.955427 37.5501087,58.484498 L37.5501087,58.484498 L37.5504959,58.4929755 C37.5504959,58.4929755 43.6578291,54.9917819 44.7509689,54.3586693 L44.7509689,54.3586693 C45.7004478,53.8091754 46.3192354,52.6327343 46.3444052,50.7491954 L46.3444052,50.7491954 C46.4466329,43.0859513 46.4191398,35.3448687 46.3533114,27.5829777 L46.3533114,27.5829777 C46.3207843,23.7869995 43.6911306,19.461565 40.4206172,17.5791822 L40.4206172,17.5791822 C35.5655739,14.7843157 30.7093689,11.9983121 25.8539383,9.20884034 L25.8539383,9.20884034 L25.8539383,9.19766549 C21.0337453,6.42823142 16.2131651,3.65455861 11.3925849,0.890519291 L11.3925849,0.890519291 C10.3497845,0.292857923 9.38249323,0.00269737561 8.54066325,0 L8.54066325,0 L8.51936581,0 Z" id="Fill-51" fill="#3C3588" mask="url(#mask-52)"></path>
                </g>
                <g id="编组" transform="translate(46.084135, 55.107384)">
                    <mask id="mask-54" fill="white">
                        <use xlink:href="#path-53"></use>
                    </mask>
                    <g id="Clip-54"></g>
                    <path d="M5.5288171,0.499014488 C4.41902653,1.52787061 3.39984691,2.68774213 2.28850743,3.71390088 L2.28850743,3.71390088 C1.5651687,4.38207935 0.838732164,5.06721276 0.00348503669,5.54888697 L0.00348503669,5.54888697 C0.0019361315,5.5569791 0,5.56661258 0,5.56661258 L0,5.56661258 L6.82331462,1.63460962 C7.43048545,1.33443025 7.97182782,0.909015581 8.49303442,0.452003085 L8.49303442,0.452003085 C7.89399533,0.16569593 7.33329165,0 6.8260252,0 L6.8260252,0 C6.33889452,0 5.90171602,0.152979731 5.5288171,0.499014488" id="Fill-53" fill="#003689" mask="url(#mask-54)"></path>
                </g>
                <g id="编组" transform="translate(25.378177, 0.000089)">
                    <g transform="translate(0.014134, 0.000000)">
                        <mask id="mask-56" fill="white">
                            <use xlink:href="#path-55"></use>
                        </mask>
                        <g id="Clip-56"></g>
                    </g>
                    <path d="M3.14853704,2.60981489 C3.95861446,2.65104621 4.87169407,2.93619734 5.85447442,3.49956351 C10.7490148,6.30560482 15.6435553,9.1220503 20.5380957,11.934257 C20.5380957,11.9381104 20.5380957,11.9415785 20.5380957,11.9454319 C25.4682609,14.7780616 30.3984262,17.6064526 35.3285914,20.4444771 C38.6490569,22.3561457 41.3189822,26.7474732 41.3518965,30.602023 C41.4196611,38.4825985 41.4467669,46.3431364 41.3433775,54.1242943 C41.3294374,55.1785828 41.1257563,56.0055211 40.7892567,56.6351657 C39.1067584,57.6004408 37.5504959,58.4925014 37.5504959,58.4925014 L37.5497214,58.4844093 C38.5445058,57.9553384 39.2012416,56.7738878 39.2271858,54.8383282 C39.3298007,47.1746987 39.3023077,39.4336161 39.2357048,31.6717251 C39.203565,27.8757469 36.5735239,23.5506978 33.3037851,21.6683149 C28.4479673,18.8730631 23.5925367,16.0874448 18.7367189,13.2975877 C18.7367189,13.2941197 18.7371062,13.2902663 18.7371062,13.2867982 C13.916526,10.5173642 9.09594577,7.74330602 4.27536557,4.9792667 C2.5781527,4.00667012 1.07958692,3.84945166 0,4.41898325 C0.45305477,4.15887917 1.76730083,3.40399934 3.14853704,2.60981489" id="Fill-57" fill="#9B85FF"></path>
                    <path d="M20.6949223,60.6560664 C21.5301695,60.1743922 22.2569932,59.4892588 22.9799447,58.8214657 C24.090897,57.7949216 25.110851,56.6354354 26.2202544,55.6065793 C26.6868621,55.1734578 27.2549231,55.0451398 27.8946209,55.1380066 C26.8611139,56.1233194 25.8922737,57.2022696 24.8459883,58.1683154 C24.7391138,58.267733 24.6310777,58.3663799 24.5230415,58.4654121 L20.6914373,60.673792 C20.6914373,60.673792 20.6933734,60.6641586 20.6949223,60.6560664" id="Fill-59" fill="#003689"></path>
                </g>
                <g id="编组" transform="translate(23.592662, 4.089607)">
                    <mask id="mask-58" fill="white">
                        <use xlink:href="#path-57"></use>
                    </mask>
                    <g id="Clip-62"></g>
                    <path d="M1.7996486,0.329465164 C1.79190408,0.334474576 1.78415955,0.33832797 1.77680225,0.342566703 L1.77680225,0.342566703 C1.72297779,0.372237834 1.67418728,0.410386432 1.62268618,0.443140279 L1.62268618,0.443140279 C0.646101456,1.06160997 0.0524835399,2.31935769 0.0389306194,4.15935319 L0.0389306194,4.15935319 C-0.0164427413,11.7297305 -0.00792376275,19.3374858 0.0342839039,26.964508 L0.0342839039,26.964508 C0.0567430292,30.9978552 2.84283625,35.3360058 6.15904228,37.2411237 L6.15904228,37.2411237 L9.42994283,39.1169558 C11.7323904,40.4359724 12.7612507,41.8016152 13.8137318,44.1402398 L13.8137318,44.1402398 C14.7574022,46.2395687 15.6166574,48.3573939 16.5483239,50.4598056 L16.5483239,50.4598056 C17.1214188,51.7530045 17.6979988,53.0631584 18.3837765,54.3116579 L18.3837765,54.3116579 C19.5524255,56.4398873 20.9359851,57.3635458 22.1975684,56.741608 L22.1975684,56.741608 C22.3005706,56.6903579 22.395441,56.6240795 22.4949582,56.5666639 L22.4949582,56.5666639 C23.3302053,56.0849897 24.0566418,55.3998563 24.7799805,54.7316778 L24.7799805,54.7316778 C25.89132,53.7055191 26.9104996,52.5456476 28.0202902,51.5167915 L28.0202902,51.5167915 C28.7811899,50.8108497 29.8100502,50.9083406 30.9845075,51.4697801 L30.9845075,51.4697801 C31.2021287,51.5738217 31.4232349,51.6882675 31.6501495,51.8223656 L31.6501495,51.8223656 L35.2370268,53.8870139 C36.7700557,54.7713678 38.2624258,54.9732856 39.3497573,54.3948912 L39.3497573,54.3948912 C40.3445416,53.8658203 41.0012774,52.6847551 41.0276088,50.7488101 L41.0276088,50.7488101 C41.1298366,43.0851806 41.1027307,35.344098 41.0361278,27.5825923 L41.0361278,27.5825923 C41.0036008,23.7862288 38.373947,19.4607944 35.1038209,17.5787969 L35.1038209,17.5787969 C30.2483903,14.783545 25.3921853,11.9975414 20.5367548,9.20806966 L20.5367548,9.20806966 C20.5367548,9.2046016 20.5367548,9.20074821 20.537142,9.19728016 L20.537142,9.19728016 C15.716949,6.42746074 10.8963688,3.65378793 6.0754014,0.889748612 L6.0754014,0.889748612 C5.02834148,0.289389869 4.05640347,0 3.21186291,0 L3.21186291,0 C2.68794573,0 2.21320629,0.111363079 1.7996486,0.329465164" id="Fill-61" fill="#E7E0FE" mask="url(#mask-58)"></path>
                </g>
                <g id="编组" transform="translate(23.596005, 4.089607)">
                    <mask id="mask-60" fill="white">
                        <use xlink:href="#path-59"></use>
                    </mask>
                    <g id="Clip-64"></g>
                    <path d="M1.79979104,0.329465164 C1.79165928,0.334474576 1.78430199,0.33832797 1.77694469,0.342566703 L1.77694469,0.342566703 C1.722733,0.372237834 1.67394249,0.410386432 1.62244139,0.443140279 L1.62244139,0.443140279 C0.646243892,1.06160997 0.0522387493,2.31935769 0.0390730551,4.15935319 L0.0390730551,4.15935319 C-0.0163003057,11.7297305 -0.00816855339,19.3374858 0.0344263395,26.964508 L0.0344263395,26.964508 C0.0464303548,29.1362807 0.863865072,31.3932134 2.12970784,33.3137448 L2.12970784,33.3137448 C1.63638154,32.0590798 1.34828517,30.7473846 1.3413151,29.4661312 L1.3413151,29.4661312 C1.29949466,21.839109 1.29097568,14.2309684 1.34634904,6.66059106 L1.34634904,6.66059106 C1.35951474,4.82136624 1.95351988,3.56323318 2.92933015,2.94476349 L2.92933015,2.94476349 C2.98121848,2.9116243 3.03000899,2.8734757 3.08422067,2.84457525 L3.08422067,2.84457525 C3.09157797,2.83995118 3.09893527,2.83571245 3.10706702,2.83147371 L3.10706702,2.83147371 C4.18704117,2.26155678 5.68560695,2.41838991 7.38281982,3.39175716 L7.38281982,3.39175716 C12.2034,6.15541114 17.023593,8.92908395 21.8441732,11.6989034 L21.8441732,11.6989034 C21.8441732,11.7023714 21.843786,11.7062248 21.843786,11.7096929 L21.843786,11.7096929 C26.6996037,14.4995499 31.5554215,17.2855536 36.4108521,20.0804201 L36.4108521,20.0804201 C37.8796015,20.9258547 39.2166939,22.2656797 40.2494264,23.8270748 L40.2494264,23.8270748 C39.2286979,21.2402916 37.3142511,18.8508021 35.1039633,17.5787969 L35.1039633,17.5787969 C30.2485328,14.783545 25.3923278,11.9975414 20.53651,9.20806966 L20.53651,9.20806966 C20.53651,9.2046016 20.5368972,9.20074821 20.5368972,9.19728016 L20.5368972,9.19728016 C15.7167042,6.42746074 10.896124,3.65378793 6.07554383,0.889748612 L6.07554383,0.889748612 C5.02809669,0.289389869 4.05654591,0 3.21200535,0 L3.21200535,0 C2.68808817,0 2.21334872,0.111363079 1.79979104,0.329465164" id="Fill-63" fill="#2C00AA" mask="url(#mask-60)"></path>
                </g>
                <g id="编组" transform="translate(28.397225, 21.458332)">
                    <path d="M22.7830014,14.7933174 C22.7830014,17.0406166 24.3683059,19.7726728 26.3241859,20.8963224 C28.2792915,22.0195866 29.864596,21.1090297 29.864596,18.8621158 C29.864596,16.6152019 28.2792915,13.8827604 26.3241859,12.7591108 C24.3683059,11.6354612 22.7830014,12.5464035 22.7830014,14.7933174" id="Fill-65" fill="#8591FF"></path>
                    <path d="M12.0979564,8.65439876 C12.0979564,10.901698 13.6832608,13.6337541 15.6387537,14.7574038 C17.5942465,15.880668 19.1795509,14.9701111 19.1795509,12.7231972 C19.1795509,10.475898 17.5942465,7.74345648 15.6387537,6.62019221 C13.6832608,5.4965426 12.0979564,6.40709954 12.0979564,8.65439876" id="Fill-67" fill="#8591FF"></path>
                    <path d="M1.41295004,2.51532601 C1.41295004,4.76262523 2.99825451,7.49468138 4.95374732,8.618331 C6.90924013,9.74198061 8.4945446,8.83103833 8.4945446,6.58412445 C8.4945446,4.33721056 6.90924013,1.60476907 4.95374732,0.481119457 C2.99825451,-0.642144816 1.41295004,0.268412123 1.41295004,2.51532601" id="Fill-69" fill="#8591FF"></path>
                    <path d="M21.3702063,15.6104681 C21.3702063,17.8577673 22.9555107,20.5898234 24.9110036,21.7130877 C26.8661091,22.8367373 28.4518008,21.9261804 28.4518008,19.6792665 C28.4518008,17.4319673 26.8661091,14.6995258 24.9110036,13.5762615 C22.9555107,12.4526119 21.3702063,13.3631688 21.3702063,15.6104681" id="Fill-71" fill="#FFFFFF"></path>
                    <path d="M10.6850063,9.47135677 C10.6850063,11.718656 12.2703108,14.4507121 14.2258036,15.5743618 C16.1812964,16.697626 17.7666009,15.7870691 17.7666009,13.5401552 C17.7666009,11.2932413 16.1812964,8.56079983 14.2258036,7.43715022 C12.2703108,6.31388594 10.6850063,7.22444288 10.6850063,9.47135677" id="Fill-73" fill="#FFFFFF"></path>
                    <path d="M0,3.33247668 C0,5.5797759 1.58530447,8.31183206 3.54079728,9.43548167 C5.49629009,10.5591313 7.08159456,9.648189 7.08159456,7.40127512 C7.08159456,5.1539759 5.49629009,2.42191974 3.54079728,1.29827013 C1.58530447,0.174620519 0,1.08517746 0,3.33247668" id="Fill-75" fill="#FFFFFF"></path>
                </g>
            </g>
        </g>
    </g>
</svg>