<?xml version="1.0" encoding="UTF-8"?>
<svg width="14px" height="14px" viewBox="0 0 14 14" version="1.1" xmlns="http://www.w3.org/2000/svg" xmlns:xlink="http://www.w3.org/1999/xlink">
    <title>02🐰-Icon图标/03-常用提示/05成功</title>
    <g id="3期" stroke="none" stroke-width="1" fill="none" fill-rule="evenodd">
        <g id="14.数据1" transform="translate(-254.000000, -310.000000)" fill="#FFFFFF">
            <g id="编组-7" transform="translate(103.000000, 239.000000)">
                <g id="编组-5" transform="translate(20.000000, 16.000000)">
                    <g id="编组-4" transform="translate(0.000000, 36.000000)">
                        <g id="02🐰-Icon图标/03-常用提示/05成功" transform="translate(126.000000, 14.000000)">
                            <path d="M12,5 C15.8652874,5 19,8.13471264 19,12 C19,15.8652874 15.8652874,19 12,19 C8.13471264,19 5,15.8652874 5,12 C5,8.13471264 8.13471264,5 12,5 Z M16.2071068,9.29289322 C15.8165825,8.90236893 15.1834175,8.90236893 14.7928932,9.29289322 L14.7928932,9.29289322 L11,13.085 L9.20710678,11.2928932 L9.11289944,11.2097046 C8.72060824,10.9046797 8.15337718,10.9324093 7.79289322,11.2928932 C7.40236893,11.6834175 7.40236893,12.3165825 7.79289322,12.7071068 L7.79289322,12.7071068 L10.2928932,15.2071068 L10.3871006,15.2902954 C10.7793918,15.5953203 11.3466228,15.5675907 11.7071068,15.2071068 L11.7071068,15.2071068 L16.2071068,10.7071068 L16.2902954,10.6128994 C16.5953203,10.2206082 16.5675907,9.65337718 16.2071068,9.29289322 Z" id="形状结合"></path>
                        </g>
                    </g>
                </g>
            </g>
        </g>
    </g>
</svg>