<?xml version="1.0" standalone="no"?><!DOCTYPE svg PUBLIC "-//W3C//DTD SVG 1.1//EN" "http://www.w3.org/Graphics/SVG/1.1/DTD/svg11.dtd"><svg t="1654146387915" class="icon" viewBox="0 0 1024 1024" version="1.1" xmlns="http://www.w3.org/2000/svg" p-id="2175" width="32" height="32" xmlns:xlink="http://www.w3.org/1999/xlink"><defs><style type="text/css">@font-face { font-family: feedback-iconfont; src: url("//at.alicdn.com/t/font_1031158_u69w8yhxdu.woff2?t=1630033759944") format("woff2"), url("//at.alicdn.com/t/font_1031158_u69w8yhxdu.woff?t=1630033759944") format("woff"), url("//at.alicdn.com/t/font_1031158_u69w8yhxdu.ttf?t=1630033759944") format("truetype"); }
</style></defs><path d="M928 64H710.4c-14.933333 0-21.333333 17.066667-10.666667 27.733333l93.866667 93.866667-157.866667 157.866667c-12.8 12.8-12.8 32 0 44.8 6.4 6.4 14.933333 8.533333 23.466667 8.533333s17.066667-2.133333 23.466667-8.533333l157.866666-157.866667 93.866667 93.866667c10.666667 10.666667 27.733333 2.133333 27.733333-10.666667V96C960 78.933333 945.066667 64 928 64zM230.4 185.6l93.866667-93.866667c10.666667-10.666667 4.266667-27.733333-10.666667-27.733333H96C78.933333 64 64 78.933333 64 96v217.6c0 14.933333 17.066667 21.333333 27.733333 10.666667l93.866667-93.866667 157.866667 157.866667c6.4 6.4 14.933333 8.533333 23.466666 8.533333s17.066667-2.133333 23.466667-8.533333c12.8-12.8 12.8-32 0-44.8l-160-157.866667zM932.266667 699.733333l-93.866667 93.866667-157.866667-157.866667c-12.8-12.8-32-12.8-44.8 0s-12.8 32 0 44.8l157.866667 157.866667-93.866667 93.866667c-10.666667 10.666667-2.133333 27.733333 10.666667 27.733333h217.6c17.066667 0 32-14.933333 32-32V710.4c0-14.933333-17.066667-21.333333-27.733333-10.666667zM343.466667 635.733333l-157.866667 157.866667-93.866667-93.866667c-10.666667-10.666667-27.733333-4.266667-27.733333 10.666667v217.6c0 17.066667 14.933333 32 32 32h217.6c14.933333 0 21.333333-17.066667 10.666667-27.733333l-93.866667-93.866667 157.866667-157.866667c12.8-12.8 12.8-32 0-44.8s-32-12.8-44.8 0z" fill="#333333" p-id="2176"></path></svg>