<?xml version="1.0" standalone="no"?>
<!DOCTYPE svg PUBLIC "-//W3C//DTD SVG 1.1//EN" "http://www.w3.org/Graphics/SVG/1.1/DTD/svg11.dtd">
<svg t="1635496010488" class="icon" viewBox="0 0 1024 1024" version="1.1" xmlns="http://www.w3.org/2000/svg" p-id="5137" xmlns:xlink="http://www.w3.org/1999/xlink" width="32" height="32">
    <defs>
        <style type="text/css"></style>
    </defs>
    <path d="M469.333333 810.666667V384H170.666667v426.666667h298.666666z m0-512V170.666667a42.666667 42.666667 0 0 1 42.666667-42.666667h384a42.666667 42.666667 0 0 1 42.666667 42.666667v682.666666a42.666667 42.666667 0 0 1-42.666667 42.666667H128a42.666667 42.666667 0 0 1-42.666667-42.666667V341.333333a42.666667 42.666667 0 0 1 42.666667-42.666666h341.333333z m85.333334-85.333334v597.333334h298.666666V213.333333h-298.666666zM213.333333 682.666667h213.333334v85.333333H213.333333v-85.333333z m384 0h213.333334v85.333333h-213.333334v-85.333333z m0-128h213.333334v85.333333h-213.333334v-85.333333z m0-128h213.333334v85.333333h-213.333334v-85.333333z m-384 128h213.333334v85.333333H213.333333v-85.333333z" p-id="5138" fill="#ffffff"></path>
</svg>