<?xml version="1.0" encoding="UTF-8"?>
<svg width="22px" height="22px" viewBox="0 0 22 22" version="1.1" xmlns="http://www.w3.org/2000/svg" xmlns:xlink="http://www.w3.org/1999/xlink">
    <title>编组 9</title>
    <g id="页面-1" stroke="none" stroke-width="1" fill="none" fill-rule="evenodd">
        <g id="1备份-4" transform="translate(-878.000000, -489.000000)">
            <g id="编组-9" transform="translate(878.000000, 489.000000)">
                <rect id="矩形" fill="#D8D8D8" opacity="0" x="0" y="0" width="22" height="22"></rect>
                <g id="适配对齐" transform="translate(2.000000, 2.000000)" fill="#000000" fill-rule="nonzero" stroke="#000000" stroke-width="0.2">
                    <path d="M17.07322,0 L1.42598,0 C0.638432992,0 0,0.638432992 0,1.42598 L0,17.07322 C0,17.4514134 0.150236747,17.814117 0.417659872,18.0815401 C0.685082997,18.3489633 1.04778659,18.4992 1.42598,18.4992 L17.07322,18.4992 C17.4514134,18.4992 17.814117,18.3489633 18.0815401,18.0815401 C18.3489633,17.814117 18.4992,17.4514134 18.4992,17.07322 L18.4992,1.42598 C18.4992,0.638432992 17.860767,0 17.07322,0 Z M17.7284,17.07322 C17.7284,17.4350659 17.4350659,17.7284 17.07322,17.7284 L1.42598,17.7284 C1.06413408,17.7284 0.7708,17.4350659 0.7708,17.07322 L0.7708,1.42598 C0.7708,1.06413408 1.06413408,0.7708 1.42598,0.7708 L17.07322,0.7708 C17.4350659,0.7708 17.7284,1.06413408 17.7284,1.42598 L17.7284,17.07322 Z" id="形状"></path>
                    <path d="M3.62276,3.0832 L5.781,3.0832 C5.99385054,3.0832 6.16640404,2.91065054 6.16640404,2.6978 C6.16640404,2.48494946 5.99385054,2.3124 5.781,2.3124 L3.73838,2.3124 C2.95083299,2.3124 2.3124,2.95083299 2.3124,3.73838 L2.3124,5.781 C2.3124,5.99385054 2.48494946,6.16640404 2.6978,6.16640404 C2.91065054,6.16640404 3.0832,5.99385054 3.0832,5.781 L3.0832,3.62276 L5.54976,6.08932 C5.70319556,6.20439667 5.91789979,6.18913811 6.05351895,6.05351895 C6.18913811,5.91789979 6.20439667,5.70319556 6.08932,5.54976 L3.62276,3.0832 Z M15.8014,12.332796 C15.5885495,12.332796 15.416,12.5053495 15.416,12.7182 L15.416,14.87644 L12.94944,12.40988 C12.7960044,12.2948033 12.5813002,12.3100619 12.445681,12.445681 C12.3100619,12.5813002 12.2948033,12.7960044 12.40988,12.94944 L14.87644,15.416 L12.7182,15.416 C12.5053495,15.416 12.332796,15.5885495 12.332796,15.8014 C12.332796,16.0142505 12.5053495,16.1868 12.7182,16.1868 L14.76082,16.1868 C15.1390134,16.1868 15.501717,16.0365633 15.7691401,15.7691401 C16.0365633,15.501717 16.1868,15.1390134 16.1868,14.76082 L16.1868,12.7182 C16.1868,12.5053495 16.0142505,12.332796 15.8014,12.332796 Z M6.08932,12.40988 C5.93945971,12.2629875 5.69962029,12.2629875 5.54976,12.40988 L3.0832,14.87644 L3.0832,12.7182 C3.0832,12.5053495 2.91065054,12.3328 2.6978,12.3328 C2.48494946,12.3328 2.3124,12.5053495 2.3124,12.7182 L2.3124,14.76082 C2.3124,15.1390134 2.46263675,15.501717 2.73005987,15.7691401 C2.997483,16.0365633 3.36018659,16.1868 3.73838,16.1868 L5.781,16.1868 C5.99385054,16.1868 6.1664,16.0142505 6.1664,15.8014 C6.1664,15.5885495 5.99385054,15.416 5.781,15.416 L3.62276,15.416 L6.08932,12.94944 C6.23621246,12.7995797 6.23621246,12.5597403 6.08932,12.40988 L6.08932,12.40988 Z M14.76082,2.3124 L12.7182,2.3124 C12.5053495,2.3124 12.3328,2.48494946 12.3328,2.6978 C12.3328,2.91065054 12.5053495,3.0832 12.7182,3.0832 L14.87644,3.0832 L12.40988,5.54976 C12.2892393,5.64024054 12.2324529,5.79277099 12.2645523,5.94011596 C12.2966516,6.08746094 12.4117391,6.20254837 12.559084,6.23464774 C12.706429,6.26674711 12.8589595,6.20996072 12.94944,6.08932 L15.416,3.62276 L15.416,5.781 C15.416,5.99385054 15.5885495,6.1664 15.8014,6.1664 C16.0142505,6.1664 16.1868,5.99385054 16.1868,5.781 L16.1868,3.73838 C16.1868,2.95083299 15.548367,2.3124 14.76082,2.3124 L14.76082,2.3124 Z" id="形状"></path>
                </g>
            </g>
        </g>
    </g>
</svg>