<?xml version="1.0" standalone="no"?><!DOCTYPE svg PUBLIC "-//W3C//DTD SVG 1.1//EN" "http://www.w3.org/Graphics/SVG/1.1/DTD/svg11.dtd"><svg t="1635393131234" class="icon" viewBox="0 0 1024 1024" version="1.1" xmlns="http://www.w3.org/2000/svg" p-id="25838" xmlns:xlink="http://www.w3.org/1999/xlink" width="32" height="32"><defs><style type="text/css"></style></defs><path d="M170.666667 938.666667a341.333333 341.333333 0 1 1 682.666666 0h-85.333333a256 256 0 1 0-512 0H170.666667z m341.333333-384c-141.44 0-256-114.56-256-256s114.56-256 256-256 256 114.56 256 256-114.56 256-256 256z m0-85.333334c94.293333 0 170.666667-76.373333 170.666667-170.666666s-76.373333-170.666667-170.666667-170.666667-170.666667 76.373333-170.666667 170.666667 76.373333 170.666667 170.666667 170.666666z" p-id="25839"></path></svg>