<?xml version="1.0" encoding="UTF-8"?>
<svg width="16px" height="16px" viewBox="0 0 16 16" version="1.1" xmlns="http://www.w3.org/2000/svg" xmlns:xlink="http://www.w3.org/1999/xlink">
    <!-- Generator: Sketch 58 (84663) - https://sketch.com -->
    <title>展开</title>
    <desc>Created with Sketch.</desc>
    <g id="应用管理" stroke="none" stroke-width="1" fill="none" fill-rule="evenodd">
        <g id="授权应用" transform="translate(-336.000000, -641.000000)">
            <g id="展开" transform="translate(336.000000, 641.000000)">
                <rect id="Rectangle-271-Copy-12" stroke-opacity="0.15" stroke="#000000" fill="#FFFFFF" x="0.5" y="0.5" width="15" height="15" rx="2"></rect>
                <g id="Group" transform="translate(3.000000, 3.000000)">
                    <rect id="Rectangle" x="0" y="0" width="10" height="10"></rect>
                    <path d="M5,0.625 C5.21573623,0.625 5.390625,0.79988877 5.390625,1.015625 L5.39,4.609 L8.984375,4.609375 C9.20011123,4.609375 9.375,4.78426377 9.375,5 C9.375,5.21573623 9.20011123,5.390625 8.984375,5.390625 L5.39,5.39 L5.390625,8.984375 C5.390625,9.20011123 5.21573623,9.375 5,9.375 C4.78426377,9.375 4.609375,9.20011123 4.609375,8.984375 L4.609,5.39 L1.015625,5.390625 C0.79988877,5.390625 0.625,5.21573623 0.625,5 C0.625,4.78426377 0.79988877,4.609375 1.015625,4.609375 L4.609,4.609 L4.609375,1.015625 C4.609375,0.79988877 4.78426377,0.625 5,0.625 Z" id="Combined-Shape" fill-opacity="0.65" fill="#000000"></path>
                </g>
            </g>
        </g>
    </g>
</svg>