<?xml version="1.0" encoding="utf-8"?>
<svg version="1.1" xmlns:xlink="http://www.w3.org/1999/xlink" width="19px" height="16px" xmlns="http://www.w3.org/2000/svg">
  <title>记录数据</title>
  <g transform="matrix(1 0 0 1 -1 -1 )">
    <path d="M 5.58823529411765 11.5178571428571  L 5.58823529411765 14.5714285714286  L 8.94117647058824 12.8571428571429  L 8.94117647058824 10.0535714285714  L 5.58823529411765 11.5178571428571  Z M 1.50183823529412 8.97321428571428  L 5.02941176470588 10.5178571428571  L 8.55698529411765 8.97321428571428  L 5.02941176470588 7.42857142857143  L 1.50183823529412 8.97321428571428  Z M 14.5294117647059 11.5178571428571  L 14.5294117647059 14.5714285714286  L 17.8823529411765 12.8571428571429  L 17.8823529411765 10.0535714285714  L 14.5294117647059 11.5178571428571  Z M 10.4430147058824 8.97321428571428  L 13.9705882352941 10.5178571428571  L 17.4981617647059 8.97321428571428  L 13.9705882352941 7.42857142857143  L 10.4430147058824 8.97321428571428  Z M 10.0588235294118 5.51785714285714  L 10.0588235294118 7.90178571428571  L 13.4117647058824 6.42857142857143  L 13.4117647058824 4.05357142857143  L 10.0588235294118 5.51785714285714  Z M 5.64935661764706 2.83035714285714  L 9.5 4.51785714285714  L 13.3506433823529 2.83035714285714  L 9.5 1.14285714285714  L 5.64935661764706 2.83035714285714  Z M 18.8166360294118 8.51785714285714  C 18.9388786764706 8.70833333333333  19 8.91666666666667  19 9.14285714285714  L 19 12.8571428571429  C 19 13.0714285714286  18.944699754902 13.2708333333333  18.8340992647059 13.4553571428571  C 18.7234987745098 13.639880952381  18.5721507352941 13.7797619047619  18.3800551470588 13.875  L 14.4682904411765 15.875  C 14.3227634803922 15.9583333333333  14.156862745098 16  13.9705882352941 16  C 13.7843137254902 16  13.6184129901961 15.9583333333333  13.4728860294118 15.875  L 9.56112132352941 13.875  C 9.53783700980392 13.8630952380952  9.51746323529412 13.8511904761905  9.5 13.8392857142857  C 9.48835784313726 13.8511904761905  9.46798406862745 13.8630952380952  9.43887867647059 13.875  L 5.52711397058824 15.875  C 5.38158700980392 15.9583333333333  5.2156862745098 16  5.02941176470588 16  C 4.84313725490196 16  4.67723651960784 15.9583333333333  4.53170955882353 15.875  L 0.619944852941177 13.875  C 0.427849264705882 13.7797619047619  0.276501225490196 13.639880952381  0.165900735294118 13.4553571428571  C 0.0553002450980392 13.2708333333333  0 13.0714285714286  0 12.8571428571429  L 0 9.14285714285714  C 0 8.91666666666667  0.0625765931372549 8.70833333333333  0.187729779411765 8.51785714285714  C 0.312882965686274 8.32738095238095  0.477328431372549 8.18452380952381  0.681066176470588 8.08928571428572  L 4.47058823529412 6.42857142857143  L 4.47058823529412 2.85714285714286  C 4.47058823529412 2.63095238095238  4.53316482843137 2.42261904761905  4.65831801470588 2.23214285714286  C 4.78347120098039 2.04166666666667  4.94791666666667 1.89880952380952  5.15165441176471 1.80357142857143  L 9.06341911764706 0.0892857142857135  C 9.19730392156863 0.0297619047619069  9.34283088235294 0  9.5 0  C 9.65716911764706 0  9.80269607843137 0.0297619047619069  9.93658088235294 0.0892857142857135  L 13.8483455882353 1.80357142857143  C 14.0520833333333 1.89880952380952  14.2165287990196 2.04166666666667  14.3416819852941 2.23214285714286  C 14.4668351715686 2.42261904761905  14.5294117647059 2.63095238095238  14.5294117647059 2.85714285714286  L 14.5294117647059 6.42857142857143  L 18.3189338235294 8.08928571428572  C 18.5284926470588 8.18452380952381  18.6943933823529 8.32738095238095  18.8166360294118 8.51785714285714  Z " fill-rule="nonzero" fill="#f4f4f4" stroke="none" transform="matrix(1 0 0 1 1 1 )" />
  </g>
</svg>