<?xml version="1.0" encoding="UTF-8"?>
<svg width="30px" height="30px" viewBox="0 0 30 30" version="1.1" xmlns="http://www.w3.org/2000/svg" xmlns:xlink="http://www.w3.org/1999/xlink">
    <title>编组 6备份</title>
    <g id="页面-1" stroke="none" stroke-width="1" fill="none" fill-rule="evenodd">
        <g id="22备份-4" transform="translate(-1010.000000, -309.000000)">
            <g id="编组-6备份" transform="translate(1010.000000, 309.000000)">
                <path d="M15,0 C11.019,0 7.4,1.551 4.715,4.081 C1.812,6.816 0,10.697 0,15 C0,23.284 6.716,30 15,30 C23.284,30 30,23.284 30,15 C30,6.716 23.284,0 15,0 M15,2 C22.168,2 28,7.832 28,15 C28,22.168 22.168,28 15,28 C7.832,28 2,22.168 2,15 C2,11.381 3.451,8.02 6.087,5.537 C8.507,3.256 11.672,2 15,2" id="Fill-3" fill="#1AB96E"></path>
                <path d="M22.1821,11.2178 L13.5271,19.8728 C13.1351,20.2638 12.5011,20.2638 12.1091,19.8728 L7.1181,14.8818" id="Stroke-9" stroke="#1AB96E" stroke-width="2" stroke-linecap="round"></path>
            </g>
        </g>
    </g>
</svg>