<?xml version="1.0" encoding="UTF-8"?>
<svg width="32px" height="30px" viewBox="0 0 32 30" version="1.1" xmlns="http://www.w3.org/2000/svg" xmlns:xlink="http://www.w3.org/1999/xlink">
    <title>编组 4</title>
    <g id="页面-1" stroke="none" stroke-width="1" fill="none" fill-rule="evenodd">
        <g id="22备份-4" transform="translate(-921.000000, -553.000000)">
            <g id="编组-4" transform="translate(922.000000, 553.000000)">
                <rect id="矩形" fill="#D8D8D8" opacity="0" x="0" y="0" width="30" height="30"></rect>
                <g id="编组-2" transform="translate(0.000000, 1.000000)" stroke="#1990FF" stroke-linecap="round" stroke-width="2">
                    <path d="M20.5111334,-2.18926743e-13 C25.5942758,2.1346752 29.1646118,7.1585472 29.1646118,13.0178496 C29.1646118,15.7433472 28.3912742,18.289152 27.0534566,20.4473472 C26.7138278,20.9948928 26.3375078,21.5170368 25.9282598,22.0109568 C24.9103142,23.2405824 23.688215,24.2942784 22.3137062,25.1212416 C21.7097126,25.4843904 21.0756134,25.8033216 20.4161126,26.074272 C18.763127,26.7544704 16.952087,27.1298496 15.0526118,27.1298496 C7.25902464,27.1298496 0.94061184,20.8114368 0.94061184,13.0178496 C0.94061184,8.9695872 2.64534144,5.3183424 5.37742464,2.7452544" id="Stroke-11"></path>
                    <path d="M0,1.72815552 L4.7049408,1.72815552 C5.2242624,1.72815552 5.6448,2.14869312 5.6448,2.66801472 L5.6448,7.37295552" id="Stroke-13"></path>
                </g>
            </g>
        </g>
    </g>
</svg>