<svg width="22" height="22" viewBox="0 0 22 22" fill="none" xmlns="http://www.w3.org/2000/svg">
<path d="M4.75 11C4.75 10.5858 5.08579 10.25 5.5 10.25H13.75C14.1642 10.25 14.5 10.5858 14.5 11C14.5 11.4142 14.1642 11.75 13.75 11.75H5.5C5.08579 11.75 4.75 11.4142 4.75 11Z" fill="#36322F"/>
<path d="M5.5 13.9167C5.08579 13.9167 4.75 14.2524 4.75 14.6667C4.75 15.0809 5.08579 15.4167 5.5 15.4167H9.16667C9.58088 15.4167 9.91667 15.0809 9.91667 14.6667C9.91667 14.2524 9.58088 13.9167 9.16667 13.9167H5.5Z" fill="#36322F"/>
<path fill-rule="evenodd" clip-rule="evenodd" d="M11.531 2.67801C11.2381 2.38512 10.7632 2.38512 10.4703 2.67801L7.02336 6.125H2.75065C1.83018 6.125 1.08398 6.87119 1.08398 7.79167V17.875C1.08398 18.7955 1.83018 19.5417 2.75065 19.5417H19.2507C20.1711 19.5417 20.9173 18.7955 20.9173 17.875V7.79167C20.9173 6.87119 20.1711 6.125 19.2507 6.125H14.978L11.531 2.67801ZM7.33003 7.625L7.33401 7.62501H14.6673L14.6713 7.625H19.2507C19.3427 7.625 19.4173 7.69962 19.4173 7.79167V17.875C19.4173 17.967 19.3427 18.0417 19.2507 18.0417H2.75065C2.6586 18.0417 2.58398 17.967 2.58398 17.875V7.79167C2.58398 7.69962 2.6586 7.625 2.75065 7.625H7.33003ZM12.8567 6.125L11.0007 4.269L9.14468 6.125H12.8567Z" fill="#36322F"/>
</svg>
