<svg width="24" height="24" viewBox="0 0 24 24" fill="none" xmlns="http://www.w3.org/2000/svg">
<rect width="24" height="24" fill="white" fill-opacity="0.01"/>
<path d="M15.7071 5.29289C15.3166 4.90237 14.6834 4.90237 14.2929 5.29289C13.9024 5.68342 13.9024 6.31658 14.2929 6.70711L18.5858 11H3C2.44772 11 2 11.4477 2 12C2 12.5523 2.44772 13 3 13H18.5858L14.2929 17.2929C13.9024 17.6834 13.9024 18.3166 14.2929 18.7071C14.6834 19.0976 15.3166 19.0976 15.7071 18.7071L21.7071 12.7071C21.806 12.6082 21.8799 12.4937 21.9287 12.3715C21.9702 12.2676 21.9936 12.1581 21.9989 12.048C21.9996 12.032 22 12.016 22 12C22 11.8687 21.9747 11.7434 21.9287 11.6285C21.8799 11.5063 21.806 11.3918 21.7071 11.2929L15.7071 5.29289Z" fill="#2B60E9"/>
</svg>
