<?xml version="1.0" encoding="UTF-8"?>
<svg width="14px" height="14px" viewBox="0 0 14 14" version="1.1" xmlns="http://www.w3.org/2000/svg" xmlns:xlink="http://www.w3.org/1999/xlink">
    <title>1.icon3</title>
    <g id="3期" stroke="none" stroke-width="1" fill="none" fill-rule="evenodd">
        <g id="8.My-Algorithms备份" transform="translate(-545.000000, -333.000000)" fill="#FFFFFF">
            <g id="1.icon3" transform="translate(545.000000, 333.000000)">
                <path d="M7,0 C10.8652874,0 14,3.13471264 14,7 C14,10.8652874 10.8652874,14 7,14 C3.13471264,14 0,10.8652874 0,7 C0,3.13471264 3.13471264,0 7,0 Z M11.2071068,4.29289322 C10.8165825,3.90236893 10.1834175,3.90236893 9.79289322,4.29289322 L9.79289322,4.29289322 L6,8.085 L4.20710678,6.29289322 L4.11289944,6.20970461 C3.72060824,5.90467972 3.15337718,5.93240926 2.79289322,6.29289322 C2.40236893,6.68341751 2.40236893,7.31658249 2.79289322,7.70710678 L2.79289322,7.70710678 L5.29289322,10.2071068 L5.38710056,10.2902954 C5.77939176,10.5953203 6.34662282,10.5675907 6.70710678,10.2071068 L6.70710678,10.2071068 L11.2071068,5.70710678 L11.2902954,5.61289944 C11.5953203,5.22060824 11.5675907,4.65337718 11.2071068,4.29289322 Z" id="形状结合"></path>
            </g>
        </g>
    </g>
</svg>