<?xml version="1.0" encoding="UTF-8"?>
<svg width="17px" height="14px" viewBox="0 0 17 14" version="1.1" xmlns="http://www.w3.org/2000/svg" xmlns:xlink="http://www.w3.org/1999/xlink">
    <title>6.icon1</title>
    <g id="3期" stroke="none" stroke-width="1" fill="none" fill-rule="evenodd">
        <g id="6.Blacklist-Query" transform="translate(-593.000000, -273.000000)" fill="#3C3588" fill-rule="nonzero">
            <g id="Modal-对话框/有按钮" transform="translate(383.000000, 191.000000)">
                <g id="编组-9" transform="translate(20.000000, 70.000000)">
                    <g id="编组" transform="translate(189.978723, 12.000000)">
                        <path d="M8.32191382,5.99905506 L8.3408975,5.99923481 C8.36420853,5.99967631 8.38750707,6.0009311 8.41074709,6.00299917 L8.32191382,5.99905506 C8.37219053,5.99905506 8.42159909,6.00277926 8.46987967,6.00996734 C8.48773957,6.01269719 8.50605873,6.01594716 8.52429314,6.01971167 C8.54433658,6.02377442 8.56339746,6.02832133 8.58223783,6.03340692 C8.60027032,6.03833626 8.61897322,6.04395498 8.63753094,6.05013436 C8.65426678,6.05567254 8.67033773,6.06151392 8.6862105,6.06775085 C8.7065171,6.07571303 8.72718898,6.08461983 8.74760211,6.09425851 C8.76619938,6.10311164 8.78392308,6.11217532 8.80133108,6.12174391 C8.81462165,6.12894848 8.82822749,6.136834 8.84168086,6.14506775 C8.86720083,6.16079286 8.89201162,6.17756623 8.91599677,6.19539175 C8.92203517,6.19979663 8.92788926,6.20425383 8.93370483,6.20878444 C8.94045591,6.21415159 8.94335035,6.21645283 8.94623168,6.21876977 L9.02774179,6.29198287 L11.6895858,8.95896452 C12.0794038,9.34953494 12.0794038,9.98277471 11.6895858,10.3733451 C11.3297538,10.7338717 10.7635485,10.7616045 10.3719668,10.4565436 L10.2779298,10.3733451 L9.32,9.414 L9.32010531,12.9998819 C9.32010531,13.5522319 8.87319976,14 8.32191382,14 C7.81000544,14 7.38809852,13.6139142 7.33043788,13.1165168 L7.32372232,12.9998819 L7.323,9.413 L6.3658978,10.3733451 C6.00606578,10.7338717 5.43986056,10.7616045 5.04827882,10.4565436 L4.95424185,10.3733451 C4.59440983,10.0128186 4.56673044,9.44552053 4.87120369,9.05318298 L4.95424185,8.95896452 L7.61608584,6.29198287 L7.69759595,6.21876977 C7.70047728,6.21645283 7.70337172,6.21415159 7.70627913,6.21186615 L7.61608584,6.29198287 C7.65141588,6.25658464 7.68873541,6.22439462 7.72768382,6.19541282 C7.75217243,6.17730135 7.77736434,6.1602946 7.80333556,6.14444269 C7.81370156,6.13801445 7.8243196,6.13180339 7.83502449,6.12580522 C7.85604659,6.11410238 7.87751532,6.10306246 7.89941742,6.09279601 C7.91805047,6.08403767 7.93703903,6.07586942 7.95621376,6.06831855 C7.97231077,6.06194315 7.98896433,6.05587192 8.0058179,6.0502388 C8.02485441,6.04395498 8.04355731,6.03833626 8.06237905,6.03327821 C8.08043018,6.02832133 8.09949105,6.02377442 8.11875495,6.01978371 C8.13785008,6.0159304 8.15625116,6.01266826 8.17471426,6.00992525 C8.19321595,6.0070987 8.21266359,6.00478173 8.23227437,6.003033 C8.25614987,6.0009403 8.27953371,5.99967793 8.30293013,5.99923481 C8.30902855,5.99911634 8.31546404,5.99905506 8.32191382,5.99905506 Z M8.86907754,0.536864827 C9.7438694,0.922611171 10.5199436,1.50211825 11.1387924,2.23167878 C11.5512104,2.71787807 11.8867729,3.26235764 12.1355999,3.84597577 L12.195895,3.99881882 L12.3153087,3.99881902 C13.1962313,3.99937513 14.0539707,4.26934887 14.7755691,4.76995727 L14.9689084,4.9121759 C15.7269136,5.50353815 16.2672634,6.33094411 16.5041904,7.26367384 C16.7412522,8.19684767 16.6615438,9.18251565 16.2774879,10.064949 C15.8934728,10.9473755 15.2267082,11.6767497 14.3830358,12.1377204 C13.8990397,12.402169 13.2927183,12.2234333 13.028779,11.738503 C12.7836926,11.2882106 12.9200035,10.7322402 13.3282413,10.4433809 L13.4272273,10.3816324 C13.8816577,10.133338 14.2407865,9.74048676 14.4475088,9.26546072 C14.6542535,8.79042963 14.6971749,8.25966712 14.569488,7.7570384 C14.4419093,7.25478881 14.1507883,6.80901232 13.7428806,6.49078048 C13.3853108,6.21217926 12.9557505,6.04490286 12.5076849,6.00721819 L12.3146798,5.99905506 L11.4761989,5.99905506 C11.0212338,5.99905506 10.6238327,5.69081403 10.5098443,5.2495097 C10.3459403,4.61495785 10.0408973,4.02607129 9.61758417,3.52702777 C9.19426346,3.02797524 8.6633484,2.63153241 8.06489108,2.36763796 C7.46610128,2.10359689 6.81622785,1.9790687 6.16263873,2.00317197 C5.50943232,2.02728107 4.8697609,2.19954701 4.29232141,2.50691737 C3.71511272,2.81411073 3.21504119,3.24849894 2.82909765,3.77809361 C2.44358136,4.30636149 2.1827693,4.91580322 2.06583527,5.56121226 C1.94911082,6.20546456 1.97982757,6.86806023 2.15562239,7.49932492 C2.33132414,8.13020123 2.6475928,8.71297723 3.08063208,9.2037815 C3.44575908,9.61761437 3.40692142,10.2496574 2.99388575,10.6154892 C2.58085008,10.9813209 1.9500246,10.9424083 1.58489761,10.5285754 C0.951886953,9.81112469 0.489555209,8.95920393 0.2326938,8.03691498 C-0.0242029154,7.11442007 -0.0691027451,6.14587906 0.101553829,5.20395223 C0.272366312,4.26116488 0.65367179,3.37016517 1.21716014,2.59802492 C1.78074863,1.82466392 2.51187506,1.18956937 3.35574009,0.740460172 C4.19960545,0.291271629 5.13439049,0.0395304746 6.08917668,0.00429041549 C7.04429903,-0.0309328934 7.9942225,0.151090619 8.86907754,0.536864827 Z" id="6.icon1"></path>
                    </g>
                </g>
            </g>
        </g>
    </g>
</svg>