<?xml version="1.0" encoding="UTF-8"?>
<svg width="18px" height="14px" viewBox="0 0 18 14" version="1.1" xmlns="http://www.w3.org/2000/svg" xmlns:xlink="http://www.w3.org/1999/xlink">
    <title>8.icon2</title>
    <g id="3期" stroke="none" stroke-width="1" fill="none" fill-rule="evenodd">
        <g id="8.My-Algorithms" transform="translate(-123.000000, -282.000000)">
            <g id="门户左侧菜单" transform="translate(103.000000, 178.000000)">
                <g id="02-左侧菜单（展开）-03" transform="translate(1.000000, 47.000000)">
                    <g id="侧导航" transform="translate(0.000000, 44.000000)">
                        <g id="编组" transform="translate(16.000000, 8.000000)">
                            <g transform="translate(4.000000, 6.000000)">
                                <path d="M1,1 L1,11 C1,11.5522847 1.44771525,12 2,12 L14,12 C14.5522847,12 15,11.5522847 15,11 L15,2 C15,1.44771525 14.5522847,1 14,1 L7.30277564,1 C7.10535065,1 6.91234296,0.941561973 6.74807544,0.832050294 L5.75192456,0.167949706 C5.58765704,0.0584380275 5.39464935,1.69339446e-15 5.19722436,0 L2,0 C1.44771525,1.01453063e-16 1,0.44771525 1,1 Z" id="路径-11" stroke="#672CDF"></path>
                                <path d="M1.13278222,4 L14.8672178,4 C15.4195025,4 15.8672178,4.44771525 15.8672178,5 C15.8672178,5.04146502 15.8646388,5.08288991 15.8594957,5.12403473 L15.1094957,11.1240347 C15.0469421,11.6244636 14.6215411,12 14.1172178,12 L1.88278222,12 C1.37845895,12 0.953057945,11.6244636 0.890504342,11.1240347 L0.140504342,5.12403473 C0.0720018495,4.5760148 0.460727545,4.07622462 1.00874748,4.00772212 C1.04989231,4.00257902 1.09131719,4 1.13278222,4 Z" id="路径-10" fill="#D6C6F8"></path>
                                <path d="M1.13278222,4 L14.8672178,4 C15.4195025,4 15.8672178,4.44771525 15.8672178,5 C15.8672178,5.04146502 15.8646388,5.08288991 15.8594957,5.12403473 L15.1094957,11.1240347 C15.0469421,11.6244636 14.6215411,12 14.1172178,12 L1.88278222,12 C1.37845895,12 0.953057945,11.6244636 0.890504342,11.1240347 L0.140504342,5.12403473 C0.0720018495,4.5760148 0.460727545,4.07622462 1.00874748,4.00772212 C1.04989231,4.00257902 1.09131719,4 1.13278222,4 Z" id="路径-10" stroke="#672CDF"></path>
                                <polygon id="矩形" fill="#672CDF" points="3 9 7 9 7 10 3 10"></polygon>
                            </g>
                        </g>
                    </g>
                </g>
            </g>
        </g>
    </g>
</svg>