<?xml version="1.0" encoding="UTF-8"?>
<svg width="16px" height="14px" viewBox="0 0 16 14" version="1.1" xmlns="http://www.w3.org/2000/svg" xmlns:xlink="http://www.w3.org/1999/xlink">
    <title>8.icon1</title>
    <g id="3期" stroke="none" stroke-width="1" fill="none" fill-rule="evenodd">
        <g id="8.My-Algorithms" transform="translate(-124.000000, -238.000000)">
            <g id="门户左侧菜单" transform="translate(103.000000, 178.000000)">
                <g id="02-左侧菜单（展开）-03" transform="translate(1.000000, 47.000000)">
                    <g id="编组" transform="translate(16.000000, 8.000000)">
                        <g transform="translate(5.000000, 6.000000)">
                            <path d="M0,3 L14,3 L14,11 C14,11.5522847 13.5522847,12 13,12 L1,12 C0.44771525,12 6.76353751e-17,11.5522847 0,11 L0,3 L0,3 Z" id="路径-10" stroke="#672CDF" fill-opacity="0.146009752" fill="#672CDF"></path>
                            <polygon id="矩形" fill="#672CDF" points="2 9 6 9 6 10 2 10"></polygon>
                            <path d="M0,1 L0,11 C6.76353751e-17,11.5522847 0.44771525,12 1,12 L13,12 C13.5522847,12 14,11.5522847 14,11 L14,2 C14,1.44771525 13.5522847,1 13,1 L6.30277564,1 C6.10535065,1 5.91234296,0.941561973 5.74807544,0.832050294 L4.75192456,0.167949706 C4.58765704,0.0584380275 4.39464935,1.69339446e-15 4.19722436,0 L1,0 C0.44771525,1.01453063e-16 -6.76353751e-17,0.44771525 0,1 Z" id="路径-11" stroke="#672CDF"></path>
                        </g>
                    </g>
                </g>
            </g>
        </g>
    </g>
</svg>