<?xml version="1.0" encoding="UTF-8"?>
<svg width="60px" height="62px" viewBox="0 0 60 62" version="1.1" xmlns="http://www.w3.org/2000/svg" xmlns:xlink="http://www.w3.org/1999/xlink">
    <title>银行</title>
    <g id="2期" stroke="none" stroke-width="1" fill="none" fill-rule="evenodd">
        <g id="1.首页" transform="translate(-149.000000, -3417.000000)" fill="#55D1F0" fill-rule="nonzero">
            <g id="编组" transform="translate(83.000000, 3351.000000)">
                <g id="银行" transform="translate(66.000000, 66.000000)">
                    <path d="M21.7774517,56.6824931 C21.4873964,56.6824931 21.2802141,56.4753108 21.2802141,56.1852555 L21.2802141,56.1023826 C21.2802141,55.8123273 21.4873964,55.605145 21.7774517,55.605145 C22.0675069,55.605145 22.2746892,55.8123273 22.2746892,56.1023826 L22.2746892,56.1852555 C22.2332528,56.4753108 22.0260704,56.6824931 21.7774517,56.6824931 Z M21.7774517,57.925587 C21.4873964,57.925587 21.2802141,57.7184047 21.2802141,57.4283494 L21.2802141,57.2626036 C21.2802141,56.9725483 21.4873964,56.765366 21.7774517,56.765366 C22.0675069,56.765366 22.2746892,56.9725483 22.2746892,57.2626036 L22.2746892,57.4283494 C22.2332528,57.6769682 22.0260704,57.925587 21.7774517,57.925587 Z M21.7774517,59.0443715 C21.4873964,59.0443715 21.2802141,58.8371892 21.2802141,58.547134 L21.2802141,58.464261 C21.2802141,58.1742058 21.4873964,57.9670235 21.7774517,57.9670235 C22.0675069,57.9670235 22.2746892,58.1742058 22.2746892,58.464261 L22.2746892,58.547134 C22.2332528,58.8371892 22.0260704,59.0443715 21.7774517,59.0443715 Z M29.9404351,56.6824931 C29.6503798,56.6824931 29.4431975,56.4753108 29.4431975,56.1852555 L29.4431975,56.1023826 C29.4431975,55.8123273 29.6503798,55.605145 29.9404351,55.605145 C30.2304903,55.605145 30.4376727,55.8123273 30.4376727,56.1023826 L30.4376727,56.1852555 C30.4376727,56.4753108 30.1890539,56.6824931 29.9404351,56.6824931 Z M29.9404351,57.925587 C29.6503798,57.925587 29.4431975,57.7184047 29.4431975,57.4283494 L29.4431975,57.2626036 C29.4431975,56.9725483 29.6503798,56.765366 29.9404351,56.765366 C30.2304903,56.765366 30.4376727,56.9725483 30.4376727,57.2626036 L30.4376727,57.4283494 C30.4376727,57.6769682 30.1890539,57.925587 29.9404351,57.925587 Z M29.9404351,59.0443715 C29.6503798,59.0443715 29.4431975,58.8371892 29.4431975,58.547134 L29.4431975,58.464261 C29.4431975,58.1742058 29.6503798,57.9670235 29.9404351,57.9670235 C30.2304903,57.9670235 30.4376727,58.1742058 30.4376727,58.464261 L30.4376727,58.547134 C30.4376727,58.8371892 30.1890539,59.0443715 29.9404351,59.0443715 Z M46.2664019,56.6824931 C45.9763467,56.6824931 45.7691644,56.4753108 45.7691644,56.1852555 L45.7691644,56.1023826 C45.7691644,55.8123273 45.9763467,55.605145 46.2664019,55.605145 C46.5564572,55.605145 46.7636395,55.8123273 46.7636395,56.1023826 L46.7636395,56.1852555 C46.7636395,56.4753108 46.5564572,56.6824931 46.2664019,56.6824931 Z M46.2664019,57.925587 C45.9763467,57.925587 45.7691644,57.7184047 45.7691644,57.4283494 L45.7691644,57.2626036 C45.7691644,56.9725483 45.9763467,56.765366 46.2664019,56.765366 C46.5564572,56.765366 46.7636395,56.9725483 46.7636395,57.2626036 L46.7636395,57.4283494 C46.7636395,57.6769682 46.5564572,57.925587 46.2664019,57.925587 Z M46.2664019,59.0443715 C45.9763467,59.0443715 45.7691644,58.8371892 45.7691644,58.547134 L45.7691644,58.464261 C45.7691644,58.1742058 45.9763467,57.9670235 46.2664019,57.9670235 C46.5564572,57.9670235 46.7636395,58.1742058 46.7636395,58.464261 L46.7636395,58.547134 C46.7636395,58.8371892 46.5564572,59.0443715 46.2664019,59.0443715 Z M38.1034185,56.6824931 C37.8133633,56.6824931 37.6061809,56.4753108 37.6061809,56.1852555 L37.6061809,56.1023826 C37.6061809,55.8123273 37.8133633,55.605145 38.1034185,55.605145 C38.3934738,55.605145 38.6006561,55.8123273 38.6006561,56.1023826 L38.6006561,56.1852555 C38.6006561,56.4753108 38.3934738,56.6824931 38.1034185,56.6824931 Z M38.1034185,57.925587 C37.8133633,57.925587 37.6061809,57.7184047 37.6061809,57.4283494 L37.6061809,57.2626036 C37.6061809,56.9725483 37.8133633,56.765366 38.1034185,56.765366 C38.3934738,56.765366 38.6006561,56.9725483 38.6006561,57.2626036 L38.6006561,57.4283494 C38.6006561,57.6769682 38.3934738,57.925587 38.1034185,57.925587 Z M38.1034185,59.0443715 C37.8133633,59.0443715 37.6061809,58.8371892 37.6061809,58.547134 L37.6061809,58.464261 C37.6061809,58.1742058 37.8133633,57.9670235 38.1034185,57.9670235 C38.3934738,57.9670235 38.6006561,58.1742058 38.6006561,58.464261 L38.6006561,58.547134 C38.6006561,58.8371892 38.3934738,59.0443715 38.1034185,59.0443715 Z M13.5730318,56.6824931 C13.2829765,56.6824931 13.0757942,56.4753108 13.0757942,56.1852555 L13.0757942,56.1023826 C13.0757942,55.8123273 13.2829765,55.605145 13.5730318,55.605145 C13.863087,55.605145 14.0702693,55.8123273 14.0702693,56.1023826 L14.0702693,56.1852555 C14.0702693,56.4753108 13.863087,56.6824931 13.5730318,56.6824931 Z M13.5730318,57.925587 C13.2829765,57.925587 13.0757942,57.7184047 13.0757942,57.4283494 L13.0757942,57.2626036 C13.0757942,56.9725483 13.2829765,56.765366 13.5730318,56.765366 C13.863087,56.765366 14.0702693,56.9725483 14.0702693,57.2626036 L14.0702693,57.4283494 C14.0702693,57.6769682 13.863087,57.925587 13.5730318,57.925587 Z M13.5730318,59.0443715 C13.2829765,59.0443715 13.0757942,58.8371892 13.0757942,58.547134 L13.0757942,58.464261 C13.0757942,58.1742058 13.2829765,57.9670235 13.5730318,57.9670235 C13.863087,57.9670235 14.0702693,58.1742058 14.0702693,58.464261 L14.0702693,58.547134 C14.0702693,58.8371892 13.863087,59.0443715 13.5730318,59.0443715 Z" id="形状"></path>
                    <path d="M2.46805939,18.105145 C1.51502072,18.105145 0.769164365,17.3592887 0.769164365,16.40625 C0.769164365,15.4532113 1.51502072,14.707355 2.46805939,14.707355 C3.42109807,14.707355 4.16695442,15.4532113 4.16695442,16.40625 C4.16695442,17.3178522 3.42109807,18.105145 2.46805939,18.105145 Z M2.46805939,15.6603936 C2.05369475,15.6603936 1.7636395,15.9918854 1.7636395,16.3648135 C1.7636395,16.7791782 2.09513122,17.0692334 2.46805939,17.0692334 C2.88242403,17.0692334 3.17247928,16.7377417 3.17247928,16.3648135 C3.21391575,15.9918854 2.88242403,15.6603936 2.46805939,15.6603936 Z M57.4128108,18.105145 C56.4597721,18.105145 55.7139157,17.3592887 55.7139157,16.40625 C55.7139157,15.4532113 56.4597721,14.707355 57.4128108,14.707355 C58.3658494,14.707355 59.1117058,15.4532113 59.1117058,16.40625 C59.1117058,17.3178522 58.324413,18.105145 57.4128108,18.105145 Z M57.4128108,15.6603936 C56.9984461,15.6603936 56.7083909,15.9918854 56.7083909,16.3648135 C56.7083909,16.7791782 57.0398826,17.0692334 57.4128108,17.0692334 C57.8271754,17.0692334 58.1172307,16.7377417 58.1172307,16.3648135 C58.1172307,15.9918854 57.785739,15.6603936 57.4128108,15.6603936 Z M20.1199931,56.5581837 L10.1338052,56.5581837 C9.84375,56.5581837 9.63656768,56.3510014 9.63656768,56.0609461 L9.63656768,53.5747583 C9.63656768,53.284703 9.84375,53.0775207 10.1338052,53.0775207 L20.1199931,53.0775207 C20.4100483,53.0775207 20.6172307,53.284703 20.6172307,53.5747583 L20.6172307,56.0609461 C20.6172307,56.3510014 20.4100483,56.5581837 20.1199931,56.5581837 Z M10.6310428,55.605145 L19.6227555,55.605145 L19.6227555,54.1134323 L10.6310428,54.1134323 L10.6310428,55.605145 Z M49.5813191,56.5581837 L39.5951312,56.5581837 C39.305076,56.5581837 39.0978936,56.3510014 39.0978936,56.0609461 L39.0978936,53.5747583 C39.0978936,53.284703 39.305076,53.0775207 39.5951312,53.0775207 L49.5813191,53.0775207 C49.8713743,53.0775207 50.0785566,53.284703 50.0785566,53.5747583 L50.0785566,56.0609461 C50.0371202,56.3510014 49.8299378,56.5581837 49.5813191,56.5581837 Z M40.0509323,55.605145 L49.042645,55.605145 L49.042645,54.1134323 L40.0509323,54.1134323 L40.0509323,55.605145 Z M34.9956837,56.5581837 L25.0094959,56.5581837 C24.7194406,56.5581837 24.5122583,56.3510014 24.5122583,56.0609461 L24.5122583,53.5747583 C24.5122583,53.284703 24.7194406,53.0775207 25.0094959,53.0775207 L34.9956837,53.0775207 C35.285739,53.0775207 35.4929213,53.284703 35.4929213,53.5747583 L35.4929213,56.0609461 C35.4929213,56.3510014 35.285739,56.5581837 34.9956837,56.5581837 Z M25.5067334,55.605145 L34.4984461,55.605145 L34.4984461,54.1134323 L25.5067334,54.1134323 L25.5067334,55.605145 Z" id="形状"></path>
                    <path d="M17.7166782,54.1134323 L12.5785566,54.1134323 C12.2885014,54.1134323 12.0813191,53.90625 12.0813191,53.6161948 L12.0813191,19.3896754 C12.0813191,19.0996202 12.2885014,18.8924378 12.5785566,18.8924378 L17.7166782,18.8924378 C18.0067334,18.8924378 18.2139157,19.0996202 18.2139157,19.3896754 L18.2139157,53.6161948 C18.2139157,53.8648135 17.965297,54.1134323 17.7166782,54.1134323 Z M13.0757942,53.1189572 L17.2194406,53.1189572 L17.2194406,19.886913 L13.0757942,19.886913 L13.0757942,53.1189572 L13.0757942,53.1189572 Z M47.1365677,54.1134323 L41.9984461,54.1134323 C41.7083909,54.1134323 41.5012086,53.90625 41.5012086,53.6161948 L41.5012086,19.3896754 C41.5012086,19.0996202 41.7083909,18.8924378 41.9984461,18.8924378 L47.1365677,18.8924378 C47.4266229,18.8924378 47.6338052,19.0996202 47.6338052,19.3896754 L47.6338052,53.6161948 C47.6338052,53.8648135 47.4266229,54.1134323 47.1365677,54.1134323 Z M42.4956837,53.1189572 L46.6393301,53.1189572 L46.6393301,19.886913 L42.4956837,19.886913 L42.4956837,53.1189572 L42.4956837,53.1189572 Z M32.5923688,54.1134323 L27.4542472,54.1134323 C27.164192,54.1134323 26.9570097,53.90625 26.9570097,53.6161948 L26.9570097,19.3896754 C26.9570097,19.0996202 27.164192,18.8924378 27.4542472,18.8924378 L32.5923688,18.8924378 C32.882424,18.8924378 33.0896064,19.0996202 33.0896064,19.3896754 L33.0896064,53.6161948 C33.0896064,53.8648135 32.8409876,54.1134323 32.5923688,54.1134323 Z M27.9514848,53.1189572 L32.0951312,53.1189572 L32.0951312,19.886913 L27.9514848,19.886913 L27.9514848,53.1189572 L27.9514848,53.1189572 Z" id="形状"></path>
                    <path d="M18.9183356,22.3316644 C17.965297,22.3316644 17.2194406,21.585808 17.2194406,20.6327693 C17.2194406,19.6797307 17.965297,18.9338743 18.9183356,18.9338743 C19.8713743,18.9338743 20.6172307,19.6797307 20.6172307,20.6327693 C20.6172307,21.5443715 19.8713743,22.3316644 18.9183356,22.3316644 Z M18.9183356,19.886913 C18.503971,19.886913 18.2139157,20.2184047 18.2139157,20.5913329 C18.2139157,21.0056975 18.5454075,21.2957528 18.9183356,21.2957528 C19.3327003,21.2957528 19.6227555,20.964261 19.6227555,20.5913329 C19.6227555,20.2184047 19.3327003,19.886913 18.9183356,19.886913 Z M11.3354627,22.3316644 C10.382424,22.3316644 9.63656768,21.585808 9.63656768,20.6327693 C9.63656768,19.6797307 10.382424,18.9338743 11.3354627,18.9338743 C12.2885014,18.9338743 13.0343577,19.6797307 13.0343577,20.6327693 C13.0757942,21.5443715 12.2885014,22.3316644 11.3354627,22.3316644 L11.3354627,22.3316644 Z M11.3354627,19.886913 C10.9210981,19.886913 10.6310428,20.2184047 10.6310428,20.5913329 C10.6310428,21.0056975 10.9625345,21.2957528 11.3354627,21.2957528 C11.7498273,21.2957528 12.0398826,20.964261 12.0398826,20.5913329 C12.0813191,20.2184047 11.7498273,19.886913 11.3354627,19.886913 Z M26.2525898,22.3316644 C25.2995511,22.3316644 24.5536948,21.585808 24.5536948,20.6327693 C24.5536948,19.6797307 25.2995511,18.9338743 26.2525898,18.9338743 C27.2056285,18.9338743 27.9514848,19.6797307 27.9514848,20.6327693 C27.9514848,21.5443715 27.164192,22.3316644 26.2525898,22.3316644 Z M26.2525898,19.886913 C25.8382251,19.886913 25.5481699,20.2184047 25.5481699,20.5913329 C25.5481699,21.0056975 25.8796616,21.2957528 26.2525898,21.2957528 C26.6669544,21.2957528 26.9570097,20.964261 26.9570097,20.5913329 C26.9570097,20.2184047 26.625518,19.886913 26.2525898,19.886913 Z M33.7940262,22.3316644 C32.8409876,22.3316644 32.0951312,21.585808 32.0951312,20.6327693 C32.0951312,19.6797307 32.8409876,18.9338743 33.7940262,18.9338743 C34.7470649,18.9338743 35.4929213,19.6797307 35.4929213,20.6327693 C35.4929213,21.5443715 34.7470649,22.3316644 33.7940262,22.3316644 Z M33.7940262,19.886913 C33.3796616,19.886913 33.0896064,20.2184047 33.0896064,20.5913329 C33.0896064,21.0056975 33.4210981,21.2957528 33.7940262,21.2957528 C34.2083909,21.2957528 34.4984461,20.964261 34.4984461,20.5913329 C34.5398826,20.2184047 34.2083909,19.886913 33.7940262,19.886913 Z M40.7967887,22.3316644 C39.84375,22.3316644 39.0978936,21.585808 39.0978936,20.6327693 C39.0978936,19.6797307 39.84375,18.9338743 40.7967887,18.9338743 C41.7498273,18.9338743 42.4956837,19.6797307 42.4956837,20.6327693 C42.4956837,21.5443715 41.7083909,22.3316644 40.7967887,22.3316644 Z M40.7967887,19.886913 C40.382424,19.886913 40.0923688,20.2184047 40.0923688,20.5913329 C40.0923688,21.0056975 40.4238605,21.2957528 40.7967887,21.2957528 C41.2111533,21.2957528 41.5012086,20.964261 41.5012086,20.5913329 C41.5012086,20.2184047 41.1697169,19.886913 40.7967887,19.886913 Z M48.3382251,22.3316644 C47.3851865,22.3316644 46.6393301,21.585808 46.6393301,20.6327693 C46.6393301,19.6797307 47.3851865,18.9338743 48.3382251,18.9338743 C49.2912638,18.9338743 50.0371202,19.6797307 50.0371202,20.6327693 C50.0371202,21.5443715 49.2912638,22.3316644 48.3382251,22.3316644 Z M48.3382251,19.886913 C47.9238605,19.886913 47.6338052,20.2184047 47.6338052,20.5913329 C47.6338052,21.0056975 47.965297,21.2957528 48.3382251,21.2957528 C48.7525898,21.2957528 49.042645,20.964261 49.042645,20.5913329 C49.0840815,20.2184047 48.7525898,19.886913 48.3382251,19.886913 Z M54.4708218,18.105145 C54.3879489,18.105145 54.305076,18.0637086 54.222203,18.0222721 L29.9404351,2.77365331 L5.65866713,18.0222721 C5.41004834,18.1465815 5.11999309,18.105145 4.9956837,17.8565262 C4.87137431,17.6079075 4.91281077,17.3178522 5.16142956,17.1935428 L29.6918163,1.77917818 C29.8575622,1.69630525 30.0647445,1.69630525 30.2304903,1.77917818 L54.7608771,17.1935428 C55.0094959,17.3178522 55.0509323,17.6493439 54.9266229,17.8565262 C54.8023135,18.0222721 54.6365677,18.105145 54.4708218,18.105145 Z" id="形状"></path>
                    <path d="M58.6144682,19.886913 L1.26640193,19.886913 C0.976346685,19.886913 0.769164365,19.6797307 0.769164365,19.3896754 L0.769164365,17.6079075 C0.769164365,17.3178522 0.976346685,17.1106699 1.26640193,17.1106699 L58.6144682,17.1106699 C58.9045235,17.1106699 59.1117058,17.3178522 59.1117058,17.6079075 L59.1117058,19.3896754 C59.1117058,19.6797307 58.863087,19.886913 58.6144682,19.886913 Z M1.7636395,18.8924378 L58.1172307,18.8924378 L58.1172307,18.0637086 L1.7636395,18.0637086 L1.7636395,18.8924378 Z" id="形状"></path>
                    <path d="M15.9763467,21.7101174 C15.6862914,21.7101174 15.4791091,21.5029351 15.4791091,21.2128798 L15.4791091,21.1300069 C15.4791091,20.8399517 15.6862914,20.6327693 15.9763467,20.6327693 C16.2664019,20.6327693 16.4735843,20.8399517 16.4735843,21.1300069 L16.4735843,21.2128798 C16.4735843,21.5029351 16.2249655,21.7101174 15.9763467,21.7101174 Z M15.9763467,51.047134 C15.6862914,51.047134 15.4791091,50.8399517 15.4791091,50.5498964 L15.4791091,50.3427141 C15.4791091,50.0526588 15.6862914,49.8454765 15.9763467,49.8454765 C16.2664019,49.8454765 16.4735843,50.0526588 16.4735843,50.3427141 L16.4735843,50.5498964 C16.4735843,50.8399517 16.2249655,51.047134 15.9763467,51.047134 Z M15.9763467,49.6797307 C15.6862914,49.6797307 15.4791091,49.4725483 15.4791091,49.1824931 L15.4791091,48.9753108 C15.4791091,48.6852555 15.6862914,48.4780732 15.9763467,48.4780732 C16.2664019,48.4780732 16.4735843,48.6852555 16.4735843,48.9753108 L16.4735843,49.1824931 C16.4735843,49.4311119 16.2249655,49.6797307 15.9763467,49.6797307 Z M15.9763467,48.2708909 C15.6862914,48.2708909 15.4791091,48.0637086 15.4791091,47.7736533 L15.4791091,47.566471 C15.4791091,47.2764157 15.6862914,47.0692334 15.9763467,47.0692334 C16.2664019,47.0692334 16.4735843,47.2764157 16.4735843,47.566471 L16.4735843,47.7736533 C16.4735843,48.0637086 16.2249655,48.2708909 15.9763467,48.2708909 Z M15.9763467,46.8620511 C15.6862914,46.8620511 15.4791091,46.6548688 15.4791091,46.3648135 L15.4791091,46.1576312 C15.4791091,45.867576 15.6862914,45.6603936 15.9763467,45.6603936 C16.2664019,45.6603936 16.4735843,45.867576 16.4735843,46.1576312 L16.4735843,46.3648135 C16.4735843,46.6548688 16.2249655,46.8620511 15.9763467,46.8620511 Z M15.9763467,45.4946478 C15.6862914,45.4946478 15.4791091,45.2874655 15.4791091,44.9974102 L15.4791091,44.7902279 C15.4791091,44.5001727 15.6862914,44.2929903 15.9763467,44.2929903 C16.2664019,44.2929903 16.4735843,44.5001727 16.4735843,44.7902279 L16.4735843,44.9974102 C16.4735843,45.246029 16.2249655,45.4946478 15.9763467,45.4946478 Z M15.9763467,44.085808 C15.6862914,44.085808 15.4791091,43.8786257 15.4791091,43.5885704 L15.4791091,43.3813881 C15.4791091,43.0913329 15.6862914,42.8841506 15.9763467,42.8841506 C16.2664019,42.8841506 16.4735843,43.0913329 16.4735843,43.3813881 L16.4735843,43.5885704 C16.4735843,43.8786257 16.2249655,44.085808 15.9763467,44.085808 Z M15.9763467,42.6769682 C15.6862914,42.6769682 15.4791091,42.4697859 15.4791091,42.1797307 L15.4791091,41.9725483 C15.4791091,41.6824931 15.6862914,41.4753108 15.9763467,41.4753108 C16.2664019,41.4753108 16.4735843,41.6824931 16.4735843,41.9725483 L16.4735843,42.1797307 C16.4735843,42.4697859 16.2249655,42.6769682 15.9763467,42.6769682 Z M15.9763467,41.2681285 C15.6862914,41.2681285 15.4791091,41.0609461 15.4791091,40.7708909 L15.4791091,40.5637086 C15.4791091,40.2736533 15.6862914,40.066471 15.9763467,40.066471 C16.2664019,40.066471 16.4735843,40.2736533 16.4735843,40.5637086 L16.4735843,40.7708909 C16.4735843,41.0609461 16.2249655,41.2681285 15.9763467,41.2681285 Z M15.9763467,39.9007251 C15.6862914,39.9007251 15.4791091,39.6935428 15.4791091,39.4034876 L15.4791091,39.1963052 C15.4791091,38.90625 15.6862914,38.6990677 15.9763467,38.6990677 C16.2664019,38.6990677 16.4735843,38.90625 16.4735843,39.1963052 L16.4735843,39.4034876 C16.4735843,39.6521064 16.2249655,39.9007251 15.9763467,39.9007251 Z M15.9763467,38.4918854 C15.6862914,38.4918854 15.4791091,38.284703 15.4791091,37.9946478 L15.4791091,37.7874655 C15.4791091,37.4974102 15.6862914,37.2902279 15.9763467,37.2902279 C16.2664019,37.2902279 16.4735843,37.4974102 16.4735843,37.7874655 L16.4735843,37.9946478 C16.4735843,38.284703 16.2249655,38.4918854 15.9763467,38.4918854 Z M15.9763467,37.0830456 C15.6862914,37.0830456 15.4791091,36.8758633 15.4791091,36.585808 L15.4791091,36.3786257 C15.4791091,36.0885704 15.6862914,35.8813881 15.9763467,35.8813881 C16.2664019,35.8813881 16.4735843,36.0885704 16.4735843,36.3786257 L16.4735843,36.585808 C16.4735843,36.8758633 16.2249655,37.0830456 15.9763467,37.0830456 Z M15.9763467,35.6742058 C15.6862914,35.6742058 15.4791091,35.4670235 15.4791091,35.1769682 L15.4791091,34.9697859 C15.4791091,34.6797307 15.6862914,34.4725483 15.9763467,34.4725483 C16.2664019,34.4725483 16.4735843,34.6797307 16.4735843,34.9697859 L16.4735843,35.1769682 C16.4735843,35.4670235 16.2249655,35.6742058 15.9763467,35.6742058 Z M15.9763467,34.3068025 C15.6862914,34.3068025 15.4791091,34.0996202 15.4791091,33.8095649 L15.4791091,33.6023826 C15.4791091,33.3123273 15.6862914,33.105145 15.9763467,33.105145 C16.2664019,33.105145 16.4735843,33.3123273 16.4735843,33.6023826 L16.4735843,33.8095649 C16.4735843,34.0581837 16.2249655,34.3068025 15.9763467,34.3068025 L15.9763467,34.3068025 Z M15.9763467,32.8979627 C15.6862914,32.8979627 15.4791091,32.6907804 15.4791091,32.4007251 L15.4791091,32.1935428 C15.4791091,31.9034876 15.6862914,31.6963052 15.9763467,31.6963052 C16.2664019,31.6963052 16.4735843,31.9034876 16.4735843,32.1935428 L16.4735843,32.4007251 C16.4735843,32.6907804 16.2249655,32.8979627 15.9763467,32.8979627 Z M15.9763467,31.4891229 C15.6862914,31.4891229 15.4791091,31.2819406 15.4791091,30.9918854 L15.4791091,30.784703 C15.4791091,30.4946478 15.6862914,30.2874655 15.9763467,30.2874655 C16.2664019,30.2874655 16.4735843,30.4946478 16.4735843,30.784703 L16.4735843,30.9918854 C16.4735843,31.2819406 16.2249655,31.4891229 15.9763467,31.4891229 Z M15.9763467,30.1217196 C15.6862914,30.1217196 15.4791091,29.9145373 15.4791091,29.624482 L15.4791091,29.4172997 C15.4791091,29.1272445 15.6862914,28.9200622 15.9763467,28.9200622 C16.2664019,28.9200622 16.4735843,29.1272445 16.4735843,29.4172997 L16.4735843,29.624482 C16.4735843,29.8731008 16.2249655,30.1217196 15.9763467,30.1217196 Z M15.9763467,28.7128798 C15.6862914,28.7128798 15.4791091,28.5056975 15.4791091,28.2156423 L15.4791091,28.0084599 C15.4791091,27.7184047 15.6862914,27.5112224 15.9763467,27.5112224 C16.2664019,27.5112224 16.4735843,27.7184047 16.4735843,28.0084599 L16.4735843,28.2156423 C16.4735843,28.5056975 16.2249655,28.7128798 15.9763467,28.7128798 Z M15.9763467,27.3040401 C15.6862914,27.3040401 15.4791091,27.0968577 15.4791091,26.8068025 L15.4791091,26.5996202 C15.4791091,26.3095649 15.6862914,26.1023826 15.9763467,26.1023826 C16.2664019,26.1023826 16.4735843,26.3095649 16.4735843,26.5996202 L16.4735843,26.8068025 C16.4735843,27.0968577 16.2249655,27.3040401 15.9763467,27.3040401 Z M15.9763467,25.8952003 C15.6862914,25.8952003 15.4791091,25.688018 15.4791091,25.3979627 L15.4791091,25.1907804 C15.4791091,24.9007251 15.6862914,24.6935428 15.9763467,24.6935428 C16.2664019,24.6935428 16.4735843,24.9007251 16.4735843,25.1907804 L16.4735843,25.3979627 C16.4735843,25.688018 16.2249655,25.8952003 15.9763467,25.8952003 Z M15.9763467,24.527797 C15.6862914,24.527797 15.4791091,24.3206146 15.4791091,24.0305594 L15.4791091,23.8233771 C15.4791091,23.5333218 15.6862914,23.3261395 15.9763467,23.3261395 C16.2664019,23.3261395 16.4735843,23.5333218 16.4735843,23.8233771 L16.4735843,24.0305594 C16.4735843,24.2791782 16.2249655,24.527797 15.9763467,24.527797 Z M15.9763467,23.1189572 C15.6862914,23.1189572 15.4791091,22.9117749 15.4791091,22.6217196 L15.4791091,22.4145373 C15.4791091,22.124482 15.6862914,21.9172997 15.9763467,21.9172997 C16.2664019,21.9172997 16.4735843,22.124482 16.4735843,22.4145373 L16.4735843,22.6217196 C16.4735843,22.9117749 16.2249655,23.1189572 15.9763467,23.1189572 L15.9763467,23.1189572 Z M15.9763467,52.3731008 C15.6862914,52.3731008 15.4791091,52.1659185 15.4791091,51.8758633 L15.4791091,51.7929903 C15.4791091,51.5029351 15.6862914,51.2957528 15.9763467,51.2957528 C16.2664019,51.2957528 16.4735843,51.5029351 16.4735843,51.7929903 L16.4735843,51.8758633 C16.4735843,52.1659185 16.2249655,52.3731008 15.9763467,52.3731008 Z" id="形状"></path>
                    <path d="M30.8520373,21.7101174 C30.561982,21.7101174 30.3547997,21.5029351 30.3547997,21.2128798 L30.3547997,21.1300069 C30.3547997,20.8399517 30.561982,20.6327693 30.8520373,20.6327693 C31.1420925,20.6327693 31.3492749,20.8399517 31.3492749,21.1300069 L31.3492749,21.2128798 C31.3492749,21.5029351 31.1420925,21.7101174 30.8520373,21.7101174 Z M30.8520373,51.047134 C30.561982,51.047134 30.3547997,50.8399517 30.3547997,50.5498964 L30.3547997,50.3427141 C30.3547997,50.0526588 30.561982,49.8454765 30.8520373,49.8454765 C31.1420925,49.8454765 31.3492749,50.0526588 31.3492749,50.3427141 L31.3492749,50.5498964 C31.3492749,50.8399517 31.1420925,51.047134 30.8520373,51.047134 Z M30.8520373,49.6797307 C30.561982,49.6797307 30.3547997,49.4725483 30.3547997,49.1824931 L30.3547997,48.9753108 C30.3547997,48.6852555 30.561982,48.4780732 30.8520373,48.4780732 C31.1420925,48.4780732 31.3492749,48.6852555 31.3492749,48.9753108 L31.3492749,49.1824931 C31.3492749,49.4311119 31.1420925,49.6797307 30.8520373,49.6797307 Z M30.8520373,48.2708909 C30.561982,48.2708909 30.3547997,48.0637086 30.3547997,47.7736533 L30.3547997,47.566471 C30.3547997,47.2764157 30.561982,47.0692334 30.8520373,47.0692334 C31.1420925,47.0692334 31.3492749,47.2764157 31.3492749,47.566471 L31.3492749,47.7736533 C31.3492749,48.0637086 31.1420925,48.2708909 30.8520373,48.2708909 Z M30.8520373,46.8620511 C30.561982,46.8620511 30.3547997,46.6548688 30.3547997,46.3648135 L30.3547997,46.1576312 C30.3547997,45.867576 30.561982,45.6603936 30.8520373,45.6603936 C31.1420925,45.6603936 31.3492749,45.867576 31.3492749,46.1576312 L31.3492749,46.3648135 C31.3492749,46.6548688 31.1420925,46.8620511 30.8520373,46.8620511 Z M30.8520373,45.4946478 C30.561982,45.4946478 30.3547997,45.2874655 30.3547997,44.9974102 L30.3547997,44.7902279 C30.3547997,44.5001727 30.561982,44.2929903 30.8520373,44.2929903 C31.1420925,44.2929903 31.3492749,44.5001727 31.3492749,44.7902279 L31.3492749,44.9974102 C31.3492749,45.246029 31.1420925,45.4946478 30.8520373,45.4946478 Z M30.8520373,44.085808 C30.561982,44.085808 30.3547997,43.8786257 30.3547997,43.5885704 L30.3547997,43.3813881 C30.3547997,43.0913329 30.561982,42.8841506 30.8520373,42.8841506 C31.1420925,42.8841506 31.3492749,43.0913329 31.3492749,43.3813881 L31.3492749,43.5885704 C31.3492749,43.8786257 31.1420925,44.085808 30.8520373,44.085808 Z M30.8520373,42.6769682 C30.561982,42.6769682 30.3547997,42.4697859 30.3547997,42.1797307 L30.3547997,41.9725483 C30.3547997,41.6824931 30.561982,41.4753108 30.8520373,41.4753108 C31.1420925,41.4753108 31.3492749,41.6824931 31.3492749,41.9725483 L31.3492749,42.1797307 C31.3492749,42.4697859 31.1420925,42.6769682 30.8520373,42.6769682 Z M30.8520373,41.2681285 C30.561982,41.2681285 30.3547997,41.0609461 30.3547997,40.7708909 L30.3547997,40.5637086 C30.3547997,40.2736533 30.561982,40.066471 30.8520373,40.066471 C31.1420925,40.066471 31.3492749,40.2736533 31.3492749,40.5637086 L31.3492749,40.7708909 C31.3492749,41.0609461 31.1420925,41.2681285 30.8520373,41.2681285 Z M30.8520373,39.9007251 C30.561982,39.9007251 30.3547997,39.6935428 30.3547997,39.4034876 L30.3547997,39.1963052 C30.3547997,38.90625 30.561982,38.6990677 30.8520373,38.6990677 C31.1420925,38.6990677 31.3492749,38.90625 31.3492749,39.1963052 L31.3492749,39.4034876 C31.3492749,39.6521064 31.1420925,39.9007251 30.8520373,39.9007251 Z M30.8520373,38.4918854 C30.561982,38.4918854 30.3547997,38.284703 30.3547997,37.9946478 L30.3547997,37.7874655 C30.3547997,37.4974102 30.561982,37.2902279 30.8520373,37.2902279 C31.1420925,37.2902279 31.3492749,37.4974102 31.3492749,37.7874655 L31.3492749,37.9946478 C31.3492749,38.284703 31.1420925,38.4918854 30.8520373,38.4918854 Z M30.8520373,37.0830456 C30.561982,37.0830456 30.3547997,36.8758633 30.3547997,36.585808 L30.3547997,36.3786257 C30.3547997,36.0885704 30.561982,35.8813881 30.8520373,35.8813881 C31.1420925,35.8813881 31.3492749,36.0885704 31.3492749,36.3786257 L31.3492749,36.585808 C31.3492749,36.8758633 31.1420925,37.0830456 30.8520373,37.0830456 Z M30.8520373,35.6742058 C30.561982,35.6742058 30.3547997,35.4670235 30.3547997,35.1769682 L30.3547997,34.9697859 C30.3547997,34.6797307 30.561982,34.4725483 30.8520373,34.4725483 C31.1420925,34.4725483 31.3492749,34.6797307 31.3492749,34.9697859 L31.3492749,35.1769682 C31.3492749,35.4670235 31.1420925,35.6742058 30.8520373,35.6742058 Z M30.8520373,34.3068025 C30.561982,34.3068025 30.3547997,34.0996202 30.3547997,33.8095649 L30.3547997,33.6023826 C30.3547997,33.3123273 30.561982,33.105145 30.8520373,33.105145 C31.1420925,33.105145 31.3492749,33.3123273 31.3492749,33.6023826 L31.3492749,33.8095649 C31.3492749,34.0581837 31.1420925,34.3068025 30.8520373,34.3068025 L30.8520373,34.3068025 Z M30.8520373,32.8979627 C30.561982,32.8979627 30.3547997,32.6907804 30.3547997,32.4007251 L30.3547997,32.1935428 C30.3547997,31.9034876 30.561982,31.6963052 30.8520373,31.6963052 C31.1420925,31.6963052 31.3492749,31.9034876 31.3492749,32.1935428 L31.3492749,32.4007251 C31.3492749,32.6907804 31.1420925,32.8979627 30.8520373,32.8979627 Z M30.8520373,31.4891229 C30.561982,31.4891229 30.3547997,31.2819406 30.3547997,30.9918854 L30.3547997,30.784703 C30.3547997,30.4946478 30.561982,30.2874655 30.8520373,30.2874655 C31.1420925,30.2874655 31.3492749,30.4946478 31.3492749,30.784703 L31.3492749,30.9918854 C31.3492749,31.2819406 31.1420925,31.4891229 30.8520373,31.4891229 Z M30.8520373,30.1217196 C30.561982,30.1217196 30.3547997,29.9145373 30.3547997,29.624482 L30.3547997,29.4172997 C30.3547997,29.1272445 30.561982,28.9200622 30.8520373,28.9200622 C31.1420925,28.9200622 31.3492749,29.1272445 31.3492749,29.4172997 L31.3492749,29.624482 C31.3492749,29.8731008 31.1420925,30.1217196 30.8520373,30.1217196 Z M30.8520373,28.7128798 C30.561982,28.7128798 30.3547997,28.5056975 30.3547997,28.2156423 L30.3547997,28.0084599 C30.3547997,27.7184047 30.561982,27.5112224 30.8520373,27.5112224 C31.1420925,27.5112224 31.3492749,27.7184047 31.3492749,28.0084599 L31.3492749,28.2156423 C31.3492749,28.5056975 31.1420925,28.7128798 30.8520373,28.7128798 Z M30.8520373,27.3040401 C30.561982,27.3040401 30.3547997,27.0968577 30.3547997,26.8068025 L30.3547997,26.5996202 C30.3547997,26.3095649 30.561982,26.1023826 30.8520373,26.1023826 C31.1420925,26.1023826 31.3492749,26.3095649 31.3492749,26.5996202 L31.3492749,26.8068025 C31.3492749,27.0968577 31.1420925,27.3040401 30.8520373,27.3040401 Z M30.8520373,25.8952003 C30.561982,25.8952003 30.3547997,25.688018 30.3547997,25.3979627 L30.3547997,25.1907804 C30.3547997,24.9007251 30.561982,24.6935428 30.8520373,24.6935428 C31.1420925,24.6935428 31.3492749,24.9007251 31.3492749,25.1907804 L31.3492749,25.3979627 C31.3492749,25.688018 31.1420925,25.8952003 30.8520373,25.8952003 Z M30.8520373,24.527797 C30.561982,24.527797 30.3547997,24.3206146 30.3547997,24.0305594 L30.3547997,23.8233771 C30.3547997,23.5333218 30.561982,23.3261395 30.8520373,23.3261395 C31.1420925,23.3261395 31.3492749,23.5333218 31.3492749,23.8233771 L31.3492749,24.0305594 C31.3492749,24.2791782 31.1420925,24.527797 30.8520373,24.527797 Z M30.8520373,23.1189572 C30.561982,23.1189572 30.3547997,22.9117749 30.3547997,22.6217196 L30.3547997,22.4145373 C30.3547997,22.124482 30.561982,21.9172997 30.8520373,21.9172997 C31.1420925,21.9172997 31.3492749,22.124482 31.3492749,22.4145373 L31.3492749,22.6217196 C31.3492749,22.9117749 31.1420925,23.1189572 30.8520373,23.1189572 L30.8520373,23.1189572 Z M30.8520373,52.3731008 C30.561982,52.3731008 30.3547997,52.1659185 30.3547997,51.8758633 L30.3547997,51.7929903 C30.3547997,51.5029351 30.561982,51.2957528 30.8520373,51.2957528 C31.1420925,51.2957528 31.3492749,51.5029351 31.3492749,51.7929903 L31.3492749,51.8758633 C31.3492749,52.1659185 31.1420925,52.3731008 30.8520373,52.3731008 Z" id="形状"></path>
                    <path d="M45.3962362,21.7101174 C45.1061809,21.7101174 44.8989986,21.5029351 44.8989986,21.2128798 L44.8989986,21.1300069 C44.8989986,20.8399517 45.1061809,20.6327693 45.3962362,20.6327693 C45.6862914,20.6327693 45.8934738,20.8399517 45.8934738,21.1300069 L45.8934738,21.2128798 C45.8934738,21.5029351 45.6862914,21.7101174 45.3962362,21.7101174 Z M45.3962362,51.047134 C45.1061809,51.047134 44.8989986,50.8399517 44.8989986,50.5498964 L44.8989986,50.3427141 C44.8989986,50.0526588 45.1061809,49.8454765 45.3962362,49.8454765 C45.6862914,49.8454765 45.8934738,50.0526588 45.8934738,50.3427141 L45.8934738,50.5498964 C45.8934738,50.8399517 45.6862914,51.047134 45.3962362,51.047134 Z M45.3962362,49.6797307 C45.1061809,49.6797307 44.8989986,49.4725483 44.8989986,49.1824931 L44.8989986,48.9753108 C44.8989986,48.6852555 45.1061809,48.4780732 45.3962362,48.4780732 C45.6862914,48.4780732 45.8934738,48.6852555 45.8934738,48.9753108 L45.8934738,49.1824931 C45.8934738,49.4311119 45.6862914,49.6797307 45.3962362,49.6797307 Z M45.3962362,48.2708909 C45.1061809,48.2708909 44.8989986,48.0637086 44.8989986,47.7736533 L44.8989986,47.566471 C44.8989986,47.2764157 45.1061809,47.0692334 45.3962362,47.0692334 C45.6862914,47.0692334 45.8934738,47.2764157 45.8934738,47.566471 L45.8934738,47.7736533 C45.8934738,48.0637086 45.6862914,48.2708909 45.3962362,48.2708909 Z M45.3962362,46.8620511 C45.1061809,46.8620511 44.8989986,46.6548688 44.8989986,46.3648135 L44.8989986,46.1576312 C44.8989986,45.867576 45.1061809,45.6603936 45.3962362,45.6603936 C45.6862914,45.6603936 45.8934738,45.867576 45.8934738,46.1576312 L45.8934738,46.3648135 C45.8934738,46.6548688 45.6862914,46.8620511 45.3962362,46.8620511 Z M45.3962362,45.4946478 C45.1061809,45.4946478 44.8989986,45.2874655 44.8989986,44.9974102 L44.8989986,44.7902279 C44.8989986,44.5001727 45.1061809,44.2929903 45.3962362,44.2929903 C45.6862914,44.2929903 45.8934738,44.5001727 45.8934738,44.7902279 L45.8934738,44.9974102 C45.8934738,45.246029 45.6862914,45.4946478 45.3962362,45.4946478 Z M45.3962362,44.085808 C45.1061809,44.085808 44.8989986,43.8786257 44.8989986,43.5885704 L44.8989986,43.3813881 C44.8989986,43.0913329 45.1061809,42.8841506 45.3962362,42.8841506 C45.6862914,42.8841506 45.8934738,43.0913329 45.8934738,43.3813881 L45.8934738,43.5885704 C45.8934738,43.8786257 45.6862914,44.085808 45.3962362,44.085808 Z M45.3962362,42.6769682 C45.1061809,42.6769682 44.8989986,42.4697859 44.8989986,42.1797307 L44.8989986,41.9725483 C44.8989986,41.6824931 45.1061809,41.4753108 45.3962362,41.4753108 C45.6862914,41.4753108 45.8934738,41.6824931 45.8934738,41.9725483 L45.8934738,42.1797307 C45.8934738,42.4697859 45.6862914,42.6769682 45.3962362,42.6769682 Z M45.3962362,41.2681285 C45.1061809,41.2681285 44.8989986,41.0609461 44.8989986,40.7708909 L44.8989986,40.5637086 C44.8989986,40.2736533 45.1061809,40.066471 45.3962362,40.066471 C45.6862914,40.066471 45.8934738,40.2736533 45.8934738,40.5637086 L45.8934738,40.7708909 C45.8934738,41.0609461 45.6862914,41.2681285 45.3962362,41.2681285 Z M45.3962362,39.9007251 C45.1061809,39.9007251 44.8989986,39.6935428 44.8989986,39.4034876 L44.8989986,39.1963052 C44.8989986,38.90625 45.1061809,38.6990677 45.3962362,38.6990677 C45.6862914,38.6990677 45.8934738,38.90625 45.8934738,39.1963052 L45.8934738,39.4034876 C45.8934738,39.6521064 45.6862914,39.9007251 45.3962362,39.9007251 Z M45.3962362,38.4918854 C45.1061809,38.4918854 44.8989986,38.284703 44.8989986,37.9946478 L44.8989986,37.7874655 C44.8989986,37.4974102 45.1061809,37.2902279 45.3962362,37.2902279 C45.6862914,37.2902279 45.8934738,37.4974102 45.8934738,37.7874655 L45.8934738,37.9946478 C45.8934738,38.284703 45.6862914,38.4918854 45.3962362,38.4918854 Z M45.3962362,37.0830456 C45.1061809,37.0830456 44.8989986,36.8758633 44.8989986,36.585808 L44.8989986,36.3786257 C44.8989986,36.0885704 45.1061809,35.8813881 45.3962362,35.8813881 C45.6862914,35.8813881 45.8934738,36.0885704 45.8934738,36.3786257 L45.8934738,36.585808 C45.8934738,36.8758633 45.6862914,37.0830456 45.3962362,37.0830456 Z M45.3962362,35.6742058 C45.1061809,35.6742058 44.8989986,35.4670235 44.8989986,35.1769682 L44.8989986,34.9697859 C44.8989986,34.6797307 45.1061809,34.4725483 45.3962362,34.4725483 C45.6862914,34.4725483 45.8934738,34.6797307 45.8934738,34.9697859 L45.8934738,35.1769682 C45.8934738,35.4670235 45.6862914,35.6742058 45.3962362,35.6742058 Z M45.3962362,34.3068025 C45.1061809,34.3068025 44.8989986,34.0996202 44.8989986,33.8095649 L44.8989986,33.6023826 C44.8989986,33.3123273 45.1061809,33.105145 45.3962362,33.105145 C45.6862914,33.105145 45.8934738,33.3123273 45.8934738,33.6023826 L45.8934738,33.8095649 C45.8934738,34.0581837 45.6862914,34.3068025 45.3962362,34.3068025 L45.3962362,34.3068025 Z M45.3962362,32.8979627 C45.1061809,32.8979627 44.8989986,32.6907804 44.8989986,32.4007251 L44.8989986,32.1935428 C44.8989986,31.9034876 45.1061809,31.6963052 45.3962362,31.6963052 C45.6862914,31.6963052 45.8934738,31.9034876 45.8934738,32.1935428 L45.8934738,32.4007251 C45.8934738,32.6907804 45.6862914,32.8979627 45.3962362,32.8979627 Z M45.3962362,31.4891229 C45.1061809,31.4891229 44.8989986,31.2819406 44.8989986,30.9918854 L44.8989986,30.784703 C44.8989986,30.4946478 45.1061809,30.2874655 45.3962362,30.2874655 C45.6862914,30.2874655 45.8934738,30.4946478 45.8934738,30.784703 L45.8934738,30.9918854 C45.8934738,31.2819406 45.6862914,31.4891229 45.3962362,31.4891229 Z M45.3962362,30.1217196 C45.1061809,30.1217196 44.8989986,29.9145373 44.8989986,29.624482 L44.8989986,29.4172997 C44.8989986,29.1272445 45.1061809,28.9200622 45.3962362,28.9200622 C45.6862914,28.9200622 45.8934738,29.1272445 45.8934738,29.4172997 L45.8934738,29.624482 C45.8934738,29.8731008 45.6862914,30.1217196 45.3962362,30.1217196 Z M45.3962362,28.7128798 C45.1061809,28.7128798 44.8989986,28.5056975 44.8989986,28.2156423 L44.8989986,28.0084599 C44.8989986,27.7184047 45.1061809,27.5112224 45.3962362,27.5112224 C45.6862914,27.5112224 45.8934738,27.7184047 45.8934738,28.0084599 L45.8934738,28.2156423 C45.8934738,28.5056975 45.6862914,28.7128798 45.3962362,28.7128798 Z M45.3962362,27.3040401 C45.1061809,27.3040401 44.8989986,27.0968577 44.8989986,26.8068025 L44.8989986,26.5996202 C44.8989986,26.3095649 45.1061809,26.1023826 45.3962362,26.1023826 C45.6862914,26.1023826 45.8934738,26.3095649 45.8934738,26.5996202 L45.8934738,26.8068025 C45.8934738,27.0968577 45.6862914,27.3040401 45.3962362,27.3040401 Z M45.3962362,25.8952003 C45.1061809,25.8952003 44.8989986,25.688018 44.8989986,25.3979627 L44.8989986,25.1907804 C44.8989986,24.9007251 45.1061809,24.6935428 45.3962362,24.6935428 C45.6862914,24.6935428 45.8934738,24.9007251 45.8934738,25.1907804 L45.8934738,25.3979627 C45.8934738,25.688018 45.6862914,25.8952003 45.3962362,25.8952003 Z M45.3962362,24.527797 C45.1061809,24.527797 44.8989986,24.3206146 44.8989986,24.0305594 L44.8989986,23.8233771 C44.8989986,23.5333218 45.1061809,23.3261395 45.3962362,23.3261395 C45.6862914,23.3261395 45.8934738,23.5333218 45.8934738,23.8233771 L45.8934738,24.0305594 C45.8934738,24.2791782 45.6862914,24.527797 45.3962362,24.527797 Z M45.3962362,23.1189572 C45.1061809,23.1189572 44.8989986,22.9117749 44.8989986,22.6217196 L44.8989986,22.4145373 C44.8989986,22.124482 45.1061809,21.9172997 45.3962362,21.9172997 C45.6862914,21.9172997 45.8934738,22.124482 45.8934738,22.4145373 L45.8934738,22.6217196 C45.8934738,22.9117749 45.6862914,23.1189572 45.3962362,23.1189572 L45.3962362,23.1189572 Z M45.3962362,52.3731008 C45.1061809,52.3731008 44.8989986,52.1659185 44.8989986,51.8758633 L44.8989986,51.7929903 C44.8989986,51.5029351 45.1061809,51.2957528 45.3962362,51.2957528 C45.6862914,51.2957528 45.8934738,51.5029351 45.8934738,51.7929903 L45.8934738,51.8758633 C45.8934738,52.1659185 45.6862914,52.3731008 45.3962362,52.3731008 Z" id="形状"></path>
                    <path d="M29.9404351,15.4946478 L29.7332528,15.4946478 C29.4431975,15.4946478 29.2360152,15.246029 29.2774517,14.9974102 C29.2774517,14.707355 29.5260704,14.5001727 29.7746892,14.5416091 L29.9404351,14.5416091 C30.2304903,14.5416091 30.4376727,14.7487914 30.4376727,15.0388467 C30.4376727,15.2874655 30.1890539,15.4946478 29.9404351,15.4946478 L29.9404351,15.4946478 Z M31.1420925,15.2874655 C30.9349102,15.2874655 30.7691644,15.1631561 30.6862914,14.9559738 C30.6034185,14.707355 30.7277279,14.4172997 30.9763467,14.3344268 C31.0177831,14.3344268 31.1006561,14.2929903 31.1420925,14.2515539 C31.3907113,14.1272445 31.6807666,14.2515539 31.7636395,14.5001727 C31.8879489,14.7487914 31.7636395,15.0388467 31.5150207,15.1217196 C31.4321478,15.1631561 31.3907113,15.1631561 31.3078384,15.2045925 C31.2664019,15.2874655 31.2249655,15.2874655 31.1420925,15.2874655 L31.1420925,15.2874655 Z M28.5315953,15.2045925 C28.4487224,15.2045925 28.4072859,15.2045925 28.324413,15.1631561 C28.2415401,15.1217196 28.2001036,15.1217196 28.1172307,15.0802831 C27.8686119,14.9559738 27.785739,14.6659185 27.8686119,14.4172997 C27.9929213,14.1686809 28.2829765,14.085808 28.5315953,14.1686809 C28.5730318,14.2101174 28.6559047,14.2101174 28.6973412,14.2515539 C28.9459599,14.3344268 29.0702693,14.624482 28.9459599,14.8731008 C28.9045235,15.0802831 28.7387776,15.2045925 28.5315953,15.2045925 L28.5315953,15.2045925 Z M32.3851865,14.5416091 C32.2608771,14.5416091 32.1365677,14.5001727 32.0122583,14.3758633 C31.8465124,14.1686809 31.8465124,13.8786257 32.0536948,13.6714434 L32.1780041,13.547134 C32.3851865,13.3399517 32.6752417,13.3399517 32.882424,13.547134 C33.0896064,13.7543163 33.0896064,14.0443715 32.882424,14.2515539 L32.7166782,14.4172997 C32.6338052,14.5001727 32.5094959,14.5416091 32.3851865,14.5416091 Z M27.3299378,14.4172997 C27.2056285,14.4172997 27.0813191,14.3758633 26.9984461,14.2929903 L26.8327003,14.1272445 C26.6669544,13.9200622 26.6669544,13.6300069 26.8741367,13.4228246 C27.0813191,13.2570787 27.3713743,13.2570787 27.5785566,13.464261 L27.702866,13.5885704 C27.9100483,13.7957528 27.9100483,14.085808 27.702866,14.2929903 C27.5785566,14.3758633 27.4542472,14.4172997 27.3299378,14.4172997 L27.3299378,14.4172997 Z M33.2553522,13.4228246 C33.1724793,13.4228246 33.1310428,13.4228246 33.0481699,13.3813881 C32.7995511,13.2570787 32.7166782,12.9670235 32.7995511,12.7184047 C32.8409876,12.6769682 32.8409876,12.5940953 32.882424,12.5526588 C33.0067334,12.3040401 33.2553522,12.1797307 33.503971,12.3040401 C33.7525898,12.4283494 33.8768992,12.6769682 33.7525898,12.925587 C33.7111533,13.0084599 33.7111533,13.0498964 33.6697169,13.1327693 C33.5868439,13.2985152 33.4210981,13.4228246 33.2553522,13.4228246 L33.2553522,13.4228246 Z M26.542645,13.2156423 C26.3354627,13.2156423 26.1697169,13.0913329 26.0868439,12.925587 C26.0454075,12.8427141 26.0454075,12.8012776 26.003971,12.7184047 C25.9210981,12.4697859 26.0454075,12.1797307 26.2940262,12.0968577 C26.542645,12.0139848 26.8327003,12.1382942 26.9155732,12.386913 C26.9155732,12.4283494 26.9570097,12.5112224 26.9984461,12.5526588 C27.1227555,12.8012776 26.9984461,13.0913329 26.7498273,13.1742058 C26.6669544,13.2156423 26.5840815,13.2156423 26.542645,13.2156423 L26.542645,13.2156423 Z M33.5868439,12.0139848 C33.2967887,12.0139848 33.0896064,11.765366 33.0896064,11.5167472 L33.0896064,11.3510014 C33.0896064,11.0609461 33.2967887,10.8537638 33.5868439,10.8537638 C33.8768992,10.8537638 34.0840815,11.0609461 34.0840815,11.3510014 L34.0840815,11.5581837 C34.0840815,11.8068025 33.8768992,12.0139848 33.5868439,12.0139848 L33.5868439,12.0139848 Z M26.2525898,11.8068025 C25.9625345,11.8068025 25.7553522,11.5996202 25.7553522,11.3095649 L25.7553522,11.1023826 C25.7553522,10.8123273 26.003971,10.605145 26.2525898,10.6465815 C26.542645,10.6465815 26.7498273,10.8952003 26.7083909,11.1438191 L26.7083909,11.3095649 C26.7498273,11.5996202 26.542645,11.8068025 26.2525898,11.8068025 L26.2525898,11.8068025 Z M33.3796616,10.5637086 C33.1724793,10.5637086 33.0067334,10.4393992 32.9238605,10.2322169 C32.9238605,10.1907804 32.882424,10.1079075 32.8409876,10.066471 C32.7166782,9.81785221 32.8409876,9.52779696 33.0896064,9.44492403 C33.3382251,9.32061464 33.6282804,9.44492403 33.7111533,9.69354282 C33.7525898,9.77641575 33.7525898,9.81785221 33.7940262,9.90072514 C33.8768992,10.1493439 33.7525898,10.4393992 33.503971,10.5222721 C33.503971,10.5637086 33.4625345,10.5637086 33.3796616,10.5637086 L33.3796616,10.5637086 Z M26.542645,10.3979627 C26.4597721,10.3979627 26.4183356,10.3979627 26.3354627,10.3565262 C26.0868439,10.2736533 25.9625345,9.98359807 26.0868439,9.73497928 C26.1282804,9.65210635 26.1282804,9.61066989 26.1697169,9.52779696 C26.2940262,9.27917818 26.5840815,9.19630525 26.8327003,9.27917818 C27.0813191,9.40348757 27.164192,9.69354282 27.0813191,9.9421616 C27.0398826,9.98359807 26.9984461,10.066471 26.9984461,10.1079075 C26.9155732,10.3150898 26.7083909,10.3979627 26.542645,10.3979627 L26.542645,10.3979627 Z M32.6752417,9.3620511 C32.5509323,9.3620511 32.4266229,9.32061464 32.3023135,9.19630525 L32.1780041,9.07199586 C31.9708218,8.86481354 31.9708218,8.57475829 32.1780041,8.36757597 C32.3851865,8.16039365 32.6752417,8.16039365 32.882424,8.36757597 L33.0481699,8.53332182 C33.2139157,8.74050414 33.2139157,9.03055939 33.0067334,9.23774171 C32.882424,9.32061464 32.7995511,9.3620511 32.6752417,9.3620511 Z M27.3299378,9.23774171 C27.2056285,9.23774171 27.0813191,9.19630525 26.9984461,9.11343232 C26.7912638,8.90625 26.7912638,8.61619475 26.9984461,8.40901243 L27.164192,8.24326657 C27.3713743,8.07752072 27.6614296,8.07752072 27.8686119,8.28470304 C28.0343577,8.49188536 28.0343577,8.78194061 27.8271754,8.98912293 L27.702866,9.11343232 C27.5785566,9.15486878 27.4542472,9.23774171 27.3299378,9.23774171 L27.3299378,9.23774171 Z M31.5150207,8.49188536 C31.4321478,8.49188536 31.3907113,8.49188536 31.3078384,8.4504489 C31.2664019,8.40901243 31.183529,8.40901243 31.1420925,8.36757597 C30.8934738,8.28470304 30.7691644,7.99464779 30.8934738,7.74602901 C30.9763467,7.49741022 31.2664019,7.37310083 31.5150207,7.49741022 C31.5978936,7.53884669 31.6393301,7.53884669 31.722203,7.58028315 C31.9708218,7.70459254 32.0536948,7.99464779 31.9708218,8.24326657 C31.8879489,8.36757597 31.6807666,8.49188536 31.5150207,8.49188536 L31.5150207,8.49188536 Z M28.5315953,8.40901243 C28.324413,8.40901243 28.1586671,8.28470304 28.0757942,8.11895718 C27.9514848,7.8703384 28.0757942,7.58028315 28.324413,7.49741022 C28.4072859,7.45597376 28.4487224,7.45597376 28.5315953,7.41453729 C28.7802141,7.33166436 29.0702693,7.45597376 29.1531423,7.70459254 C29.2360152,7.95321133 29.1117058,8.24326657 28.863087,8.3261395 C28.8216506,8.3261395 28.7387776,8.36757597 28.6973412,8.40901243 L28.5315953,8.40901243 L28.5315953,8.40901243 Z M30.1061809,8.11895718 L29.8989986,8.11895718 C29.6089434,8.11895718 29.401761,7.91177486 29.401761,7.62171961 C29.401761,7.33166436 29.6089434,7.12448204 29.8989986,7.12448204 L30.1061809,7.12448204 C30.3962362,7.12448204 30.6034185,7.37310083 30.561982,7.62171961 C30.6034185,7.95321133 30.3962362,8.11895718 30.1061809,8.11895718 Z" id="形状"></path>
                    <path d="M22.6476174,7.24879144 C22.5647445,7.24879144 22.4818715,7.20735497 22.3989986,7.16591851 L21.0315953,6.29575276 C20.9072859,6.21287983 20.7829765,6.04713398 20.7829765,5.88138812 C20.7829765,5.71564227 20.8658494,5.54989641 21.0315953,5.46702348 L29.6918163,0.0802831492 C29.8575622,-0.00258977901 30.0647445,-0.00258977901 30.2304903,0.0802831492 L38.8907113,5.50845994 C39.0150207,5.59133287 39.1393301,5.75707873 39.1393301,5.92282459 C39.1393301,6.08857044 39.0564572,6.2543163 38.8907113,6.33718923 L37.523308,7.20735497 C37.2746892,7.33166436 36.984634,7.2902279 36.8603246,7.04160912 C36.7360152,6.79299033 36.7774517,6.50293508 37.0260704,6.37862569 L37.7304903,5.92282459 L29.9404351,1.07475829 L22.1918163,5.92282459 L22.8962362,6.37862569 C23.144855,6.50293508 23.1862914,6.8344268 23.061982,7.04160912 C22.9791091,7.16591851 22.8133633,7.24879144 22.6476174,7.24879144 Z M54.4708218,59.0443715 L5.41004834,59.0443715 C5.11999309,59.0443715 4.91281077,58.8371892 4.91281077,58.547134 L4.91281077,56.0609461 C4.91281077,55.7708909 5.11999309,55.5637086 5.41004834,55.5637086 L54.4293854,55.5637086 C54.7194406,55.5637086 54.9266229,55.7708909 54.9266229,56.0609461 L54.9266229,58.547134 C54.9266229,58.8371892 54.7194406,59.0443715 54.4708218,59.0443715 Z M5.90728591,58.0913329 L53.9735843,58.0913329 L53.9735843,56.5996202 L5.90728591,56.5996202 L5.90728591,58.0913329 Z" id="形状"></path>
                    <path d="M59.3603246,61.5305594 L0.52054558,61.5305594 C0.230490331,61.5305594 0.023308011,61.3233771 0.023308011,61.0333218 L0.023308011,58.547134 C0.023308011,58.2570787 0.230490331,58.0498964 0.52054558,58.0498964 L59.3603246,58.0498964 C59.6503798,58.0498964 59.8575622,58.2570787 59.8575622,58.547134 L59.8575622,61.0333218 C59.8575622,61.3233771 59.6089434,61.5305594 59.3603246,61.5305594 Z M1.01778315,60.5775207 L58.863087,60.5775207 L58.863087,59.085808 L1.01778315,59.085808 L1.01778315,60.5775207 Z" id="形状"></path>
                </g>
            </g>
        </g>
    </g>
</svg>