<?xml version="1.0" encoding="UTF-8"?>
<svg width="191px" height="195px" viewBox="0 0 191 195" version="1.1" xmlns="http://www.w3.org/2000/svg" xmlns:xlink="http://www.w3.org/1999/xlink">
    <title>编组</title>
    <g id="2期" stroke="none" stroke-width="1" fill="none" fill-rule="evenodd">
        <g id="1.首页" transform="translate(-83.000000, -3350.000000)">
            <g id="编组" transform="translate(83.000000, 3351.000000)">
                <g transform="translate(0.000000, 0.116503)">
                    <path d="M175.494831,97.2469162 C175.494831,53.4805241 140.013475,18 96.2477484,18 C52.4803577,18 17,53.4805241 17,97.2469162 C17,141.013142 52.4803577,176.493999 96.2477484,176.493999 C140.013475,176.493999 175.494831,141.013142 175.494831,97.2469162 Z" id="Stroke-1" stroke="#55D1F0" stroke-width="0.5" stroke-linecap="round" stroke-linejoin="round"></path>
                    <path d="M179.551321,97.0527196 C179.551321,51.1889386 142.370517,14.008634 96.5070689,14.008634 C50.6422894,14.008634 13.4623176,51.1889386 13.4623176,97.0527196 C13.4623176,142.916001 50.6422894,180.097138 96.5070689,180.097138 C142.370517,180.097138 179.551321,142.916001 179.551321,97.0527196 Z" id="Stroke-3" stroke="#6AFFA1" stroke-width="0.5" stroke-linecap="round" stroke-linejoin="round"></path>
                    <line x1="35.4633982" y1="36.0090155" x2="10.9632926" y2="11.5094092" id="Stroke-5" stroke="#55D1F0" stroke-width="0.5" stroke-linecap="round" stroke-linejoin="round"></line>
                    <line x1="182.051395" y1="11.5089099" x2="157.234234" y2="36.3260705" id="Stroke-7" stroke="#55D1F0" stroke-width="0.5" stroke-linecap="round" stroke-linejoin="round"></line>
                    <line x1="182.050413" y1="182.596196" x2="157.520515" y2="158.065134" id="Stroke-9" stroke="#55D1F0" stroke-width="0.5" stroke-linecap="round" stroke-linejoin="round"></line>
                    <line x1="35.7780731" y1="157.780783" x2="10.9632426" y2="182.597112" id="Stroke-11" stroke="#55D1F0" stroke-width="0.5" stroke-linecap="round" stroke-linejoin="round"></line>
                    <path d="M78.4855184,5.46124991 C62.5207638,8.58303407 48.013796,15.7767685 36.0880379,25.9152024" id="Stroke-13" stroke="#55D1F0" stroke-width="0.5" stroke-linecap="round" stroke-linejoin="round"></path>
                    <polygon id="Stroke-15" stroke="#55D1F0" stroke-width="0.5" points="87.7230337 0.152452647 83.2095366 11.4552519 75.6764452 1.89583853"></polygon>
                    <path d="M140.993467,14.9864447 C127.769531,7.80236335 112.61464,3.72259072 96.5070856,3.72259072 C92.9777069,3.72259072 89.4942638,3.91798309 86.0669086,4.29978044" id="Stroke-17" stroke="#55D1F0" stroke-width="0.5" stroke-linecap="round" stroke-linejoin="round"></path>
                    <path d="M184.417539,56.701167 C184.417539,54.7404195 182.826773,53.1508178 180.866525,53.1508178 C178.906276,53.1508178 177.316508,54.7404195 177.316508,56.701167 C177.316508,58.6620808 178.906276,60.2511833 180.866525,60.2511833 C182.826773,60.2511833 184.417539,58.6620808 184.417539,56.701167 Z" id="Stroke-19" stroke="#6AFFA1" stroke-width="0.5" stroke-linecap="round" stroke-linejoin="round"></path>
                    <path d="M171.895885,152.080769 C183.17738,136.652927 189.837864,117.630465 189.837864,97.0526863 C189.837864,83.9151294 187.12151,71.4118488 182.223886,60.0719349" id="Stroke-21" stroke="#6AFFA1" stroke-width="0.5" stroke-linecap="round" stroke-linejoin="round"></path>
                    <path d="M45.582659,175.278835 C60.2266011,184.831758 77.7185451,190.383464 96.5071688,190.383464 C108.1197,190.383464 119.237093,188.26161 129.492196,184.38655" id="Stroke-23" stroke="#55D1F0" stroke-width="0.5" stroke-linecap="round" stroke-linejoin="round"></path>
                    <path d="M116.027549,188.887664 C116.027549,187.134292 114.605711,185.711623 112.85184,185.711623 C111.097802,185.711623 109.675965,187.134292 109.675965,188.887664 C109.675965,190.641036 111.097802,192.063705 112.85184,192.063705 C114.605711,192.063705 116.027549,190.641036 116.027549,188.887664" id="Fill-25" fill="#1CC2EB"></path>
                    <path d="M45.582659,172.750002 C45.582659,170.789588 43.9925579,169.199487 42.0321433,169.199487 C40.0718952,169.199487 38.4817941,170.789588 38.4817941,172.750002 C38.4817941,174.71025 40.0718952,176.299852 42.0321433,176.299852 C43.9925579,176.299852 45.582659,174.71025 45.582659,172.750002 Z" id="Stroke-27" stroke="#55D1F0" stroke-width="0.5" stroke-linecap="round" stroke-linejoin="round"></path>
                    <path d="M8.28020919,66.5335471 C4.97235291,76.0967885 3.17604133,86.3643744 3.17604133,97.0527029 C3.17604133,117.989145 10.0698635,137.315181 21.7113539,152.885323" id="Stroke-29" stroke="#55D1F0" stroke-width="0.5" stroke-linecap="round" stroke-linejoin="round"></path>
                    <path d="M6.35193286,89.4462146 C6.35193286,87.6926763 4.92942984,86.2701733 3.17605797,86.2701733 C1.42202037,86.2701733 1.6643302e-05,87.6926763 1.6643302e-05,89.4462146 C1.6643302e-05,91.1990872 1.42202037,92.6219231 3.17605797,92.6219231 C4.92942984,92.6219231 6.35193286,91.1990872 6.35193286,89.4462146" id="Fill-31" fill="#1CC2EB"></path>
                </g>
            </g>
        </g>
    </g>
</svg>