<?xml version="1.0" encoding="UTF-8"?>
<svg width="268px" height="350px" viewBox="0 0 268 350" version="1.1" xmlns="http://www.w3.org/2000/svg" xmlns:xlink="http://www.w3.org/1999/xlink">
    <title>编组</title>
    <g id="2期" stroke="none" stroke-width="1" fill="none" fill-rule="evenodd">
        <g id="1.首页" transform="translate(-394.000000, -4079.000000)">
            <g id="编组-5备份" transform="translate(395.000000, 4079.000000)">
                <g id="编组">
                    <polyline id="Stroke-1" stroke="#38FF82" stroke-width="0.581395349" stroke-linecap="round" stroke-linejoin="round" points="144.399185 6.1992105 37.836497 6.1992105 18.7789153 25.2565348 18.7789153 314.999691 37.6822878 333.666987 201.221033 333.666987"></polyline>
                    <g transform="translate(0.000000, 0.092680)">
                        <path d="M148.179885,6.10653051 C148.179885,5.13673732 147.39365,4.34972968 146.423857,4.34972968 C145.453548,4.34972968 144.667571,5.13673732 144.667571,6.10653051 C144.667571,7.07735347 145.453548,7.86410366 146.423857,7.86410366 C147.39365,7.86410366 148.179885,7.07735347 148.179885,6.10653051 Z" id="Stroke-2" stroke="#38FF82" stroke-width="0.581395349" stroke-linecap="round" stroke-linejoin="round"></path>
                        <polyline id="Stroke-4" stroke="#38FF82" stroke-width="0.581395349" stroke-linecap="round" stroke-linejoin="round" points="148.550476 6.26442118 242.901802 6.26442118 246.609774 9.97239338 246.609774 60.7378615"></polyline>
                        <polyline id="Stroke-6" stroke="#38FF82" stroke-width="0.581395349" stroke-linecap="round" stroke-linejoin="round" points="246.609646 48.9893847 246.609646 208.134583 241.692457 213.05203 241.692457 279.067476"></polyline>
                        <polyline id="Stroke-8" stroke="#38FF82" stroke-width="0.581395349" stroke-linecap="round" stroke-linejoin="round" points="249.344504 174.838754 249.344504 176.783747 247.400026 176.783747"></polyline>
                        <polyline id="Stroke-10" stroke="#38FF82" stroke-width="0.581395349" stroke-linecap="round" stroke-linejoin="round" points="245.515018 176.783644 243.56951 176.783644 243.56951 174.838651"></polyline>
                        <line x1="243.569587" y1="170.994413" x2="243.569587" y2="49.8655196" id="Stroke-12" stroke="#38FF82" stroke-width="0.581395349" stroke-linecap="round" stroke-linejoin="round" stroke-dasharray="2.014502675034279,2.014502675034279"></line>
                        <polyline id="Stroke-14" stroke="#38FF82" stroke-width="0.581395349" stroke-linecap="round" stroke-linejoin="round" points="243.569587 47.9425127 243.569587 45.9980348 245.515095 45.9980348"></polyline>
                        <polyline id="Stroke-16" stroke="#38FF82" stroke-width="0.581395349" stroke-linecap="round" stroke-linejoin="round" points="247.400077 45.9981121 249.344555 45.9981121 249.344555 47.9425899"></polyline>
                        <line x1="249.344504" y1="51.7878572" x2="249.344504" y2="172.916751" id="Stroke-18" stroke="#38FF82" stroke-width="0.581395349" stroke-linecap="round" stroke-linejoin="round" stroke-dasharray="2.014502675034279,2.014502675034279"></line>
                        <polyline id="Stroke-20" stroke="#1CC2EB" stroke-width="0.581395349" stroke-linecap="round" stroke-linejoin="round" points="249.280632 179.69498 249.280632 276.339621 242.20889 283.410847 242.20889 314.845327 223.519712 333.539655 208.066867 333.539655"></polyline>
                        <path d="M208.047275,333.539655 C208.047275,331.725444 206.57701,330.253634 204.761255,330.253634 C202.946271,330.253634 201.475491,331.725444 201.475491,333.539655 C201.475491,335.355411 202.946271,336.826448 204.761255,336.826448 C206.57701,336.826448 208.047275,335.355411 208.047275,333.539655 Z" id="Stroke-22" stroke="#1CC2EB" stroke-width="0.581395349" stroke-linecap="round" stroke-linejoin="round"></path>
                        <line x1="246.609646" y1="217.684124" x2="246.609646" y2="277.429769" id="Stroke-24" stroke="#38FF82" stroke-width="0.581395349" stroke-linecap="round" stroke-linejoin="round"></line>
                        <polyline id="Stroke-26" stroke="#38FF82" stroke-width="0.581395349" stroke-linecap="round" stroke-linejoin="round" points="246.609646 283.9781 246.609646 325.782185 236.892663 335.498395"></polyline>
                        <line x1="246.691616" y1="20.0452416" x2="253.929151" y2="20.0452416" id="Stroke-28" stroke="#38FF82" stroke-width="0.581395349" stroke-linecap="round" stroke-linejoin="round"></line>
                        <line x1="249.280632" y1="22.0887068" x2="249.280632" y2="61.1427701" id="Stroke-30" stroke="#1CC2EB" stroke-width="0.581395349" stroke-linecap="round" stroke-linejoin="round"></line>
                        <polygon id="Fill-32" fill="#38FF82" points="18.7788638 333.539655 18.7788638 318.025024 34.2950399 333.539655"></polygon>
                        <line x1="16.9754913" y1="20.8248606" x2="30.5283961" y2="7.86407792" id="Stroke-34" stroke="#38FF82" stroke-width="0.815069081" stroke-linecap="round" stroke-linejoin="round"></line>
                        <line x1="18.6285163" y1="12.6412169" x2="26.8613318" y2="4.40788638" id="Stroke-36" stroke="#38FF82" stroke-width="0.581395349" stroke-linecap="round" stroke-linejoin="round"></line>
                        <polyline id="Stroke-38" stroke="#1CC2EB" stroke-width="0.581395349" stroke-linecap="round" stroke-linejoin="round" points="253.909096 21.9011585 253.909096 333.539707 243.736437 343.711336 24.6679567 343.711336 14.4958122 333.539707 14.4958122 12.7778426 24.6679567 2.60595555 30.1811293 2.60595555"></polyline>
                        <path d="M33.8966704,2.60590406 C33.8966704,1.67601476 33.1418433,0.921445121 32.211954,0.921445121 C31.2820647,0.921445121 30.5282674,1.67601476 30.5282674,2.60590406 C30.5282674,3.53579336 31.2820647,4.290363 32.211954,4.290363 C33.1418433,4.290363 33.8966704,3.53579336 33.8966704,2.60590406 Z" id="Stroke-40" stroke="#1CC2EB" stroke-width="0.581395349" stroke-linecap="round" stroke-linejoin="round"></path>
                        <polyline id="Stroke-42" stroke="#1CC2EB" stroke-width="0.581395349" stroke-linecap="round" stroke-linejoin="round" points="34.0266541 2.60590406 243.736514 2.60590406 253.909174 12.7780486 253.909174 17.8973312"></polyline>
                        <polygon id="Fill-44" fill="#38FF82" points="23.7818587 170.012186 26.3663434 170.012186 26.3663434 164.876942 23.7818587 164.876942"></polygon>
                        <polygon id="Fill-46" fill="#1CC2EB" points="23.7818587 159.814297 26.3663434 159.814297 26.3663434 155.984296 23.7818587 155.984296"></polygon>
                        <polygon id="Fill-47" fill="#1CC2EB" points="23.7818587 164.883893 26.3663434 164.883893 26.3663434 162.315369 23.7818587 162.315369"></polygon>
                        <polygon id="Fill-48" fill="#1CC2EB" points="23.7818587 161.128808 26.3663434 161.128808 26.3663434 159.844933 23.7818587 159.844933"></polygon>
                        <polygon id="Fill-49" fill="#1CC2EB" points="23.7818587 155.984296 26.3663434 155.984296 26.3663434 151.84047 23.7818587 151.84047"></polygon>
                        <polygon id="Fill-50" fill="#1CC2EB" points="23.7818587 147.756114 26.3663434 147.756114 26.3663434 144.667553 23.7818587 144.667553"></polygon>
                        <polygon id="Fill-51" fill="#1CC2EB" points="23.7818587 151.846391 26.3663434 151.846391 26.3663434 149.773706 23.7818587 149.773706"></polygon>
                        <polygon id="Fill-52" fill="#1CC2EB" points="23.7818587 149.773964 26.3663434 149.773964 26.3663434 147.782116 23.7818587 147.782116"></polygon>
                        <polygon id="Fill-53" fill="#1CC2EB" points="23.7818587 143.579593 26.3663434 143.579593 26.3663434 140.215824 23.7818587 140.215824"></polygon>
                        <polygon id="Fill-54" fill="#1CC2EB" points="23.7818587 136.902257 26.3663434 136.902257 26.3663434 134.39552 23.7818587 134.39552"></polygon>
                        <polygon id="Fill-55" fill="#1CC2EB" points="23.7818587 140.220973 26.3663434 140.220973 26.3663434 138.539604 23.7818587 138.539604"></polygon>
                        <polygon id="Fill-56" fill="#1CC2EB" points="23.7818587 137.763151 26.3663434 137.763151 26.3663434 136.922338 23.7818587 136.922338"></polygon>
                        <polygon id="Fill-57" fill="#1CC2EB" points="23.7818587 134.395263 26.3663434 134.395263 26.3663434 131.682828 23.7818587 131.682828"></polygon>
                        <polygon id="Fill-58" fill="#1CC2EB" points="23.7818587 129.008238 26.3663434 129.008238 26.3663434 123.843388 23.7818587 123.843388"></polygon>
                        <polygon id="Fill-59" fill="#1CC2EB" points="23.7818587 131.686433 26.3663434 131.686433 26.3663434 130.330215 23.7818587 130.330215"></polygon>
                        <polygon id="Fill-60" fill="#1CC2EB" points="23.7818587 130.330215 26.3663434 130.330215 26.3663434 129.025487 23.7818587 129.025487"></polygon>
                        <polygon id="Fill-61" fill="#1CC2EB" points="23.7818587 123.787523 26.3663434 123.787523 26.3663434 122.601476 23.7818587 122.601476"></polygon>
                        <polygon id="Fill-62" fill="#1CC2EB" points="23.7818587 117.006179 26.3663434 117.006179 26.3663434 113.176435 23.7818587 113.176435"></polygon>
                        <polygon id="Fill-63" fill="#1CC2EB" points="23.7818587 122.076289 26.3663434 122.076289 26.3663434 119.507509 23.7818587 119.507509"></polygon>
                        <polygon id="Fill-64" fill="#1CC2EB" points="23.7818587 118.321462 26.3663434 118.321462 26.3663434 117.036815 23.7818587 117.036815"></polygon>
                        <polygon id="Fill-65" fill="#1CC2EB" points="23.7818587 113.176435 26.3663434 113.176435 26.3663434 109.03261 23.7818587 109.03261"></polygon>
                        <polygon id="Fill-66" fill="#38FF82" points="23.7818587 104.947996 26.3663434 104.947996 26.3663434 101.85892 23.7818587 101.85892"></polygon>
                        <polygon id="Fill-67" fill="#1CC2EB" points="23.7818587 109.038273 26.3663434 109.038273 26.3663434 106.966875 23.7818587 106.966875"></polygon>
                        <polygon id="Fill-68" fill="#1CC2EB" points="23.7818587 106.966875 26.3663434 106.966875 26.3663434 104.972711 23.7818587 104.972711"></polygon>
                        <polygon id="Fill-69" fill="#1CC2EB" points="23.7818587 100.771218 26.3663434 100.771218 26.3663434 97.4084785 23.7818587 97.4084785"></polygon>
                        <polygon id="Fill-70" fill="#1CC2EB" points="23.7818587 94.0946537 26.3663434 94.0946537 26.3663434 91.5876598 23.7818587 91.5876598"></polygon>
                        <polygon id="Fill-71" fill="#1CC2EB" points="23.7818587 97.4136274 26.3663434 97.4136274 26.3663434 95.7320003 23.7818587 95.7320003"></polygon>
                        <polygon id="Fill-72" fill="#1CC2EB" points="23.7818587 94.9547756 26.3663434 94.9547756 26.3663434 94.1139621 23.7818587 94.1139621"></polygon>
                        <polygon id="Fill-73" fill="#1CC2EB" points="23.7818587 91.5876598 26.3663434 91.5876598 26.3663434 88.8749678 23.7818587 88.8749678"></polygon>
                        <polygon id="Fill-74" fill="#1CC2EB" points="23.7818587 86.2011499 26.3663434 86.2011499 26.3663434 81.0357848 23.7818587 81.0357848"></polygon>
                        <polygon id="Fill-75" fill="#1CC2EB" points="23.7818587 88.878572 26.3663434 88.878572 26.3663434 87.5223548 23.7818587 87.5223548"></polygon>
                        <polygon id="Fill-76" fill="#1CC2EB" points="23.7818587 87.5223548 26.3663434 87.5223548 26.3663434 86.2173689 23.7818587 86.2173689"></polygon>
                        <polygon id="Fill-77" fill="#1CC2EB" points="23.7818587 79.5688664 26.3663434 79.5688664 26.3663434 76.4790183 23.7818587 76.4790183"></polygon>
                        <polygon id="Fill-78" fill="#1CC2EB" points="23.7818587 75.3913155 26.3663434 75.3913155 26.3663434 72.0283189 23.7818587 72.0283189"></polygon>
                        <polygon id="Fill-79" fill="#1CC2EB" points="23.7818587 68.7147516 26.3663434 68.7147516 26.3663434 66.2075002 23.7818587 66.2075002"></polygon>
                        <polygon id="Fill-80" fill="#1CC2EB" points="23.7818587 72.0337252 26.3663434 72.0337252 26.3663434 70.3520982 23.7818587 70.3520982"></polygon>
                        <polygon id="Fill-81" fill="#1CC2EB" points="23.7818587 69.5751309 26.3663434 69.5751309 26.3663434 68.7343173 23.7818587 68.7343173"></polygon>
                        <polygon id="Fill-82" fill="#38FF82" points="23.7818587 66.2075002 26.3663434 66.2075002 26.3663434 63.4948082 23.7818587 63.4948082"></polygon>
                        <polygon id="Fill-83" fill="#1CC2EB" points="23.7818587 60.8212477 26.3663434 60.8212477 26.3663434 55.6553677 23.7818587 55.6553677"></polygon>
                        <polygon id="Fill-84" fill="#1CC2EB" points="23.7818587 63.4986699 26.3663434 63.4986699 26.3663434 62.1419377 23.7818587 62.1419377"></polygon>
                        <polygon id="Fill-85" fill="#1CC2EB" points="23.7818587 62.1419377 26.3663434 62.1419377 26.3663434 60.8377242 23.7818587 60.8377242"></polygon>
                        <polygon id="Fill-86" fill="#1CC2EB" points="23.7818587 55.5997597 26.3663434 55.5997597 26.3663434 54.4139707 23.7818587 54.4139707"></polygon>
                        <polygon id="Fill-87" fill="#1CC2EB" points="23.7818587 48.8186733 26.3663434 48.8186733 26.3663434 44.9886724 23.7818587 44.9886724"></polygon>
                        <polygon id="Fill-88" fill="#1CC2EB" points="23.7818587 53.8880117 26.3663434 53.8880117 26.3663434 51.3194885 23.7818587 51.3194885"></polygon>
                        <polygon id="Fill-89" fill="#1CC2EB" points="23.7818587 50.1336995 26.3663434 50.1336995 26.3663434 48.8487943 23.7818587 48.8487943"></polygon>
                        <polygon id="Fill-90" fill="#1CC2EB" points="23.7818587 44.9886724 26.3663434 44.9886724 26.3663434 40.8445894 23.7818587 40.8445894"></polygon>
                        <polygon id="Fill-91" fill="#1CC2EB" points="23.7818587 36.7607483 26.3663434 36.7607483 26.3663434 33.6711576 23.7818587 33.6711576"></polygon>
                        <polygon id="Fill-92" fill="#1CC2EB" points="23.7818587 40.850768 26.3663434 40.850768 26.3663434 38.7785978 23.7818587 38.7785978"></polygon>
                        <polygon id="Fill-93" fill="#1CC2EB" points="23.7818587 38.7785978 26.3663434 38.7785978 26.3663434 36.7857204 23.7818587 36.7857204"></polygon>
                        <polygon id="Fill-94" fill="#1CC2EB" points="23.7818587 33.7283103 26.3663434 33.7283103 26.3663434 32.0466833 23.7818587 32.0466833"></polygon>
                        <polygon id="Fill-95" fill="#1CC2EB" points="23.7818587 28.7323436 26.3663434 28.7323436 26.3663434 27.2051832 23.7818587 27.2051832"></polygon>
                        <polygon id="Fill-96" fill="#1CC2EB" points="23.7818587 32.0515747 26.3663434 32.0515747 26.3663434 30.3699477 23.7818587 30.3699477"></polygon>
                        <polygon id="Fill-97" fill="#1CC2EB" points="23.7818587 29.5932378 26.3663434 29.5932378 26.3663434 28.7521668 23.7818587 28.7521668"></polygon>
                        <polygon id="Fill-98" fill="#1CC2EB" points="23.7818587 27.2051832 26.3663434 27.2051832 26.3663434 25.5531623 23.7818587 25.5531623"></polygon>
                        <polygon id="Fill-99" fill="#1CC2EB" points="23.7818587 315.036557 26.3663434 315.036557 26.3663434 309.900026 23.7818587 309.900026"></polygon>
                        <polygon id="Fill-100" fill="#38FF82" points="23.7818587 304.837638 26.3663434 304.837638 26.3663434 301.007638 23.7818587 301.007638"></polygon>
                        <polygon id="Fill-101" fill="#38FF82" points="23.7818587 309.908007 26.3663434 309.908007 26.3663434 307.339226 23.7818587 307.339226"></polygon>
                        <polygon id="Fill-102" fill="#1CC2EB" points="23.7818587 306.152665 26.3663434 306.152665 26.3663434 304.867759 23.7818587 304.867759"></polygon>
                        <polygon id="Fill-103" fill="#1CC2EB" points="23.7818587 301.007638 26.3663434 301.007638 26.3663434 296.863812 23.7818587 296.863812"></polygon>
                        <polygon id="Fill-104" fill="#1CC2EB" points="23.7818587 292.780743 26.3663434 292.780743 26.3663434 289.689608 23.7818587 289.689608"></polygon>
                        <polygon id="Fill-105" fill="#1CC2EB" points="23.7818587 296.870763 26.3663434 296.870763 26.3663434 294.798335 23.7818587 294.798335"></polygon>
                        <polygon id="Fill-106" fill="#1CC2EB" points="23.7818587 294.798335 26.3663434 294.798335 26.3663434 292.804171 23.7818587 292.804171"></polygon>
                        <polygon id="Fill-107" fill="#1CC2EB" points="23.7818587 288.601905 26.3663434 288.601905 26.3663434 285.239423 23.7818587 285.239423"></polygon>
                        <polygon id="Fill-108" fill="#1CC2EB" points="23.7818587 281.926113 26.3663434 281.926113 26.3663434 279.418347 23.7818587 279.418347"></polygon>
                        <polygon id="Fill-109" fill="#38FF82" points="23.7818587 285.245087 26.3663434 285.245087 26.3663434 283.563203 23.7818587 283.563203"></polygon>
                        <polygon id="Fill-110" fill="#38FF82" points="23.7818587 282.787523 26.3663434 282.787523 26.3663434 281.945937 23.7818587 281.945937"></polygon>
                        <polygon id="Fill-111" fill="#1CC2EB" points="23.7818587 279.418347 26.3663434 279.418347 26.3663434 276.706428 23.7818587 276.706428"></polygon>
                        <polygon id="Fill-112" fill="#1CC2EB" points="23.7818587 274.032352 26.3663434 274.032352 26.3663434 268.867502 23.7818587 268.867502"></polygon>
                        <polygon id="Fill-113" fill="#1CC2EB" points="23.7818587 276.710804 26.3663434 276.710804 26.3663434 275.353042 23.7818587 275.353042"></polygon>
                        <polygon id="Fill-114" fill="#1CC2EB" points="23.7818587 275.353042 26.3663434 275.353042 26.3663434 274.049086 23.7818587 274.049086"></polygon>
                        <polygon id="Fill-115" fill="#1CC2EB" points="23.7818587 268.810607 26.3663434 268.810607 26.3663434 267.625333 23.7818587 267.625333"></polygon>
                        <polygon id="Fill-116" fill="#1CC2EB" points="23.7818587 262.029005 26.3663434 262.029005 26.3663434 258.199777 23.7818587 258.199777"></polygon>
                        <polygon id="Fill-117" fill="#1CC2EB" points="23.7818587 267.099888 26.3663434 267.099888 26.3663434 264.531365 23.7818587 264.531365"></polygon>
                        <polygon id="Fill-118" fill="#1CC2EB" points="23.7818587 263.344546 26.3663434 263.344546 26.3663434 262.061186 23.7818587 262.061186"></polygon>
                        <polygon id="Fill-119" fill="#38FF82" points="23.7818587 258.199777 26.3663434 258.199777 26.3663434 254.055694 23.7818587 254.055694"></polygon>
                        <polygon id="Fill-120" fill="#1CC2EB" points="23.7818587 249.971853 26.3663434 249.971853 26.3663434 246.883034 23.7818587 246.883034"></polygon>
                        <polygon id="Fill-121" fill="#1CC2EB" points="23.7818587 254.061872 26.3663434 254.061872 26.3663434 251.989445 23.7818587 251.989445"></polygon>
                        <polygon id="Fill-122" fill="#1CC2EB" points="23.7818587 251.989702 26.3663434 251.989702 26.3663434 249.996053 23.7818587 249.996053"></polygon>
                        <polygon id="Fill-123" fill="#1CC2EB" points="23.7818587 245.794817 26.3663434 245.794817 26.3663434 242.43182 23.7818587 242.43182"></polygon>
                        <polygon id="Fill-124" fill="#1CC2EB" points="23.7818587 239.117738 26.3663434 239.117738 26.3663434 236.611001 23.7818587 236.611001"></polygon>
                        <polygon id="Fill-125" fill="#1CC2EB" points="23.7818587 242.436712 26.3663434 242.436712 26.3663434 240.755342 23.7818587 240.755342"></polygon>
                        <polygon id="Fill-126" fill="#1CC2EB" points="23.7818587 239.978117 26.3663434 239.978117 26.3663434 239.137561 23.7818587 239.137561"></polygon>
                        <polygon id="Fill-127" fill="#1CC2EB" points="23.7818587 236.610744 26.3663434 236.610744 26.3663434 233.897795 23.7818587 233.897795"></polygon>
                        <polygon id="Fill-128" fill="#1CC2EB" points="23.7818587 231.223977 26.3663434 231.223977 26.3663434 226.059126 23.7818587 226.059126"></polygon>
                        <polygon id="Fill-129" fill="#1CC2EB" points="23.7818587 233.902686 26.3663434 233.902686 26.3663434 232.545696 23.7818587 232.545696"></polygon>
                        <polygon id="Fill-130" fill="#1CC2EB" points="23.7818587 232.545439 26.3663434 232.545439 26.3663434 231.240711 23.7818587 231.240711"></polygon>
                        <polygon id="Fill-131" fill="#1CC2EB" points="23.7818587 224.592723 26.3663434 224.592723 26.3663434 221.502875 23.7818587 221.502875"></polygon>
                        <polygon id="Fill-132" fill="#1CC2EB" points="23.7818587 220.413885 26.3663434 220.413885 26.3663434 217.051403 23.7818587 217.051403"></polygon>
                        <polygon id="Fill-133" fill="#1CC2EB" points="23.7818587 213.737063 26.3663434 213.737063 26.3663434 211.231357 23.7818587 211.231357"></polygon>
                        <polygon id="Fill-134" fill="#1CC2EB" points="23.7818587 217.057067 26.3663434 217.057067 26.3663434 215.374925 23.7818587 215.374925"></polygon>
                        <polygon id="Fill-135" fill="#1CC2EB" points="23.7818587 214.599245 26.3663434 214.599245 26.3663434 213.757916 23.7818587 213.757916"></polygon>
                        <polygon id="Fill-136" fill="#1CC2EB" points="23.7818587 211.231099 26.3663434 211.231099 26.3663434 208.51712 23.7818587 208.51712"></polygon>
                        <polygon id="Fill-137" fill="#1CC2EB" points="23.7818587 205.844332 26.3663434 205.844332 26.3663434 200.679224 23.7818587 200.679224"></polygon>
                        <polygon id="Fill-138" fill="#38FF82" points="23.7818587 208.521754 26.3663434 208.521754 26.3663434 207.166309 23.7818587 207.166309"></polygon>
                        <polygon id="Fill-139" fill="#1CC2EB" points="23.7818587 207.166309 26.3663434 207.166309 26.3663434 205.862096 23.7818587 205.862096"></polygon>
                        <polygon id="Fill-140" fill="#1CC2EB" points="23.7818587 200.622329 26.3663434 200.622329 26.3663434 199.437055 23.7818587 199.437055"></polygon>
                        <polygon id="Fill-141" fill="#38FF82" points="23.7818587 193.841757 26.3663434 193.841757 26.3663434 190.011242 23.7818587 190.011242"></polygon>
                        <polygon id="Fill-142" fill="#1CC2EB" points="23.7818587 198.913155 26.3663434 198.913155 26.3663434 196.343345 23.7818587 196.343345"></polygon>
                        <polygon id="Fill-143" fill="#1CC2EB" points="23.7818587 195.156784 26.3663434 195.156784 26.3663434 193.872908 23.7818587 193.872908"></polygon>
                        <polygon id="Fill-144" fill="#1CC2EB" points="23.7818587 190.011499 26.3663434 190.011499 26.3663434 185.869476 23.7818587 185.869476"></polygon>
                        <polygon id="Fill-145" fill="#1CC2EB" points="23.7818587 181.784347 26.3663434 181.784347 26.3663434 178.695014 23.7818587 178.695014"></polygon>
                        <polygon id="Fill-146" fill="#1CC2EB" points="23.7818587 185.874882 26.3663434 185.874882 26.3663434 183.802197 23.7818587 183.802197"></polygon>
                        <polygon id="Fill-147" fill="#1CC2EB" points="23.7818587 183.802197 26.3663434 183.802197 26.3663434 181.809062 23.7818587 181.809062"></polygon>
                        <polygon id="Fill-148" fill="#1CC2EB" points="23.7818587 178.751909 26.3663434 178.751909 26.3663434 177.070025 23.7818587 177.070025"></polygon>
                        <polygon id="Fill-149" fill="#1CC2EB" points="23.7818587 173.755428 26.3663434 173.755428 26.3663434 172.23007 23.7818587 172.23007"></polygon>
                        <polygon id="Fill-150" fill="#1CC2EB" points="23.7818587 177.075431 26.3663434 177.075431 26.3663434 175.393289 23.7818587 175.393289"></polygon>
                        <polygon id="Fill-151" fill="#1CC2EB" points="23.7818587 174.617094 26.3663434 174.617094 26.3663434 173.776281 23.7818587 173.776281"></polygon>
                        <polygon id="Fill-152" fill="#1CC2EB" points="23.7818587 172.23007 26.3663434 172.23007 26.3663434 170.577019 23.7818587 170.577019"></polygon>
                        <polygon id="Stroke-153" stroke="#38FF82" stroke-width="0.581395349" stroke-linecap="round" stroke-linejoin="round" points="32.4452759 53.796104 34.8482623 55.183987 32.4452759 56.5726422"></polygon>
                        <polygon id="Stroke-154" stroke="#38FF82" stroke-width="0.581395349" stroke-linecap="round" stroke-linejoin="round" points="32.4452759 57.8498498 34.8482623 59.2377328 32.4452759 60.6258732"></polygon>
                        <polygon id="Stroke-155" stroke="#38FF82" stroke-width="0.581395349" stroke-linecap="round" stroke-linejoin="round" points="32.4452759 62.1006951 34.8482623 63.4890929 32.4452759 64.8772333"></polygon>
                        <polygon id="Stroke-156" stroke="#38FF82" stroke-width="0.581395349" stroke-linecap="round" stroke-linejoin="round" points="32.4452759 66.1546984 34.8482623 67.5425813 32.4452759 68.9304643"></polygon>
                        <polyline id="Stroke-157" stroke="#1CC2EB" stroke-width="0.581395349" stroke-linecap="round" stroke-linejoin="round" points="9.04550759 0.369098086 0.23215481 0.369098086 0.23215481 8.76693555"></polyline>
                        <polyline id="Stroke-158" stroke="#1CC2EB" stroke-width="0.581395349" stroke-linecap="round" stroke-linejoin="round" points="257.032129 0.369098086 265.844967 0.369098086 265.844967 8.76693555"></polyline>
                        <polyline id="Stroke-159" stroke="#1CC2EB" stroke-width="0.581395349" stroke-linecap="round" stroke-linejoin="round" points="257.032129 347.911542 265.845482 347.911542 265.845482 339.512675"></polyline>
                        <polyline id="Stroke-160" stroke="#1CC2EB" stroke-width="0.581395349" stroke-linecap="round" stroke-linejoin="round" points="0.440710547 339.306024 0.440710547 348.118347 8.83829057 348.118347"></polyline>
                        <path d="M47.8713464,111.030078 C47.8713464,109.962199 47.0053034,109.096413 45.9371664,109.096413 C44.8695443,109.096413 44.0032438,109.962199 44.0032438,111.030078 C44.0032438,112.098472 44.8695443,112.964258 45.9371664,112.964258 C47.0053034,112.964258 47.8713464,112.098472 47.8713464,111.030078" id="Fill-163" fill="#1CC2EB"></path>
                        <g transform="translate(41.079550, 52.261220)" fill="#38FF82">
                            <path d="M1.27509654,8.97211877 C1.7186733,8.97211877 2.07935296,9.33202609 2.07935296,9.7753454 C2.07935296,10.2181498 1.7186733,10.578572 1.27509654,10.578572 C0.832549558,10.578572 0.471869905,10.2181498 0.471869905,9.7753454 C0.471869905,9.33202609 0.832549558,8.97211877 1.27509654,8.97211877 M1.27509654,15.0421437 C0.832549558,15.0421437 0.471869905,14.6817214 0.471869905,14.238917 C0.471869905,13.7953403 0.832549558,13.4346606 1.27509654,13.4346606 C1.7186733,13.4346606 2.07935296,13.7953403 2.07935296,14.238917 C2.07935296,14.6817214 1.7186733,15.0421437 1.27509654,15.0421437 M3.67241912,15.5171286 L2.31208273,14.7321806 C2.38416717,14.5820904 2.42819017,14.4160388 2.42819017,14.238917 C2.42819017,13.6344375 1.95809663,13.1424612 1.36520209,13.0958637 L1.36520209,10.9181413 C1.95809663,10.8712864 2.42819017,10.3800824 2.42819017,9.7753454 C2.42819017,9.6345233 2.39909894,9.50168197 2.35301639,9.37707886 L3.63225779,8.63847078 C3.71566978,8.59058612 3.74398867,8.48400412 3.69610401,8.40084957 C3.64744701,8.31692268 3.54112246,8.28911868 3.45796791,8.33700335 L2.18284562,9.07380932 C1.97174118,8.80143311 1.64607397,8.62328156 1.27509654,8.62328156 C0.640753454,8.62328156 0.123805029,9.13997254 0.123805029,9.7753454 C0.123805029,10.3211276 0.506882348,10.7770617 1.01713722,10.8949713 L1.01713722,13.1180039 C0.506882348,13.2366858 0.123805029,13.6926199 0.123805029,14.238917 C0.123805029,14.873775 0.640753454,15.3902085 1.27509654,15.3902085 C1.60771475,15.3902085 1.90583541,15.246812 2.11693984,15.0207758 L3.49838668,15.8185961 C3.52541835,15.8345576 3.55450957,15.842281 3.58488801,15.842281 C3.64487257,15.842281 3.7035699,15.8103578 3.73549301,15.7547498 C3.78389256,15.6715953 3.75505878,15.5647559 3.67241912,15.5171286" id="Fill-165"></path>
                            <path d="M8.84180039,0.52850768 C9.28460482,0.52850768 9.64476959,0.888415 9.64476959,1.33199176 C9.64476959,1.77505363 9.28460482,2.13547584 8.84180039,2.13547584 C8.39848108,2.13547584 8.03857376,1.77505363 8.03857376,1.33199176 C8.03857376,0.888415 8.39848108,0.52850768 8.84180039,0.52850768 M8.84180039,2.48354072 C9.47665837,2.48354072 9.99412169,1.96736463 9.99412169,1.33199176 C9.99412169,0.696876341 9.47665837,0.179927916 8.84180039,0.179927916 C8.20642753,0.179927916 7.68973655,0.696876341 7.68973655,1.33199176 C7.68973655,1.96736463 8.20642753,2.48354072 8.84180039,2.48354072" id="Fill-166"></path>
                            <path d="M8.36712435,1.50623016 C8.46315112,1.50623016 8.54218656,1.42848194 8.54218656,1.33194027 C8.54218656,1.16691839 8.67657256,1.03150262 8.84185188,1.03150262 C8.93736377,1.03150262 9.01614177,0.953496954 9.01614177,0.85695529 C9.01614177,0.761185961 8.93736377,0.683180297 8.84185188,0.683180297 C8.48400412,0.683180297 8.19334935,0.974349953 8.19334935,1.33194027 C8.19334935,1.42848194 8.27135502,1.50623016 8.36712435,1.50623016" id="Fill-167"></path>
                            <path d="M5.68357505,4.8653394 L5.68357505,5.93656569 C5.68357505,6.03259247 5.76158071,6.11111302 5.85812237,6.11111302 C5.95337681,6.11111302 6.03163992,6.03259247 6.03163992,5.93656569 L6.03163992,4.8653394 C6.03163992,4.76905518 5.95337681,4.69104952 5.85812237,4.69104952 C5.76158071,4.69104952 5.68357505,4.76905518 5.68357505,4.8653394" id="Fill-168"></path>
                            <path d="M4.97408393,7.33971509 C5.06985326,7.33971509 5.14760148,7.26119454 5.14760148,7.16516777 C5.14760148,7.06965588 5.06985326,6.99113533 4.97408393,6.99113533 C4.61597872,6.99113533 4.32429417,7.28204754 4.32429417,7.63989531 C4.32429417,7.73617952 4.40229984,7.81418519 4.49858406,7.81418519 C4.59461083,7.81418519 4.67261649,7.73617952 4.67261649,7.63989531 C4.67261649,7.47410109 4.80777482,7.33971509 4.97408393,7.33971509" id="Fill-169"></path>
                            <path d="M12.384416,7.8141337 C12.4804428,7.8141337 12.5589634,7.73612804 12.5589634,7.63984382 C12.5589634,7.47430705 12.692577,7.33966361 12.8583712,7.33966361 C12.9549129,7.33966361 13.0326611,7.2614005 13.0326611,7.16511628 C13.0326611,7.06960439 12.9549129,6.99108384 12.8583712,6.99108384 C12.5012958,6.99108384 12.2098687,7.2822535 12.2098687,7.63984382 C12.2098687,7.73612804 12.2883893,7.8141337 12.384416,7.8141337" id="Fill-170"></path>
                            <path d="M4.96504763,17.1841843 C4.52172831,17.1841843 4.16233588,16.824277 4.16233588,16.3809577 C4.16233588,15.9378958 4.52172831,15.5777311 4.96504763,15.5777311 C5.40862439,15.5777311 5.7690466,15.9378958 5.7690466,16.3809577 C5.7690466,16.824277 5.40862439,17.1841843 4.96504763,17.1841843 M4.96504763,15.2291513 C4.33018965,15.2291513 3.81375611,15.7455848 3.81375611,16.3809577 C3.81375611,17.0160731 4.33018965,17.5330215 4.96504763,17.5330215 C5.60016305,17.5330215 6.11736892,17.0160731 6.11736892,16.3809577 C6.11736892,15.7455848 5.60016305,15.2291513 4.96504763,15.2291513" id="Fill-171"></path>
                            <path d="M12.791204,17.1841843 C12.3481421,17.1841843 11.9874625,16.824277 11.9874625,16.3809577 C11.9874625,15.9378958 12.3481421,15.5777311 12.791204,15.5777311 C13.2342659,15.5777311 13.5944306,15.9378958 13.5944306,16.3809577 C13.5944306,16.824277 13.2342659,17.1841843 12.791204,17.1841843 M12.791204,15.2291513 C12.1560886,15.2291513 11.6388827,15.7455848 11.6388827,16.3809577 C11.6388827,17.0160731 12.1560886,17.5330215 12.791204,17.5330215 C13.426062,17.5330215 13.9432678,17.0160731 13.9432678,16.3809577 C13.9432678,15.7455848 13.426062,15.2291513 12.791204,15.2291513" id="Fill-172"></path>
                            <path d="M16.5103235,8.97211877 C16.9539003,8.97211877 17.3143225,9.33202609 17.3143225,9.7753454 C17.3143225,10.2181498 16.9539003,10.578572 16.5103235,10.578572 C16.0675191,10.578572 15.7076118,10.2181498 15.7076118,9.7753454 C15.7076118,9.33202609 16.0675191,8.97211877 16.5103235,8.97211877 M16.5103235,15.0421437 C16.0675191,15.0421437 15.7076118,14.6817214 15.7076118,14.238917 C15.7076118,13.7953403 16.0675191,13.4346606 16.5103235,13.4346606 C16.9539003,13.4346606 17.3143225,13.7953403 17.3143225,14.238917 C17.3143225,14.6817214 16.9539003,15.0421437 16.5103235,15.0421437 M8.84182614,15.0421437 C8.39850682,15.0421437 8.0385995,14.6817214 8.0385995,14.238917 C8.0385995,13.7953403 8.39850682,13.4346606 8.84182614,13.4346606 C9.28463057,13.4346606 9.64479533,13.7953403 9.64479533,14.238917 C9.64479533,14.6817214 9.28463057,15.0421437 8.84182614,15.0421437 M9.64479533,9.7753454 C9.64479533,10.2181498 9.28463057,10.578572 8.84182614,10.578572 C8.39850682,10.578572 8.0385995,10.2181498 8.0385995,9.7753454 C8.0385995,9.33202609 8.39850682,8.97211877 8.84182614,8.97211877 C9.28463057,8.97211877 9.64479533,9.33202609 9.64479533,9.7753454 M12.7912812,2.26903802 C13.2340856,2.26903802 13.5945079,2.62920278 13.5945079,3.0725221 C13.5945079,3.51609886 13.2340856,3.87574873 12.7912812,3.87574873 C12.3482193,3.87574873 11.9875397,3.51609886 11.9875397,3.0725221 C11.9875397,2.62920278 12.3482193,2.26903802 12.7912812,2.26903802 M12.7912812,8.40677079 C12.3482193,8.40677079 11.9875397,8.04583369 11.9875397,7.60302926 C11.9875397,7.15996739 12.3482193,6.79954518 12.7912812,6.79954518 C13.2340856,6.79954518 13.5945079,7.15996739 13.5945079,7.60302926 C13.5945079,8.04583369 13.2340856,8.40677079 12.7912812,8.40677079 M4.96497039,2.26903802 C5.40854716,2.26903802 5.76896936,2.62920278 5.76896936,3.0725221 C5.76896936,3.51609886 5.40854716,3.87574873 4.96497039,3.87574873 C4.52190852,3.87574873 4.16225865,3.51609886 4.16225865,3.0725221 C4.16225865,2.62920278 4.52190852,2.26903802 4.96497039,2.26903802 M4.96497039,8.40677079 C4.52190852,8.40677079 4.16225865,8.04583369 4.16225865,7.60302926 C4.16225865,7.15996739 4.52190852,6.79954518 4.96497039,6.79954518 C5.40854716,6.79954518 5.76896936,7.15996739 5.76896936,7.60302926 C5.76896936,8.04583369 5.40854716,8.40677079 4.96497039,8.40677079 M16.7899082,13.1252124 L16.7899082,10.88905 C17.2903802,10.7631597 17.6634171,10.3136617 17.6634171,9.7753454 C17.6634171,9.13997254 17.1459538,8.62328156 16.5103235,8.62328156 C16.1442375,8.62328156 15.8219171,8.79808633 15.6105552,9.06531365 L13.8524672,8.05021025 C13.9106496,7.91299236 13.9430876,7.76187248 13.9430876,7.60302926 C13.9430876,6.99159873 13.461924,6.49421608 12.8592465,6.45817386 L12.8592465,4.21789239 C13.461924,4.18107783 13.9430876,3.68395263 13.9430876,3.0725221 C13.9430876,2.43792157 13.4261392,1.92097314 12.7912812,1.92097314 C12.3749936,1.92097314 12.0132841,2.1449498 11.8109328,2.4757659 L10.4760834,1.7052347 C10.3926714,1.65709259 10.2863469,1.68489659 10.2384622,1.76882348 C10.1900626,1.85172059 10.2183815,1.95856003 10.3017935,2.00670214 L11.6757745,2.79885866 C11.6541491,2.88741955 11.6389599,2.97855488 11.6389599,3.0725221 C11.6389599,3.61058097 12.0117395,4.06033639 12.5114391,4.18648417 L12.5114391,6.48958208 C12.0117395,6.61495752 11.6389599,7.06471295 11.6389599,7.60302926 C11.6389599,7.73690037 11.666249,7.86382048 11.7082125,7.98378958 L9.77223033,9.10161332 C9.56215567,8.81327555 9.22464601,8.62328156 8.84182614,8.62328156 C8.46312538,8.62328156 8.13024972,8.80915644 7.91966017,9.09234532 L6.60849567,8.3344289 C6.588415,8.32310135 6.56678967,8.31615035 6.54542178,8.31280357 L6.03645413,8.01905947 C6.08717069,7.88982236 6.11729168,7.75003004 6.11729168,7.60302926 C6.11729168,7.03871106 5.70795503,6.56990475 5.17247061,6.47156097 L5.17247061,4.20373294 C5.70795503,4.10513173 6.11729168,3.63709774 6.11729168,3.0725221 C6.11729168,2.96491032 6.09772591,2.86296233 6.06940702,2.76410366 L7.47144941,1.95469836 C7.55511885,1.90707114 7.5831803,1.8002317 7.53555308,1.71630481 C7.48689608,1.63289282 7.37979919,1.60560371 7.29844675,1.65271604 L5.92807002,2.44358534 C5.72262937,2.12924569 5.36838582,1.92097314 4.96497039,1.92097314 C4.33011242,1.92097314 3.81393633,2.43792157 3.81393633,3.0725221 C3.81393633,3.65923796 4.25545353,4.13937184 4.82337595,4.20991161 L4.82337595,6.46589719 C4.25545353,6.53592208 3.81393633,7.01657084 3.81393633,7.60302926 C3.81393633,8.23788724 4.33011242,8.75483566 4.96497039,8.75483566 C5.32822449,8.75483566 5.6492577,8.58234789 5.85984725,8.31975457 L7.7541234,9.41286364 C7.71627907,9.52716897 7.68976229,9.64791041 7.68976229,9.7753454 C7.68976229,10.3638634 8.13514117,10.8447696 8.70460826,10.9132498 L8.70460826,13.1004977 C8.13514117,13.1687205 7.68976229,13.6506565 7.68976229,14.238917 C7.68976229,14.4075431 7.72812151,14.5669012 7.79454218,14.711585 L6.36109156,15.5390114 C6.27767957,15.5868961 6.24961812,15.6934781 6.29801768,15.7763752 C6.32994079,15.8324981 6.38863812,15.8639063 6.44836523,15.8639063 C6.47771389,15.8639063 6.50757745,15.856183 6.535124,15.8404788 L7.98582339,15.0024972 C8.19718527,15.2383163 8.50122715,15.3902085 8.84182614,15.3902085 C9.20508024,15.3902085 9.525856,15.2179782 9.73721788,14.9538402 L11.3717326,15.8973741 C11.3990217,15.914108 11.4288853,15.9215738 11.4582339,15.9215738 C11.5182185,15.9215738 11.5771733,15.8904231 11.6090964,15.8345576 C11.6572385,15.7511456 11.6286621,15.6440487 11.545765,15.5964215 L9.91305243,14.65366 C9.96273921,14.5244229 9.99388999,14.3854029 9.99388999,14.238917 C9.99388999,13.6936497 9.61107011,13.2377156 9.10235991,13.1190337 L9.10235991,10.8949713 C9.61107011,10.7760319 9.99388999,10.3200978 9.99388999,9.7753454 C9.99388999,9.66567408 9.97355188,9.56166652 9.94446065,9.46177808 L11.9046426,8.3297949 C12.1162619,8.586467 12.4326611,8.75483566 12.7912812,8.75483566 C13.1429503,8.75483566 13.4542006,8.593418 13.6653051,8.34446924 L15.4372951,9.36781086 C15.3888956,9.49498842 15.3587746,9.63143397 15.3587746,9.7753454 C15.3587746,10.3867759 15.8396808,10.8839011 16.4418433,10.9196859 L16.4418433,13.0935467 C15.8396808,13.1293315 15.3587746,13.627229 15.3587746,14.238917 C15.3587746,14.4199005 15.4048571,14.5882691 15.479516,14.7409337 L14.0306187,15.5776281 C13.9472067,15.6255127 13.9191453,15.7320947 13.9670299,15.8155067 C14.0154295,15.8984038 14.1214966,15.9264653 14.2046512,15.8788381 L15.6769759,15.0284991 C15.8867931,15.2504162 16.1823393,15.3902085 16.5103235,15.3902085 C17.1459538,15.3902085 17.6634171,14.873775 17.6634171,14.238917 C17.6634171,13.7000858 17.2903802,13.2505878 16.7899082,13.1252124" id="Fill-173"></path>
                            <path d="M1.81585858,11.709474 L1.81585858,12.7801854 C1.81585858,12.8764696 1.89334935,12.9544752 1.98989102,12.9544752 C2.08591779,12.9544752 2.16392345,12.8764696 2.16392345,12.7801854 L2.16392345,11.709474 C2.16392345,11.6129323 2.08591779,11.5349266 1.98989102,11.5349266 C1.89334935,11.5349266 1.81585858,11.6129323 1.81585858,11.709474" id="Fill-174"></path>
                            <path d="M9.43309877,11.709474 L9.43309877,12.7801854 C9.43309877,12.8764696 9.51110444,12.9544752 9.60738866,12.9544752 C9.70315799,12.9544752 9.78142109,12.8764696 9.78142109,12.7801854 L9.78142109,11.709474 C9.78142109,11.6129323 9.70315799,11.5349266 9.60738866,11.5349266 C9.51110444,11.5349266 9.43309877,11.6129323 9.43309877,11.709474" id="Fill-175"></path>
                            <path d="M4.95397752,15.7456363 C4.59664464,15.7456363 4.3049601,16.0370634 4.3049601,16.3946537 C4.3049601,16.4911954 4.38348065,16.5684287 4.47976487,16.5684287 C4.57527675,16.5684287 4.65302497,16.4911954 4.65302497,16.3946537 C4.65302497,16.2288595 4.78844074,16.0944735 4.95397752,16.0944735 C5.05051918,16.0944735 5.12800995,16.0162104 5.12800995,15.9206985 C5.12800995,15.8241569 5.05051918,15.7456363 4.95397752,15.7456363" id="Fill-176"></path>
                            <path d="M12.7733373,15.7456363 C12.415747,15.7456363 12.1243199,16.0370634 12.1243199,16.3946537 C12.1243199,16.4911954 12.202583,16.5684287 12.2986098,16.5684287 C12.3946366,16.5684287 12.4734146,16.4911954 12.4734146,16.3946537 C12.4734146,16.2288595 12.6075431,16.0944735 12.7733373,16.0944735 C12.8696216,16.0944735 12.9476272,16.0162104 12.9476272,15.9206985 C12.9476272,15.8241569 12.8696216,15.7456363 12.7733373,15.7456363" id="Fill-177"></path>
                        </g>
                        <line x1="29.4899425" y1="110.762053" x2="239.763606" y2="110.762053" id="Stroke-162" stroke="#1CC2EB" stroke-width="0.581395349" stroke-linecap="round" stroke-linejoin="round"></line>
                        <line x1="29.4899425" y1="118.511971" x2="239.763606" y2="118.511971" id="Stroke-164" stroke="#1CC2EB" stroke-width="0.581395349" stroke-linecap="round" stroke-linejoin="round"></line>
                    </g>
                </g>
            </g>
        </g>
    </g>
</svg>