<?xml version="1.0" encoding="UTF-8"?>
<svg width="811px" height="16px" viewBox="0 0 811 16" version="1.1" xmlns="http://www.w3.org/2000/svg" xmlns:xlink="http://www.w3.org/1999/xlink">
    <title>编组</title>
    <g id="2期" stroke="none" stroke-width="1" fill="none" fill-rule="evenodd" opacity="0.600000024">
        <g id="1.首页" transform="translate(-278.000000, -3249.000000)">
            <g id="编组" transform="translate(279.000000, 3250.000000)">
                <path d="M10.118071,6.93296559 C10.118071,5.17423441 8.69263011,3.7481914 6.93314624,3.7481914 C5.17411398,3.7481914 3.74837204,5.17423441 3.74837204,6.93296559 C3.74837204,8.69154624 5.17411398,10.1178903 6.93314624,10.1178903 C8.69263011,10.1178903 10.118071,8.69154624 10.118071,6.93296559" id="Fill-1" fill="#1CC2EB"></path>
                <path d="M13.8662323,6.93296559 C13.8662323,3.10509462 10.7625978,-4.51612903e-05 6.93322151,-4.51612903e-05 C3.10474839,-4.51612903e-05 6.02150538e-05,3.10509462 6.02150538e-05,6.93296559 C6.02150538e-05,10.7612882 3.10474839,13.8661269 6.93322151,13.8661269 C10.7625978,13.8661269 13.8662323,10.7612882 13.8662323,6.93296559 Z" id="Stroke-3" stroke="#1CC2EB" stroke-width="0.5" stroke-linecap="round" stroke-linejoin="round"></path>
                <line x1="13.8662323" y1="6.93296559" x2="70.9815656" y2="6.93296559" id="Stroke-5" stroke="#1CC2EB" stroke-width="0.5" stroke-linecap="round" stroke-linejoin="round"></line>
                <path d="M76.6426989,0.128197849 C73.4214946,0.725832258 70.9815806,3.55112258 70.9815806,6.94484301 C70.9815806,10.2950581 73.3578172,13.0905419 76.5174516,13.7366495" id="Stroke-7" stroke="#1CC2EB" stroke-width="0.5" stroke-linecap="round" stroke-linejoin="round"></path>
                <path d="M81.6967441,6.93296559 C81.6967441,8.68838495 80.2728086,10.1115677 78.5178409,10.1115677 C76.7618194,10.1115677 75.3380344,8.68838495 75.3380344,6.93296559 C75.3380344,5.17694409 76.7618194,3.75315914 78.5178409,3.75315914 C80.2728086,3.75315914 81.6967441,5.17694409 81.6967441,6.93296559" id="Fill-9" fill="#38FF82"></path>
                <path d="M80.4570065,0.128197849 C83.6782108,0.725832258 86.1187269,3.55112258 86.1187269,6.94484301 C86.1187269,10.2950581 83.7418882,13.0905419 80.5827054,13.7366495" id="Stroke-11" stroke="#38FF82" stroke-width="0.5" stroke-linecap="round" stroke-linejoin="round"></path>
                <line x1="86.4840968" y1="6.93296559" x2="143.59928" y2="6.93296559" id="Stroke-13" stroke="#38FF82" stroke-width="0.5" stroke-linecap="round" stroke-linejoin="round"></line>
                <path d="M149.260654,0.128197849 C146.039449,0.725832258 143.599385,3.55112258 143.599385,6.94484301 C143.599385,10.2950581 145.975772,13.0905419 149.135557,13.7366495" id="Stroke-15" stroke="#38FF82" stroke-width="0.5" stroke-linecap="round" stroke-linejoin="round"></path>
                <path d="M154.314669,6.93296559 C154.314669,8.68838495 152.890733,10.1115677 151.135766,10.1115677 C149.379744,10.1115677 147.955959,8.68838495 147.955959,6.93296559 C147.955959,5.17694409 149.379744,3.75315914 151.135766,3.75315914 C152.890733,3.75315914 154.314669,5.17694409 154.314669,6.93296559" id="Fill-17" fill="#38FF82"></path>
                <path d="M153.333389,0.128197849 C156.554443,0.725832258 158.994959,3.55112258 158.994959,6.94484301 C158.994959,10.2950581 156.61812,13.0905419 153.459088,13.7366495" id="Stroke-19" stroke="#1CC2EB" stroke-width="0.5" stroke-linecap="round" stroke-linejoin="round"></path>
                <line x1="159.102037" y1="6.93296559" x2="216.21737" y2="6.93296559" id="Stroke-21" stroke="#1CC2EB" stroke-width="0.5" stroke-linecap="round" stroke-linejoin="round"></line>
                <path d="M222.136871,0.128197849 C218.915817,0.725832258 216.475753,3.55112258 216.475753,6.94484301 C216.475753,10.2950581 218.85214,13.0905419 222.011774,13.7366495" id="Stroke-23" stroke="#1CC2EB" stroke-width="0.5" stroke-linecap="round" stroke-linejoin="round"></path>
                <path d="M227.190916,6.93296559 C227.190916,8.68838495 225.766981,10.1115677 224.012013,10.1115677 C222.255991,10.1115677 220.832206,8.68838495 220.832206,6.93296559 C220.832206,5.17694409 222.255991,3.75315914 224.012013,3.75315914 C225.766981,3.75315914 227.190916,5.17694409 227.190916,6.93296559" id="Fill-25" fill="#38FF82"></path>
                <path d="M225.951178,0.128197849 C229.172383,0.725832258 231.612899,3.55112258 231.612899,6.94484301 C231.612899,10.2950581 229.23606,13.0905419 226.076877,13.7366495" id="Stroke-27" stroke="#38FF82" stroke-width="0.5" stroke-linecap="round" stroke-linejoin="round"></path>
                <line x1="231.978269" y1="6.93296559" x2="289.093602" y2="6.93296559" id="Stroke-29" stroke="#38FF82" stroke-width="0.5" stroke-linecap="round" stroke-linejoin="round"></line>
                <path d="M294.496819,0.128197849 C291.275766,0.725832258 288.835099,3.55112258 288.835099,6.94484301 C288.835099,10.2950581 291.212088,13.0905419 294.371271,13.7366495" id="Stroke-31" stroke="#38FF82" stroke-width="0.5" stroke-linecap="round" stroke-linejoin="round"></path>
                <path d="M299.551,6.93296559 C299.551,8.68838495 298.126914,10.1115677 296.372097,10.1115677 C294.615473,10.1115677 293.19229,8.68838495 293.19229,6.93296559 C293.19229,5.17694409 294.615473,3.75315914 296.372097,3.75315914 C298.126914,3.75315914 299.551,5.17694409 299.551,6.93296559" id="Fill-33" fill="#38FF82"></path>
                <path d="M298.56972,0.128197849 C301.790624,0.725832258 304.230688,3.55112258 304.230688,6.94484301 C304.230688,10.2950581 301.854452,13.0905419 298.694968,13.7366495" id="Stroke-35" stroke="#1CC2EB" stroke-width="0.5" stroke-linecap="round" stroke-linejoin="round"></path>
                <line x1="304.337781" y1="6.93296559" x2="361.452963" y2="6.93296559" id="Stroke-37" stroke="#1CC2EB" stroke-width="0.5" stroke-linecap="round" stroke-linejoin="round"></line>
                <path d="M367.372766,0.128197849 C364.151561,0.725832258 361.711196,3.55112258 361.711196,6.94484301 C361.711196,10.2950581 364.087884,13.0905419 367.247067,13.7366495" id="Stroke-39" stroke="#1CC2EB" stroke-width="0.5" stroke-linecap="round" stroke-linejoin="round"></path>
                <path d="M372.426058,6.93296559 C372.426058,8.68838495 371.002875,10.1115677 369.247456,10.1115677 C367.490832,10.1115677 366.067348,8.68838495 366.067348,6.93296559 C366.067348,5.17694409 367.490832,3.75315914 369.247456,3.75315914 C371.002875,3.75315914 372.426058,5.17694409 372.426058,6.93296559" id="Fill-41" fill="#38FF82"></path>
                <path d="M371.186622,0.128197849 C374.407675,0.725832258 376.84774,3.55112258 376.84774,6.94484301 C376.84774,10.2950581 374.471353,13.0905419 371.311568,13.7366495" id="Stroke-43" stroke="#38FF82" stroke-width="0.5" stroke-linecap="round" stroke-linejoin="round"></path>
                <line x1="377.213125" y1="6.93296559" x2="434.328458" y2="6.93296559" id="Stroke-45" stroke="#38FF82" stroke-width="0.5" stroke-linecap="round" stroke-linejoin="round"></line>
                <path d="M439.654495,0.128197849 C436.43314,0.725832258 433.992925,3.55112258 433.992925,6.94484301 C433.992925,10.2950581 436.369613,13.0905419 439.528796,13.7366495" id="Stroke-47" stroke="#38FF82" stroke-width="0.5" stroke-linecap="round" stroke-linejoin="round"></path>
                <path d="M444.707802,6.93296559 C444.707802,8.68838495 443.284619,10.1115677 441.528899,10.1115677 C439.772576,10.1115677 438.349092,8.68838495 438.349092,6.93296559 C438.349092,5.17694409 439.772576,3.75315914 441.528899,3.75315914 C443.284619,3.75315914 444.707802,5.17694409 444.707802,6.93296559" id="Fill-49" fill="#38FF82"></path>
                <path d="M443.726508,0.128197849 C446.947862,0.725832258 449.387776,3.55112258 449.387776,6.94484301 C449.387776,10.2950581 447.01154,13.0905419 443.851755,13.7366495" id="Stroke-51" stroke="#1CC2EB" stroke-width="0.5" stroke-linecap="round" stroke-linejoin="round"></path>
                <line x1="448.977983" y1="6.93296559" x2="506.093768" y2="6.93296559" id="Stroke-53" stroke="#1CC2EB" stroke-width="0.5" stroke-linecap="round" stroke-linejoin="round"></line>
                <path d="M511.574738,0.128197849 C508.353684,0.725832258 505.91377,3.55112258 505.91377,6.94484301 C505.91377,10.2950581 508.290006,13.0905419 511.44949,13.7366495" id="Stroke-55" stroke="#1CC2EB" stroke-width="0.5" stroke-linecap="round" stroke-linejoin="round"></path>
                <path d="M516.628617,6.93296559 C516.628617,8.68838495 515.204832,10.1115677 513.450015,10.1115677 C511.693994,10.1115677 510.270209,8.68838495 510.270209,6.93296559 C510.270209,5.17694409 511.693994,3.75315914 513.450015,3.75315914 C515.204832,3.75315914 516.628617,5.17694409 516.628617,6.93296559" id="Fill-57" fill="#38FF82"></path>
                <path d="M515.389181,0.128197849 C518.610084,0.725832258 521.050751,3.55112258 521.050751,6.94484301 C521.050751,10.2950581 518.673912,13.0905419 515.514729,13.7366495" id="Stroke-59" stroke="#38FF82" stroke-width="0.5" stroke-linecap="round" stroke-linejoin="round"></path>
                <line x1="521.493903" y1="6.93296559" x2="578.609237" y2="6.93296559" id="Stroke-61" stroke="#38FF82" stroke-width="0.5" stroke-linecap="round" stroke-linejoin="round"></line>
                <path d="M584.013026,0.128197849 C580.791671,0.725832258 578.351456,3.55112258 578.351456,6.94484301 C578.351456,10.2950581 580.728295,13.0905419 583.887176,13.7366495" id="Stroke-63" stroke="#38FF82" stroke-width="0.5" stroke-linecap="round" stroke-linejoin="round"></path>
                <path d="M589.066619,6.93296559 C589.066619,8.68838495 587.643135,10.1115677 585.887716,10.1115677 C584.131092,10.1115677 582.707609,8.68838495 582.707609,6.93296559 C582.707609,5.17694409 584.131092,3.75315914 585.887716,3.75315914 C587.643135,3.75315914 589.066619,5.17694409 589.066619,6.93296559" id="Fill-65" fill="#38FF82"></path>
                <path d="M588.08534,0.128197849 C591.306243,0.725832258 593.746308,3.55112258 593.746308,6.94484301 C593.746308,10.2950581 591.370071,13.0905419 588.210286,13.7366495" id="Stroke-67" stroke="#1CC2EB" stroke-width="0.5" stroke-linecap="round" stroke-linejoin="round"></path>
                <line x1="593.8534" y1="6.93296559" x2="650.969185" y2="6.93296559" id="Stroke-69" stroke="#1CC2EB" stroke-width="0.5" stroke-linecap="round" stroke-linejoin="round"></line>
                <path d="M656.888099,0.128197849 C653.667196,0.725832258 651.227131,3.55112258 651.227131,6.94484301 C651.227131,10.2950581 653.603518,13.0905419 656.763303,13.7366495" id="Stroke-71" stroke="#1CC2EB" stroke-width="0.5" stroke-linecap="round" stroke-linejoin="round"></path>
                <path d="M661.941692,6.93296559 C661.941692,8.68838495 660.51866,10.1115677 658.762789,10.1115677 C657.007069,10.1115677 655.582983,8.68838495 655.582983,6.93296559 C655.582983,5.17694409 657.007069,3.75315914 658.762789,3.75315914 C660.51866,3.75315914 661.941692,5.17694409 661.941692,6.93296559" id="Fill-73" fill="#38FF82"></path>
                <path d="M660.702105,0.128197849 C663.92331,0.725832258 666.363675,3.55112258 666.363675,6.94484301 C666.363675,10.2950581 663.986987,13.0905419 660.827804,13.7366495" id="Stroke-75" stroke="#38FF82" stroke-width="0.5" stroke-linecap="round" stroke-linejoin="round"></path>
                <line x1="666.729196" y1="6.93296559" x2="723.844077" y2="6.93296559" id="Stroke-77" stroke="#38FF82" stroke-width="0.5" stroke-linecap="round" stroke-linejoin="round"></line>
                <path d="M729.169978,0.128197849 C725.948774,0.725832258 723.50886,3.55112258 723.50886,6.94484301 C723.50886,10.2950581 725.885247,13.0905419 729.044731,13.7366495" id="Stroke-79" stroke="#38FF82" stroke-width="0.5" stroke-linecap="round" stroke-linejoin="round"></path>
                <path d="M734.223271,6.93296559 C734.223271,8.68838495 732.799938,10.1115677 731.044368,10.1115677 C729.288196,10.1115677 727.864712,8.68838495 727.864712,6.93296559 C727.864712,5.17694409 729.288196,3.75315914 731.044368,3.75315914 C732.799938,3.75315914 734.223271,5.17694409 734.223271,6.93296559" id="Fill-81" fill="#38FF82"></path>
                <path d="M733.242142,0.128197849 C736.463497,0.725832258 738.90326,3.55112258 738.90326,6.94484301 C738.90326,10.2950581 736.527174,13.0905419 733.367389,13.7366495" id="Stroke-83" stroke="#1CC2EB" stroke-width="0.5" stroke-linecap="round" stroke-linejoin="round"></path>
                <line x1="738.493602" y1="6.93296559" x2="795.609989" y2="6.93296559" id="Stroke-85" stroke="#1CC2EB" stroke-width="0.5" stroke-linecap="round" stroke-linejoin="round"></line>
                <path d="M809.219826,6.93296559 C809.219826,3.10509462 806.116191,-4.51612903e-05 802.286363,-4.51612903e-05 C798.458191,-4.51612903e-05 795.353353,3.10509462 795.353353,6.93296559 C795.353353,10.7612882 798.458191,13.8661269 802.286363,13.8661269 C806.116191,13.8661269 809.219826,10.7612882 809.219826,6.93296559 Z" id="Stroke-87" stroke="#1CC2EB" stroke-width="0.5" stroke-linecap="round" stroke-linejoin="round"></path>
                <path d="M805.47168,6.93296559 C805.47168,5.17423441 804.045938,3.7481914 802.286454,3.7481914 C800.527723,3.7481914 799.10183,5.17423441 799.10183,6.93296559 C799.10183,8.69154624 800.527723,10.1178903 802.286454,10.1178903 C804.045938,10.1178903 805.47168,8.69154624 805.47168,6.93296559 Z" id="Stroke-89" stroke="#1CC2EB" stroke-width="0.5" stroke-linecap="round" stroke-linejoin="round"></path>
                <line x1="15.547572" y1="2.54355914" x2="70.1618731" y2="2.54355914" id="Stroke-91" stroke="#1CC2EB" stroke-width="0.5" stroke-linecap="round" stroke-linejoin="round" stroke-dasharray="0.3010752737522125,0.602150547504425"></line>
                <line x1="87.5627892" y1="2.54355914" x2="142.17709" y2="2.54355914" id="Stroke-93" stroke="#38FF82" stroke-width="0.5" stroke-linecap="round" stroke-linejoin="round" stroke-dasharray="0.3010752737522125,0.602150547504425"></line>
                <line x1="161.443153" y1="2.54325806" x2="216.057905" y2="2.54325806" id="Stroke-95" stroke="#1CC2EB" stroke-width="0.5" stroke-linecap="round" stroke-linejoin="round" stroke-dasharray="0.3010752737522125,0.602150547504425"></line>
                <line x1="233.458219" y1="2.54325806" x2="288.073273" y2="2.54325806" id="Stroke-97" stroke="#38FF82" stroke-width="0.5" stroke-linecap="round" stroke-linejoin="round" stroke-dasharray="0.3010752737522125,0.602150547504425"></line>
                <line x1="306.161875" y1="2.54325806" x2="360.776778" y2="2.54325806" id="Stroke-99" stroke="#1CC2EB" stroke-width="0.5" stroke-linecap="round" stroke-linejoin="round" stroke-dasharray="0.3010752737522125,0.602150547504425"></line>
                <line x1="378.177077" y1="2.54325806" x2="432.791981" y2="2.54325806" id="Stroke-101" stroke="#38FF82" stroke-width="0.5" stroke-linecap="round" stroke-linejoin="round" stroke-dasharray="0.3010752737522125,0.602150547504425"></line>
                <line x1="450.191978" y1="2.54325806" x2="504.80628" y2="2.54325806" id="Stroke-103" stroke="#1CC2EB" stroke-width="0.5" stroke-linecap="round" stroke-linejoin="round" stroke-dasharray="0.3010752737522125,0.602150547504425"></line>
                <line x1="522.207196" y1="2.54325806" x2="576.821497" y2="2.54325806" id="Stroke-105" stroke="#38FF82" stroke-width="0.5" stroke-linecap="round" stroke-linejoin="round" stroke-dasharray="0.3010752737522125,0.602150547504425"></line>
                <line x1="595.254981" y1="2.54325806" x2="649.869282" y2="2.54325806" id="Stroke-107" stroke="#1CC2EB" stroke-width="0.5" stroke-linecap="round" stroke-linejoin="round" stroke-dasharray="0.3010752737522125,0.602150547504425"></line>
                <line x1="667.270198" y1="2.54325806" x2="721.884499" y2="2.54325806" id="Stroke-109" stroke="#38FF82" stroke-width="0.5" stroke-linecap="round" stroke-linejoin="round" stroke-dasharray="0.3010752737522125,0.602150547504425"></line>
                <line x1="740.490875" y1="2.54325806" x2="795.105176" y2="2.54325806" id="Stroke-111" stroke="#1CC2EB" stroke-width="0.5" stroke-linecap="round" stroke-linejoin="round" stroke-dasharray="0.3010752737522125,0.602150547504425"></line>
                <line x1="15.547572" y1="11.5021591" x2="70.1618731" y2="11.5021591" id="Stroke-113" stroke="#1CC2EB" stroke-width="0.5" stroke-linecap="round" stroke-linejoin="round" stroke-dasharray="0.3010752737522125,0.602150547504425"></line>
                <line x1="87.5627892" y1="11.5021591" x2="142.17709" y2="11.5021591" id="Stroke-115" stroke="#38FF82" stroke-width="0.5" stroke-linecap="round" stroke-linejoin="round" stroke-dasharray="0.3010752737522125,0.602150547504425"></line>
                <line x1="161.443153" y1="11.5021591" x2="216.057905" y2="11.5021591" id="Stroke-117" stroke="#1CC2EB" stroke-width="0.5" stroke-linecap="round" stroke-linejoin="round" stroke-dasharray="0.3010752737522125,0.602150547504425"></line>
                <line x1="233.458219" y1="11.5021591" x2="288.073273" y2="11.5021591" id="Stroke-119" stroke="#38FF82" stroke-width="0.5" stroke-linecap="round" stroke-linejoin="round" stroke-dasharray="0.3010752737522125,0.602150547504425"></line>
                <line x1="306.161875" y1="11.5021591" x2="360.776778" y2="11.5021591" id="Stroke-121" stroke="#1CC2EB" stroke-width="0.5" stroke-linecap="round" stroke-linejoin="round" stroke-dasharray="0.3010752737522125,0.602150547504425"></line>
                <line x1="378.177077" y1="11.5021591" x2="432.791981" y2="11.5021591" id="Stroke-123" stroke="#38FF82" stroke-width="0.5" stroke-linecap="round" stroke-linejoin="round" stroke-dasharray="0.3010752737522125,0.602150547504425"></line>
                <line x1="450.191978" y1="11.5021591" x2="504.80628" y2="11.5021591" id="Stroke-125" stroke="#1CC2EB" stroke-width="0.5" stroke-linecap="round" stroke-linejoin="round" stroke-dasharray="0.3010752737522125,0.602150547504425"></line>
                <line x1="522.207196" y1="11.5021591" x2="576.821497" y2="11.5021591" id="Stroke-127" stroke="#38FF82" stroke-width="0.5" stroke-linecap="round" stroke-linejoin="round" stroke-dasharray="0.3010752737522125,0.602150547504425"></line>
                <line x1="595.254981" y1="11.5021591" x2="649.869282" y2="11.5021591" id="Stroke-129" stroke="#1CC2EB" stroke-width="0.5" stroke-linecap="round" stroke-linejoin="round" stroke-dasharray="0.3010752737522125,0.602150547504425"></line>
                <line x1="667.270198" y1="11.5021591" x2="721.884499" y2="11.5021591" id="Stroke-131" stroke="#38FF82" stroke-width="0.5" stroke-linecap="round" stroke-linejoin="round" stroke-dasharray="0.3010752737522125,0.602150547504425"></line>
                <line x1="740.490875" y1="11.5021591" x2="795.105176" y2="11.5021591" id="Stroke-133" stroke="#1CC2EB" stroke-width="0.5" stroke-linecap="round" stroke-linejoin="round" stroke-dasharray="0.3010752737522125,0.602150547504425"></line>
            </g>
        </g>
    </g>
</svg>