<?xml version="1.0" encoding="UTF-8"?>
<svg width="230px" height="301px" viewBox="0 0 230 301" version="1.1" xmlns="http://www.w3.org/2000/svg" xmlns:xlink="http://www.w3.org/1999/xlink">
    <title>编组</title>
    <g id="2期" stroke="none" stroke-width="1" fill="none" fill-rule="evenodd">
        <g id="1.首页" transform="translate(-82.000000, -4104.000000)">
            <g id="编组-5" transform="translate(83.000000, 4104.000000)">
                <g id="编组">
                    <polyline id="Stroke-1" stroke="#38FF82" stroke-width="0.5" stroke-linecap="round" stroke-linejoin="round" points="124.183299 5.33132103 32.5393875 5.33132103 16.1498672 21.7206199 16.1498672 270.899734 32.4067675 286.953609 173.050089 286.953609"></polyline>
                    <g transform="translate(0.000000, 0.079705)">
                        <path d="M127.434701,5.25161624 C127.434701,4.4175941 126.758539,3.74076753 125.924517,3.74076753 C125.090052,3.74076753 124.414111,4.4175941 124.414111,5.25161624 C124.414111,6.08652399 125.090052,6.76312915 125.924517,6.76312915 C126.758539,6.76312915 127.434701,6.08652399 127.434701,5.25161624 Z" id="Stroke-2" stroke="#38FF82" stroke-width="0.5" stroke-linecap="round" stroke-linejoin="round"></path>
                        <polyline id="Stroke-4" stroke="#38FF82" stroke-width="0.5" stroke-linecap="round" stroke-linejoin="round" points="127.75341 5.38740221 208.89555 5.38740221 212.084406 8.5762583 212.084406 52.2345609"></polyline>
                        <polyline id="Stroke-6" stroke="#38FF82" stroke-width="0.5" stroke-linecap="round" stroke-linejoin="round" points="212.084295 42.1308708 212.084295 178.995742 207.855513 183.224745 207.855513 239.99803"></polyline>
                        <polyline id="Stroke-8" stroke="#38FF82" stroke-width="0.5" stroke-linecap="round" stroke-linejoin="round" points="214.436273 150.361328 214.436273 152.034022 212.764022 152.034022"></polyline>
                        <polyline id="Stroke-10" stroke="#38FF82" stroke-width="0.5" stroke-linecap="round" stroke-linejoin="round" points="211.142915 152.033934 209.469779 152.033934 209.469779 150.36124"></polyline>
                        <line x1="209.469845" y1="147.055196" x2="209.469845" y2="42.8843469" id="Stroke-12" stroke="#38FF82" stroke-width="0.5" stroke-linecap="round" stroke-linejoin="round" stroke-dasharray="1.732472282494126,1.732472282494126"></line>
                        <polyline id="Stroke-14" stroke="#38FF82" stroke-width="0.5" stroke-linecap="round" stroke-linejoin="round" points="209.469845 41.2305609 209.469845 39.55831 211.142982 39.55831"></polyline>
                        <polyline id="Stroke-16" stroke="#38FF82" stroke-width="0.5" stroke-linecap="round" stroke-linejoin="round" points="212.764066 39.5583764 214.436317 39.5583764 214.436317 41.2306273"></polyline>
                        <line x1="214.436273" y1="44.5375572" x2="214.436273" y2="148.708406" id="Stroke-18" stroke="#38FF82" stroke-width="0.5" stroke-linecap="round" stroke-linejoin="round" stroke-dasharray="1.732472282494126,1.732472282494126"></line>
                        <polyline id="Stroke-20" stroke="#1CC2EB" stroke-width="0.5" stroke-linecap="round" stroke-linejoin="round" points="214.381343 154.537683 214.381343 237.652074 208.299646 243.733328 208.299646 270.766982 192.226952 286.844103 178.937506 286.844103"></polyline>
                        <path d="M178.920657,286.844103 C178.920657,285.283882 177.656229,284.018125 176.094679,284.018125 C174.533793,284.018125 173.268923,285.283882 173.268923,286.844103 C173.268923,288.405653 174.533793,289.670745 176.094679,289.670745 C177.656229,289.670745 178.920657,288.405653 178.920657,286.844103 Z" id="Stroke-22" stroke="#1CC2EB" stroke-width="0.5" stroke-linecap="round" stroke-linejoin="round"></path>
                        <line x1="212.084295" y1="187.208347" x2="212.084295" y2="238.589601" id="Stroke-24" stroke="#38FF82" stroke-width="0.5" stroke-linecap="round" stroke-linejoin="round"></line>
                        <polyline id="Stroke-26" stroke="#38FF82" stroke-width="0.5" stroke-linecap="round" stroke-linejoin="round" points="212.084295 244.221166 212.084295 280.172679 203.72769 288.52862"></polyline>
                        <line x1="212.15479" y1="17.2389077" x2="218.37907" y2="17.2389077" id="Stroke-28" stroke="#38FF82" stroke-width="0.5" stroke-linecap="round" stroke-linejoin="round"></line>
                        <line x1="214.381343" y1="18.9962878" x2="214.381343" y2="52.5827823" id="Stroke-30" stroke="#1CC2EB" stroke-width="0.5" stroke-linecap="round" stroke-linejoin="round"></line>
                        <polygon id="Fill-32" fill="#38FF82" points="16.1498229 286.844103 16.1498229 273.50152 29.4937343 286.844103"></polygon>
                        <line x1="14.5989225" y1="17.9093801" x2="26.2544207" y2="6.76310701" id="Stroke-34" stroke="#38FF82" stroke-width="0.70095941" stroke-linecap="round" stroke-linejoin="round"></line>
                        <line x1="16.020524" y1="10.8714465" x2="23.1007454" y2="3.79078229" id="Stroke-36" stroke="#38FF82" stroke-width="0.5" stroke-linecap="round" stroke-linejoin="round"></line>
                        <polyline id="Stroke-38" stroke="#1CC2EB" stroke-width="0.5" stroke-linecap="round" stroke-linejoin="round" points="218.361823 18.8349963 218.361823 286.844148 209.613336 295.591749 21.2144428 295.591749 12.4663985 286.844148 12.4663985 10.9889446 21.2144428 2.24112177 25.9557712 2.24112177"></polyline>
                        <path d="M29.1511365,2.24107749 C29.1511365,1.44137269 28.5019852,0.792442804 27.7022804,0.792442804 C26.9025756,0.792442804 26.25431,1.44137269 26.25431,2.24107749 C26.25431,3.04078229 26.9025756,3.68971218 27.7022804,3.68971218 C28.5019852,3.68971218 29.1511365,3.04078229 29.1511365,2.24107749 Z" id="Stroke-40" stroke="#1CC2EB" stroke-width="0.5" stroke-linecap="round" stroke-linejoin="round"></path>
                        <polyline id="Stroke-42" stroke="#1CC2EB" stroke-width="0.5" stroke-linecap="round" stroke-linejoin="round" points="29.2629225 2.24107749 209.613402 2.24107749 218.361889 10.9891218 218.361889 15.3917048"></polyline>
                        <polygon id="Fill-44" fill="#38FF82" points="20.4523985 146.21048 22.6750554 146.21048 22.6750554 141.79417 20.4523985 141.79417"></polygon>
                        <polygon id="Fill-46" fill="#1CC2EB" points="20.4523985 137.440295 22.6750554 137.440295 22.6750554 134.146494 20.4523985 134.146494"></polygon>
                        <polygon id="Fill-47" fill="#1CC2EB" points="20.4523985 141.800148 22.6750554 141.800148 22.6750554 139.591218 20.4523985 139.591218"></polygon>
                        <polygon id="Fill-48" fill="#1CC2EB" points="20.4523985 138.570775 22.6750554 138.570775 22.6750554 137.466642 20.4523985 137.466642"></polygon>
                        <polygon id="Fill-49" fill="#1CC2EB" points="20.4523985 134.146494 22.6750554 134.146494 22.6750554 130.582804 20.4523985 130.582804"></polygon>
                        <polygon id="Fill-50" fill="#1CC2EB" points="20.4523985 127.070258 22.6750554 127.070258 22.6750554 124.414096 20.4523985 124.414096"></polygon>
                        <polygon id="Fill-51" fill="#1CC2EB" points="20.4523985 130.587897 22.6750554 130.587897 22.6750554 128.805387 20.4523985 128.805387"></polygon>
                        <polygon id="Fill-52" fill="#1CC2EB" points="20.4523985 128.805609 22.6750554 128.805609 22.6750554 127.09262 20.4523985 127.09262"></polygon>
                        <polygon id="Fill-53" fill="#1CC2EB" points="20.4523985 123.47845 22.6750554 123.47845 22.6750554 120.585609 20.4523985 120.585609"></polygon>
                        <polygon id="Fill-54" fill="#1CC2EB" points="20.4523985 117.735941 22.6750554 117.735941 22.6750554 115.580148 20.4523985 115.580148"></polygon>
                        <polygon id="Fill-55" fill="#1CC2EB" points="20.4523985 120.590037 22.6750554 120.590037 22.6750554 119.144059 20.4523985 119.144059"></polygon>
                        <polygon id="Fill-56" fill="#1CC2EB" points="20.4523985 118.47631 22.6750554 118.47631 22.6750554 117.75321 20.4523985 117.75321"></polygon>
                        <polygon id="Fill-57" fill="#1CC2EB" points="20.4523985 115.579926 22.6750554 115.579926 22.6750554 113.247232 20.4523985 113.247232"></polygon>
                        <polygon id="Fill-58" fill="#1CC2EB" points="20.4523985 110.947085 22.6750554 110.947085 22.6750554 106.505314 20.4523985 106.505314"></polygon>
                        <polygon id="Fill-59" fill="#1CC2EB" points="20.4523985 113.250332 22.6750554 113.250332 22.6750554 112.083985 20.4523985 112.083985"></polygon>
                        <polygon id="Fill-60" fill="#1CC2EB" points="20.4523985 112.083985 22.6750554 112.083985 22.6750554 110.961919 20.4523985 110.961919"></polygon>
                        <polygon id="Fill-61" fill="#1CC2EB" points="20.4523985 106.457269 22.6750554 106.457269 22.6750554 105.437269 20.4523985 105.437269"></polygon>
                        <polygon id="Fill-62" fill="#1CC2EB" points="20.4523985 100.625314 22.6750554 100.625314 22.6750554 97.3317343 20.4523985 97.3317343"></polygon>
                        <polygon id="Fill-63" fill="#1CC2EB" points="20.4523985 104.985609 22.6750554 104.985609 22.6750554 102.776458 20.4523985 102.776458"></polygon>
                        <polygon id="Fill-64" fill="#1CC2EB" points="20.4523985 101.756458 22.6750554 101.756458 22.6750554 100.651661 20.4523985 100.651661"></polygon>
                        <polygon id="Fill-65" fill="#1CC2EB" points="20.4523985 97.3317343 22.6750554 97.3317343 22.6750554 93.7680443 20.4523985 93.7680443"></polygon>
                        <polygon id="Fill-66" fill="#38FF82" points="20.4523985 90.2552768 22.6750554 90.2552768 22.6750554 87.5986716 20.4523985 87.5986716"></polygon>
                        <polygon id="Fill-67" fill="#1CC2EB" points="20.4523985 93.7729151 22.6750554 93.7729151 22.6750554 91.9915129 20.4523985 91.9915129"></polygon>
                        <polygon id="Fill-68" fill="#1CC2EB" points="20.4523985 91.9915129 22.6750554 91.9915129 22.6750554 90.2765314 20.4523985 90.2765314"></polygon>
                        <polygon id="Fill-69" fill="#1CC2EB" points="20.4523985 86.6632472 22.6750554 86.6632472 22.6750554 83.7712915 20.4523985 83.7712915"></polygon>
                        <polygon id="Fill-70" fill="#1CC2EB" points="20.4523985 80.9214022 22.6750554 80.9214022 22.6750554 78.7653875 20.4523985 78.7653875"></polygon>
                        <polygon id="Fill-71" fill="#1CC2EB" points="20.4523985 83.7757196 22.6750554 83.7757196 22.6750554 82.3295203 20.4523985 82.3295203"></polygon>
                        <polygon id="Fill-72" fill="#1CC2EB" points="20.4523985 81.661107 22.6750554 81.661107 22.6750554 80.9380074 20.4523985 80.9380074"></polygon>
                        <polygon id="Fill-73" fill="#1CC2EB" points="20.4523985 78.7653875 22.6750554 78.7653875 22.6750554 76.4324723 20.4523985 76.4324723"></polygon>
                        <polygon id="Fill-74" fill="#1CC2EB" points="20.4523985 74.1329889 22.6750554 74.1329889 22.6750554 69.6907749 20.4523985 69.6907749"></polygon>
                        <polygon id="Fill-75" fill="#1CC2EB" points="20.4523985 76.435572 22.6750554 76.435572 22.6750554 75.2692251 20.4523985 75.2692251"></polygon>
                        <polygon id="Fill-76" fill="#1CC2EB" points="20.4523985 75.2692251 22.6750554 75.2692251 22.6750554 74.1469373 20.4523985 74.1469373"></polygon>
                        <polygon id="Fill-77" fill="#1CC2EB" points="20.4523985 68.4292251 22.6750554 68.4292251 22.6750554 65.7719557 20.4523985 65.7719557"></polygon>
                        <polygon id="Fill-78" fill="#1CC2EB" points="20.4523985 64.8365314 22.6750554 64.8365314 22.6750554 61.9443542 20.4523985 61.9443542"></polygon>
                        <polygon id="Fill-79" fill="#1CC2EB" points="20.4523985 59.0946863 22.6750554 59.0946863 22.6750554 56.9384502 20.4523985 56.9384502"></polygon>
                        <polygon id="Fill-80" fill="#1CC2EB" points="20.4523985 61.9490037 22.6750554 61.9490037 22.6750554 60.5028044 20.4523985 60.5028044"></polygon>
                        <polygon id="Fill-81" fill="#1CC2EB" points="20.4523985 59.8346125 22.6750554 59.8346125 22.6750554 59.1115129 20.4523985 59.1115129"></polygon>
                        <polygon id="Fill-82" fill="#38FF82" points="20.4523985 56.9384502 22.6750554 56.9384502 22.6750554 54.6055351 20.4523985 54.6055351"></polygon>
                        <polygon id="Fill-83" fill="#1CC2EB" points="20.4523985 52.3062731 22.6750554 52.3062731 22.6750554 47.8636162 20.4523985 47.8636162"></polygon>
                        <polygon id="Fill-84" fill="#1CC2EB" points="20.4523985 54.6088561 22.6750554 54.6088561 22.6750554 53.4420664 20.4523985 53.4420664"></polygon>
                        <polygon id="Fill-85" fill="#1CC2EB" points="20.4523985 53.4420664 22.6750554 53.4420664 22.6750554 52.3204428 20.4523985 52.3204428"></polygon>
                        <polygon id="Fill-86" fill="#1CC2EB" points="20.4523985 47.8157934 22.6750554 47.8157934 22.6750554 46.7960148 20.4523985 46.7960148"></polygon>
                        <polygon id="Fill-87" fill="#1CC2EB" points="20.4523985 41.984059 22.6750554 41.984059 22.6750554 38.6902583 20.4523985 38.6902583"></polygon>
                        <polygon id="Fill-88" fill="#1CC2EB" points="20.4523985 46.34369 22.6750554 46.34369 22.6750554 44.1347601 20.4523985 44.1347601"></polygon>
                        <polygon id="Fill-89" fill="#1CC2EB" points="20.4523985 43.1149815 22.6750554 43.1149815 22.6750554 42.0099631 20.4523985 42.0099631"></polygon>
                        <polygon id="Fill-90" fill="#1CC2EB" points="20.4523985 38.6902583 22.6750554 38.6902583 22.6750554 35.1263469 20.4523985 35.1263469"></polygon>
                        <polygon id="Fill-91" fill="#1CC2EB" points="20.4523985 31.6142435 22.6750554 31.6142435 22.6750554 28.9571956 20.4523985 28.9571956"></polygon>
                        <polygon id="Fill-92" fill="#1CC2EB" points="20.4523985 35.1316605 22.6750554 35.1316605 22.6750554 33.3495941 20.4523985 33.3495941"></polygon>
                        <polygon id="Fill-93" fill="#1CC2EB" points="20.4523985 33.3495941 22.6750554 33.3495941 22.6750554 31.6357196 20.4523985 31.6357196"></polygon>
                        <polygon id="Fill-94" fill="#1CC2EB" points="20.4523985 29.0063469 22.6750554 29.0063469 22.6750554 27.5601476 20.4523985 27.5601476"></polygon>
                        <polygon id="Fill-95" fill="#1CC2EB" points="20.4523985 24.7098155 22.6750554 24.7098155 22.6750554 23.3964576 20.4523985 23.3964576"></polygon>
                        <polygon id="Fill-96" fill="#1CC2EB" points="20.4523985 27.5643542 22.6750554 27.5643542 22.6750554 26.118155 20.4523985 26.118155"></polygon>
                        <polygon id="Fill-97" fill="#1CC2EB" points="20.4523985 25.4501845 22.6750554 25.4501845 22.6750554 24.7268635 20.4523985 24.7268635"></polygon>
                        <polygon id="Fill-98" fill="#1CC2EB" points="20.4523985 23.3964576 22.6750554 23.3964576 22.6750554 21.9757196 20.4523985 21.9757196"></polygon>
                        <polygon id="Fill-99" fill="#1CC2EB" points="20.4523985 270.931439 22.6750554 270.931439 22.6750554 266.514022 20.4523985 266.514022"></polygon>
                        <polygon id="Fill-100" fill="#38FF82" points="20.4523985 262.160369 22.6750554 262.160369 22.6750554 258.866568 20.4523985 258.866568"></polygon>
                        <polygon id="Fill-101" fill="#38FF82" points="20.4523985 266.520886 22.6750554 266.520886 22.6750554 264.311734 20.4523985 264.311734"></polygon>
                        <polygon id="Fill-102" fill="#1CC2EB" points="20.4523985 263.291292 22.6750554 263.291292 22.6750554 262.186273 20.4523985 262.186273"></polygon>
                        <polygon id="Fill-103" fill="#1CC2EB" points="20.4523985 258.866568 22.6750554 258.866568 22.6750554 255.302878 20.4523985 255.302878"></polygon>
                        <polygon id="Fill-104" fill="#1CC2EB" points="20.4523985 251.791439 22.6750554 251.791439 22.6750554 249.133063 20.4523985 249.133063"></polygon>
                        <polygon id="Fill-105" fill="#1CC2EB" points="20.4523985 255.308856 22.6750554 255.308856 22.6750554 253.526568 20.4523985 253.526568"></polygon>
                        <polygon id="Fill-106" fill="#1CC2EB" points="20.4523985 253.526568 22.6750554 253.526568 22.6750554 251.811587 20.4523985 251.811587"></polygon>
                        <polygon id="Fill-107" fill="#1CC2EB" points="20.4523985 248.197638 22.6750554 248.197638 22.6750554 245.305904 20.4523985 245.305904"></polygon>
                        <polygon id="Fill-108" fill="#1CC2EB" points="20.4523985 242.456458 22.6750554 242.456458 22.6750554 240.299779 20.4523985 240.299779"></polygon>
                        <polygon id="Fill-109" fill="#38FF82" points="20.4523985 245.310775 22.6750554 245.310775 22.6750554 243.864354 20.4523985 243.864354"></polygon>
                        <polygon id="Fill-110" fill="#38FF82" points="20.4523985 243.197269 22.6750554 243.197269 22.6750554 242.473506 20.4523985 242.473506"></polygon>
                        <polygon id="Fill-111" fill="#1CC2EB" points="20.4523985 240.299779 22.6750554 240.299779 22.6750554 237.967528 20.4523985 237.967528"></polygon>
                        <polygon id="Fill-112" fill="#1CC2EB" points="20.4523985 235.667823 22.6750554 235.667823 22.6750554 231.226052 20.4523985 231.226052"></polygon>
                        <polygon id="Fill-113" fill="#1CC2EB" points="20.4523985 237.971292 22.6750554 237.971292 22.6750554 236.803616 20.4523985 236.803616"></polygon>
                        <polygon id="Fill-114" fill="#1CC2EB" points="20.4523985 236.803616 22.6750554 236.803616 22.6750554 235.682214 20.4523985 235.682214"></polygon>
                        <polygon id="Fill-115" fill="#1CC2EB" points="20.4523985 231.177122 22.6750554 231.177122 22.6750554 230.157786 20.4523985 230.157786"></polygon>
                        <polygon id="Fill-116" fill="#1CC2EB" points="20.4523985 225.344945 22.6750554 225.344945 22.6750554 222.051808 20.4523985 222.051808"></polygon>
                        <polygon id="Fill-117" fill="#1CC2EB" points="20.4523985 229.705904 22.6750554 229.705904 22.6750554 227.496974 20.4523985 227.496974"></polygon>
                        <polygon id="Fill-118" fill="#1CC2EB" points="20.4523985 226.47631 22.6750554 226.47631 22.6750554 225.37262 20.4523985 225.37262"></polygon>
                        <polygon id="Fill-119" fill="#38FF82" points="20.4523985 222.051808 22.6750554 222.051808 22.6750554 218.487897 20.4523985 218.487897"></polygon>
                        <polygon id="Fill-120" fill="#1CC2EB" points="20.4523985 214.975793 22.6750554 214.975793 22.6750554 212.31941 20.4523985 212.31941"></polygon>
                        <polygon id="Fill-121" fill="#1CC2EB" points="20.4523985 218.49321 22.6750554 218.49321 22.6750554 216.710923 20.4523985 216.710923"></polygon>
                        <polygon id="Fill-122" fill="#1CC2EB" points="20.4523985 216.711144 22.6750554 216.711144 22.6750554 214.996605 20.4523985 214.996605"></polygon>
                        <polygon id="Fill-123" fill="#1CC2EB" points="20.4523985 211.383542 22.6750554 211.383542 22.6750554 208.491365 20.4523985 208.491365"></polygon>
                        <polygon id="Fill-124" fill="#1CC2EB" points="20.4523985 205.641255 22.6750554 205.641255 22.6750554 203.485461 20.4523985 203.485461"></polygon>
                        <polygon id="Fill-125" fill="#1CC2EB" points="20.4523985 208.495572 22.6750554 208.495572 22.6750554 207.049594 20.4523985 207.049594"></polygon>
                        <polygon id="Fill-126" fill="#1CC2EB" points="20.4523985 206.381181 22.6750554 206.381181 22.6750554 205.658303 20.4523985 205.658303"></polygon>
                        <polygon id="Fill-127" fill="#1CC2EB" points="20.4523985 203.48524 22.6750554 203.48524 22.6750554 201.152103 20.4523985 201.152103"></polygon>
                        <polygon id="Fill-128" fill="#1CC2EB" points="20.4523985 198.85262 22.6750554 198.85262 22.6750554 194.410849 20.4523985 194.410849"></polygon>
                        <polygon id="Fill-129" fill="#1CC2EB" points="20.4523985 201.15631 22.6750554 201.15631 22.6750554 199.989299 20.4523985 199.989299"></polygon>
                        <polygon id="Fill-130" fill="#1CC2EB" points="20.4523985 199.989077 22.6750554 199.989077 22.6750554 198.867011 20.4523985 198.867011"></polygon>
                        <polygon id="Fill-131" fill="#1CC2EB" points="20.4523985 193.149742 22.6750554 193.149742 22.6750554 190.492472 20.4523985 190.492472"></polygon>
                        <polygon id="Fill-132" fill="#1CC2EB" points="20.4523985 189.555941 22.6750554 189.555941 22.6750554 186.664207 20.4523985 186.664207"></polygon>
                        <polygon id="Fill-133" fill="#1CC2EB" points="20.4523985 183.813875 22.6750554 183.813875 22.6750554 181.658967 20.4523985 181.658967"></polygon>
                        <polygon id="Fill-134" fill="#1CC2EB" points="20.4523985 186.669077 22.6750554 186.669077 22.6750554 185.222435 20.4523985 185.222435"></polygon>
                        <polygon id="Fill-135" fill="#1CC2EB" points="20.4523985 184.555351 22.6750554 184.555351 22.6750554 183.831808 20.4523985 183.831808"></polygon>
                        <polygon id="Fill-136" fill="#1CC2EB" points="20.4523985 181.658745 22.6750554 181.658745 22.6750554 179.324723 20.4523985 179.324723"></polygon>
                        <polygon id="Fill-137" fill="#1CC2EB" points="20.4523985 177.026125 22.6750554 177.026125 22.6750554 172.584133 20.4523985 172.584133"></polygon>
                        <polygon id="Fill-138" fill="#38FF82" points="20.4523985 179.328708 22.6750554 179.328708 22.6750554 178.163026 20.4523985 178.163026"></polygon>
                        <polygon id="Fill-139" fill="#1CC2EB" points="20.4523985 178.163026 22.6750554 178.163026 22.6750554 177.041402 20.4523985 177.041402"></polygon>
                        <polygon id="Fill-140" fill="#1CC2EB" points="20.4523985 172.535203 22.6750554 172.535203 22.6750554 171.515867 20.4523985 171.515867"></polygon>
                        <polygon id="Fill-141" fill="#38FF82" points="20.4523985 166.703911 22.6750554 166.703911 22.6750554 163.409668 20.4523985 163.409668"></polygon>
                        <polygon id="Fill-142" fill="#1CC2EB" points="20.4523985 171.065314 22.6750554 171.065314 22.6750554 168.855277 20.4523985 168.855277"></polygon>
                        <polygon id="Fill-143" fill="#1CC2EB" points="20.4523985 167.834834 22.6750554 167.834834 22.6750554 166.730701 20.4523985 166.730701"></polygon>
                        <polygon id="Fill-144" fill="#1CC2EB" points="20.4523985 163.409889 22.6750554 163.409889 22.6750554 159.847749 20.4523985 159.847749"></polygon>
                        <polygon id="Fill-145" fill="#1CC2EB" points="20.4523985 156.334539 22.6750554 156.334539 22.6750554 153.677712 20.4523985 153.677712"></polygon>
                        <polygon id="Fill-146" fill="#1CC2EB" points="20.4523985 159.852399 22.6750554 159.852399 22.6750554 158.069889 20.4523985 158.069889"></polygon>
                        <polygon id="Fill-147" fill="#1CC2EB" points="20.4523985 158.069889 22.6750554 158.069889 22.6750554 156.355793 20.4523985 156.355793"></polygon>
                        <polygon id="Fill-148" fill="#1CC2EB" points="20.4523985 153.726642 22.6750554 153.726642 22.6750554 152.280221 20.4523985 152.280221"></polygon>
                        <polygon id="Fill-149" fill="#1CC2EB" points="20.4523985 149.429668 22.6750554 149.429668 22.6750554 148.11786 20.4523985 148.11786"></polygon>
                        <polygon id="Fill-150" fill="#1CC2EB" points="20.4523985 152.284871 22.6750554 152.284871 22.6750554 150.838229 20.4523985 150.838229"></polygon>
                        <polygon id="Fill-151" fill="#1CC2EB" points="20.4523985 150.170701 22.6750554 150.170701 22.6750554 149.447601 20.4523985 149.447601"></polygon>
                        <polygon id="Fill-152" fill="#1CC2EB" points="20.4523985 148.11786 22.6750554 148.11786 22.6750554 146.696236 20.4523985 146.696236"></polygon>
                        <polygon id="Stroke-153" stroke="#38FF82" stroke-width="0.5" stroke-linecap="round" stroke-linejoin="round" points="27.9029373 46.2646494 29.9695055 47.4582288 27.9029373 48.6524723"></polygon>
                        <polygon id="Stroke-154" stroke="#38FF82" stroke-width="0.5" stroke-linecap="round" stroke-linejoin="round" points="27.9029373 49.7508708 29.9695055 50.9444502 27.9029373 52.1382509"></polygon>
                        <polygon id="Stroke-155" stroke="#38FF82" stroke-width="0.5" stroke-linecap="round" stroke-linejoin="round" points="27.9029373 53.4065978 29.9695055 54.6006199 27.9029373 55.7944207"></polygon>
                        <polygon id="Stroke-156" stroke="#38FF82" stroke-width="0.5" stroke-linecap="round" stroke-linejoin="round" points="27.9029373 56.8930406 29.9695055 58.0866199 27.9029373 59.2801993"></polygon>
                        <polyline id="Stroke-157" stroke="#1CC2EB" stroke-width="0.5" stroke-linecap="round" stroke-linejoin="round" points="7.77913653 0.317424354 0.199653137 0.317424354 0.199653137 7.53956458"></polyline>
                        <polyline id="Stroke-158" stroke="#1CC2EB" stroke-width="0.5" stroke-linecap="round" stroke-linejoin="round" points="221.047631 0.317424354 228.626672 0.317424354 228.626672 7.53956458"></polyline>
                        <polyline id="Stroke-159" stroke="#1CC2EB" stroke-width="0.5" stroke-linecap="round" stroke-linejoin="round" points="221.047631 299.203926 228.627114 299.203926 228.627114 291.9809"></polyline>
                        <polyline id="Stroke-160" stroke="#1CC2EB" stroke-width="0.5" stroke-linecap="round" stroke-linejoin="round" points="0.37901107 291.803181 0.37901107 299.381779 7.60092989 299.381779"></polyline>
                        <path d="M41.1693579,95.4858672 C41.1693579,94.5674908 40.4245609,93.8229151 39.5059631,93.8229151 C38.5878081,93.8229151 37.8427897,94.5674908 37.8427897,95.4858672 C37.8427897,96.4046863 38.5878081,97.149262 39.5059631,97.149262 C40.4245609,97.149262 41.1693579,96.4046863 41.1693579,95.4858672" id="Fill-163" fill="#1CC2EB"></path>
                        <g transform="translate(35.328413, 44.944649)" fill="#38FF82">
                            <path d="M1.09658303,7.71602214 C1.47805904,7.71602214 1.78824354,8.02554244 1.78824354,8.40679705 C1.78824354,8.78760886 1.47805904,9.09757196 1.09658303,9.09757196 C0.71599262,9.09757196 0.405808118,8.78760886 0.405808118,8.40679705 C0.405808118,8.02554244 0.71599262,7.71602214 1.09658303,7.71602214 M1.09658303,12.9362435 C0.71599262,12.9362435 0.405808118,12.6262804 0.405808118,12.2454686 C0.405808118,11.8639926 0.71599262,11.5538081 1.09658303,11.5538081 C1.47805904,11.5538081 1.78824354,11.8639926 1.78824354,12.2454686 C1.78824354,12.6262804 1.47805904,12.9362435 1.09658303,12.9362435 M3.15828044,13.3447306 L1.98839114,12.6696753 C2.05038376,12.5405978 2.08824354,12.3977934 2.08824354,12.2454686 C2.08824354,11.7256162 1.6839631,11.3025166 1.1740738,11.2624428 L1.1740738,9.38960148 C1.6839631,9.34930627 2.08824354,8.92687085 2.08824354,8.40679705 C2.08824354,8.28569004 2.06322509,8.17144649 2.0235941,8.06428782 L3.1237417,7.42908487 C3.19547601,7.38790406 3.21983026,7.29624354 3.17864945,7.22473063 C3.13680443,7.15255351 3.04536531,7.12864207 2.9738524,7.16982288 L1.87724723,7.80347601 C1.69569742,7.56923247 1.41562362,7.41602214 1.09658303,7.41602214 C0.55104797,7.41602214 0.106472325,7.86037638 0.106472325,8.40679705 C0.106472325,8.87616974 0.435918819,9.26827306 0.874738007,9.36967528 L0.874738007,11.2814834 C0.435918819,11.3835498 0.106472325,11.7756531 0.106472325,12.2454686 C0.106472325,12.7914465 0.55104797,13.2355793 1.09658303,13.2355793 C1.38263469,13.2355793 1.63901845,13.1122583 1.82056827,12.9178672 L3.00861255,13.6039926 C3.03185978,13.6177196 3.05687823,13.6243616 3.08300369,13.6243616 C3.13459041,13.6243616 3.18507011,13.5969077 3.21252399,13.5490849 C3.2541476,13.477572 3.22935055,13.38569 3.15828044,13.3447306" id="Fill-165"></path>
                            <path d="M7.60394834,0.454516605 C7.98476015,0.454516605 8.29450185,0.7640369 8.29450185,1.14551292 C8.29450185,1.52654613 7.98476015,1.83650923 7.60394834,1.83650923 C7.22269373,1.83650923 6.91317343,1.52654613 6.91317343,1.14551292 C6.91317343,0.7640369 7.22269373,0.454516605 7.60394834,0.454516605 M7.60394834,2.13584502 C8.1499262,2.13584502 8.59494465,1.69193358 8.59494465,1.14551292 C8.59494465,0.599313653 8.1499262,0.154738007 7.60394834,0.154738007 C7.05752768,0.154738007 6.61317343,0.599313653 6.61317343,1.14551292 C6.61317343,1.69193358 7.05752768,2.13584502 7.60394834,2.13584502" id="Fill-166"></path>
                            <path d="M7.19572694,1.29535793 C7.27830996,1.29535793 7.34628044,1.22849446 7.34628044,1.14546863 C7.34628044,1.00354982 7.4618524,0.887092251 7.60399262,0.887092251 C7.68613284,0.887092251 7.75388192,0.82000738 7.75388192,0.73698155 C7.75388192,0.654619926 7.68613284,0.587535055 7.60399262,0.587535055 C7.29624354,0.587535055 7.04628044,0.837940959 7.04628044,1.14546863 C7.04628044,1.22849446 7.11336531,1.29535793 7.19572694,1.29535793" id="Fill-167"></path>
                            <path d="M4.88787454,4.18419188 L4.88787454,5.10544649 C4.88787454,5.18802952 4.95495941,5.2555572 5.03798524,5.2555572 C5.11990406,5.2555572 5.18721033,5.18802952 5.18721033,5.10544649 L5.18721033,4.18419188 C5.18721033,4.10138745 5.11990406,4.03430258 5.03798524,4.03430258 C4.95495941,4.03430258 4.88787454,4.10138745 4.88787454,4.18419188" id="Fill-168"></path>
                            <path d="M4.27771218,6.31215498 C4.3600738,6.31215498 4.42693727,6.24462731 4.42693727,6.16204428 C4.42693727,6.07990406 4.3600738,6.01237638 4.27771218,6.01237638 C3.9697417,6.01237638 3.71889299,6.26256089 3.71889299,6.57030996 C3.71889299,6.65311439 3.78597786,6.72019926 3.86878229,6.72019926 C3.95136531,6.72019926 4.01845018,6.65311439 4.01845018,6.57030996 C4.01845018,6.42772694 4.13468635,6.31215498 4.27771218,6.31215498" id="Fill-169"></path>
                            <path d="M10.6505978,6.72015498 C10.7331808,6.72015498 10.8007085,6.65307011 10.8007085,6.57026568 C10.8007085,6.42790406 10.9156162,6.3121107 11.0581993,6.3121107 C11.1412251,6.3121107 11.2080886,6.24480443 11.2080886,6.162 C11.2080886,6.07985978 11.1412251,6.0123321 11.0581993,6.0123321 C10.7511144,6.0123321 10.5004871,6.26273801 10.5004871,6.57026568 C10.5004871,6.65307011 10.5680148,6.72015498 10.6505978,6.72015498" id="Fill-170"></path>
                            <path d="M4.26994096,14.7783985 C3.88868635,14.7783985 3.57960886,14.4688782 3.57960886,14.0876236 C3.57960886,13.7065904 3.88868635,13.3968487 4.26994096,13.3968487 C4.65141697,13.3968487 4.96138007,13.7065904 4.96138007,14.0876236 C4.96138007,14.4688782 4.65141697,14.7783985 4.26994096,14.7783985 M4.26994096,13.0970701 C3.7239631,13.0970701 3.27983026,13.541203 3.27983026,14.0876236 C3.27983026,14.6338229 3.7239631,15.0783985 4.26994096,15.0783985 C4.81614022,15.0783985 5.26093727,14.6338229 5.26093727,14.0876236 C5.26093727,13.541203 4.81614022,13.0970701 4.26994096,13.0970701" id="Fill-171"></path>
                            <path d="M11.0004354,14.7783985 C10.6194022,14.7783985 10.3092177,14.4688782 10.3092177,14.0876236 C10.3092177,13.7065904 10.6194022,13.3968487 11.0004354,13.3968487 C11.3814686,13.3968487 11.6912103,13.7065904 11.6912103,14.0876236 C11.6912103,14.4688782 11.3814686,14.7783985 11.0004354,14.7783985 M11.0004354,13.0970701 C10.4542362,13.0970701 10.0094391,13.541203 10.0094391,14.0876236 C10.0094391,14.6338229 10.4542362,15.0783985 11.0004354,15.0783985 C11.5464133,15.0783985 11.9912103,14.6338229 11.9912103,14.0876236 C11.9912103,13.541203 11.5464133,13.0970701 11.0004354,13.0970701" id="Fill-172"></path>
                            <path d="M14.1988782,7.71602214 C14.5803542,7.71602214 14.8903173,8.02554244 14.8903173,8.40679705 C14.8903173,8.78760886 14.5803542,9.09757196 14.1988782,9.09757196 C13.8180664,9.09757196 13.5085461,8.78760886 13.5085461,8.40679705 C13.5085461,8.02554244 13.8180664,7.71602214 14.1988782,7.71602214 M14.1988782,12.9362435 C13.8180664,12.9362435 13.5085461,12.6262804 13.5085461,12.2454686 C13.5085461,11.8639926 13.8180664,11.5538081 14.1988782,11.5538081 C14.5803542,11.5538081 14.8903173,11.8639926 14.8903173,12.2454686 C14.8903173,12.6262804 14.5803542,12.9362435 14.1988782,12.9362435 M7.60397048,12.9362435 C7.22271587,12.9362435 6.91319557,12.6262804 6.91319557,12.2454686 C6.91319557,11.8639926 7.22271587,11.5538081 7.60397048,11.5538081 C7.98478229,11.5538081 8.29452399,11.8639926 8.29452399,12.2454686 C8.29452399,12.6262804 7.98478229,12.9362435 7.60397048,12.9362435 M8.29452399,8.40679705 C8.29452399,8.78760886 7.98478229,9.09757196 7.60397048,9.09757196 C7.22271587,9.09757196 6.91319557,8.78760886 6.91319557,8.40679705 C6.91319557,8.02554244 7.22271587,7.71602214 7.60397048,7.71602214 C7.98478229,7.71602214 8.29452399,8.02554244 8.29452399,8.40679705 M11.0005018,1.95137269 C11.3813137,1.95137269 11.6912768,2.26111439 11.6912768,2.642369 C11.6912768,3.02384502 11.3813137,3.33314391 11.0005018,3.33314391 C10.6194686,3.33314391 10.3092841,3.02384502 10.3092841,2.642369 C10.3092841,2.26111439 10.6194686,1.95137269 11.0005018,1.95137269 M11.0005018,7.22982288 C10.6194686,7.22982288 10.3092841,6.91941697 10.3092841,6.53860517 C10.3092841,6.15757196 10.6194686,5.84760886 11.0005018,5.84760886 C11.3813137,5.84760886 11.6912768,6.15757196 11.6912768,6.53860517 C11.6912768,6.91941697 11.3813137,7.22982288 11.0005018,7.22982288 M4.26987454,1.95137269 C4.65135055,1.95137269 4.96131365,2.26111439 4.96131365,2.642369 C4.96131365,3.02384502 4.65135055,3.33314391 4.26987454,3.33314391 C3.88884133,3.33314391 3.57954244,3.02384502 3.57954244,2.642369 C3.57954244,2.26111439 3.88884133,1.95137269 4.26987454,1.95137269 M4.26987454,7.22982288 C3.88884133,7.22982288 3.57954244,6.91941697 3.57954244,6.53860517 C3.57954244,6.15757196 3.88884133,5.84760886 4.26987454,5.84760886 C4.65135055,5.84760886 4.96131365,6.15757196 4.96131365,6.53860517 C4.96131365,6.91941697 4.65135055,7.22982288 4.26987454,7.22982288 M14.439321,11.2876827 L14.439321,9.36458303 C14.8697269,9.25631734 15.1905387,8.86974908 15.1905387,8.40679705 C15.1905387,7.86037638 14.7455203,7.41602214 14.1988782,7.41602214 C13.8840443,7.41602214 13.6068487,7.56635424 13.4250775,7.79616974 L11.9131218,6.92318081 C11.9631587,6.80517343 11.9910554,6.67521033 11.9910554,6.53860517 C11.9910554,6.01277491 11.5772546,5.58502583 11.058952,5.55402952 L11.058952,3.62738745 C11.5772546,3.59572694 11.9910554,3.16819926 11.9910554,2.642369 C11.9910554,2.09661255 11.5464797,1.6520369 11.0005018,1.6520369 C10.6424945,1.6520369 10.3314244,1.84465683 10.1574022,2.12915867 L9.00943173,1.46650185 C8.93769742,1.42509963 8.8462583,1.44901107 8.80507749,1.52118819 C8.76345387,1.5924797 8.78780812,1.68436162 8.85954244,1.72576384 L10.0411661,2.40701845 C10.0225683,2.48318081 10.0095055,2.5615572 10.0095055,2.642369 C10.0095055,3.10509963 10.3300959,3.4918893 10.7598376,3.60037638 L10.7598376,5.58104059 C10.3300959,5.68886347 10.0095055,6.07565314 10.0095055,6.53860517 C10.0095055,6.65373432 10.0329742,6.76288561 10.0690627,6.86605904 L8.40411808,7.82738745 C8.22345387,7.57941697 7.93319557,7.41602214 7.60397048,7.41602214 C7.27828782,7.41602214 6.99201476,7.57587454 6.81090775,7.81941697 L5.68330627,7.16760886 C5.6660369,7.15786716 5.64743911,7.1518893 5.62906273,7.14901107 L5.19135055,6.89639114 C5.23496679,6.78524723 5.26087085,6.66502583 5.26087085,6.53860517 C5.26087085,6.05329151 4.90884133,5.65011808 4.44832472,5.56554244 L4.44832472,3.61521033 C4.90884133,3.53041328 5.26087085,3.12790406 5.26087085,2.642369 C5.26087085,2.54982288 5.24404428,2.4621476 5.21969004,2.37712915 L6.42544649,1.68104059 C6.49740221,1.64008118 6.52153506,1.54819926 6.48057565,1.47602214 C6.43873063,1.40428782 6.34662731,1.38081919 6.27666421,1.42133579 L5.09814022,2.10148339 C4.92146125,1.83115129 4.61681181,1.6520369 4.26987454,1.6520369 C3.72389668,1.6520369 3.27998524,2.09661255 3.27998524,2.642369 C3.27998524,3.14694465 3.65969004,3.55985978 4.14810332,3.62052399 L4.14810332,5.56067159 C3.65969004,5.62089299 3.27998524,6.03425092 3.27998524,6.53860517 C3.27998524,7.08458303 3.72389668,7.52915867 4.26987454,7.52915867 C4.58227306,7.52915867 4.85836162,7.38081919 5.03946863,7.15498893 L6.66854613,8.09506273 C6.636,8.19336531 6.61319557,8.29720295 6.61319557,8.40679705 C6.61319557,8.91292251 6.9962214,9.32650185 7.4859631,9.38539483 L7.4859631,11.266428 C6.9962214,11.3250996 6.61319557,11.7395646 6.61319557,12.2454686 C6.61319557,12.3904871 6.6461845,12.5275351 6.70330627,12.6519631 L5.47053875,13.3635498 C5.39880443,13.4047306 5.37467159,13.4963911 5.4162952,13.5676827 C5.44374908,13.6159483 5.49422878,13.6429594 5.5455941,13.6429594 C5.57083395,13.6429594 5.59651661,13.6363173 5.62020664,13.6228118 L6.86780812,12.9021476 C7.04957934,13.104952 7.31105535,13.2355793 7.60397048,13.2355793 C7.916369,13.2355793 8.19223616,13.0874613 8.37400738,12.8603026 L9.77969004,13.6717417 C9.80315867,13.6861328 9.82884133,13.6925535 9.85408118,13.6925535 C9.9056679,13.6925535 9.956369,13.6657638 9.98382288,13.6177196 C10.0252251,13.5459852 10.0006494,13.4538819 9.92935793,13.4129225 L8.52522509,12.6021476 C8.56795572,12.4910037 8.59474539,12.3714465 8.59474539,12.2454686 C8.59474539,11.7765387 8.2655203,11.3844354 7.82802952,11.282369 L7.82802952,9.36967528 C8.2655203,9.26738745 8.59474539,8.87528413 8.59474539,8.40679705 C8.59474539,8.3124797 8.57725461,8.22303321 8.55223616,8.13712915 L10.2379926,7.16362362 C10.4199852,7.38436162 10.6920886,7.52915867 11.0005018,7.52915867 C11.3029373,7.52915867 11.5706125,7.39033948 11.7521624,7.17624354 L13.2760738,8.05631734 C13.2344502,8.16569004 13.2085461,8.28303321 13.2085461,8.40679705 C13.2085461,8.93262731 13.6221255,9.36015498 14.1399852,9.39092989 L14.1399852,11.2604502 C13.6221255,11.2912251 13.2085461,11.719417 13.2085461,12.2454686 C13.2085461,12.4011144 13.2481771,12.5459114 13.3123838,12.677203 L12.0663321,13.3967601 C11.9945978,13.437941 11.9704649,13.5296015 12.0116458,13.6013358 C12.0532694,13.6726273 12.1444871,13.6967601 12.216,13.6558007 L13.4821993,12.9245092 C13.6626421,13.1153579 13.9168118,13.2355793 14.1988782,13.2355793 C14.7455203,13.2355793 15.1905387,12.7914465 15.1905387,12.2454686 C15.1905387,11.7820738 14.8697269,11.3955055 14.439321,11.2876827" id="Fill-173"></path>
                            <path d="M1.56163838,10.0701476 L1.56163838,10.9909594 C1.56163838,11.0737638 1.62828044,11.1408487 1.71130627,11.1408487 C1.7938893,11.1408487 1.86097417,11.0737638 1.86097417,10.9909594 L1.86097417,10.0701476 C1.86097417,9.98712177 1.7938893,9.9200369 1.71130627,9.9200369 C1.62828044,9.9200369 1.56163838,9.98712177 1.56163838,10.0701476" id="Fill-174"></path>
                            <path d="M8.11246494,10.0701476 L8.11246494,10.9909594 C8.11246494,11.0737638 8.17954982,11.1408487 8.26235424,11.1408487 C8.34471587,11.1408487 8.41202214,11.0737638 8.41202214,10.9909594 L8.41202214,10.0701476 C8.41202214,9.98712177 8.34471587,9.9200369 8.26235424,9.9200369 C8.17954982,9.9200369 8.11246494,9.98712177 8.11246494,10.0701476" id="Fill-175"></path>
                            <path d="M4.26042066,13.5412472 C3.95311439,13.5412472 3.70226568,13.7918745 3.70226568,14.0994022 C3.70226568,14.182428 3.76979336,14.2488487 3.85259779,14.2488487 C3.93473801,14.2488487 4.00160148,14.182428 4.00160148,14.0994022 C4.00160148,13.9568192 4.11805904,13.8412472 4.26042066,13.8412472 C4.34344649,13.8412472 4.41008856,13.773941 4.41008856,13.6918007 C4.41008856,13.6087749 4.34344649,13.5412472 4.26042066,13.5412472" id="Fill-176"></path>
                            <path d="M10.9850701,13.5412472 C10.6775424,13.5412472 10.4269151,13.7918745 10.4269151,14.0994022 C10.4269151,14.182428 10.4942214,14.2488487 10.5768044,14.2488487 C10.6593875,14.2488487 10.7271365,14.182428 10.7271365,14.0994022 C10.7271365,13.9568192 10.8424871,13.8412472 10.9850701,13.8412472 C11.0678745,13.8412472 11.1349594,13.773941 11.1349594,13.6918007 C11.1349594,13.6087749 11.0678745,13.5412472 10.9850701,13.5412472" id="Fill-177"></path>
                        </g>
                        <line x1="25.3613506" y1="95.2553653" x2="206.196701" y2="95.2553653" id="Stroke-162" stroke="#1CC2EB" stroke-width="0.5" stroke-linecap="round" stroke-linejoin="round"></line>
                        <line x1="25.3613506" y1="101.920295" x2="206.196701" y2="101.920295" id="Stroke-164" stroke="#1CC2EB" stroke-width="0.5" stroke-linecap="round" stroke-linejoin="round"></line>
                    </g>
                </g>
            </g>
        </g>
    </g>
</svg>