<?xml version="1.0" encoding="UTF-8"?>
<svg width="52px" height="52px" viewBox="0 0 52 52" version="1.1" xmlns="http://www.w3.org/2000/svg" xmlns:xlink="http://www.w3.org/1999/xlink">
    <title>向下</title>
    <g id="2期" stroke="none" stroke-width="1" fill="none" fill-rule="evenodd">
        <g id="1.首页" transform="translate(-82.000000, -667.000000)">
            <g id="向下" transform="translate(83.000000, 668.000000)">
                <rect id="矩形" stroke="#15E5FA" fill="#070B2B" x="0" y="0" width="50" height="50" rx="25"></rect>
                <path d="M24.1791456,28.2598699 L20.2682338,24.7344446 C20.1642095,24.6442122 19.9958145,24.6443655 19.8920105,24.7347895 L19.0777044,25.4444264 C18.9739445,25.5348887 18.9741207,25.6813296 19.078101,25.7716004 L24.001454,30.2095802 C24.0064327,30.2146953 24.0115436,30.219772 24.0171171,30.2245806 L24.0443899,30.2482594 L24.8036657,30.9326849 C24.8593789,30.9810004 24.9335088,31.0031467 25.0063611,30.9996408 C25.0793455,31.0031275 25.1536297,30.9808472 25.2093208,30.9323209 L25.9685305,30.2450409 L25.9941291,30.2227415 C25.9993501,30.218182 26.0041305,30.2133926 26.0088449,30.2085648 L30.9222625,25.7606997 C31.0260665,25.6702374 31.0258903,25.5237964 30.921866,25.4335257 L30.1058416,24.7254214 C30.0018614,24.6351506 29.8334443,24.6353039 29.7296403,24.7257662 L25.8639335,28.2251946 L25.8471689,19.2310804 C25.8470147,19.103299 25.7277899,18.9998669 25.5808738,19 L24.4280813,19.0010547 C24.2811872,19.0011888 24.1621827,19.1048507 24.1623369,19.2326321 L24.1791456,28.2598699 Z" id="路径" fill="#FFFFFF" fill-rule="nonzero"></path>
            </g>
        </g>
    </g>
</svg>