<?xml version="1.0" encoding="UTF-8"?>
<svg width="43px" height="60px" viewBox="0 0 43 60" version="1.1" xmlns="http://www.w3.org/2000/svg" xmlns:xlink="http://www.w3.org/1999/xlink">
    <title>击剑</title>
    <g id="2期" stroke="none" stroke-width="1" fill="none" fill-rule="evenodd">
        <g id="1.首页" transform="translate(-388.000000, -3655.000000)" fill="#1CC2EB" fill-rule="nonzero">
            <g id="击剑" transform="translate(388.000000, 3655.000000)">
                <path d="M13.3111213,21.3488051 C13.2559743,21.3488051 13.1456801,21.3488051 13.0905331,21.2936581 C12.097886,20.9627757 10.1125919,19.8598346 9.78170956,18.7017463 C9.7265625,18.4811581 9.61626838,17.9296875 9.89200368,17.433364 C10.1125919,17.0473346 10.5537684,16.7715993 10.9949449,16.7715993 L11.5464154,16.7715993 C11.6567096,16.2201287 11.6015625,15.613511 11.4361213,15.0620404 C10.8846507,14.8965993 10.222886,14.8414522 9.7265625,14.9517463 C9.7265625,15.1171875 9.78170956,15.3377757 9.7265625,15.5032169 C9.7265625,15.9443934 9.45082721,16.3855699 9.06479779,16.6061581 C8.56847426,16.8818934 8.01700368,16.7715993 7.79641544,16.7164522 C6.58318015,16.3855699 5.48023897,14.2899816 5.20450368,13.4076287 C5.14935662,13.2973346 5.14935662,13.1318934 5.20450368,13.0215993 C5.48023897,12.1392463 6.58318015,10.0436581 7.79641544,9.71277574 C8.07215074,9.65762868 8.62362132,9.54733456 9.06479779,9.82306985 C9.45082721,10.0436581 9.7265625,10.4848346 9.7265625,10.926011 L9.7265625,11.4774816 C10.2780331,11.5877757 10.8846507,11.5326287 11.4361213,11.3671875 C11.6015625,10.8157169 11.6567096,10.1539522 11.5464154,9.65762868 C11.3809743,9.65762868 11.160386,9.71277574 10.9949449,9.65762868 C10.5537684,9.65762868 10.1125919,9.38189338 9.89200368,8.99586397 C9.61626838,8.5546875 9.7265625,8.00321691 9.78170956,7.72748162 C10.1125919,6.51424632 12.2081801,5.41130515 13.0905331,5.13556985 C13.2008272,5.08042279 13.3662684,5.08042279 13.4765625,5.13556985 C14.3589154,5.41130515 16.4545037,6.51424632 16.785386,7.72748162 C16.8405331,8.00321691 16.9508272,8.5546875 16.6750919,8.99586397 C16.4545037,9.38189338 16.0133272,9.65762868 15.5721507,9.65762868 L15.0206801,9.65762868 C14.910386,10.2090993 14.9655331,10.8157169 15.1309743,11.3671875 C15.6824449,11.5326287 16.3442096,11.5877757 16.8405331,11.4774816 C16.8405331,11.3120404 16.785386,11.0914522 16.8405331,10.926011 C16.8405331,10.4848346 17.1162684,10.0436581 17.5022978,9.82306985 C17.9434743,9.54733456 18.5500919,9.65762868 18.7706801,9.71277574 C19.9839154,10.0436581 21.0868566,12.1392463 21.3625919,13.0215993 C21.417739,13.1318934 21.417739,13.2973346 21.3625919,13.4076287 C21.0868566,14.2899816 19.9839154,16.3855699 18.7706801,16.7164522 C18.5500919,16.7715993 17.9986213,16.8818934 17.5022978,16.6061581 C17.1162684,16.3855699 16.8405331,15.9443934 16.8405331,15.5032169 L16.8405331,14.9517463 C16.2890625,14.8414522 15.6824449,14.8965993 15.1309743,15.0620404 C14.9655331,15.613511 14.910386,16.2752757 15.0206801,16.7715993 C15.1861213,16.7715993 15.4067096,16.7164522 15.5721507,16.7715993 C16.0133272,16.7715993 16.4545037,17.0473346 16.6750919,17.433364 C16.9508272,17.8745404 16.8405331,18.426011 16.785386,18.7017463 C16.4545037,19.8598346 14.4692096,20.9627757 13.4765625,21.2936581 C13.4214154,21.3488051 13.3662684,21.3488051 13.3111213,21.3488051 Z M11.2155331,18.0951287 L11.105239,18.0951287 C11.105239,18.0951287 11.0500919,18.0951287 11.0500919,18.1502757 C11.0500919,18.1502757 11.0500919,18.2605699 11.105239,18.426011 C11.2155331,18.8120404 12.3184743,19.6392463 13.3662684,20.0252757 C14.4140625,19.6392463 15.5170037,18.8120404 15.6272978,18.426011 C15.6824449,18.3157169 15.6824449,18.2054228 15.6272978,18.1502757 L15.5721507,18.1502757 C15.2964154,18.1502757 15.0758272,18.1502757 14.855239,18.2605699 C14.5243566,18.370864 14.1383272,18.2605699 14.0280331,17.9296875 C13.6420037,16.9921875 13.5868566,15.8340993 13.917739,14.7311581 C13.8625919,14.5105699 13.917739,14.2899816 14.0831801,14.1245404 C14.2486213,13.9590993 14.4692096,13.9039522 14.6897978,13.9590993 C15.792739,13.6282169 16.9508272,13.683364 17.8883272,14.0693934 C18.2192096,14.2348346 18.3846507,14.5657169 18.2192096,14.8965993 C18.1089154,15.1171875 18.1089154,15.3377757 18.1089154,15.613511 C18.1089154,15.613511 18.1089154,15.6686581 18.1640625,15.6686581 C18.1640625,15.6686581 18.2743566,15.6686581 18.4397978,15.613511 C18.8258272,15.5032169 19.6530331,14.4002757 20.0390625,13.3524816 C19.6530331,12.3046875 18.8258272,11.2017463 18.4397978,11.0914522 C18.3295037,11.0363051 18.2192096,11.0363051 18.1640625,11.0914522 L18.1640625,11.1465993 C18.1640625,11.4223346 18.1640625,11.6429228 18.2743566,11.863511 C18.3846507,12.1943934 18.2743566,12.5804228 17.9434743,12.6907169 C17.0059743,13.0767463 15.847886,13.1318934 14.7449449,12.801011 C14.5243566,12.8561581 14.3037684,12.801011 14.1383272,12.6355699 C13.972886,12.4701287 13.917739,12.2495404 13.972886,12.0289522 C13.6420037,10.926011 13.6971507,9.76792279 14.0831801,8.83042279 C14.2486213,8.49954044 14.5795037,8.33409926 14.910386,8.49954044 C15.1309743,8.60983456 15.3515625,8.60983456 15.6272978,8.60983456 C15.6272978,8.60983456 15.6824449,8.60983456 15.6824449,8.5546875 C15.6824449,8.5546875 15.6824449,8.44439338 15.6272978,8.27895221 C15.5170037,7.89292279 14.4140625,7.06571691 13.3662684,6.6796875 C12.3184743,7.06571691 11.2155331,7.89292279 11.105239,8.27895221 C11.0500919,8.44439338 11.0500919,8.49954044 11.105239,8.5546875 L11.160386,8.5546875 C11.4361213,8.5546875 11.6567096,8.5546875 11.8772978,8.44439338 C12.2081801,8.33409926 12.5942096,8.44439338 12.7045037,8.77527574 C13.0905331,9.71277574 13.1456801,10.870864 12.8147978,11.9738051 C12.8699449,12.1943934 12.8147978,12.4149816 12.6493566,12.5804228 C12.4839154,12.745864 12.2633272,12.801011 12.042739,12.745864 C10.9397978,13.0767463 9.78170956,13.0215993 8.84420956,12.6355699 C8.51332721,12.4701287 8.34788603,12.1392463 8.51332721,11.808364 C8.62362132,11.5877757 8.62362132,11.3671875 8.62362132,11.0914522 C8.62362132,11.0914522 8.62362132,11.0363051 8.56847426,11.0363051 C8.56847426,11.0363051 8.45818015,11.0363051 8.29273897,11.0914522 C7.90670956,11.2017463 7.07950368,12.3046875 6.69347426,13.3524816 C7.07950368,14.4002757 7.90670956,15.5032169 8.29273897,15.613511 C8.34788603,15.558364 8.45818015,15.558364 8.45818015,15.558364 L8.45818015,15.5032169 C8.45818015,15.2274816 8.45818015,15.0068934 8.34788603,14.7863051 C8.23759191,14.4554228 8.34788603,14.0693934 8.67876838,13.9590993 C9.61626838,13.5730699 10.7743566,13.5179228 11.8772978,13.8488051 C12.097886,13.7936581 12.3184743,13.8488051 12.4839154,14.0142463 C12.6493566,14.1796875 12.7045037,14.4002757 12.6493566,14.620864 C12.980239,15.7238051 12.9250919,16.8818934 12.5390625,17.8193934 C12.3736213,18.1502757 12.042739,18.3157169 11.7118566,18.1502757 C11.6015625,18.0951287 11.4361213,18.0951287 11.2155331,18.0951287 Z M27.3736213,50.6318934 C27.3184743,50.6318934 27.2081801,50.6318934 27.1530331,50.5767463 C26.160386,50.245864 24.1750919,49.1429228 23.8442096,47.9848346 C23.7890625,47.7642463 23.6787684,47.2127757 23.9545037,46.7164522 C24.1750919,46.3304228 24.6162684,46.0546875 25.0574449,46.0546875 L25.6089154,46.0546875 C25.7192096,45.5032169 25.6640625,44.8965993 25.4986213,44.3451287 C24.9471507,44.1796875 24.285386,44.1245404 23.7890625,44.2348346 C23.7890625,44.4002757 23.8442096,44.620864 23.7890625,44.7863051 C23.7890625,45.2274816 23.5133272,45.6686581 23.1272978,45.8892463 C22.6309743,46.1649816 22.0795037,46.0546875 21.8589154,45.9995404 C20.6456801,45.6686581 19.542739,43.5730699 19.2670037,42.6907169 C19.2118566,42.5804228 19.2118566,42.4149816 19.2670037,42.3046875 C19.542739,41.4223346 20.6456801,39.3267463 21.8589154,38.995864 C22.1346507,38.9407169 22.6861213,38.8304228 23.1272978,39.1061581 C23.5133272,39.3267463 23.7890625,39.7679228 23.7890625,40.2090993 L23.7890625,40.7605699 C24.3405331,40.870864 24.9471507,40.8157169 25.4986213,40.6502757 C25.6640625,40.0988051 25.7192096,39.4370404 25.6089154,38.9407169 C25.4434743,38.9407169 25.222886,38.995864 25.0574449,38.9407169 C24.6162684,38.9407169 24.1750919,38.6649816 23.9545037,38.2789522 C23.6787684,37.8377757 23.7890625,37.2863051 23.8442096,37.0105699 C24.1750919,35.8524816 26.160386,34.7495404 27.1530331,34.4186581 C27.2633272,34.363511 27.4287684,34.363511 27.5390625,34.4186581 C28.5317096,34.7495404 30.5170037,35.8524816 30.847886,37.0105699 C30.9030331,37.2863051 31.0133272,37.8377757 30.7375919,38.2789522 C30.5170037,38.6649816 30.0758272,38.9407169 29.6346507,38.9407169 L29.0831801,38.9407169 C28.972886,39.4921875 29.0280331,40.0988051 29.1934743,40.6502757 C29.7449449,40.8157169 30.4067096,40.870864 30.9030331,40.7605699 C30.9030331,40.5951287 30.847886,40.3745404 30.9030331,40.2090993 C30.9030331,39.7679228 31.1787684,39.3267463 31.5647978,39.1061581 C32.0059743,38.8304228 32.6125919,38.9407169 32.8331801,38.995864 C34.0464154,39.3267463 35.1493566,41.4223346 35.4250919,42.3046875 C35.480239,42.4149816 35.480239,42.5804228 35.4250919,42.6907169 C35.1493566,43.5730699 34.0464154,45.6686581 32.8331801,45.9995404 C32.6125919,46.0546875 32.0611213,46.1649816 31.5647978,45.8892463 C31.1787684,45.6686581 30.9030331,45.2274816 30.9030331,44.7863051 L30.9030331,44.2348346 C30.3515625,44.1245404 29.7449449,44.1796875 29.1934743,44.3451287 C29.0280331,44.8965993 28.972886,45.558364 29.0831801,46.0546875 C29.2486213,46.0546875 29.4692096,45.9995404 29.6346507,46.0546875 C30.0758272,46.0546875 30.5170037,46.3304228 30.7375919,46.7164522 C31.0133272,47.2127757 30.9030331,47.7642463 30.847886,47.9848346 C30.5170037,49.1429228 28.5317096,50.245864 27.5390625,50.5767463 C27.4839154,50.5767463 27.4287684,50.6318934 27.3736213,50.6318934 L27.3736213,50.6318934 Z M25.2780331,47.3230699 L25.167739,47.3230699 C25.167739,47.3230699 25.1125919,47.3230699 25.1125919,47.3782169 C25.1125919,47.3782169 25.1125919,47.488511 25.167739,47.6539522 C25.2780331,48.0399816 26.3809743,48.8671875 27.4287684,49.2532169 C28.4765625,48.8671875 29.5795037,48.0399816 29.6897978,47.6539522 C29.7449449,47.5436581 29.7449449,47.433364 29.6897978,47.3782169 L29.6346507,47.3782169 C29.3589154,47.3782169 29.1383272,47.3782169 28.917739,47.488511 C28.5868566,47.5988051 28.2008272,47.488511 28.0905331,47.1576287 C27.7045037,46.2201287 27.6493566,45.0620404 27.980239,43.9590993 C27.9250919,43.738511 27.980239,43.5179228 28.1456801,43.3524816 C28.3111213,43.1870404 28.5317096,43.1318934 28.7522978,43.1870404 C29.855239,42.8561581 31.0133272,42.9113051 31.9508272,43.2973346 C32.2817096,43.4627757 32.4471507,43.7936581 32.2817096,44.1245404 C32.1714154,44.3451287 32.1714154,44.5657169 32.1714154,44.8414522 C32.1714154,44.8414522 32.1714154,44.8965993 32.2265625,44.8965993 C32.2265625,44.8965993 32.3368566,44.8965993 32.5022978,44.8414522 C32.8883272,44.7311581 33.7155331,43.6282169 34.1015625,42.5804228 C33.7155331,41.5326287 32.8883272,40.4296875 32.5022978,40.3193934 C32.3920037,40.2642463 32.2817096,40.2642463 32.2265625,40.3193934 L32.2265625,40.3745404 C32.2265625,40.6502757 32.2265625,40.870864 32.3368566,41.0914522 C32.4471507,41.4223346 32.3368566,41.808364 32.0059743,41.9186581 C31.0684743,42.3046875 29.910386,42.3598346 28.8074449,42.0289522 C28.5868566,42.0840993 28.3662684,42.0289522 28.2008272,41.863511 C28.035386,41.6980699 27.980239,41.4774816 28.035386,41.2568934 C27.7045037,40.1539522 27.7596507,38.995864 28.1456801,38.058364 C28.3111213,37.7274816 28.6420037,37.5620404 28.972886,37.7274816 C29.1934743,37.8377757 29.4140625,37.8377757 29.6897978,37.8377757 C29.6897978,37.8377757 29.7449449,37.8377757 29.7449449,37.7826287 C29.7449449,37.7826287 29.7449449,37.6723346 29.6897978,37.5068934 C29.5795037,37.120864 28.4765625,36.2936581 27.4287684,35.9076287 C26.3809743,36.2936581 25.2780331,37.120864 25.167739,37.5068934 C25.1125919,37.6723346 25.1125919,37.7274816 25.167739,37.7826287 L25.222886,37.7826287 C25.4986213,37.7826287 25.7192096,37.7826287 25.9397978,37.6723346 C26.2706801,37.5620404 26.6567096,37.6723346 26.7670037,38.0032169 C27.1530331,38.9407169 27.2081801,40.0988051 26.8772978,41.2017463 C26.9324449,41.4223346 26.8772978,41.6429228 26.7118566,41.808364 C26.5464154,41.9738051 26.3258272,42.0289522 26.105239,41.9738051 C25.0022978,42.3046875 23.8442096,42.2495404 22.9067096,41.863511 C22.5758272,41.6980699 22.410386,41.3671875 22.5758272,41.0363051 C22.6861213,40.8157169 22.6861213,40.5951287 22.6861213,40.3193934 C22.6861213,40.2642463 22.6861213,40.2642463 22.6309743,40.2642463 C22.6309743,40.2642463 22.5206801,40.2642463 22.355239,40.3193934 C21.9692096,40.4296875 21.1420037,41.5326287 20.7559743,42.5804228 C21.1420037,43.6282169 21.9692096,44.7311581 22.355239,44.8414522 C22.5206801,44.8965993 22.5758272,44.8965993 22.6309743,44.8414522 L22.6309743,44.7863051 C22.6309743,44.5105699 22.6309743,44.2899816 22.5206801,44.0693934 C22.410386,43.738511 22.5206801,43.3524816 22.8515625,43.2421875 C23.7890625,42.8561581 24.9471507,42.801011 26.0500919,43.1318934 C26.2706801,43.0767463 26.4912684,43.1318934 26.6567096,43.2973346 C26.8221507,43.4627757 26.8772978,43.683364 26.8221507,43.9039522 C27.1530331,45.0068934 27.097886,46.1649816 26.7118566,47.1024816 C26.5464154,47.433364 26.2155331,47.5988051 25.8846507,47.433364 C25.6640625,47.3782169 25.4986213,47.3230699 25.2780331,47.3230699 Z" id="形状"></path>
                <path d="M0.737591912,1.49586397 C0.3515625,1.49586397 0.0758272059,1.22012868 0.0758272059,0.834099265 L0.0758272059,0.723805147 C0.0758272059,0.337775735 0.3515625,0.0620404412 0.737591912,0.0620404412 L0.847886029,0.0620404412 C1.23391544,0.0620404412 1.50965074,0.337775735 1.50965074,0.723805147 C1.50965074,0.944393382 1.39935662,1.10983456 1.23391544,1.22012868 C1.17876838,1.38556985 0.958180147,1.49586397 0.737591912,1.49586397 L0.737591912,1.49586397 Z M40.0022978,1.33042279 L39.7265625,1.33042279 C39.3405331,1.33042279 39.0647978,1.0546875 39.0647978,0.668658088 C39.0647978,0.282628676 39.3405331,0.00689338235 39.7265625,0.00689338235 L40.0022978,0.00689338235 C40.3883272,0.00689338235 40.6640625,0.282628676 40.6640625,0.668658088 C40.6640625,1.0546875 40.3883272,1.33042279 40.0022978,1.33042279 Z M38.1824449,1.33042279 L37.9067096,1.33042279 C37.5206801,1.33042279 37.2449449,1.0546875 37.2449449,0.668658088 C37.2449449,0.282628676 37.5206801,0.00689338235 37.9067096,0.00689338235 L38.1824449,0.00689338235 C38.5684743,0.00689338235 38.8442096,0.282628676 38.8442096,0.668658088 C38.7890625,1.0546875 38.5133272,1.33042279 38.1824449,1.33042279 Z M36.3074449,1.33042279 L36.0317096,1.33042279 C35.6456801,1.33042279 35.3699449,1.0546875 35.3699449,0.668658088 C35.3699449,0.282628676 35.6456801,0.00689338235 36.0317096,0.00689338235 L36.3074449,0.00689338235 C36.6934743,0.00689338235 36.9692096,0.282628676 36.9692096,0.668658088 C36.9692096,1.0546875 36.6383272,1.33042279 36.3074449,1.33042279 Z M34.4324449,1.33042279 L34.1567096,1.33042279 C33.7706801,1.33042279 33.4949449,1.0546875 33.4949449,0.668658088 C33.4949449,0.282628676 33.7706801,0.00689338235 34.1567096,0.00689338235 L34.4324449,0.00689338235 C34.8184743,0.00689338235 35.0942096,0.282628676 35.0942096,0.668658088 C35.0942096,1.0546875 34.8184743,1.33042279 34.4324449,1.33042279 Z M32.5574449,1.33042279 L32.2817096,1.33042279 C31.8956801,1.33042279 31.6199449,1.0546875 31.6199449,0.668658088 C31.6199449,0.282628676 31.8956801,0.00689338235 32.2817096,0.00689338235 L32.5574449,0.00689338235 C32.9434743,0.00689338235 33.2192096,0.282628676 33.2192096,0.668658088 C33.2192096,1.0546875 32.9434743,1.33042279 32.5574449,1.33042279 Z M30.6824449,1.33042279 L30.4067096,1.33042279 C30.0206801,1.33042279 29.7449449,1.0546875 29.7449449,0.668658088 C29.7449449,0.282628676 30.0206801,0.00689338235 30.4067096,0.00689338235 L30.6824449,0.00689338235 C31.0684743,0.00689338235 31.3442096,0.282628676 31.3442096,0.668658088 C31.3442096,1.0546875 31.0684743,1.33042279 30.6824449,1.33042279 Z M28.8625919,1.33042279 L28.5868566,1.33042279 C28.2008272,1.33042279 27.9250919,1.0546875 27.9250919,0.668658088 C27.9250919,0.282628676 28.2008272,0.00689338235 28.5868566,0.00689338235 L28.8625919,0.00689338235 C29.2486213,0.00689338235 29.5243566,0.282628676 29.5243566,0.668658088 C29.4692096,1.0546875 29.1934743,1.33042279 28.8625919,1.33042279 Z M26.9875919,1.33042279 L26.7118566,1.33042279 C26.3258272,1.33042279 26.0500919,1.0546875 26.0500919,0.668658088 C26.0500919,0.282628676 26.3258272,0.00689338235 26.7118566,0.00689338235 L26.9875919,0.00689338235 C27.3736213,0.00689338235 27.6493566,0.282628676 27.6493566,0.668658088 C27.6493566,1.0546875 27.3184743,1.33042279 26.9875919,1.33042279 Z M25.1125919,1.33042279 L24.8368566,1.33042279 C24.4508272,1.33042279 24.1750919,1.0546875 24.1750919,0.668658088 C24.1750919,0.282628676 24.4508272,0.00689338235 24.8368566,0.00689338235 L25.1125919,0.00689338235 C25.4986213,0.00689338235 25.7743566,0.282628676 25.7743566,0.668658088 C25.7743566,1.0546875 25.4986213,1.33042279 25.1125919,1.33042279 Z M23.2375919,1.33042279 L22.9618566,1.33042279 C22.5758272,1.33042279 22.3000919,1.0546875 22.3000919,0.668658088 C22.3000919,0.282628676 22.5758272,0.00689338235 22.9618566,0.00689338235 L23.2375919,0.00689338235 C23.6236213,0.00689338235 23.8993566,0.282628676 23.8993566,0.668658088 C23.8993566,1.0546875 23.6236213,1.33042279 23.2375919,1.33042279 Z M21.3625919,1.33042279 L21.1420037,1.33042279 C20.7559743,1.33042279 20.480239,1.0546875 20.480239,0.668658088 C20.480239,0.282628676 20.7559743,0.00689338235 21.1420037,0.00689338235 L21.417739,0.00689338235 C21.8037684,0.00689338235 22.0795037,0.282628676 22.0795037,0.668658088 C22.0243566,1.0546875 21.7486213,1.33042279 21.3625919,1.33042279 Z M19.542739,1.33042279 L19.2670037,1.33042279 C18.8809743,1.33042279 18.605239,1.0546875 18.605239,0.668658088 C18.605239,0.282628676 18.8809743,0.00689338235 19.2670037,0.00689338235 L19.542739,0.00689338235 C19.9287684,0.00689338235 20.2045037,0.282628676 20.2045037,0.668658088 C20.1493566,1.0546875 19.8736213,1.33042279 19.542739,1.33042279 Z M17.667739,1.33042279 L17.3920037,1.33042279 C17.0059743,1.33042279 16.730239,1.0546875 16.730239,0.668658088 C16.730239,0.282628676 17.0059743,0.00689338235 17.3920037,0.00689338235 L17.667739,0.00689338235 C18.0537684,0.00689338235 18.3295037,0.282628676 18.3295037,0.668658088 C18.3295037,1.0546875 17.9986213,1.33042279 17.667739,1.33042279 Z M15.792739,1.33042279 L15.5170037,1.33042279 C15.1309743,1.33042279 14.855239,1.0546875 14.855239,0.668658088 C14.855239,0.282628676 15.1309743,0.00689338235 15.5170037,0.00689338235 L15.792739,0.00689338235 C16.1787684,0.00689338235 16.4545037,0.282628676 16.4545037,0.668658088 C16.4545037,1.0546875 16.1787684,1.33042279 15.792739,1.33042279 Z M13.917739,1.33042279 L13.6420037,1.33042279 C13.2559743,1.33042279 12.980239,1.0546875 12.980239,0.668658088 C12.980239,0.282628676 13.2559743,0.00689338235 13.6420037,0.00689338235 L13.917739,0.00689338235 C14.3037684,0.00689338235 14.5795037,0.282628676 14.5795037,0.668658088 C14.5795037,1.0546875 14.3037684,1.33042279 13.917739,1.33042279 Z M12.042739,1.33042279 L11.7670037,1.33042279 C11.3809743,1.33042279 11.105239,1.0546875 11.105239,0.668658088 C11.105239,0.282628676 11.3809743,0.00689338235 11.7670037,0.00689338235 L12.042739,0.00689338235 C12.4287684,0.00689338235 12.7045037,0.282628676 12.7045037,0.668658088 C12.7045037,1.0546875 12.4287684,1.33042279 12.042739,1.33042279 L12.042739,1.33042279 Z M10.222886,1.33042279 L9.94715074,1.33042279 C9.56112132,1.33042279 9.28538603,1.0546875 9.28538603,0.668658088 C9.28538603,0.282628676 9.56112132,0.00689338235 9.94715074,0.00689338235 L10.222886,0.00689338235 C10.6089154,0.00689338235 10.8846507,0.282628676 10.8846507,0.668658088 C10.8846507,1.0546875 10.5537684,1.33042279 10.222886,1.33042279 Z M8.34788603,1.33042279 L8.07215074,1.33042279 C7.68612132,1.33042279 7.41038603,1.0546875 7.41038603,0.668658088 C7.41038603,0.282628676 7.68612132,0.00689338235 8.07215074,0.00689338235 L8.34788603,0.00689338235 C8.73391544,0.00689338235 9.00965074,0.282628676 9.00965074,0.668658088 C9.00965074,1.0546875 8.67876838,1.33042279 8.34788603,1.33042279 Z M6.47288603,1.33042279 L6.19715074,1.33042279 C5.81112132,1.33042279 5.53538603,1.0546875 5.53538603,0.668658088 C5.53538603,0.282628676 5.81112132,0.00689338235 6.19715074,0.00689338235 L6.47288603,0.00689338235 C6.85891544,0.00689338235 7.13465074,0.282628676 7.13465074,0.668658088 C7.13465074,1.0546875 6.85891544,1.33042279 6.47288603,1.33042279 Z M4.59788603,1.33042279 L4.32215074,1.33042279 C3.93612132,1.33042279 3.66038603,1.0546875 3.66038603,0.668658088 C3.66038603,0.282628676 3.93612132,0.00689338235 4.32215074,0.00689338235 L4.59788603,0.00689338235 C4.98391544,0.00689338235 5.25965074,0.282628676 5.25965074,0.668658088 C5.25965074,1.0546875 4.98391544,1.33042279 4.59788603,1.33042279 Z M2.77803309,1.33042279 L2.50229779,1.33042279 C2.11626838,1.33042279 1.84053309,1.0546875 1.84053309,0.668658088 C1.84053309,0.282628676 2.11626838,0.00689338235 2.50229779,0.00689338235 L2.77803309,0.00689338235 C3.1640625,0.00689338235 3.43979779,0.282628676 3.43979779,0.668658088 C3.38465074,1.0546875 3.10891544,1.33042279 2.77803309,1.33042279 Z M41.7670037,1.49586397 C41.5464154,1.49586397 41.3809743,1.38556985 41.2706801,1.22012868 C41.105239,1.10983456 40.9949449,0.889246324 40.9949449,0.723805147 C40.9949449,0.337775735 41.2706801,0.0620404412 41.6567096,0.0620404412 L41.7670037,0.0620404412 C42.1530331,0.0620404412 42.4287684,0.337775735 42.4287684,0.723805147 L42.4287684,0.834099265 C42.4287684,1.16498162 42.097886,1.49586397 41.7670037,1.49586397 L41.7670037,1.49586397 Z M21.9140625,59.676011 C21.6383272,59.676011 21.417739,59.5105699 21.3074449,59.2348346 C21.1971507,58.9039522 21.3625919,58.5179228 21.6934743,58.4076287 L21.9140625,58.3524816 L22.1897978,58.9590993 L22.410386,59.5657169 L22.1897978,59.620864 C22.0795037,59.676011 21.9692096,59.676011 21.9140625,59.676011 L21.9140625,59.676011 Z M20.4250919,59.620864 C20.3699449,59.620864 20.2596507,59.620864 20.2045037,59.5657169 L19.9839154,59.4554228 C19.6530331,59.3451287 19.4875919,58.9590993 19.597886,58.6282169 C19.7081801,58.2973346 20.0942096,58.1318934 20.4250919,58.2421875 L20.6456801,58.3524816 C20.9765625,58.4627757 21.1420037,58.8488051 21.0317096,59.1796875 C20.9214154,59.4554228 20.6456801,59.620864 20.4250919,59.620864 L20.4250919,59.620864 Z M23.6787684,59.0142463 C23.4030331,59.0142463 23.1824449,58.8488051 23.0721507,58.6282169 C22.9067096,58.2973346 23.0721507,57.9113051 23.4030331,57.745864 L23.6236213,57.6355699 C23.9545037,57.4701287 24.3405331,57.6355699 24.5059743,57.9664522 C24.6714154,58.2973346 24.5059743,58.683364 24.1750919,58.8488051 L23.9545037,58.9590993 C23.8442096,58.9590993 23.7339154,59.0142463 23.6787684,59.0142463 Z M18.660386,58.9590993 C18.605239,58.9590993 18.4949449,58.9590993 18.4397978,58.9039522 L18.1640625,58.7936581 C17.8331801,58.683364 17.667739,58.2973346 17.7780331,57.9664522 C17.8883272,57.6355699 18.2743566,57.4701287 18.605239,57.5804228 L18.8258272,57.6907169 C19.1567096,57.801011 19.3221507,58.1870404 19.2118566,58.5179228 C19.1567096,58.7936581 18.8809743,58.9590993 18.660386,58.9590993 Z M16.8956801,58.2973346 C16.785386,58.2973346 16.730239,58.2973346 16.6199449,58.2421875 L16.3993566,58.1318934 C16.0684743,57.9664522 15.9030331,57.5804228 16.0684743,57.2495404 C16.2339154,56.9186581 16.6199449,56.7532169 16.9508272,56.9186581 L17.1714154,57.0289522 C17.5022978,57.1943934 17.667739,57.5804228 17.5022978,57.9113051 C17.3920037,58.1318934 17.1714154,58.2973346 16.8956801,58.2973346 Z M25.3883272,58.2421875 C25.167739,58.2421875 24.8920037,58.1318934 24.7817096,57.8561581 C24.6162684,57.5252757 24.7817096,57.1392463 25.1125919,56.9738051 L25.3331801,56.863511 C25.6640625,56.6980699 26.0500919,56.863511 26.2155331,57.1943934 C26.3809743,57.5252757 26.2155331,57.9113051 25.8846507,58.0767463 L25.6640625,58.1870404 C25.5537684,58.1870404 25.4986213,58.2421875 25.3883272,58.2421875 Z M15.1861213,57.4701287 C15.0758272,57.4701287 14.9655331,57.4701287 14.910386,57.4149816 L14.6897978,57.3046875 C14.3589154,57.1392463 14.2486213,56.7532169 14.4140625,56.4223346 C14.5795037,56.0914522 14.9655331,55.9811581 15.2964154,56.1465993 L15.5170037,56.2568934 C15.847886,56.4223346 15.9581801,56.808364 15.792739,57.1392463 C15.6824449,57.3598346 15.4067096,57.4701287 15.1861213,57.4701287 Z M27.042739,57.3598346 C26.8221507,57.3598346 26.6015625,57.2495404 26.4912684,57.0289522 C26.3258272,56.6980699 26.4361213,56.3120404 26.7670037,56.1465993 L26.9875919,56.0363051 C27.3184743,55.870864 27.7045037,55.9811581 27.8699449,56.3120404 C28.035386,56.6429228 27.9250919,57.0289522 27.5942096,57.1943934 L27.3736213,57.3046875 C27.2633272,57.3598346 27.1530331,57.3598346 27.042739,57.3598346 Z M13.5317096,56.6429228 C13.4214154,56.6429228 13.3111213,56.6429228 13.2008272,56.5326287 L12.980239,56.4223346 C12.6493566,56.2568934 12.5390625,55.870864 12.7596507,55.5399816 C12.9250919,55.2090993 13.3662684,55.0988051 13.6420037,55.3193934 L13.8625919,55.4296875 C14.1934743,55.5951287 14.3037684,55.9811581 14.1383272,56.3120404 C13.972886,56.4774816 13.7522978,56.6429228 13.5317096,56.6429228 L13.5317096,56.6429228 Z M28.6971507,56.4774816 C28.4765625,56.4774816 28.2559743,56.3671875 28.1456801,56.1465993 C27.980239,55.8157169 28.035386,55.4296875 28.3662684,55.2642463 L28.5868566,55.1539522 C28.917739,54.988511 29.3037684,55.0436581 29.4692096,55.3745404 C29.6346507,55.7054228 29.5795037,56.0914522 29.2486213,56.2568934 L29.0280331,56.3671875 C28.917739,56.4223346 28.8074449,56.4774816 28.6971507,56.4774816 L28.6971507,56.4774816 Z M11.9324449,55.6502757 C11.8221507,55.6502757 11.7118566,55.5951287 11.6015625,55.5399816 L11.3809743,55.3745404 C11.105239,55.1539522 10.9949449,54.7679228 11.2155331,54.4921875 C11.4361213,54.2164522 11.8221507,54.1061581 12.097886,54.3267463 L12.3184743,54.4921875 C12.5942096,54.7127757 12.7045037,55.0988051 12.4839154,55.3745404 C12.3184743,55.5399816 12.1530331,55.6502757 11.9324449,55.6502757 L11.9324449,55.6502757 Z M30.2964154,55.4848346 C30.0758272,55.4848346 29.855239,55.3745404 29.7449449,55.2090993 C29.5243566,54.933364 29.6346507,54.4921875 29.910386,54.3267463 L30.1309743,54.1613051 C30.4067096,53.9407169 30.847886,54.051011 31.0133272,54.3267463 C31.2339154,54.6024816 31.1236213,55.0436581 30.847886,55.2090993 L30.6272978,55.3745404 C30.5170037,55.4296875 30.4067096,55.4848346 30.2964154,55.4848346 L30.2964154,55.4848346 Z M10.3883272,54.5473346 C10.222886,54.5473346 10.1125919,54.4921875 10.0022978,54.4370404 L9.78170956,54.2715993 C9.50597426,54.051011 9.45082721,53.6649816 9.67141544,53.3340993 C9.89200368,53.058364 10.2780331,53.0032169 10.6089154,53.2238051 L10.8295037,53.3892463 C11.105239,53.6098346 11.160386,53.995864 10.9397978,54.3267463 C10.7743566,54.4921875 10.6089154,54.5473346 10.3883272,54.5473346 Z M31.8405331,54.3818934 C31.6199449,54.3818934 31.4545037,54.2715993 31.2890625,54.1061581 C31.0684743,53.8304228 31.1236213,53.3892463 31.4545037,53.1686581 L31.6750919,53.0032169 C31.9508272,52.7826287 32.3920037,52.8377757 32.6125919,53.113511 C32.8331801,53.3892463 32.7780331,53.8304228 32.5022978,54.051011 L32.2817096,54.2164522 C32.1162684,54.3267463 31.9508272,54.3818934 31.8405331,54.3818934 L31.8405331,54.3818934 Z M8.89935662,53.3892463 C8.73391544,53.3892463 8.62362132,53.3340993 8.45818015,53.2238051 L8.23759191,53.058364 C7.96185662,52.8377757 7.96185662,52.3965993 8.18244485,52.120864 C8.40303309,51.8451287 8.84420956,51.8451287 9.11994485,52.0657169 L9.34053309,52.2311581 C9.61626838,52.4517463 9.61626838,52.8929228 9.39568015,53.1686581 C9.28538603,53.3340993 9.11994485,53.3892463 8.89935662,53.3892463 Z M33.3295037,53.2238051 C33.1640625,53.2238051 32.9434743,53.1686581 32.8331801,53.0032169 C32.6125919,52.7274816 32.667739,52.2863051 32.9434743,52.0657169 L33.1089154,51.9002757 C33.3846507,51.6796875 33.7706801,51.6796875 34.0464154,51.9554228 C34.2670037,52.2311581 34.2670037,52.6171875 33.9912684,52.8929228 L33.7706801,53.058364 C33.605239,53.1686581 33.4397978,53.2238051 33.3295037,53.2238051 Z M7.52068015,52.120864 C7.35523897,52.120864 7.18979779,52.0657169 7.07950368,51.9554228 L6.9140625,51.7899816 C6.63832721,51.5142463 6.63832721,51.1282169 6.9140625,50.8524816 C7.18979779,50.5767463 7.57582721,50.5767463 7.8515625,50.8524816 L8.01700368,51.0179228 C8.29273897,51.2936581 8.29273897,51.6796875 8.01700368,51.9554228 C7.90670956,52.0657169 7.68612132,52.120864 7.52068015,52.120864 Z M34.7081801,51.9554228 C34.542739,51.9554228 34.3772978,51.9002757 34.2118566,51.7348346 C33.9361213,51.4590993 33.9912684,51.0730699 34.2118566,50.7973346 L34.3772978,50.6318934 C34.6530331,50.3561581 35.0390625,50.4113051 35.3147978,50.6318934 C35.5905331,50.9076287 35.535386,51.2936581 35.3147978,51.5693934 L35.1493566,51.7348346 C35.0390625,51.9002757 34.8736213,51.9554228 34.7081801,51.9554228 Z M6.25229779,50.7421875 C6.08685662,50.7421875 5.86626838,50.6870404 5.75597426,50.5215993 L5.59053309,50.301011 C5.36994485,50.0252757 5.36994485,49.6392463 5.64568015,49.363511 C5.92141544,49.1429228 6.30744485,49.1429228 6.58318015,49.4186581 L6.74862132,49.5840993 C6.96920956,49.8598346 6.96920956,50.245864 6.69347426,50.5215993 C6.58318015,50.6870404 6.41773897,50.7421875 6.25229779,50.7421875 Z M36.0317096,50.6318934 C35.8662684,50.6318934 35.7008272,50.5767463 35.5905331,50.4664522 C35.3147978,50.245864 35.3147978,49.8046875 35.535386,49.5289522 L35.7008272,49.363511 C35.9214154,49.0877757 36.3625919,49.0877757 36.6383272,49.308364 C36.9140625,49.5289522 36.9140625,49.9701287 36.6934743,50.245864 L36.5280331,50.4664522 C36.3625919,50.5767463 36.1971507,50.6318934 36.0317096,50.6318934 Z M5.0390625,49.308364 C4.81847426,49.308364 4.65303309,49.1980699 4.54273897,49.0326287 L4.37729779,48.8120404 C4.15670956,48.5363051 4.21185662,48.0951287 4.54273897,47.8745404 C4.81847426,47.6539522 5.25965074,47.7090993 5.48023897,48.0399816 L5.64568015,48.2605699 C5.86626838,48.5363051 5.81112132,48.9774816 5.53538603,49.1980699 C5.31479779,49.2532169 5.20450368,49.308364 5.0390625,49.308364 L5.0390625,49.308364 Z M37.2449449,49.1980699 C37.0795037,49.1980699 36.9692096,49.1429228 36.8589154,49.0326287 C36.5831801,48.8120404 36.5280331,48.426011 36.7486213,48.0951287 L36.9140625,47.8745404 C37.1346507,47.5988051 37.5206801,47.5436581 37.8515625,47.7642463 C38.1272978,47.9848346 38.1824449,48.370864 37.9618566,48.7017463 L37.7964154,48.9223346 C37.6309743,49.1429228 37.410386,49.1980699 37.2449449,49.1980699 L37.2449449,49.1980699 Z M3.99126838,47.7642463 C3.77068015,47.7642463 3.55009191,47.6539522 3.43979779,47.433364 L3.27435662,47.2127757 C3.10891544,46.8818934 3.1640625,46.495864 3.49494485,46.3304228 C3.82582721,46.1649816 4.21185662,46.2201287 4.37729779,46.551011 L4.48759191,46.7715993 C4.65303309,47.1024816 4.59788603,47.488511 4.26700368,47.6539522 C4.21185662,47.7642463 4.1015625,47.7642463 3.99126838,47.7642463 L3.99126838,47.7642463 Z M38.347886,47.7090993 C38.2375919,47.7090993 38.0721507,47.6539522 37.9618566,47.5988051 C37.6861213,47.3782169 37.5758272,46.9921875 37.7964154,46.7164522 L37.9618566,46.495864 C38.1824449,46.2201287 38.5684743,46.1098346 38.8442096,46.2752757 C39.1199449,46.495864 39.230239,46.8818934 39.0647978,47.1576287 L38.8993566,47.3782169 C38.7339154,47.5988051 38.5684743,47.7090993 38.347886,47.7090993 L38.347886,47.7090993 Z M3.05376838,46.1649816 C2.83318015,46.1649816 2.61259191,46.0546875 2.44715074,45.8340993 L2.33685662,45.613511 C2.17141544,45.2826287 2.28170956,44.8965993 2.61259191,44.7311581 C2.94347426,44.5657169 3.32950368,44.676011 3.49494485,45.0068934 L3.60523897,45.2274816 C3.77068015,45.558364 3.66038603,45.9443934 3.32950368,46.1098346 C3.27435662,46.1098346 3.1640625,46.1649816 3.05376838,46.1649816 Z M39.285386,46.1098346 C39.1750919,46.1098346 39.0647978,46.1098346 38.9545037,46.0546875 C38.6236213,45.8892463 38.5133272,45.5032169 38.6787684,45.1723346 L38.7890625,44.9517463 C38.9545037,44.620864 39.3405331,44.5105699 39.6714154,44.676011 C40.0022978,44.8414522 40.1125919,45.2274816 39.9471507,45.558364 L39.8368566,45.7789522 C39.7817096,45.9443934 39.5611213,46.1098346 39.285386,46.1098346 Z M2.28170956,44.4554228 C2.00597426,44.4554228 1.78538603,44.2899816 1.67509191,44.0693934 L1.56479779,43.7936581 C1.45450368,43.4627757 1.61994485,43.0767463 1.95082721,42.9664522 C2.28170956,42.8561581 2.66773897,43.0215993 2.77803309,43.3524816 L2.88832721,43.5730699 C2.99862132,43.9039522 2.88832721,44.2899816 2.50229779,44.4002757 C2.44715074,44.4002757 2.33685662,44.4554228 2.28170956,44.4554228 L2.28170956,44.4554228 Z M40.1125919,44.4002757 C40.0022978,44.4002757 39.9471507,44.4002757 39.8368566,44.3451287 C39.5059743,44.1796875 39.3405331,43.7936581 39.5059743,43.4627757 L39.6162684,43.2421875 C39.7265625,42.9113051 40.1125919,42.745864 40.4434743,42.9113051 C40.7743566,43.0215993 40.9397978,43.4076287 40.7743566,43.738511 L40.6640625,44.0142463 C40.6089154,44.2348346 40.3883272,44.4002757 40.1125919,44.4002757 L40.1125919,44.4002757 Z M1.67509191,42.6907169 C1.39935662,42.6907169 1.12362132,42.5252757 1.06847426,42.2495404 L1.01332721,41.9738051 C0.903033088,41.6429228 1.12362132,41.2568934 1.45450368,41.1465993 C1.78538603,41.0363051 2.17141544,41.2568934 2.28170956,41.5877757 L2.33685662,41.808364 C2.44715074,42.1392463 2.2265625,42.5252757 1.89568015,42.6355699 C1.78538603,42.6907169 1.73023897,42.6907169 1.67509191,42.6907169 L1.67509191,42.6907169 Z M40.7743566,42.6355699 C40.7192096,42.6355699 40.6640625,42.6355699 40.5537684,42.5804228 C40.222886,42.4701287 40.0022978,42.0840993 40.1125919,41.7532169 L40.167739,41.5326287 C40.2780331,41.2017463 40.6640625,40.9811581 40.9949449,41.0914522 C41.3258272,41.2017463 41.5464154,41.5877757 41.4361213,41.9186581 C41.4361213,42.0289522 41.3809743,42.0840993 41.3809743,42.1943934 C41.3258272,42.4701287 41.0500919,42.6355699 40.7743566,42.6355699 L40.7743566,42.6355699 Z M1.17876838,40.870864 C0.847886029,40.870864 0.627297794,40.6502757 0.517003676,40.3745404 L0.461856618,40.0988051 C0.406709559,39.7679228 0.627297794,39.3818934 0.958180147,39.3267463 C1.2890625,39.2715993 1.67509191,39.4921875 1.73023897,39.8230699 L1.78538603,40.0988051 C1.84053309,40.4296875 1.61994485,40.8157169 1.2890625,40.870864 L1.17876838,40.870864 Z M41.2706801,40.870864 L41.105239,40.870864 C40.7743566,40.8157169 40.5537684,40.4296875 40.6089154,40.0988051 L40.6640625,39.8230699 C40.7192096,39.4921875 41.105239,39.2164522 41.4361213,39.3267463 C41.7670037,39.3818934 42.042739,39.7679228 41.9324449,40.0988051 L41.8772978,40.3745404 C41.8772978,40.6502757 41.6015625,40.870864 41.2706801,40.870864 L41.2706801,40.870864 Z M0.903033088,38.995864 C0.572150735,38.995864 0.296415441,38.7752757 0.241268382,38.4443934 L0.241268382,38.1686581 C0.186121324,37.7826287 0.461856618,37.5068934 0.847886029,37.4517463 C1.23391544,37.3965993 1.50965074,37.6723346 1.56479779,38.058364 L1.56479779,38.3340993 C1.61994485,38.6649816 1.34420956,38.995864 1.01332721,39.051011 C0.958180147,38.995864 0.903033088,38.995864 0.903033088,38.995864 L0.903033088,38.995864 Z M41.6015625,38.995864 L41.5464154,38.995864 C41.2155331,38.9407169 40.9397978,38.6098346 40.9949449,38.2789522 L41.0500919,38.0032169 C41.105239,37.6723346 41.4361213,37.3965993 41.7670037,37.4517463 C42.097886,37.5068934 42.3736213,37.8377757 42.3184743,38.1686581 L42.2633272,38.4443934 C42.2081801,38.7752757 41.9324449,38.995864 41.6015625,38.995864 L41.6015625,38.995864 Z M0.792738971,37.120864 C0.461856618,37.120864 0.130974265,36.8451287 0.130974265,36.5142463 L0.130974265,36.238511 C0.130974265,35.8524816 0.406709559,35.5767463 0.792738971,35.5767463 C1.12362132,35.5767463 1.45450368,35.8524816 1.45450368,36.238511 L1.45450368,36.5142463 C1.45450368,36.8451287 1.12362132,37.120864 0.792738971,37.120864 Z M41.7670037,37.120864 C41.7118566,37.120864 41.7118566,37.120864 41.7670037,37.120864 C41.3809743,37.120864 41.105239,36.7899816 41.105239,36.4590993 L41.105239,36.183364 C41.105239,35.8524816 41.3809743,35.5215993 41.7670037,35.5215993 C42.1530331,35.5215993 42.4287684,35.8524816 42.4287684,36.183364 L42.4287684,36.4590993 C42.3736213,36.8451287 42.097886,37.120864 41.7670037,37.120864 Z M0.737591912,35.245864 C0.3515625,35.245864 0.0758272059,34.9701287 0.0758272059,34.5840993 L0.0758272059,34.308364 C0.0758272059,33.9223346 0.3515625,33.6465993 0.737591912,33.6465993 C1.12362132,33.6465993 1.39935662,33.9223346 1.39935662,34.308364 L1.39935662,34.5840993 C1.39935662,34.9701287 1.12362132,35.245864 0.737591912,35.245864 Z M41.7670037,35.245864 C41.3809743,35.245864 41.105239,34.9701287 41.105239,34.5840993 L41.105239,34.308364 C41.105239,33.9223346 41.3809743,33.6465993 41.7670037,33.6465993 C42.1530331,33.6465993 42.4287684,33.9223346 42.4287684,34.308364 L42.4287684,34.5840993 C42.4287684,34.9701287 42.097886,35.245864 41.7670037,35.245864 Z M0.737591912,33.370864 C0.3515625,33.370864 0.0758272059,33.0951287 0.0758272059,32.7090993 L0.0758272059,32.433364 C0.0758272059,32.0473346 0.3515625,31.7715993 0.737591912,31.7715993 C1.12362132,31.7715993 1.39935662,32.0473346 1.39935662,32.433364 L1.39935662,32.7090993 C1.39935662,33.0951287 1.12362132,33.370864 0.737591912,33.370864 Z M41.7670037,33.370864 C41.3809743,33.370864 41.105239,33.0951287 41.105239,32.7090993 L41.105239,32.433364 C41.105239,32.0473346 41.3809743,31.7715993 41.7670037,31.7715993 C42.1530331,31.7715993 42.4287684,32.0473346 42.4287684,32.433364 L42.4287684,32.7090993 C42.4287684,33.0951287 42.097886,33.370864 41.7670037,33.370864 Z M0.737591912,31.495864 C0.3515625,31.495864 0.0758272059,31.2201287 0.0758272059,30.8340993 L0.0758272059,30.558364 C0.0758272059,30.1723346 0.3515625,29.8965993 0.737591912,29.8965993 C1.12362132,29.8965993 1.39935662,30.1723346 1.39935662,30.558364 L1.39935662,30.8340993 C1.39935662,31.2201287 1.12362132,31.495864 0.737591912,31.495864 Z M41.7670037,31.495864 C41.3809743,31.495864 41.105239,31.2201287 41.105239,30.8340993 L41.105239,30.558364 C41.105239,30.1723346 41.3809743,29.8965993 41.7670037,29.8965993 C42.1530331,29.8965993 42.4287684,30.1723346 42.4287684,30.558364 L42.4287684,30.8340993 C42.4287684,31.2201287 42.097886,31.495864 41.7670037,31.495864 Z M0.737591912,29.620864 C0.3515625,29.620864 0.0758272059,29.3451287 0.0758272059,28.9590993 L0.0758272059,28.683364 C0.0758272059,28.2973346 0.3515625,28.0215993 0.737591912,28.0215993 C1.12362132,28.0215993 1.39935662,28.2973346 1.39935662,28.683364 L1.39935662,28.9590993 C1.39935662,29.3451287 1.12362132,29.620864 0.737591912,29.620864 Z M41.7670037,29.620864 C41.3809743,29.620864 41.105239,29.3451287 41.105239,28.9590993 L41.105239,28.683364 C41.105239,28.2973346 41.3809743,28.0215993 41.7670037,28.0215993 C42.1530331,28.0215993 42.4287684,28.2973346 42.4287684,28.683364 L42.4287684,28.9590993 C42.4287684,29.3451287 42.097886,29.620864 41.7670037,29.620864 Z M0.737591912,27.745864 C0.3515625,27.745864 0.0758272059,27.4701287 0.0758272059,27.0840993 L0.0758272059,26.808364 C0.0758272059,26.4223346 0.3515625,26.1465993 0.737591912,26.1465993 C1.12362132,26.1465993 1.39935662,26.4223346 1.39935662,26.808364 L1.39935662,27.0840993 C1.39935662,27.4701287 1.12362132,27.745864 0.737591912,27.745864 Z M41.7670037,27.745864 C41.3809743,27.745864 41.105239,27.4701287 41.105239,27.0840993 L41.105239,26.808364 C41.105239,26.4223346 41.3809743,26.1465993 41.7670037,26.1465993 C42.1530331,26.1465993 42.4287684,26.4223346 42.4287684,26.808364 L42.4287684,27.0840993 C42.4287684,27.4701287 42.097886,27.745864 41.7670037,27.745864 Z M0.737591912,25.870864 C0.3515625,25.870864 0.0758272059,25.5951287 0.0758272059,25.2090993 L0.0758272059,24.933364 C0.0758272059,24.5473346 0.3515625,24.2715993 0.737591912,24.2715993 C1.12362132,24.2715993 1.39935662,24.5473346 1.39935662,24.933364 L1.39935662,25.2090993 C1.39935662,25.5951287 1.12362132,25.870864 0.737591912,25.870864 Z M41.7670037,25.870864 C41.3809743,25.870864 41.105239,25.5951287 41.105239,25.2090993 L41.105239,24.933364 C41.105239,24.5473346 41.3809743,24.2715993 41.7670037,24.2715993 C42.1530331,24.2715993 42.4287684,24.5473346 42.4287684,24.933364 L42.4287684,25.2090993 C42.4287684,25.5951287 42.097886,25.870864 41.7670037,25.870864 Z M0.737591912,23.995864 C0.3515625,23.995864 0.0758272059,23.7201287 0.0758272059,23.3340993 L0.0758272059,23.058364 C0.0758272059,22.6723346 0.3515625,22.3965993 0.737591912,22.3965993 C1.12362132,22.3965993 1.39935662,22.6723346 1.39935662,23.058364 L1.39935662,23.3340993 C1.39935662,23.7201287 1.12362132,23.995864 0.737591912,23.995864 Z M41.7670037,23.995864 C41.3809743,23.995864 41.105239,23.7201287 41.105239,23.3340993 L41.105239,23.058364 C41.105239,22.6723346 41.3809743,22.3965993 41.7670037,22.3965993 C42.1530331,22.3965993 42.4287684,22.6723346 42.4287684,23.058364 L42.4287684,23.3340993 C42.4287684,23.7201287 42.097886,23.995864 41.7670037,23.995864 Z M0.737591912,22.120864 C0.3515625,22.120864 0.0758272059,21.8451287 0.0758272059,21.4590993 L0.0758272059,21.183364 C0.0758272059,20.7973346 0.3515625,20.5215993 0.737591912,20.5215993 C1.12362132,20.5215993 1.39935662,20.7973346 1.39935662,21.183364 L1.39935662,21.4590993 C1.39935662,21.8451287 1.12362132,22.120864 0.737591912,22.120864 Z M41.7670037,22.120864 C41.3809743,22.120864 41.105239,21.8451287 41.105239,21.4590993 L41.105239,21.183364 C41.105239,20.7973346 41.3809743,20.5215993 41.7670037,20.5215993 C42.1530331,20.5215993 42.4287684,20.7973346 42.4287684,21.183364 L42.4287684,21.4590993 C42.4287684,21.8451287 42.097886,22.120864 41.7670037,22.120864 Z M0.737591912,20.245864 C0.3515625,20.245864 0.0758272059,19.9701287 0.0758272059,19.5840993 L0.0758272059,19.308364 C0.0758272059,18.9223346 0.3515625,18.6465993 0.737591912,18.6465993 C1.12362132,18.6465993 1.39935662,18.9223346 1.39935662,19.308364 L1.39935662,19.5840993 C1.39935662,19.9701287 1.12362132,20.245864 0.737591912,20.245864 Z M41.7670037,20.245864 C41.3809743,20.245864 41.105239,19.9701287 41.105239,19.5840993 L41.105239,19.308364 C41.105239,18.9223346 41.3809743,18.6465993 41.7670037,18.6465993 C42.1530331,18.6465993 42.4287684,18.9223346 42.4287684,19.308364 L42.4287684,19.5840993 C42.4287684,19.9701287 42.097886,20.245864 41.7670037,20.245864 Z M0.737591912,18.370864 C0.3515625,18.370864 0.0758272059,18.0951287 0.0758272059,17.7090993 L0.0758272059,17.433364 C0.0758272059,17.0473346 0.3515625,16.7715993 0.737591912,16.7715993 C1.12362132,16.7715993 1.39935662,17.0473346 1.39935662,17.433364 L1.39935662,17.7090993 C1.39935662,18.0951287 1.12362132,18.370864 0.737591912,18.370864 Z M41.7670037,18.370864 C41.3809743,18.370864 41.105239,18.0951287 41.105239,17.7090993 L41.105239,17.433364 C41.105239,17.0473346 41.3809743,16.7715993 41.7670037,16.7715993 C42.1530331,16.7715993 42.4287684,17.0473346 42.4287684,17.433364 L42.4287684,17.7090993 C42.4287684,18.0951287 42.097886,18.370864 41.7670037,18.370864 Z M0.737591912,16.495864 C0.3515625,16.495864 0.0758272059,16.2201287 0.0758272059,15.8340993 L0.0758272059,15.558364 C0.0758272059,15.1723346 0.3515625,14.8965993 0.737591912,14.8965993 C1.12362132,14.8965993 1.39935662,15.1723346 1.39935662,15.558364 L1.39935662,15.8340993 C1.39935662,16.2201287 1.12362132,16.495864 0.737591912,16.495864 Z M41.7670037,16.495864 C41.3809743,16.495864 41.105239,16.2201287 41.105239,15.8340993 L41.105239,15.558364 C41.105239,15.1723346 41.3809743,14.8965993 41.7670037,14.8965993 C42.1530331,14.8965993 42.4287684,15.1723346 42.4287684,15.558364 L42.4287684,15.8340993 C42.4287684,16.2201287 42.097886,16.495864 41.7670037,16.495864 Z M0.737591912,14.620864 C0.3515625,14.620864 0.0758272059,14.3451287 0.0758272059,13.9590993 L0.0758272059,13.683364 C0.0758272059,13.2973346 0.3515625,13.0215993 0.737591912,13.0215993 C1.12362132,13.0215993 1.39935662,13.2973346 1.39935662,13.683364 L1.39935662,13.9590993 C1.39935662,14.3451287 1.12362132,14.620864 0.737591912,14.620864 Z M41.7670037,14.620864 C41.3809743,14.620864 41.105239,14.3451287 41.105239,13.9590993 L41.105239,13.683364 C41.105239,13.2973346 41.3809743,13.0215993 41.7670037,13.0215993 C42.1530331,13.0215993 42.4287684,13.2973346 42.4287684,13.683364 L42.4287684,13.9590993 C42.4287684,14.3451287 42.097886,14.620864 41.7670037,14.620864 Z M0.737591912,12.745864 C0.3515625,12.745864 0.0758272059,12.4701287 0.0758272059,12.0840993 L0.0758272059,11.808364 C0.0758272059,11.4223346 0.3515625,11.1465993 0.737591912,11.1465993 C1.12362132,11.1465993 1.39935662,11.4223346 1.39935662,11.808364 L1.39935662,12.0840993 C1.39935662,12.4701287 1.12362132,12.745864 0.737591912,12.745864 Z M41.7670037,12.745864 C41.3809743,12.745864 41.105239,12.4701287 41.105239,12.0840993 L41.105239,11.808364 C41.105239,11.4223346 41.3809743,11.1465993 41.7670037,11.1465993 C42.1530331,11.1465993 42.4287684,11.4223346 42.4287684,11.808364 L42.4287684,12.0840993 C42.4287684,12.4701287 42.097886,12.745864 41.7670037,12.745864 Z M0.737591912,10.870864 C0.3515625,10.870864 0.0758272059,10.5951287 0.0758272059,10.2090993 L0.0758272059,9.93336397 C0.0758272059,9.54733456 0.3515625,9.27159926 0.737591912,9.27159926 C1.12362132,9.27159926 1.39935662,9.54733456 1.39935662,9.93336397 L1.39935662,10.2090993 C1.39935662,10.5951287 1.12362132,10.870864 0.737591912,10.870864 Z M41.7670037,10.870864 C41.3809743,10.870864 41.105239,10.5951287 41.105239,10.2090993 L41.105239,9.93336397 C41.105239,9.54733456 41.3809743,9.27159926 41.7670037,9.27159926 C42.1530331,9.27159926 42.4287684,9.54733456 42.4287684,9.93336397 L42.4287684,10.2090993 C42.4287684,10.5951287 42.097886,10.870864 41.7670037,10.870864 Z M0.737591912,8.99586397 C0.3515625,8.99586397 0.0758272059,8.72012868 0.0758272059,8.33409926 L0.0758272059,8.05836397 C0.0758272059,7.67233456 0.3515625,7.39659926 0.737591912,7.39659926 C1.12362132,7.39659926 1.39935662,7.67233456 1.39935662,8.05836397 L1.39935662,8.33409926 C1.39935662,8.72012868 1.12362132,8.99586397 0.737591912,8.99586397 Z M41.7670037,8.99586397 C41.3809743,8.99586397 41.105239,8.72012868 41.105239,8.33409926 L41.105239,8.05836397 C41.105239,7.67233456 41.3809743,7.39659926 41.7670037,7.39659926 C42.1530331,7.39659926 42.4287684,7.67233456 42.4287684,8.05836397 L42.4287684,8.33409926 C42.4287684,8.72012868 42.097886,8.99586397 41.7670037,8.99586397 Z M0.737591912,7.12086397 C0.3515625,7.12086397 0.0758272059,6.84512868 0.0758272059,6.45909926 L0.0758272059,6.18336397 C0.0758272059,5.79733456 0.3515625,5.52159926 0.737591912,5.52159926 C1.12362132,5.52159926 1.39935662,5.79733456 1.39935662,6.18336397 L1.39935662,6.45909926 C1.39935662,6.84512868 1.12362132,7.12086397 0.737591912,7.12086397 Z M41.7670037,7.12086397 C41.3809743,7.12086397 41.105239,6.84512868 41.105239,6.45909926 L41.105239,6.18336397 C41.105239,5.79733456 41.3809743,5.52159926 41.7670037,5.52159926 C42.1530331,5.52159926 42.4287684,5.79733456 42.4287684,6.18336397 L42.4287684,6.45909926 C42.4287684,6.84512868 42.097886,7.12086397 41.7670037,7.12086397 Z M0.737591912,5.24586397 C0.3515625,5.24586397 0.0758272059,4.97012868 0.0758272059,4.58409926 L0.0758272059,4.30836397 C0.0758272059,3.92233456 0.3515625,3.64659926 0.737591912,3.64659926 C1.12362132,3.64659926 1.39935662,3.92233456 1.39935662,4.30836397 L1.39935662,4.58409926 C1.39935662,4.97012868 1.12362132,5.24586397 0.737591912,5.24586397 Z M41.7670037,5.24586397 C41.3809743,5.24586397 41.105239,4.97012868 41.105239,4.58409926 L41.105239,4.30836397 C41.105239,3.92233456 41.3809743,3.64659926 41.7670037,3.64659926 C42.1530331,3.64659926 42.4287684,3.92233456 42.4287684,4.30836397 L42.4287684,4.58409926 C42.4287684,4.91498162 42.097886,5.24586397 41.7670037,5.24586397 Z M0.737591912,3.37086397 C0.3515625,3.37086397 0.0758272059,3.09512868 0.0758272059,2.70909926 L0.0758272059,2.43336397 C0.0758272059,2.04733456 0.3515625,1.77159926 0.737591912,1.77159926 C1.12362132,1.77159926 1.39935662,2.04733456 1.39935662,2.43336397 L1.39935662,2.70909926 C1.39935662,3.09512868 1.12362132,3.37086397 0.737591912,3.37086397 Z M41.7670037,3.37086397 C41.3809743,3.37086397 41.105239,3.09512868 41.105239,2.70909926 L41.105239,2.43336397 C41.105239,2.04733456 41.3809743,1.77159926 41.7670037,1.77159926 C42.1530331,1.77159926 42.4287684,2.04733456 42.4287684,2.43336397 L42.4287684,2.70909926 C42.4287684,3.03998162 42.097886,3.37086397 41.7670037,3.37086397 Z" id="形状"></path>
                <path d="M4.59788603,40.0436581 C4.43244485,40.0436581 4.26700368,39.988511 4.1015625,39.8230699 C3.82582721,39.5473346 3.88097426,39.1613051 4.1015625,38.8855699 L38.347886,6.18336397 C38.6236213,5.90762868 39.0096507,5.96277574 39.285386,6.18336397 C39.5611213,6.45909926 39.5059743,6.84512868 39.285386,7.12086397 L5.0390625,39.8230699 C4.92876838,39.988511 4.76332721,40.0436581 4.59788603,40.0436581 L4.59788603,40.0436581 Z M7.30009191,43.7936581 C7.13465074,43.7936581 6.96920956,43.738511 6.80376838,43.5730699 C6.52803309,43.2973346 6.58318015,42.9113051 6.80376838,42.6355699 L37.6861213,13.3524816 C37.9618566,13.0767463 38.347886,13.1318934 38.6236213,13.3524816 C38.8993566,13.6282169 38.8442096,14.0142463 38.6236213,14.2899816 L7.79641544,43.6282169 C7.63097426,43.738511 7.46553309,43.7936581 7.30009191,43.7936581 L7.30009191,43.7936581 Z" id="形状"></path>
            </g>
        </g>
    </g>
</svg>