<?xml version="1.0" encoding="UTF-8"?>
<svg width="62px" height="60px" viewBox="0 0 62 60" version="1.1" xmlns="http://www.w3.org/2000/svg" xmlns:xlink="http://www.w3.org/1999/xlink">
    <title>货车</title>
    <g id="2期" stroke="none" stroke-width="1" fill="none" fill-rule="evenodd">
        <g id="1.首页" transform="translate(-1082.000000, -3418.000000)" fill="#1CC2EB" fill-rule="nonzero">
            <g id="货车" transform="translate(1082.000000, 3418.000000)">
                <path d="M21.5223214,46.35 C21.39375,46.35 21.2651786,46.3071429 21.1794643,46.2214286 C20.9651786,46.0071429 20.9651786,45.7071429 21.1794643,45.4928571 L26.9651786,39.7071429 C27.1794643,39.4928571 27.4794643,39.4928571 27.69375,39.7071429 C27.9080357,39.9214286 27.9080357,40.2214286 27.69375,40.4357143 L21.9080357,46.2214286 C21.7794643,46.3071429 21.6508929,46.35 21.5223214,46.35 Z M24.5223214,46.35 C24.39375,46.35 24.2651786,46.3071429 24.1794643,46.2214286 C23.9651786,46.0071429 23.9651786,45.7071429 24.1794643,45.4928571 L29.9651786,39.7071429 C30.1794643,39.4928571 30.4794643,39.4928571 30.69375,39.7071429 C30.9080357,39.9214286 30.9080357,40.2214286 30.69375,40.4357143 L24.9080357,46.2214286 C24.7794643,46.3071429 24.6508929,46.35 24.5223214,46.35 L24.5223214,46.35 Z M33.5223214,46.35 C33.39375,46.35 33.2651786,46.3071429 33.1794643,46.2214286 C32.9651786,46.0071429 32.9651786,45.7071429 33.1794643,45.4928571 L38.9651786,39.7071429 C39.1794643,39.4928571 39.4794643,39.4928571 39.69375,39.7071429 C39.9080357,39.9214286 39.9080357,40.2214286 39.69375,40.4357143 L33.9080357,46.2214286 C33.8223214,46.3071429 33.69375,46.35 33.5223214,46.35 Z M39.5651786,46.35 C39.4366071,46.35 39.3080357,46.3071429 39.2223214,46.2214286 C39.0080357,46.0071429 39.0080357,45.7071429 39.2223214,45.4928571 L45.0080357,39.7071429 C45.2223214,39.4928571 45.5223214,39.4928571 45.7366071,39.7071429 C45.9508929,39.9214286 45.9508929,40.2214286 45.7366071,40.4357143 L39.9508929,46.2214286 C39.8223214,46.3071429 39.69375,46.35 39.5651786,46.35 Z M36.5651786,46.35 C36.4366071,46.35 36.3080357,46.3071429 36.2223214,46.2214286 C36.0080357,46.0071429 36.0080357,45.7071429 36.2223214,45.4928571 L42.0080357,39.7071429 C42.2223214,39.4928571 42.5223214,39.4928571 42.7366071,39.7071429 C42.9508929,39.9214286 42.9508929,40.2214286 42.7366071,40.4357143 L36.9508929,46.2214286 C36.8223214,46.3071429 36.69375,46.35 36.5651786,46.35 Z M30.5223214,46.35 C30.39375,46.35 30.2651786,46.3071429 30.1794643,46.2214286 C29.9651786,46.0071429 29.9651786,45.7071429 30.1794643,45.4928571 L35.9651786,39.7071429 C36.1794643,39.4928571 36.4794643,39.4928571 36.69375,39.7071429 C36.9080357,39.9214286 36.9080357,40.2214286 36.69375,40.4357143 L30.9080357,46.2214286 C30.7794643,46.3071429 30.6508929,46.35 30.5223214,46.35 Z M27.5223214,46.35 C27.39375,46.35 27.2651786,46.3071429 27.1794643,46.2214286 C26.9651786,46.0071429 26.9651786,45.7071429 27.1794643,45.4928571 L32.9651786,39.7071429 C33.1794643,39.4928571 33.4794643,39.4928571 33.69375,39.7071429 C33.9080357,39.9214286 33.9080357,40.2214286 33.69375,40.4357143 L27.9080357,46.2214286 C27.7794643,46.3071429 27.6508929,46.35 27.5223214,46.35 Z" id="形状"></path>
                <path d="M9.00803571,59.8928571 C6.99375,59.8928571 5.32232143,58.2214286 5.32232143,56.2071429 C5.32232143,54.1928571 6.99375,52.5214286 9.00803571,52.5214286 C11.0223214,52.5214286 12.69375,54.1928571 12.69375,56.2071429 C12.69375,58.2214286 11.0223214,59.8928571 9.00803571,59.8928571 Z M9.00803571,53.5071429 C7.55089286,53.5071429 6.35089286,54.7071429 6.35089286,56.1642857 C6.35089286,57.6214286 7.55089286,58.8214286 9.00803571,58.8214286 C10.4651786,58.8214286 11.6651786,57.6214286 11.6651786,56.1642857 C11.6651786,54.7071429 10.4651786,53.5071429 9.00803571,53.5071429 Z M24.7366071,59.8928571 C22.7223214,59.8928571 21.0508929,58.2214286 21.0508929,56.2071429 C21.0508929,54.1928571 22.7223214,52.5214286 24.7366071,52.5214286 C26.7508929,52.5214286 28.4223214,54.1928571 28.4223214,56.2071429 C28.4223214,58.2214286 26.7508929,59.8928571 24.7366071,59.8928571 Z M24.7366071,53.5071429 C23.2794643,53.5071429 22.0794643,54.7071429 22.0794643,56.1642857 C22.0794643,57.6214286 23.2794643,58.8214286 24.7366071,58.8214286 C26.19375,58.8214286 27.39375,57.6214286 27.39375,56.1642857 C27.39375,54.7071429 26.19375,53.5071429 24.7366071,53.5071429 Z" id="形状"></path>
                <path d="M24.7366071,57.9214286 C23.79375,57.9214286 23.0223214,57.15 23.0223214,56.2071429 C23.0223214,55.2642857 23.79375,54.4928571 24.7366071,54.4928571 C25.6794643,54.4928571 26.4508929,55.2642857 26.4508929,56.2071429 C26.4508929,57.15 25.6794643,57.9214286 24.7366071,57.9214286 Z M24.7366071,55.4785714 C24.3508929,55.4785714 24.0080357,55.8214286 24.0080357,56.2071429 C24.0080357,56.5928571 24.3508929,56.9357143 24.7366071,56.9357143 C25.1223214,56.9357143 25.4651786,56.5928571 25.4651786,56.2071429 C25.4223214,55.8214286 25.1223214,55.4785714 24.7366071,55.4785714 Z M9.00803571,57.9214286 C8.06517857,57.9214286 7.29375,57.15 7.29375,56.2071429 C7.29375,55.2642857 8.06517857,54.4928571 9.00803571,54.4928571 C9.95089286,54.4928571 10.7223214,55.2642857 10.7223214,56.2071429 C10.7223214,57.15 9.95089286,57.9214286 9.00803571,57.9214286 Z M9.00803571,55.4785714 C8.62232143,55.4785714 8.27946429,55.8214286 8.27946429,56.2071429 C8.27946429,56.5928571 8.62232143,56.9357143 9.00803571,56.9357143 C9.39375,56.9357143 9.73660714,56.5928571 9.73660714,56.2071429 C9.69375,55.8214286 9.39375,55.4785714 9.00803571,55.4785714 Z M44.9223214,57.9214286 C43.9794643,57.9214286 43.2080357,57.15 43.2080357,56.2071429 C43.2080357,55.2642857 43.9794643,54.4928571 44.9223214,54.4928571 C45.8651786,54.4928571 46.6366071,55.2642857 46.6366071,56.2071429 C46.6794643,57.15 45.9080357,57.9214286 44.9223214,57.9214286 Z M44.9223214,55.4785714 C44.5366071,55.4785714 44.19375,55.8214286 44.19375,56.2071429 C44.19375,56.5928571 44.5366071,56.9357143 44.9223214,56.9357143 C45.3080357,56.9357143 45.6508929,56.5928571 45.6508929,56.2071429 C45.6508929,55.8214286 45.3508929,55.4785714 44.9223214,55.4785714 Z M53.7080357,57.9214286 C52.7651786,57.9214286 51.99375,57.15 51.99375,56.2071429 C51.99375,55.2642857 52.7651786,54.4928571 53.7080357,54.4928571 C54.6508929,54.4928571 55.4223214,55.2642857 55.4223214,56.2071429 C55.4223214,57.15 54.6508929,57.9214286 53.7080357,57.9214286 Z M53.7080357,55.4785714 C53.3223214,55.4785714 52.9794643,55.8214286 52.9794643,56.2071429 C52.9794643,56.5928571 53.3223214,56.9357143 53.7080357,56.9357143 C54.09375,56.9357143 54.4366071,56.5928571 54.4366071,56.2071429 C54.4366071,55.8214286 54.09375,55.4785714 53.7080357,55.4785714 Z" id="形状"></path>
                <path d="M53.7080357,59.8928571 C51.69375,59.8928571 50.0223214,58.2214286 50.0223214,56.2071429 C50.0223214,54.1928571 51.69375,52.5214286 53.7080357,52.5214286 C55.7223214,52.5214286 57.39375,54.1928571 57.39375,56.2071429 C57.39375,58.2214286 55.7651786,59.8928571 53.7080357,59.8928571 Z M53.7080357,53.5071429 C52.2508929,53.5071429 51.0508929,54.7071429 51.0508929,56.1642857 C51.0508929,57.6214286 52.2508929,58.8214286 53.7080357,58.8214286 C55.1651786,58.8214286 56.3651786,57.6214286 56.3651786,56.1642857 C56.4080357,54.7071429 55.2080357,53.5071429 53.7080357,53.5071429 Z M44.9223214,59.8928571 C42.9080357,59.8928571 41.2366071,58.2214286 41.2366071,56.2071429 C41.2366071,54.1928571 42.9080357,52.5214286 44.9223214,52.5214286 C46.9366071,52.5214286 48.6080357,54.1928571 48.6080357,56.2071429 C48.6080357,58.2214286 46.9794643,59.8928571 44.9223214,59.8928571 Z M44.9223214,53.5071429 C43.4651786,53.5071429 42.2651786,54.7071429 42.2651786,56.1642857 C42.2651786,57.6214286 43.4651786,58.8214286 44.9223214,58.8214286 C46.3794643,58.8214286 47.5794643,57.6214286 47.5794643,56.1642857 C47.6223214,54.7071429 46.4223214,53.5071429 44.9223214,53.5071429 Z M5.79375,56.7214286 L1.59375,56.7214286 C1.29375,56.7214286 1.07946429,56.5071429 1.07946429,56.2071429 L1.07946429,54.4928571 C1.07946429,54.1928571 1.29375,53.9785714 1.59375,53.9785714 C1.89375,53.9785714 2.10803571,54.1928571 2.10803571,54.4928571 L2.10803571,55.6928571 L5.79375,55.6928571 C6.09375,55.6928571 6.30803571,55.9071429 6.30803571,56.2071429 C6.30803571,56.4642857 6.09375,56.7214286 5.79375,56.7214286 L5.79375,56.7214286 Z M1.59375,53.5071429 C1.29375,53.5071429 1.07946429,53.2928571 1.07946429,52.9928571 L1.07946429,50.4642857 C1.07946429,49.3071429 1.46517857,48.15 2.15089286,47.25 L7.07946429,40.6928571 C8.10803571,39.3642857 9.69375,38.55 11.3651786,38.55 L16.2508929,38.55 C16.5508929,38.55 16.7651786,38.7642857 16.7651786,39.0642857 L16.7651786,45.8785714 L18.0080357,45.8785714 C18.3080357,45.8785714 18.5223214,46.0928571 18.5223214,46.3928571 C18.5223214,46.6928571 18.3080357,46.9071429 18.0080357,46.9071429 L16.2508929,46.9071429 C15.9508929,46.9071429 15.7366071,46.6928571 15.7366071,46.3928571 L15.7366071,39.5785714 L11.4080357,39.5785714 C10.0366071,39.5785714 8.75089286,40.2214286 7.93660714,41.2928571 L3.00803571,47.8928571 C2.45089286,48.6214286 2.15089286,49.5642857 2.15089286,50.5071429 L2.15089286,53.0357143 C2.10803571,53.2928571 1.89375,53.5071429 1.59375,53.5071429 Z M16.3794643,56.7214286 L12.1794643,56.7214286 C11.8794643,56.7214286 11.6651786,56.5071429 11.6651786,56.2071429 C11.6651786,55.9071429 11.8794643,55.6928571 12.1794643,55.6928571 L15.8651786,55.6928571 L15.8651786,54.1928571 C15.8651786,53.8928571 16.0794643,53.6785714 16.3794643,53.6785714 L18.09375,53.6785714 C18.39375,53.6785714 18.6080357,53.8928571 18.6080357,54.1928571 C18.6080357,54.4928571 18.39375,54.7071429 18.09375,54.7071429 L16.89375,54.7071429 L16.89375,56.2071429 C16.89375,56.4642857 16.6366071,56.7214286 16.3794643,56.7214286 Z" id="形状"></path>
                <path d="M60.39375,56.7214286 L56.8794643,56.7214286 C56.5794643,56.7214286 56.3651786,56.5071429 56.3651786,56.2071429 C56.3651786,55.9071429 56.5794643,55.6928571 56.8794643,55.6928571 L59.8794643,55.6928571 L59.8794643,37.0928571 L18.5651786,37.0928571 L18.5651786,55.6928571 L21.5223214,55.6928571 C21.8223214,55.6928571 22.0366071,55.9071429 22.0366071,56.2071429 C22.0366071,56.5071429 21.8223214,56.7214286 21.5223214,56.7214286 L18.0508929,56.7214286 C17.7508929,56.7214286 17.5366071,56.5071429 17.5366071,56.2071429 L17.5366071,36.6214286 C17.5366071,36.3214286 17.7508929,36.1071429 18.0508929,36.1071429 L60.39375,36.1071429 C60.69375,36.1071429 60.9080357,36.3214286 60.9080357,36.6214286 L60.9080357,56.2071429 C60.9080357,56.4642857 60.69375,56.7214286 60.39375,56.7214286 Z" id="路径"></path>
                <path d="M50.5366071,56.7214286 L48.1366071,56.7214286 C47.8366071,56.7214286 47.6223214,56.5071429 47.6223214,56.2071429 C47.6223214,55.9071429 47.8366071,55.6928571 48.1366071,55.6928571 L50.5366071,55.6928571 C50.8366071,55.6928571 51.0508929,55.9071429 51.0508929,56.2071429 C51.0508929,56.4642857 50.79375,56.7214286 50.5366071,56.7214286 Z M41.7508929,56.7214286 L27.9080357,56.7214286 C27.6080357,56.7214286 27.39375,56.5071429 27.39375,56.2071429 C27.39375,55.9071429 27.6080357,55.6928571 27.9080357,55.6928571 L41.7508929,55.6928571 C42.0508929,55.6928571 42.2651786,55.9071429 42.2651786,56.2071429 C42.2651786,56.4642857 42.0508929,56.7214286 41.7508929,56.7214286 Z M4.07946429,54.9642857 L0.565178571,54.9642857 C0.265178571,54.9642857 0.0508928571,54.75 0.0508928571,54.45 L0.0508928571,53.0357143 C0.0508928571,52.7357143 0.265178571,52.5214286 0.565178571,52.5214286 L3.00803571,52.5214286 C3.30803571,52.5214286 3.52232143,52.7357143 3.52232143,53.0357143 C3.52232143,53.3357143 3.30803571,53.55 3.00803571,53.55 L1.07946429,53.55 L1.07946429,53.9785714 L4.07946429,53.9785714 C4.37946429,53.9785714 4.59375,54.1928571 4.59375,54.4928571 C4.59375,54.75 4.33660714,54.9642857 4.07946429,54.9642857 L4.07946429,54.9642857 Z" id="形状"></path>
                <path d="M14.3651786,48.75 L4.55089286,48.75 C4.37946429,48.75 4.16517857,48.6214286 4.07946429,48.45 C3.99375,48.2785714 3.99375,48.0642857 4.12232143,47.9357143 L8.66517857,41.8928571 C9.30803571,41.0357143 10.3366071,40.5214286 11.4080357,40.5214286 L14.3651786,40.5214286 C14.6651786,40.5214286 14.8794643,40.7357143 14.8794643,41.0357143 L14.8794643,48.2357143 C14.8366071,48.4928571 14.6223214,48.75 14.3651786,48.75 L14.3651786,48.75 Z M5.57946429,47.7214286 L13.8508929,47.7214286 L13.8508929,41.55 L11.4080357,41.55 C10.6794643,41.55 9.95089286,41.8928571 9.47946429,42.4928571 L5.57946429,47.7214286 L5.57946429,47.7214286 Z" id="形状"></path>
                <path d="M16.29375,54.7071429 C15.99375,54.7071429 15.7794643,54.4928571 15.7794643,54.1928571 L15.7794643,46.3928571 C15.7794643,46.0928571 15.99375,45.8785714 16.29375,45.8785714 C16.59375,45.8785714 16.8080357,46.0928571 16.8080357,46.3928571 L16.8080357,54.1928571 C16.8080357,54.45 16.59375,54.7071429 16.29375,54.7071429 Z M58.6794643,39.6214286 C58.3794643,39.6214286 58.1651786,39.4071429 58.1651786,39.1071429 L58.1651786,39.0214286 C58.1651786,38.7214286 58.3794643,38.5071429 58.6794643,38.5071429 C58.9794643,38.5071429 59.19375,38.7214286 59.19375,39.0214286 L59.19375,39.1071429 C59.19375,39.4071429 58.9366071,39.6214286 58.6794643,39.6214286 Z M58.6794643,52.9071429 C58.3794643,52.9071429 58.1651786,52.6928571 58.1651786,52.3928571 L58.1651786,52.1785714 C58.1651786,51.8785714 58.3794643,51.6642857 58.6794643,51.6642857 C58.9794643,51.6642857 59.19375,51.8785714 59.19375,52.1785714 L59.19375,52.3928571 C59.19375,52.6928571 58.9366071,52.9071429 58.6794643,52.9071429 Z M58.6794643,51.45 C58.3794643,51.45 58.1651786,51.2357143 58.1651786,50.9357143 L58.1651786,50.7214286 C58.1651786,50.4214286 58.3794643,50.2071429 58.6794643,50.2071429 C58.9794643,50.2071429 59.19375,50.4214286 59.19375,50.7214286 L59.19375,50.9357143 C59.19375,51.1928571 58.9366071,51.45 58.6794643,51.45 Z M58.6794643,49.95 C58.3794643,49.95 58.1651786,49.7357143 58.1651786,49.4357143 L58.1651786,49.2214286 C58.1651786,48.9214286 58.3794643,48.7071429 58.6794643,48.7071429 C58.9794643,48.7071429 59.19375,48.9214286 59.19375,49.2214286 L59.19375,49.4357143 C59.19375,49.7357143 58.9366071,49.95 58.6794643,49.95 Z M58.6794643,48.4928571 C58.3794643,48.4928571 58.1651786,48.2785714 58.1651786,47.9785714 L58.1651786,47.7642857 C58.1651786,47.4642857 58.3794643,47.25 58.6794643,47.25 C58.9794643,47.25 59.19375,47.4642857 59.19375,47.7642857 L59.19375,47.9785714 C59.19375,48.2785714 58.9366071,48.4928571 58.6794643,48.4928571 Z M58.6794643,46.9928571 C58.3794643,46.9928571 58.1651786,46.7785714 58.1651786,46.4785714 L58.1651786,46.2642857 C58.1651786,45.9642857 58.3794643,45.75 58.6794643,45.75 C58.9794643,45.75 59.19375,45.9642857 59.19375,46.2642857 L59.19375,46.4785714 C59.19375,46.7785714 58.9366071,46.9928571 58.6794643,46.9928571 Z M58.6794643,45.5357143 C58.3794643,45.5357143 58.1651786,45.3214286 58.1651786,45.0214286 L58.1651786,44.8071429 C58.1651786,44.5071429 58.3794643,44.2928571 58.6794643,44.2928571 C58.9794643,44.2928571 59.19375,44.5071429 59.19375,44.8071429 L59.19375,45.0214286 C59.19375,45.3214286 58.9366071,45.5357143 58.6794643,45.5357143 Z M58.6794643,44.0785714 C58.3794643,44.0785714 58.1651786,43.8642857 58.1651786,43.5642857 L58.1651786,43.35 C58.1651786,43.05 58.3794643,42.8357143 58.6794643,42.8357143 C58.9794643,42.8357143 59.19375,43.05 59.19375,43.35 L59.19375,43.5642857 C59.19375,43.8214286 58.9366071,44.0785714 58.6794643,44.0785714 Z M58.6794643,42.5785714 C58.3794643,42.5785714 58.1651786,42.3642857 58.1651786,42.0642857 L58.1651786,41.8928571 C58.1651786,41.5928571 58.3794643,41.3785714 58.6794643,41.3785714 C58.9794643,41.3785714 59.19375,41.5928571 59.19375,41.8928571 L59.19375,42.1071429 C59.19375,42.3642857 58.9366071,42.5785714 58.6794643,42.5785714 L58.6794643,42.5785714 Z M58.6794643,41.1214286 C58.3794643,41.1214286 58.1651786,40.9071429 58.1651786,40.6071429 L58.1651786,40.3928571 C58.1651786,40.0928571 58.3794643,39.8785714 58.6794643,39.8785714 C58.9794643,39.8785714 59.19375,40.0928571 59.19375,40.3928571 L59.19375,40.6071429 C59.19375,40.8642857 58.9366071,41.1214286 58.6794643,41.1214286 Z M58.6794643,54.2785714 C58.3794643,54.2785714 58.1651786,54.0642857 58.1651786,53.7642857 L58.1651786,53.6785714 C58.1651786,53.3785714 58.3794643,53.1642857 58.6794643,53.1642857 C58.9794643,53.1642857 59.19375,53.3785714 59.19375,53.6785714 L59.19375,53.7642857 C59.19375,54.0642857 58.9366071,54.2785714 58.6794643,54.2785714 Z" id="形状"></path>
                <path d="M40.4651786,10.35 C40.3366071,10.35 40.2080357,10.3071429 40.1223214,10.2214286 L34.3366071,4.39285714 C34.1223214,4.17857143 34.1223214,3.87857143 34.3366071,3.66428571 C34.5508929,3.45 34.8508929,3.45 35.0651786,3.66428571 L40.8508929,9.45 C41.0651786,9.66428571 41.0651786,9.96428571 40.8508929,10.1785714 C40.7651786,10.3071429 40.6366071,10.35 40.4651786,10.35 Z M37.4651786,10.35 C37.3366071,10.35 37.2080357,10.3071429 37.1223214,10.2214286 L31.3366071,4.39285714 C31.1223214,4.17857143 31.1223214,3.87857143 31.3366071,3.66428571 C31.5508929,3.45 31.8508929,3.45 32.0651786,3.66428571 L37.8508929,9.45 C38.0651786,9.66428571 38.0651786,9.96428571 37.8508929,10.1785714 C37.7223214,10.3071429 37.59375,10.35 37.4651786,10.35 Z M28.4651786,10.35 C28.3366071,10.35 28.2080357,10.3071429 28.1223214,10.2214286 L22.29375,4.39285714 C22.0794643,4.17857143 22.0794643,3.87857143 22.29375,3.66428571 C22.5080357,3.45 22.8080357,3.45 23.0223214,3.66428571 L28.8080357,9.49285714 C29.0223214,9.70714286 29.0223214,10.0071429 28.8080357,10.2214286 C28.7223214,10.3071429 28.59375,10.35 28.4651786,10.35 L28.4651786,10.35 Z M22.4651786,10.35 C22.3366071,10.35 22.2080357,10.3071429 22.1223214,10.2214286 L16.29375,4.39285714 C16.0794643,4.17857143 16.0794643,3.87857143 16.29375,3.66428571 C16.5080357,3.45 16.8080357,3.45 17.0223214,3.66428571 L22.8080357,9.49285714 C23.0223214,9.70714286 23.0223214,10.0071429 22.8080357,10.2214286 C22.7223214,10.3071429 22.59375,10.35 22.4651786,10.35 L22.4651786,10.35 Z M25.4651786,10.35 C25.3366071,10.35 25.2080357,10.3071429 25.1223214,10.2214286 L19.29375,4.39285714 C19.0794643,4.17857143 19.0794643,3.87857143 19.29375,3.66428571 C19.5080357,3.45 19.8080357,3.45 20.0223214,3.66428571 L25.8080357,9.49285714 C26.0223214,9.70714286 26.0223214,10.0071429 25.8080357,10.2214286 C25.7223214,10.3071429 25.59375,10.35 25.4651786,10.35 L25.4651786,10.35 Z M31.4651786,10.35 C31.3366071,10.35 31.2080357,10.3071429 31.1223214,10.2214286 L25.29375,4.39285714 C25.0794643,4.17857143 25.0794643,3.87857143 25.29375,3.66428571 C25.5080357,3.45 25.8080357,3.45 26.0223214,3.66428571 L31.8080357,9.49285714 C32.0223214,9.70714286 32.0223214,10.0071429 31.8080357,10.2214286 C31.7223214,10.3071429 31.59375,10.35 31.4651786,10.35 L31.4651786,10.35 Z M34.4651786,10.35 C34.3366071,10.35 34.2080357,10.3071429 34.1223214,10.2214286 L28.29375,4.39285714 C28.0794643,4.17857143 28.0794643,3.87857143 28.29375,3.66428571 C28.5080357,3.45 28.8080357,3.45 29.0223214,3.66428571 L34.8080357,9.45 C35.0223214,9.66428571 35.0223214,9.96428571 34.8080357,10.1785714 C34.7223214,10.3071429 34.59375,10.35 34.4651786,10.35 Z" id="形状"></path>
                <path d="M53.0223214,23.8928571 C51.0080357,23.8928571 49.3366071,22.2214286 49.3366071,20.2071429 C49.3366071,18.1928571 51.0080357,16.5214286 53.0223214,16.5214286 C55.0366071,16.5214286 56.7080357,18.1928571 56.7080357,20.2071429 C56.7080357,22.2214286 55.0366071,23.8928571 53.0223214,23.8928571 Z M53.0223214,17.5071429 C51.5651786,17.5071429 50.3651786,18.7071429 50.3651786,20.1642857 C50.3651786,21.6214286 51.5651786,22.8214286 53.0223214,22.8214286 C54.4794643,22.8214286 55.6794643,21.6214286 55.6794643,20.1642857 C55.6794643,18.7071429 54.4794643,17.5071429 53.0223214,17.5071429 Z M37.29375,23.8928571 C35.2794643,23.8928571 33.6080357,22.2214286 33.6080357,20.2071429 C33.6080357,18.1928571 35.2794643,16.5214286 37.29375,16.5214286 C39.3080357,16.5214286 40.9794643,18.1928571 40.9794643,20.2071429 C40.9794643,22.2214286 39.3080357,23.8928571 37.29375,23.8928571 Z M37.29375,17.5071429 C35.8366071,17.5071429 34.6366071,18.7071429 34.6366071,20.1642857 C34.6366071,21.6214286 35.8366071,22.8214286 37.29375,22.8214286 C38.7508929,22.8214286 39.9508929,21.6214286 39.9508929,20.1642857 C39.9508929,18.7071429 38.7508929,17.5071429 37.29375,17.5071429 Z" id="形状"></path>
                <path d="M37.29375,21.9214286 C36.3508929,21.9214286 35.5794643,21.15 35.5794643,20.2071429 C35.5794643,19.2642857 36.3508929,18.4928571 37.29375,18.4928571 C38.2366071,18.4928571 39.0080357,19.2642857 39.0080357,20.2071429 C39.0080357,21.15 38.2366071,21.9214286 37.29375,21.9214286 Z M37.29375,19.4785714 C36.9080357,19.4785714 36.5651786,19.8214286 36.5651786,20.2071429 C36.5651786,20.5928571 36.9080357,20.9357143 37.29375,20.9357143 C37.6794643,20.9357143 38.0223214,20.5928571 38.0223214,20.2071429 C38.0223214,19.8214286 37.6794643,19.4785714 37.29375,19.4785714 Z M53.0223214,21.9214286 C52.0794643,21.9214286 51.3080357,21.15 51.3080357,20.2071429 C51.3080357,19.2642857 52.0794643,18.4928571 53.0223214,18.4928571 C53.9651786,18.4928571 54.7366071,19.2642857 54.7366071,20.2071429 C54.7366071,21.15 53.9651786,21.9214286 53.0223214,21.9214286 Z M53.0223214,19.4785714 C52.6366071,19.4785714 52.29375,19.8214286 52.29375,20.2071429 C52.29375,20.5928571 52.6366071,20.9357143 53.0223214,20.9357143 C53.4080357,20.9357143 53.7508929,20.5928571 53.7508929,20.2071429 C53.7508929,19.8214286 53.4080357,19.4785714 53.0223214,19.4785714 Z M17.0651786,21.9214286 C16.1223214,21.9214286 15.3508929,21.15 15.3508929,20.2071429 C15.3508929,19.2642857 16.1223214,18.4928571 17.0651786,18.4928571 C18.0080357,18.4928571 18.7794643,19.2642857 18.7794643,20.2071429 C18.7794643,21.15 18.0080357,21.9214286 17.0651786,21.9214286 Z M17.0651786,19.4785714 C16.6794643,19.4785714 16.3366071,19.8214286 16.3366071,20.2071429 C16.3366071,20.5928571 16.6794643,20.9357143 17.0651786,20.9357143 C17.4508929,20.9357143 17.79375,20.5928571 17.79375,20.2071429 C17.79375,19.8214286 17.4508929,19.4785714 17.0651786,19.4785714 Z M8.27946429,21.9214286 C7.33660714,21.9214286 6.56517857,21.15 6.56517857,20.2071429 C6.56517857,19.2642857 7.33660714,18.4928571 8.27946429,18.4928571 C9.22232143,18.4928571 9.99375,19.2642857 9.99375,20.2071429 C9.99375,21.15 9.26517857,21.9214286 8.27946429,21.9214286 Z M8.27946429,19.4785714 C7.89375,19.4785714 7.55089286,19.8214286 7.55089286,20.2071429 C7.55089286,20.5928571 7.89375,20.9357143 8.27946429,20.9357143 C8.66517857,20.9357143 9.00803571,20.5928571 9.00803571,20.2071429 C9.00803571,19.8214286 8.70803571,19.4785714 8.27946429,19.4785714 Z" id="形状"></path>
                <path d="M8.27946429,23.8928571 C6.26517857,23.8928571 4.59375,22.2214286 4.59375,20.2071429 C4.59375,18.1928571 6.26517857,16.5214286 8.27946429,16.5214286 C10.29375,16.5214286 11.9651786,18.1928571 11.9651786,20.2071429 C11.9651786,22.2214286 10.3366071,23.8928571 8.27946429,23.8928571 Z M8.27946429,17.5071429 C6.82232143,17.5071429 5.62232143,18.7071429 5.62232143,20.1642857 C5.62232143,21.6214286 6.82232143,22.8214286 8.27946429,22.8214286 C9.73660714,22.8214286 10.9366071,21.6214286 10.9366071,20.1642857 C10.9366071,18.7071429 9.77946429,17.5071429 8.27946429,17.5071429 Z M17.0651786,23.8928571 C15.0508929,23.8928571 13.3794643,22.2214286 13.3794643,20.2071429 C13.3794643,18.1928571 15.0508929,16.5214286 17.0651786,16.5214286 C19.0794643,16.5214286 20.7508929,18.1928571 20.7508929,20.2071429 C20.7508929,22.2214286 19.1223214,23.8928571 17.0651786,23.8928571 Z M17.0651786,17.5071429 C15.6080357,17.5071429 14.4080357,18.7071429 14.4080357,20.1642857 C14.4080357,21.6214286 15.6080357,22.8214286 17.0651786,22.8214286 C18.5223214,22.8214286 19.7223214,21.6214286 19.7223214,20.1642857 C19.7223214,18.7071429 18.5651786,17.5071429 17.0651786,17.5071429 Z M60.39375,20.6785714 L56.19375,20.6785714 C55.89375,20.6785714 55.6794643,20.4642857 55.6794643,20.1642857 C55.6794643,19.8642857 55.89375,19.65 56.19375,19.65 L59.8794643,19.65 L59.8794643,18.45 C59.8794643,18.15 60.09375,17.9357143 60.39375,17.9357143 C60.69375,17.9357143 60.9080357,18.15 60.9080357,18.45 L60.9080357,20.1642857 C60.9080357,20.4642857 60.69375,20.6785714 60.39375,20.6785714 L60.39375,20.6785714 Z M60.39375,17.5071429 C60.09375,17.5071429 59.8794643,17.2928571 59.8794643,16.9928571 L59.8794643,14.4642857 C59.8794643,13.5214286 59.5794643,12.5785714 59.0223214,11.85 L54.09375,5.33571429 C53.2794643,4.26428571 51.99375,3.62142857 50.6223214,3.62142857 L46.2080357,3.62142857 L46.2080357,10.4357143 C46.2080357,10.7357143 45.99375,10.95 45.69375,10.95 L43.9366071,10.95 C43.6366071,10.95 43.4223214,10.7357143 43.4223214,10.4357143 C43.4223214,10.1357143 43.6366071,9.92142857 43.9366071,9.92142857 L45.1794643,9.92142857 L45.1794643,3.06428571 C45.1794643,2.76428571 45.39375,2.55 45.69375,2.55 L50.5794643,2.55 C52.2508929,2.55 53.8794643,3.36428571 54.8651786,4.69285714 L59.79375,11.25 C60.4794643,12.1928571 60.8651786,13.3071429 60.8651786,14.4642857 L60.8651786,16.9928571 C60.9080357,17.2928571 60.69375,17.5071429 60.39375,17.5071429 Z M49.8508929,20.6785714 L45.6508929,20.6785714 C45.3508929,20.6785714 45.1366071,20.4642857 45.1366071,20.1642857 L45.1366071,18.6642857 L43.9366071,18.6642857 C43.6366071,18.6642857 43.4223214,18.45 43.4223214,18.15 C43.4223214,17.85 43.6366071,17.6357143 43.9366071,17.6357143 L45.6508929,17.6357143 C45.9508929,17.6357143 46.1651786,17.85 46.1651786,18.15 L46.1651786,19.65 L49.8508929,19.65 C50.1508929,19.65 50.3651786,19.8642857 50.3651786,20.1642857 C50.3651786,20.4642857 50.1080357,20.6785714 49.8508929,20.6785714 Z" id="形状"></path>
                <path d="M43.9366071,20.6785714 L40.4651786,20.6785714 C40.1651786,20.6785714 39.9508929,20.4642857 39.9508929,20.1642857 C39.9508929,19.8642857 40.1651786,19.65 40.4651786,19.65 L43.4223214,19.65 L43.4223214,1.09285714 L2.10803571,1.09285714 L2.10803571,19.6928571 L5.10803571,19.6928571 C5.40803571,19.6928571 5.62232143,19.9071429 5.62232143,20.2071429 C5.62232143,20.5071429 5.40803571,20.7214286 5.10803571,20.7214286 L1.59375,20.7214286 C1.29375,20.7214286 1.07946429,20.5071429 1.07946429,20.2071429 L1.07946429,0.578571429 C1.07946429,0.278571429 1.29375,0.0642857143 1.59375,0.0642857143 L43.9366071,0.0642857143 C44.2366071,0.0642857143 44.4508929,0.278571429 44.4508929,0.578571429 L44.4508929,20.1642857 C44.4508929,20.4642857 44.2366071,20.6785714 43.9366071,20.6785714 Z" id="路径"></path>
                <path d="M13.89375,20.6785714 L11.49375,20.6785714 C11.19375,20.6785714 10.9794643,20.4642857 10.9794643,20.1642857 C10.9794643,19.8642857 11.19375,19.65 11.49375,19.65 L13.89375,19.65 C14.19375,19.65 14.4080357,19.8642857 14.4080357,20.1642857 C14.4080357,20.4642857 14.1508929,20.6785714 13.89375,20.6785714 Z M34.0794643,20.6785714 L20.2366071,20.6785714 C19.9366071,20.6785714 19.7223214,20.4642857 19.7223214,20.1642857 C19.7223214,19.8642857 19.9366071,19.65 20.2366071,19.65 L34.0794643,19.65 C34.3794643,19.65 34.59375,19.8642857 34.59375,20.1642857 C34.59375,20.4642857 34.3794643,20.6785714 34.0794643,20.6785714 Z M61.4223214,18.9642857 L57.9508929,18.9642857 C57.6508929,18.9642857 57.4366071,18.75 57.4366071,18.45 C57.4366071,18.15 57.6508929,17.9357143 57.9508929,17.9357143 L60.9508929,17.9357143 L60.9508929,17.5071429 L59.0223214,17.5071429 C58.7223214,17.5071429 58.5080357,17.2928571 58.5080357,16.9928571 C58.5080357,16.6928571 58.7223214,16.4785714 59.0223214,16.4785714 L61.4651786,16.4785714 C61.7651786,16.4785714 61.9794643,16.6928571 61.9794643,16.9928571 L61.9794643,18.45 C61.9366071,18.75 61.7223214,18.9642857 61.4223214,18.9642857 L61.4223214,18.9642857 Z" id="形状"></path>
                <path d="M57.4366071,12.75 L47.6651786,12.75 C47.3651786,12.75 47.1508929,12.5357143 47.1508929,12.2357143 L47.1508929,5.03571429 C47.1508929,4.73571429 47.3651786,4.52142857 47.6651786,4.52142857 L50.6223214,4.52142857 C51.69375,4.52142857 52.7223214,5.03571429 53.3651786,5.89285714 L57.9080357,11.9357143 C58.0366071,12.1071429 58.0366071,12.2785714 57.9508929,12.45 C57.8223214,12.6214286 57.6508929,12.75 57.4366071,12.75 Z M48.1794643,11.7214286 L56.4508929,11.7214286 L52.5080357,6.49285714 C52.0366071,5.89285714 51.3508929,5.55 50.5794643,5.55 L48.1366071,5.55 L48.1366071,11.7214286 L48.1794643,11.7214286 Z" id="形状"></path>
                <path d="M45.69375,18.6642857 C45.39375,18.6642857 45.1794643,18.45 45.1794643,18.15 L45.1794643,10.3928571 C45.1794643,10.0928571 45.39375,9.87857143 45.69375,9.87857143 C45.99375,9.87857143 46.2080357,10.0928571 46.2080357,10.3928571 L46.2080357,18.1928571 C46.2080357,18.45 45.99375,18.6642857 45.69375,18.6642857 Z" id="路径"></path>
                <path d="M3.35089286,3.62142857 C3.05089286,3.62142857 2.83660714,3.40714286 2.83660714,3.10714286 L2.83660714,3.02142857 C2.83660714,2.72142857 3.05089286,2.50714286 3.35089286,2.50714286 C3.65089286,2.50714286 3.86517857,2.72142857 3.86517857,3.02142857 L3.86517857,3.10714286 C3.82232143,3.40714286 3.60803571,3.62142857 3.35089286,3.62142857 L3.35089286,3.62142857 Z M3.35089286,16.9071429 C3.05089286,16.9071429 2.83660714,16.6928571 2.83660714,16.3928571 L2.83660714,16.1785714 C2.83660714,15.8785714 3.05089286,15.6642857 3.35089286,15.6642857 C3.65089286,15.6642857 3.86517857,15.8785714 3.86517857,16.1785714 L3.86517857,16.3928571 C3.82232143,16.6928571 3.60803571,16.9071429 3.35089286,16.9071429 L3.35089286,16.9071429 Z M3.35089286,15.45 C3.05089286,15.45 2.83660714,15.2357143 2.83660714,14.9357143 L2.83660714,14.7214286 C2.83660714,14.4214286 3.05089286,14.2071429 3.35089286,14.2071429 C3.65089286,14.2071429 3.86517857,14.4214286 3.86517857,14.7214286 L3.86517857,14.9357143 C3.82232143,15.1928571 3.60803571,15.45 3.35089286,15.45 L3.35089286,15.45 Z M3.35089286,13.95 C3.05089286,13.95 2.83660714,13.7357143 2.83660714,13.4357143 L2.83660714,13.2214286 C2.83660714,12.9214286 3.05089286,12.7071429 3.35089286,12.7071429 C3.65089286,12.7071429 3.86517857,12.9214286 3.86517857,13.2214286 L3.86517857,13.4357143 C3.82232143,13.7357143 3.60803571,13.95 3.35089286,13.95 L3.35089286,13.95 Z M3.35089286,12.4928571 C3.05089286,12.4928571 2.83660714,12.2785714 2.83660714,11.9785714 L2.83660714,11.7642857 C2.83660714,11.4642857 3.05089286,11.25 3.35089286,11.25 C3.65089286,11.25 3.86517857,11.4642857 3.86517857,11.7642857 L3.86517857,11.9785714 C3.82232143,12.2357143 3.60803571,12.4928571 3.35089286,12.4928571 L3.35089286,12.4928571 Z M3.35089286,10.9928571 C3.05089286,10.9928571 2.83660714,10.7785714 2.83660714,10.4785714 L2.83660714,10.2642857 C2.83660714,9.96428571 3.05089286,9.75 3.35089286,9.75 C3.65089286,9.75 3.86517857,9.96428571 3.86517857,10.2642857 L3.86517857,10.4785714 C3.82232143,10.7785714 3.60803571,10.9928571 3.35089286,10.9928571 L3.35089286,10.9928571 Z M3.35089286,9.53571429 C3.05089286,9.53571429 2.83660714,9.32142857 2.83660714,9.02142857 L2.83660714,8.80714286 C2.83660714,8.50714286 3.05089286,8.29285714 3.35089286,8.29285714 C3.65089286,8.29285714 3.86517857,8.50714286 3.86517857,8.80714286 L3.86517857,9.02142857 C3.82232143,9.32142857 3.60803571,9.53571429 3.35089286,9.53571429 L3.35089286,9.53571429 Z M3.35089286,8.03571429 C3.05089286,8.03571429 2.83660714,7.82142857 2.83660714,7.52142857 L2.83660714,7.30714286 C2.83660714,7.00714286 3.05089286,6.79285714 3.35089286,6.79285714 C3.65089286,6.79285714 3.86517857,7.00714286 3.86517857,7.30714286 L3.86517857,7.52142857 C3.82232143,7.82142857 3.60803571,8.03571429 3.35089286,8.03571429 L3.35089286,8.03571429 Z M3.35089286,6.57857143 C3.05089286,6.57857143 2.83660714,6.36428571 2.83660714,6.06428571 L2.83660714,5.85 C2.83660714,5.55 3.05089286,5.33571429 3.35089286,5.33571429 C3.65089286,5.33571429 3.86517857,5.55 3.86517857,5.85 L3.86517857,6.06428571 C3.82232143,6.36428571 3.60803571,6.57857143 3.35089286,6.57857143 L3.35089286,6.57857143 Z M3.35089286,5.07857143 C3.05089286,5.07857143 2.83660714,4.86428571 2.83660714,4.56428571 L2.83660714,4.35 C2.83660714,4.05 3.05089286,3.83571429 3.35089286,3.83571429 C3.65089286,3.83571429 3.86517857,4.05 3.86517857,4.35 L3.86517857,4.60714286 C3.82232143,4.86428571 3.60803571,5.07857143 3.35089286,5.07857143 L3.35089286,5.07857143 Z M3.35089286,18.2785714 C3.05089286,18.2785714 2.83660714,18.0642857 2.83660714,17.7642857 L2.83660714,17.6785714 C2.83660714,17.3785714 3.05089286,17.1642857 3.35089286,17.1642857 C3.65089286,17.1642857 3.86517857,17.3785714 3.86517857,17.6785714 L3.86517857,17.7642857 C3.82232143,18.0642857 3.60803571,18.2785714 3.35089286,18.2785714 L3.35089286,18.2785714 Z" id="形状"></path>
                <path d="M26.1080357,30.4928571 L18.2651786,30.4928571 C17.9651786,30.4928571 17.7508929,30.2785714 17.7508929,29.9785714 C17.7508929,29.6785714 17.9651786,29.4642857 18.2651786,29.4642857 L26.1080357,29.4642857 C26.4080357,29.4642857 26.6223214,29.6785714 26.6223214,29.9785714 C26.6223214,30.2785714 26.3651786,30.4928571 26.1080357,30.4928571 Z M35.9223214,30.4928571 C35.6223214,30.4928571 35.4080357,30.2785714 35.4080357,29.9785714 C35.4080357,29.6785714 35.6223214,29.4642857 35.9223214,29.4642857 L43.7651786,29.4642857 C44.0651786,29.4642857 44.2794643,29.6785714 44.2794643,29.9785714 C44.2794643,30.2785714 44.0651786,30.4928571 43.7651786,30.4928571 L35.9223214,30.4928571 Z" id="形状"></path>
                <path d="M18.3080357,32.9357143 C18.1794643,32.9357143 18.0508929,32.8928571 17.9651786,32.8071429 L15.5223214,30.3642857 C15.4366071,30.2785714 15.39375,30.15 15.39375,30.0214286 C15.39375,29.8928571 15.4366071,29.7642857 15.5223214,29.6785714 L17.9651786,27.2357143 C18.1794643,27.0214286 18.4794643,27.0214286 18.69375,27.2357143 C18.9080357,27.45 18.9080357,27.75 18.69375,27.9642857 L16.59375,30.0642857 L18.69375,32.1642857 C18.9080357,32.3785714 18.9080357,32.6785714 18.69375,32.8928571 C18.5651786,32.8928571 18.4366071,32.9357143 18.3080357,32.9357143 L18.3080357,32.9357143 Z" id="路径"></path>
                <path d="M15.8651786,32.9357143 C15.7366071,32.9357143 15.6080357,32.8928571 15.5223214,32.8071429 L13.0794643,30.3642857 C12.99375,30.2785714 12.9508929,30.15 12.9508929,30.0214286 C12.9508929,29.8928571 12.99375,29.7642857 13.0794643,29.6785714 L15.5223214,27.2357143 C15.7366071,27.0214286 16.0366071,27.0214286 16.2508929,27.2357143 C16.4651786,27.45 16.4651786,27.75 16.2508929,27.9642857 L14.1508929,30.0642857 L16.2508929,32.1642857 C16.4651786,32.3785714 16.4651786,32.6785714 16.2508929,32.8928571 C16.1223214,32.8928571 15.99375,32.9357143 15.8651786,32.9357143 Z M20.7080357,32.9357143 C20.5794643,32.9357143 20.4508929,32.8928571 20.3651786,32.8071429 L17.9223214,30.3642857 C17.8366071,30.2785714 17.79375,30.15 17.79375,30.0214286 C17.79375,29.8928571 17.8366071,29.7642857 17.9223214,29.6785714 L20.3651786,27.2357143 C20.5794643,27.0214286 20.8794643,27.0214286 21.09375,27.2357143 C21.3080357,27.45 21.3080357,27.75 21.09375,27.9642857 L18.99375,30.0642857 L21.09375,32.1642857 C21.3080357,32.3785714 21.3080357,32.6785714 21.09375,32.8928571 C20.9651786,32.8928571 20.8366071,32.9357143 20.7080357,32.9357143 Z M43.7651786,32.7642857 C43.6366071,32.7642857 43.5080357,32.7214286 43.4223214,32.6357143 C43.2080357,32.4214286 43.2080357,32.1214286 43.4223214,31.9071429 L45.5223214,29.8071429 L43.4223214,27.7071429 C43.2080357,27.4928571 43.2080357,27.1928571 43.4223214,26.9785714 C43.6366071,26.7642857 43.9366071,26.7642857 44.1508929,26.9785714 L46.59375,29.4214286 C46.8080357,29.6357143 46.8080357,29.9357143 46.59375,30.15 L44.1508929,32.5928571 C44.0223214,32.7214286 43.89375,32.7642857 43.7651786,32.7642857 Z" id="形状"></path>
                <path d="M46.2080357,32.7642857 C46.0794643,32.7642857 45.9508929,32.7214286 45.8651786,32.6357143 C45.6508929,32.4214286 45.6508929,32.1214286 45.8651786,31.9071429 L47.9651786,29.8071429 L45.8651786,27.7071429 C45.6508929,27.4928571 45.6508929,27.1928571 45.8651786,26.9785714 C46.0794643,26.7642857 46.3794643,26.7642857 46.59375,26.9785714 L49.0366071,29.4214286 C49.2508929,29.6357143 49.2508929,29.9357143 49.0366071,30.15 L46.59375,32.5928571 C46.4651786,32.7214286 46.3366071,32.7642857 46.2080357,32.7642857 Z M41.3651786,32.7642857 C41.2366071,32.7642857 41.1080357,32.7214286 41.0223214,32.6357143 C40.8080357,32.4214286 40.8080357,32.1214286 41.0223214,31.9071429 L43.1223214,29.8071429 L41.0223214,27.7071429 C40.8080357,27.4928571 40.8080357,27.1928571 41.0223214,26.9785714 C41.2366071,26.7642857 41.5366071,26.7642857 41.7508929,26.9785714 L44.19375,29.4214286 C44.2794643,29.5071429 44.3223214,29.6357143 44.3223214,29.7642857 C44.3223214,29.8928571 44.2794643,30.0214286 44.19375,30.1071429 L41.7508929,32.55 C41.6223214,32.7214286 41.49375,32.7642857 41.3651786,32.7642857 L41.3651786,32.7642857 Z" id="形状"></path>
            </g>
        </g>
    </g>
</svg>