<?xml version="1.0" encoding="UTF-8"?>
<svg width="69px" height="60px" viewBox="0 0 69 60" version="1.1" xmlns="http://www.w3.org/2000/svg" xmlns:xlink="http://www.w3.org/1999/xlink">
    <title>药箱</title>
    <g id="2期" stroke="none" stroke-width="1" fill="none" fill-rule="evenodd">
        <g id="1.首页" transform="translate(-847.000000, -3650.000000)" fill="#1CC2EB" fill-rule="nonzero">
            <g id="药箱" transform="translate(847.000000, 3650.000000)">
                <path d="M62.4046266,59.747362 L5.71631494,59.747362 C2.59943182,59.747362 0.0669642857,57.2148945 0.0669642857,54.0980114 L0.0669642857,12.7019075 C0.0669642857,9.58502435 2.59943182,7.05255682 5.71631494,7.05255682 L62.4046266,7.05255682 C65.5215097,7.05255682 68.0539773,9.58502435 68.0539773,12.7019075 L68.0539773,54.0493101 C68.0539773,57.1661932 65.5215097,59.747362 62.4046266,59.747362 Z M5.71631494,8.22138799 C3.2325487,8.22138799 1.18709416,10.2668425 1.18709416,12.7506088 L1.18709416,54.0980114 C1.18709416,56.5817776 3.2325487,58.6272321 5.71631494,58.6272321 L62.4046266,58.6272321 C64.8883929,58.6272321 66.9338474,56.5817776 66.9338474,54.0980114 L66.9338474,12.7019075 C66.9338474,10.2181412 64.8883929,8.17268669 62.4046266,8.17268669 L5.71631494,8.17268669 L5.71631494,8.22138799 Z" id="形状"></path>
                <path d="M15.8948864,29.6012581 L12.0474838,29.6012581 C8.88189935,29.6012581 5.81371753,28.3350244 3.57345779,26.0947646 C1.28449675,23.8058036 0.0669642857,20.8350244 0.0669642857,17.6207386 L0.0669642857,15.8674919 C0.0669642857,15.5265828 0.310470779,15.2830763 0.65137987,15.2830763 C0.992288961,15.2830763 1.23579545,15.5265828 1.23579545,15.8674919 L1.23579545,17.6207386 C1.23579545,20.4941153 2.35592532,23.221388 4.40137987,25.2668425 C6.44683442,27.3122971 9.22280844,28.4811282 12.0961851,28.4811282 L15.9435877,28.4811282 C16.2844968,28.4811282 16.5280032,28.7246347 16.5280032,29.0655438 C16.5280032,29.4064529 16.1870942,29.6012581 15.8948864,29.6012581 L15.8948864,29.6012581 Z M45.992289,29.6012581 L22.0799513,29.6012581 C21.7390422,29.6012581 21.4955357,29.3577516 21.4955357,29.0168425 C21.4955357,28.6759334 21.7390422,28.4324269 22.0799513,28.4324269 L45.992289,28.4324269 C46.3331981,28.4324269 46.5767045,28.6759334 46.5767045,29.0168425 C46.5767045,29.3577516 46.3331981,29.6012581 45.992289,29.6012581 L45.992289,29.6012581 Z M56.0734578,29.6012581 L52.2260552,29.6012581 C51.8851461,29.6012581 51.6416396,29.3577516 51.6416396,29.0168425 C51.6416396,28.6759334 51.8851461,28.4324269 52.2260552,28.4324269 L56.0734578,28.4324269 C58.9468344,28.4324269 61.7228084,27.2635958 63.768263,25.2181412 C65.8137175,23.1726867 66.9338474,20.445414 66.9338474,17.5720373 L66.9338474,15.8187906 C66.9338474,15.4778815 67.1773539,15.234375 67.518263,15.234375 C67.8591721,15.234375 68.1026786,15.4778815 68.1026786,15.8187906 L68.1026786,17.5720373 C68.1026786,20.7863231 66.8851461,23.7571023 64.5961851,26.0460633 C62.307224,28.3350244 59.2390422,29.6012581 56.0734578,29.6012581 L56.0734578,29.6012581 Z" id="形状"></path>
                <path d="M22.0799513,32.9616477 L15.8948864,32.9616477 C15.5539773,32.9616477 15.3104708,32.7181412 15.3104708,32.3772321 L15.3104708,25.2668425 C15.3104708,24.9259334 15.5539773,24.6824269 15.8948864,24.6824269 L22.1286526,24.6824269 C22.4695617,24.6824269 22.7130682,24.9259334 22.7130682,25.2668425 L22.7130682,32.4259334 C22.6643669,32.7181412 22.4208604,32.9616477 22.0799513,32.9616477 Z M16.4306006,31.8415179 L21.4955357,31.8415179 L21.4955357,25.8025568 L16.4306006,25.8025568 L16.4306006,31.8415179 Z M52.2260552,32.9616477 L45.992289,32.9616477 C45.6513799,32.9616477 45.4078734,32.7181412 45.4078734,32.3772321 L45.4078734,25.2668425 C45.4078734,24.9259334 45.6513799,24.6824269 45.992289,24.6824269 L52.2260552,24.6824269 C52.5669643,24.6824269 52.8104708,24.9259334 52.8104708,25.2668425 L52.8104708,32.4259334 C52.8104708,32.7181412 52.518263,32.9616477 52.2260552,32.9616477 Z M46.5767045,31.8415179 L51.6416396,31.8415179 L51.6416396,25.8025568 L46.5767045,25.8025568 L46.5767045,31.8415179 L46.5767045,31.8415179 Z" id="形状"></path>
                <path d="M22.0799513,35.445414 L15.8948864,35.445414 C15.5539773,35.445414 15.3104708,35.2019075 15.3104708,34.8609984 L15.3104708,32.4259334 C15.3104708,32.0850244 15.5539773,31.8415179 15.8948864,31.8415179 L22.1286526,31.8415179 C22.4695617,31.8415179 22.7130682,32.0850244 22.7130682,32.4259334 L22.7130682,34.8609984 C22.6643669,35.1532062 22.4208604,35.445414 22.0799513,35.445414 Z M16.4306006,34.2765828 L21.4955357,34.2765828 L21.4955357,33.010349 L16.4306006,33.010349 L16.4306006,34.2765828 Z M52.2260552,35.445414 L45.992289,35.445414 C45.6513799,35.445414 45.4078734,35.2019075 45.4078734,34.8609984 L45.4078734,32.4259334 C45.4078734,32.0850244 45.6513799,31.8415179 45.992289,31.8415179 L52.2260552,31.8415179 C52.5669643,31.8415179 52.8104708,32.0850244 52.8104708,32.4259334 L52.8104708,34.8609984 C52.8104708,35.1532062 52.518263,35.445414 52.2260552,35.445414 Z M46.5767045,34.2765828 L51.6416396,34.2765828 L51.6416396,33.010349 L46.5767045,33.010349 L46.5767045,34.2765828 L46.5767045,34.2765828 Z M35.7163149,51.9064529 L32.3559253,51.9064529 C32.0150162,51.9064529 31.7715097,51.6629464 31.7715097,51.3220373 L31.7715097,48.5460633 L28.9955357,48.5460633 C28.6546266,48.5460633 28.4111201,48.3025568 28.4111201,47.9616477 L28.4111201,44.6012581 C28.4111201,44.260349 28.6546266,44.0168425 28.9955357,44.0168425 L31.7715097,44.0168425 L31.7715097,41.2408685 C31.7715097,40.8999594 32.0150162,40.6564529 32.3559253,40.6564529 L35.7163149,40.6564529 C36.057224,40.6564529 36.3007305,40.8999594 36.3007305,41.2408685 L36.3007305,44.0168425 L39.0767045,44.0168425 C39.4176136,44.0168425 39.6611201,44.260349 39.6611201,44.6012581 L39.6611201,47.9616477 C39.6611201,48.3025568 39.4176136,48.5460633 39.0767045,48.5460633 L36.3007305,48.5460633 L36.3007305,51.3220373 C36.3007305,51.6629464 36.057224,51.9064529 35.7163149,51.9064529 Z M32.9403409,50.7863231 L35.1318994,50.7863231 L35.1318994,48.010349 C35.1318994,47.6694399 35.3754058,47.4259334 35.7163149,47.4259334 L38.492289,47.4259334 L38.492289,45.234375 L35.7163149,45.234375 C35.3754058,45.234375 35.1318994,44.9908685 35.1318994,44.6499594 L35.1318994,41.8739854 L32.9403409,41.8739854 L32.9403409,44.6499594 C32.9403409,44.9908685 32.6968344,45.234375 32.3559253,45.234375 L29.5799513,45.234375 L29.5799513,47.4259334 L32.3559253,47.4259334 C32.6968344,47.4259334 32.9403409,47.6694399 32.9403409,48.010349 L32.9403409,50.7863231 L32.9403409,50.7863231 Z" id="形状"></path>
                <path d="M59.8234578,48.3025568 C59.4825487,48.3025568 59.2390422,48.0590503 59.2390422,47.7181412 C59.2390422,46.9389205 58.6059253,46.3058036 57.8267045,46.3058036 L48.3786526,46.3058036 C47.5994318,46.3058036 46.9663149,46.9389205 46.9663149,47.7181412 C46.9663149,48.0590503 46.7228084,48.3025568 46.3818994,48.3025568 C46.0409903,48.3025568 45.7974838,48.0590503 45.7974838,47.7181412 C45.7974838,46.3058036 46.9176136,45.1856737 48.3299513,45.1856737 L57.7780032,45.1856737 C59.1903409,45.1856737 60.3104708,46.3058036 60.3104708,47.7181412 C60.4078734,48.0590503 60.1643669,48.3025568 59.8234578,48.3025568 L59.8234578,48.3025568 Z M21.6416396,48.3025568 C21.3007305,48.3025568 21.057224,48.0590503 21.057224,47.7181412 C21.057224,46.9389205 20.4241071,46.3058036 19.6448864,46.3058036 L10.1968344,46.3058036 C9.41761364,46.3058036 8.78449675,46.9389205 8.78449675,47.7181412 C8.78449675,48.0590503 8.54099026,48.3025568 8.20008117,48.3025568 C7.85917208,48.3025568 7.61566558,48.0590503 7.61566558,47.7181412 C7.61566558,46.3058036 8.73579545,45.1856737 10.1481331,45.1856737 L19.5961851,45.1856737 C21.0085227,45.1856737 22.1286526,46.3058036 22.1286526,47.7181412 C22.1773539,48.0590503 21.9338474,48.3025568 21.6416396,48.3025568 Z M23.5896916,8.22138799 C23.2487825,8.22138799 23.005276,7.97788149 23.005276,7.6369724 L23.005276,4.71489448 C23.005276,3.10775162 24.320211,1.79281656 25.9273539,1.79281656 C26.268263,1.79281656 26.5117695,2.03632305 26.5117695,2.37723214 C26.5117695,2.71814123 26.268263,2.96164773 25.9273539,2.96164773 C24.9533279,2.96164773 24.1254058,3.74086851 24.1254058,4.76359578 L24.1254058,7.6856737 C24.1741071,7.92918019 23.8818994,8.22138799 23.5896916,8.22138799 L23.5896916,8.22138799 Z M44.4825487,8.22138799 C44.1416396,8.22138799 43.8981331,7.97788149 43.8981331,7.6369724 L43.8981331,4.71489448 C43.8981331,3.74086851 43.1189123,2.91294643 42.0961851,2.91294643 C41.755276,2.91294643 41.5117695,2.66943994 41.5117695,2.32853084 C41.5117695,1.98762175 41.755276,1.74411526 42.0961851,1.74411526 C43.7033279,1.74411526 45.018263,3.05905032 45.018263,4.66619318 L45.018263,7.5882711 C45.0669643,7.92918019 44.8234578,8.22138799 44.4825487,8.22138799 L44.4825487,8.22138799 Z" id="形状"></path>
                <path d="M40.6838474,4.61749188 L27.3883929,4.61749188 C26.268263,4.61749188 25.3429383,3.69216721 25.3429383,2.57203734 L25.3429383,2.08502435 C25.3429383,0.964894481 26.268263,0.0395698052 27.3883929,0.0395698052 L40.6838474,0.0395698052 C41.8039773,0.0395698052 42.7293019,0.964894481 42.7293019,2.08502435 L42.7293019,2.57203734 C42.7293019,3.74086851 41.8039773,4.61749188 40.6838474,4.61749188 Z M27.3883929,1.25710227 C26.9013799,1.25710227 26.5117695,1.64671266 26.5117695,2.13372565 L26.5117695,2.62073864 C26.5117695,3.10775162 26.9013799,3.49736201 27.3883929,3.49736201 L40.6838474,3.49736201 C41.1708604,3.49736201 41.5604708,3.10775162 41.5604708,2.62073864 L41.5604708,2.13372565 C41.5604708,1.64671266 41.1708604,1.25710227 40.6838474,1.25710227 L27.3883929,1.25710227 L27.3883929,1.25710227 Z" id="形状"></path>
            </g>
        </g>
    </g>
</svg>