<?xml version="1.0" encoding="utf-8"?>
<!-- Generator: Adobe Illustrator 23.0.0, SVG Export Plug-In . SVG Version: 6.00 Build 0)  -->
<svg version="1.1" id="图层_1" xmlns="http://www.w3.org/2000/svg" xmlns:xlink="http://www.w3.org/1999/xlink" x="0px" y="0px"
	 viewBox="0 0 300 300" style="enable-background:new 0 0 300 300;" xml:space="preserve">
<style type="text/css">
	.st0{opacity:0.3;fill:url(#SVGID_1_);}
	.st1{fill:url(#SVGID_2_);}
	.st2{fill:url(#SVGID_3_);}
	.st3{fill:url(#SVGID_4_);}
	.st4{opacity:0.5;fill:url(#SVGID_5_);}
	.st5{opacity:0.5;fill:url(#SVGID_6_);}
	.st6{opacity:0.3;fill:url(#SVGID_7_);}
	.st7{fill:url(#SVGID_8_);}
	.st8{fill:url(#SVGID_9_);}
	.st9{fill:url(#SVGID_10_);}
	.st10{opacity:0.5;fill:url(#SVGID_11_);}
	.st11{opacity:0.5;fill:url(#SVGID_12_);}
	.st12{fill:url(#SVGID_13_);}
	.st13{fill:url(#SVGID_14_);}
	.st14{fill:url(#SVGID_15_);}
	.st15{fill:url(#SVGID_16_);}
	.st16{fill:url(#SVGID_17_);}
	.st17{opacity:0.3;fill:url(#SVGID_18_);}
	.st18{fill:url(#SVGID_19_);}
	.st19{fill:url(#SVGID_20_);}
	.st20{fill:url(#SVGID_21_);}
	.st21{fill:#FFFFFF;}
	.st22{opacity:0.3;fill:#FFFFFF;}
	.st23{opacity:0.8;fill:#FFFFFF;}
	.st24{fill:#6491FB;}
	.st25{fill:#FF9999;}
	.st26{fill:#A69CFB;}
	.st27{fill:#94F2B5;}
	.st28{fill:#FFC99C;}
	.st29{fill:none;stroke:#004680;stroke-width:1.4;stroke-linecap:round;stroke-linejoin:round;stroke-miterlimit:10;}
	.st30{opacity:0.3;fill:url(#SVGID_22_);}
	.st31{opacity:0.3;fill:url(#SVGID_23_);}
	.st32{fill:url(#SVGID_24_);}
	.st33{fill:url(#SVGID_25_);}
	.st34{fill:#E6EDFC;}
	.st35{fill:#F1F5FF;}
	.st36{fill:url(#SVGID_26_);}
	.st37{fill:url(#SVGID_27_);}
	.st38{fill:url(#SVGID_28_);}
	.st39{fill:url(#SVGID_29_);}
	.st40{fill:#0032C8;}
	.st41{fill:#B0C6FD;}
	.st42{fill:#0055FF;}
	.st43{fill:#A1C1FF;}
	.st44{fill:url(#SVGID_30_);}
	.st45{fill:url(#SVGID_31_);}
	.st46{opacity:0.3;}
	.st47{fill:url(#SVGID_32_);}
	.st48{fill:url(#SVGID_33_);}
	.st49{fill:url(#SVGID_34_);}
	.st50{fill:url(#SVGID_35_);}
	.st51{fill:url(#SVGID_36_);}
	.st52{fill:url(#SVGID_37_);}
</style>
<g>
	<g id="data_cube_8_">
		<g>
			<linearGradient id="SVGID_1_" gradientUnits="userSpaceOnUse" x1="39.7294" y1="189.7312" x2="32.2829" y2="193.1044">
				<stop  offset="5.025130e-03" style="stop-color:#5298EF"/>
				<stop  offset="1" style="stop-color:#73B0F1;stop-opacity:0"/>
			</linearGradient>
			<polygon class="st0" points="28.84,191.89 35.94,188.13 42.84,191.26 35.62,194.9 			"/>
			<linearGradient id="SVGID_2_" gradientUnits="userSpaceOnUse" x1="35.7755" y1="184.9616" x2="49.5796" y2="184.9616">
				<stop  offset="0" style="stop-color:#6DACEF"/>
				<stop  offset="1" style="stop-color:#97C9FE"/>
			</linearGradient>
			<polygon class="st1" points="49.58,182.87 42.85,191.28 35.85,188.21 35.78,178.64 49.58,180.33 			"/>
			<linearGradient id="SVGID_3_" gradientUnits="userSpaceOnUse" x1="42.7922" y1="187.9022" x2="49.3809" y2="182.424">
				<stop  offset="3.378380e-03" style="stop-color:#8EBEF4"/>
				<stop  offset="1" style="stop-color:#B4D8FA"/>
			</linearGradient>
			<polygon class="st2" points="42.85,191.28 42.85,182.16 49.3,178.81 49.74,178.85 49.75,187.81 			"/>
			<linearGradient id="SVGID_4_" gradientUnits="userSpaceOnUse" x1="35.747" y1="178.7594" x2="49.7386" y2="178.7594">
				<stop  offset="0" style="stop-color:#97C3F4"/>
				<stop  offset="1" style="stop-color:#E8F1FA"/>
			</linearGradient>
			<polygon class="st3" points="35.75,178.63 42.58,175.19 49.74,178.85 42.85,182.33 			"/>
		</g>
		
			<linearGradient id="SVGID_5_" gradientUnits="userSpaceOnUse" x1="-1428.9304" y1="757.6027" x2="-1428.9304" y2="774.5121" gradientTransform="matrix(0.5 0.866 -0.866 0.5 1402.085 1041.4088)">
			<stop  offset="3.378380e-03" style="stop-color:#75B2FF"/>
			<stop  offset="1" style="stop-color:#75B2FF;stop-opacity:0"/>
		</linearGradient>
		<path class="st4" d="M15.39,192.08L15.39,192.08c-0.17-0.29-0.07-0.67,0.22-0.84l16.98-9.8c0.29-0.17,0.67-0.07,0.84,0.22l0,0
			c0.17,0.29,0.07,0.67-0.22,0.84l-16.98,9.8C15.94,192.47,15.56,192.37,15.39,192.08z"/>
		
			<linearGradient id="SVGID_6_" gradientUnits="userSpaceOnUse" x1="-1481.4531" y1="552.7504" x2="-1481.4531" y2="560.0612" gradientTransform="matrix(0.4772 0.8265 -0.7164 0.4136 1135.6169 1183.2845)">
			<stop  offset="3.378380e-03" style="stop-color:#75B2FF"/>
			<stop  offset="1" style="stop-color:#75B2FF;stop-opacity:0"/>
		</linearGradient>
		<path class="st5" d="M26.98,190.95l-0.08-0.13c-0.14-0.24-0.06-0.55,0.19-0.69l5.5-3.36c0.24-0.14,0.55-0.06,0.69,0.19l0.08,0.13
			c0.14,0.24,0.06,0.55-0.19,0.69l-5.5,3.36C27.43,191.28,27.12,191.19,26.98,190.95z"/>
	</g>
	<g id="data_cube_6_">
		<g>
			<linearGradient id="SVGID_7_" gradientUnits="userSpaceOnUse" x1="274.7427" y1="191.5406" x2="267.2962" y2="194.9138">
				<stop  offset="5.025130e-03" style="stop-color:#5298EF"/>
				<stop  offset="1" style="stop-color:#73B0F1;stop-opacity:0"/>
			</linearGradient>
			<polygon class="st6" points="263.85,193.7 270.95,189.94 277.85,193.07 270.64,196.71 			"/>
			<linearGradient id="SVGID_8_" gradientUnits="userSpaceOnUse" x1="270.7888" y1="186.771" x2="284.5929" y2="186.771">
				<stop  offset="0" style="stop-color:#6DACEF"/>
				<stop  offset="1" style="stop-color:#97C9FE"/>
			</linearGradient>
			<polygon class="st7" points="284.59,184.68 277.86,193.09 270.86,190.02 270.79,180.45 284.59,182.14 			"/>
			<linearGradient id="SVGID_9_" gradientUnits="userSpaceOnUse" x1="277.8055" y1="189.7116" x2="284.3942" y2="184.2334">
				<stop  offset="3.378380e-03" style="stop-color:#8EBEF4"/>
				<stop  offset="1" style="stop-color:#B4D8FA"/>
			</linearGradient>
			<polygon class="st8" points="277.86,193.09 277.86,183.97 284.31,180.62 284.75,180.66 284.77,189.62 			"/>
			<linearGradient id="SVGID_10_" gradientUnits="userSpaceOnUse" x1="270.7603" y1="180.5688" x2="284.7519" y2="180.5688">
				<stop  offset="0" style="stop-color:#97C3F4"/>
				<stop  offset="1" style="stop-color:#E8F1FA"/>
			</linearGradient>
			<polygon class="st9" points="270.76,180.44 277.59,177 284.75,180.66 277.86,184.14 			"/>
		</g>
		
			<linearGradient id="SVGID_11_" gradientUnits="userSpaceOnUse" x1="-1309.8517" y1="554.9769" x2="-1309.8517" y2="571.8865" gradientTransform="matrix(0.5 0.866 -0.866 0.5 1402.085 1041.4088)">
			<stop  offset="3.378380e-03" style="stop-color:#75B2FF"/>
			<stop  offset="1" style="stop-color:#75B2FF;stop-opacity:0"/>
		</linearGradient>
		<path class="st10" d="M250.41,193.89L250.41,193.89c-0.17-0.29-0.07-0.67,0.22-0.84l16.98-9.8c0.29-0.17,0.67-0.07,0.84,0.22l0,0
			c0.17,0.29,0.07,0.67-0.22,0.84l-16.98,9.8C250.95,194.28,250.58,194.18,250.41,193.89z"/>
		
			<linearGradient id="SVGID_12_" gradientUnits="userSpaceOnUse" x1="-1356.6895" y1="307.8089" x2="-1356.6895" y2="315.1197" gradientTransform="matrix(0.4772 0.8265 -0.7164 0.4136 1135.6169 1183.2845)">
			<stop  offset="3.378380e-03" style="stop-color:#75B2FF"/>
			<stop  offset="1" style="stop-color:#75B2FF;stop-opacity:0"/>
		</linearGradient>
		<path class="st11" d="M262,192.76l-0.08-0.13c-0.14-0.24-0.06-0.55,0.19-0.69l5.5-3.36c0.24-0.14,0.55-0.06,0.69,0.19l0.08,0.13
			c0.14,0.24,0.06,0.55-0.19,0.69l-5.5,3.36C262.45,193.09,262.14,193,262,192.76z"/>
	</g>
	<g>
		<linearGradient id="SVGID_13_" gradientUnits="userSpaceOnUse" x1="145.4906" y1="267.411" x2="146.528" y2="128.7381">
			<stop  offset="0" style="stop-color:#3282ED"/>
			<stop  offset="1" style="stop-color:#60A2F0"/>
		</linearGradient>
		<path class="st12" d="M108.24,253.63l-46.77-27c-6.38-3.68-9.45-8.47-9.04-12.9v-29.66c-0.34-3.77,1.75-7.42,6.38-10.1
			l70.29-40.58c9.51-5.49,26.13-4.8,37.11,1.54l64.3,37.13c5.99,3.46,9.06,7.88,9.08,12.08h0.02v30.88h-0.02
			c0.17,3.63-1.94,7.12-6.41,9.7l-70.29,40.58c-9.51,5.49-26.13,4.8-37.11-1.54l-3.92-2.27"/>
		<linearGradient id="SVGID_14_" gradientUnits="userSpaceOnUse" x1="52.3948" y1="183.722" x2="239.6081" y2="183.722">
			<stop  offset="0" style="stop-color:#7AB4F4"/>
			<stop  offset="1" style="stop-color:#49A5FA"/>
		</linearGradient>
		<path class="st13" d="M162.9,234.06l70.29-40.58c9.51-5.49,8.32-15.09-2.66-21.43l-64.3-37.13c-10.98-6.34-27.6-7.03-37.11-1.54
			l-70.29,40.58c-9.51,5.49-8.32,15.09,2.66,21.43l64.3,37.13C136.77,238.86,153.39,239.55,162.9,234.06z"/>
		<g>
			<linearGradient id="SVGID_15_" gradientUnits="userSpaceOnUse" x1="146.0051" y1="223.5985" x2="146.0051" y2="83.5273">
				<stop  offset="0" style="stop-color:#3282ED"/>
				<stop  offset="0.5145" style="stop-color:#4AA8EF"/>
				<stop  offset="1" style="stop-color:#60A2F0"/>
			</linearGradient>
			<path class="st14" d="M52.43,140.38c-0.34-3.77,1.75-7.42,6.38-10.1l70.29-40.58c9.51-5.49,26.13-4.8,37.11,1.54l64.3,37.13
				c5.99,3.46,9.06,7.88,9.08,12.08h0.02v30.88h-0.02c0.17,3.63-1.94,7.12-6.41,9.7l-70.29,40.58c-9.51,5.49-26.13,4.8-37.11-1.54
				l-64.3-37.13c-6.38-3.68-9.45-8.47-9.04-12.9V140.38z"/>
			<linearGradient id="SVGID_16_" gradientUnits="userSpaceOnUse" x1="-6.8594" y1="259.9098" x2="185.4155" y2="109.1329">
				<stop  offset="0" style="stop-color:#3282ED"/>
				<stop  offset="1" style="stop-color:#60A2F0"/>
			</linearGradient>
			<path class="st15" d="M106.66,177.8l0.36,0.21l0.89,0.51l17.87,10.32c10.98,6.34,27.6,7.03,37.11,1.54l70.29-40.58
				c9.51-5.49,8.32-15.09-2.66-21.43l-64.3-37.13c-10.98-6.34-27.6-7.03-37.11-1.54l-70.29,40.58c-9.51,5.49-8.32,15.09,2.66,21.43
				l9.96,5.75l0.43,0.25"/>
			<linearGradient id="SVGID_17_" gradientUnits="userSpaceOnUse" x1="73.749" y1="179.9518" x2="93.2027" y2="164.6967">
				<stop  offset="0" style="stop-color:#3282ED"/>
				<stop  offset="1" style="stop-color:#60A2F0"/>
			</linearGradient>
			<line class="st16" x1="71.34" y1="157.41" x2="107.09" y2="178.24"/>
		</g>
	</g>
	<g>
		<linearGradient id="SVGID_18_" gradientUnits="userSpaceOnUse" x1="65" y1="90.6842" x2="155.9836" y2="90.6842">
			<stop  offset="0" style="stop-color:#4C9CF4"/>
			<stop  offset="1" style="stop-color:#ACD4FA"/>
		</linearGradient>
		<path class="st17" d="M153.68,30.7c1.27-0.73,2.31-0.15,2.31,1.31v65.81c0,0.56-0.39,1.25-0.89,1.53l-89.21,51.51
			c-0.49,0.28-0.88,0.05-0.88-0.51V84.55c0-1.46,1.03-3.24,2.31-3.98L153.68,30.7z"/>
		<linearGradient id="SVGID_19_" gradientUnits="userSpaceOnUse" x1="76.8641" y1="97.1751" x2="170.4546" y2="97.1751">
			<stop  offset="0" style="stop-color:#4C9CF4"/>
			<stop  offset="1" style="stop-color:#ACD4FA"/>
		</linearGradient>
		<path class="st18" d="M112.66,67.15l52.88-30.53c1.27-0.73,4.91,0.23,4.91,1.7l-2.61,65.43c0,0.56-0.39,1.25-0.89,1.53
			l-86.8,52.66c-0.49,0.28-3.3-1.1-3.3-1.66V90.47c0-1.46,1.03-3.24,2.31-3.98L112.66,67.15"/>
		<linearGradient id="SVGID_20_" gradientUnits="userSpaceOnUse" x1="79.5849" y1="97.7718" x2="170.5685" y2="97.7718">
			<stop  offset="3.378380e-03" style="stop-color:#A1C8F4"/>
			<stop  offset="1" style="stop-color:#DFEDFA"/>
		</linearGradient>
		<path class="st19" d="M79.58,119.51V91.63c0-1.46,1.03-3.24,2.31-3.98l86.37-49.87c1.27-0.73,2.31-0.15,2.31,1.31v65.81
			c0,0.56-0.39,1.25-0.89,1.53l-89.21,51.51c-0.49,0.28-0.88,0.05-0.88-0.51v-29.63"/>
		<linearGradient id="SVGID_21_" gradientUnits="userSpaceOnUse" x1="79.5849" y1="67.3535" x2="170.5685" y2="67.3535">
			<stop  offset="3.378380e-03" style="stop-color:#A1C8F4"/>
			<stop  offset="1" style="stop-color:#DFEDFA"/>
		</linearGradient>
		<path class="st20" d="M135.77,64.72L79.58,97.16v-5.46c0-1.46,1.03-3.24,2.31-3.98l86.37-49.87c1.27-0.73,2.31-0.15,2.31,1.31
			v5.46"/>
		<path class="st21" d="M92.61,95.2c0,0.58-0.41,1.28-0.91,1.58c-0.5,0.29-0.91,0.06-0.91-0.52c0-0.58,0.41-1.28,0.91-1.58
			C92.2,94.39,92.61,94.62,92.61,95.2z"/>
		<path class="st21" d="M94.98,93.83c0,0.58-0.41,1.28-0.91,1.58c-0.5,0.29-0.91,0.06-0.91-0.52c0-0.58,0.41-1.28,0.91-1.58
			C94.58,93.02,94.98,93.25,94.98,93.83z"/>
		<path class="st21" d="M97.36,92.46c0,0.58-0.41,1.28-0.91,1.58c-0.5,0.29-0.91,0.06-0.91-0.52c0-0.58,0.41-1.28,0.91-1.58
			C96.95,91.65,97.36,91.88,97.36,92.46z"/>
		<g>
			<path class="st22" d="M129.69,74.16c0.96-0.56,1.74-0.11,1.74,0.99v34.68c0,1.1-0.78,2.45-1.74,3l-45.55,26.22
				c-0.96,0.56-1.74,0.11-1.74-0.99v-34.68c0-1.1,0.78-2.45,1.74-3L129.69,74.16z"/>
			<path class="st22" d="M135.84,78.08c0.96-0.56,1.74-0.11,1.74,0.99v34.68c0,1.1-0.78,2.45-1.74,3l-45.55,26.22
				c-0.96,0.56-1.74,0.11-1.74-0.99V107.3c0-1.1,0.78-2.45,1.74-3L135.84,78.08z"/>
			<path class="st23" d="M143.55,81.72c0.96-0.56,1.74-0.11,1.74,0.99v34.68c0,1.1-0.78,2.45-1.74,3l-45.55,26.22
				c-0.96,0.56-1.74,0.11-1.74-0.99v-34.68c0-1.1,0.78-2.45,1.74-3L143.55,81.72z"/>
			<g>
				<g>
					<path class="st24" d="M122.93,108.43l-19.79,11.43c-0.22,0.12-0.39-0.01-0.39-0.29l0,0c0-0.29,0.17-0.62,0.39-0.74l19.79-11.43
						c0.22-0.12,0.39,0.01,0.39,0.29l0,0C123.32,107.97,123.15,108.3,122.93,108.43z"/>
					<path class="st25" d="M134.57,101.71l-8.61,4.97c-0.22,0.12-0.39-0.01-0.39-0.29l0,0c0-0.29,0.17-0.62,0.39-0.74l8.61-4.97
						c0.22-0.12,0.39,0.01,0.39,0.29l0,0C134.96,101.25,134.79,101.58,134.57,101.71z"/>
				</g>
				<g>
					<path class="st25" d="M122.88,111.46l-10.4,6.01c-0.22,0.12-0.39-0.01-0.39-0.29l0,0c0-0.29,0.17-0.62,0.39-0.74l10.4-6.01
						c0.22-0.12,0.39,0.01,0.39,0.29l0,0C123.27,111,123.1,111.34,122.88,111.46z"/>
					<path class="st25" d="M110.13,118.82l-6.99,4.04c-0.22,0.12-0.39-0.01-0.39-0.29l0,0c0-0.29,0.17-0.62,0.39-0.74l6.99-4.04
						c0.22-0.12,0.39,0.01,0.39,0.29l0,0C110.52,118.37,110.35,118.7,110.13,118.82z"/>
					<path class="st26" d="M134.52,104.74l-8.61,4.97c-0.22,0.12-0.39-0.01-0.39-0.29l0,0c0-0.29,0.17-0.62,0.39-0.74l8.61-4.97
						c0.22-0.12,0.39,0.01,0.39,0.29l0,0C134.91,104.29,134.73,104.62,134.52,104.74z"/>
				</g>
				<g>
					<path class="st24" d="M115.79,106.54l-12.64,7.3c-0.22,0.12-0.39-0.01-0.39-0.29v0c0-0.29,0.17-0.62,0.39-0.74l12.64-7.3
						c0.22-0.12,0.39,0.01,0.39,0.29l0,0C116.18,106.08,116,106.42,115.79,106.54z"/>
					<path class="st26" d="M123.38,102.16l-5.35,3.09c-0.22,0.12-0.39-0.01-0.39-0.29l0,0c0-0.29,0.17-0.62,0.39-0.74l5.35-3.09
						c0.22-0.12,0.39,0.01,0.39,0.29l0,0C123.77,101.7,123.6,102.03,123.38,102.16z"/>
					<path class="st27" d="M138.71,93.31l-12.89,7.44c-0.22,0.12-0.39-0.01-0.39-0.29l0,0c0-0.29,0.17-0.62,0.39-0.74l12.89-7.44
						c0.22-0.12,0.39,0.01,0.39,0.29l0,0C139.1,92.85,138.92,93.18,138.71,93.31z"/>
				</g>
				<g>
					<path class="st24" d="M126.07,121.64l12.64-7.3c0.22-0.12,0.39-0.46,0.39-0.74l0,0c0-0.29-0.17-0.42-0.39-0.29l-12.64,7.3
						c-0.22,0.12-0.39,0.46-0.39,0.74l0,0C125.68,121.64,125.85,121.77,126.07,121.64z"/>
					<path class="st27" d="M118.47,126.03l5.35-3.09c0.22-0.12,0.39-0.46,0.39-0.74l0,0c0-0.29-0.17-0.42-0.39-0.29l-5.35,3.09
						c-0.22,0.12-0.39,0.46-0.39,0.74l0,0C118.08,126.02,118.26,126.15,118.47,126.03z"/>
					<path class="st25" d="M103.14,134.88l12.89-7.44c0.22-0.12,0.39-0.46,0.39-0.74l0,0c0-0.29-0.17-0.42-0.39-0.29l-12.89,7.44
						c-0.22,0.12-0.39,0.46-0.39,0.74l0,0C102.75,134.87,102.93,135,103.14,134.88z"/>
				</g>
				<g>
					<path class="st26" d="M111.24,112.17l-8.1,4.68c-0.22,0.12-0.39-0.01-0.39-0.29l0,0c0-0.29,0.17-0.62,0.39-0.74l8.1-4.68
						c0.22-0.12,0.39,0.01,0.39,0.29l0,0C111.63,111.71,111.46,112.05,111.24,112.17z"/>
					<path class="st27" d="M128.64,102.13l-15.64,9.03c-0.22,0.12-0.39-0.01-0.39-0.29l0,0c0-0.29,0.17-0.62,0.39-0.74l15.64-9.03
						c0.22-0.12,0.39,0.01,0.39,0.29l0,0C129.03,101.67,128.85,102,128.64,102.13z"/>
					<path class="st24" d="M140.16,95.47l-9.8,5.66c-0.22,0.12-0.39-0.01-0.39-0.29l0,0c0-0.29,0.17-0.62,0.39-0.74l9.8-5.66
						c0.22-0.12,0.39,0.01,0.39,0.29v0C140.55,95.02,140.38,95.35,140.16,95.47z"/>
				</g>
				<g>
					<path class="st27" d="M132.06,120.15l8.1-4.68c0.22-0.12,0.39,0.01,0.39,0.29l0,0c0,0.29-0.17,0.62-0.39,0.74l-8.1,4.68
						c-0.22,0.12-0.39-0.01-0.39-0.29l0,0C131.67,120.61,131.85,120.27,132.06,120.15z"/>
					<path class="st28" d="M114.67,130.19l15.64-9.03c0.22-0.12,0.39,0.01,0.39,0.29l0,0c0,0.29-0.17,0.62-0.39,0.74l-15.64,9.03
						c-0.22,0.12-0.39-0.01-0.39-0.29l0,0C114.28,130.65,114.45,130.32,114.67,130.19z"/>
					<path class="st26" d="M103.14,136.85l9.8-5.66c0.22-0.12,0.39,0.01,0.39,0.29l0,0c0,0.29-0.17,0.62-0.39,0.74l-9.8,5.66
						c-0.22,0.12-0.39-0.01-0.39-0.29l0,0C102.75,137.3,102.93,136.97,103.14,136.85z"/>
				</g>
				<g>
					<path class="st28" d="M122.93,120.45l-19.79,11.43c-0.22,0.12-0.39-0.01-0.39-0.29l0,0c0-0.29,0.17-0.62,0.39-0.74l19.79-11.43
						c0.22-0.12,0.39,0.01,0.39,0.29v0C123.32,119.99,123.15,120.32,122.93,120.45z"/>
					<path class="st25" d="M134.57,113.73l-8.61,4.97c-0.22,0.12-0.39-0.01-0.39-0.29l0,0c0-0.29,0.17-0.62,0.39-0.74l8.61-4.97
						c0.22-0.12,0.39,0.01,0.39,0.29l0,0C134.96,113.27,134.79,113.6,134.57,113.73z"/>
				</g>
				<g>
					<path class="st27" d="M111.24,124.19l-8.1,4.68c-0.22,0.12-0.39-0.01-0.39-0.29l0,0c0-0.29,0.17-0.62,0.39-0.74l8.1-4.68
						c0.22-0.12,0.39,0.01,0.39,0.29l0,0C111.63,123.73,111.46,124.07,111.24,124.19z"/>
					<path class="st24" d="M128.64,114.15l-15.64,9.03c-0.22,0.12-0.39-0.01-0.39-0.29l0,0c0-0.29,0.17-0.62,0.39-0.74l15.64-9.03
						c0.22-0.12,0.39,0.01,0.39,0.29l0,0C129.03,113.69,128.85,114.03,128.64,114.15z"/>
					<path class="st27" d="M140.16,107.5l-9.8,5.66c-0.22,0.12-0.39-0.01-0.39-0.29l0,0c0-0.29,0.17-0.62,0.39-0.74l9.8-5.66
						c0.22-0.12,0.39,0.01,0.39,0.29l0,0C140.55,107.04,140.38,107.37,140.16,107.5z"/>
				</g>
				<g>
					<path class="st26" d="M109.73,122.06l-6.59,3.8c-0.22,0.12-0.39-0.01-0.39-0.29l0,0c0-0.29,0.17-0.62,0.39-0.74l6.59-3.8
						c0.22-0.12,0.39,0.01,0.39,0.29l0,0C110.12,121.6,109.94,121.94,109.73,122.06z"/>
					<path class="st25" d="M124.16,113.73l-12.84,7.41c-0.22,0.12-0.39-0.01-0.39-0.29l0,0c0-0.29,0.17-0.62,0.39-0.74l12.84-7.41
						c0.22-0.12,0.39,0.01,0.39,0.29l0,0C124.55,113.27,124.37,113.61,124.16,113.73z"/>
					<path class="st28" d="M138.56,105.41l-12.84,7.41c-0.22,0.12-0.39-0.01-0.39-0.29l0,0c0-0.29,0.17-0.62,0.39-0.74l12.84-7.41
						c0.22-0.12,0.39,0.01,0.39,0.29l0,0C138.95,104.96,138.78,105.29,138.56,105.41z"/>
				</g>
			</g>
		</g>
		<path class="st29" d="M121,99.38"/>
	</g>
	<linearGradient id="SVGID_22_" gradientUnits="userSpaceOnUse" x1="125.823" y1="99.1137" x2="146.0702" y2="99.1137">
		<stop  offset="0" style="stop-color:#6DACEF"/>
		<stop  offset="1" style="stop-color:#97C9FE"/>
	</linearGradient>
	<path class="st30" d="M145.24,86.69c0.46-0.26,0.83-0.05,0.83,0.47v12.22c0,0.53-0.37,1.17-0.83,1.43l-18.59,10.73
		c-0.46,0.26-0.83,0.05-0.83-0.47V98.85c0-0.53,0.37-1.17,0.83-1.43L145.24,86.69z"/>
	<linearGradient id="SVGID_23_" gradientUnits="userSpaceOnUse" x1="125.823" y1="116.8147" x2="146.0702" y2="116.8147">
		<stop  offset="0" style="stop-color:#6DACEF"/>
		<stop  offset="1" style="stop-color:#97C9FE"/>
	</linearGradient>
	<path class="st31" d="M145.24,104.39c0.46-0.26,0.83-0.05,0.83,0.47v12.22c0,0.53-0.37,1.17-0.83,1.43l-18.59,10.73
		c-0.46,0.26-0.83,0.05-0.83-0.47v-12.22c0-0.53,0.37-1.17,0.83-1.43L145.24,104.39z"/>
	<g>
		
			<linearGradient id="SVGID_24_" gradientUnits="userSpaceOnUse" x1="2026.7301" y1="156.0122" x2="2032.9901" y2="168.8127" gradientTransform="matrix(-1 0 0 1 2199.644 0)">
			<stop  offset="0" style="stop-color:#AECDFF"/>
			<stop  offset="0.0562" style="stop-color:#B6D2FF"/>
			<stop  offset="0.3126" style="stop-color:#D6E6FF"/>
			<stop  offset="0.5607" style="stop-color:#EDF4FF"/>
			<stop  offset="0.7947" style="stop-color:#FAFCFF"/>
			<stop  offset="1" style="stop-color:#FFFFFF"/>
		</linearGradient>
		<ellipse class="st32" cx="169.07" cy="163.87" rx="12.47" ry="4.38"/>
		
			<linearGradient id="SVGID_25_" gradientUnits="userSpaceOnUse" x1="1875.6643" y1="-284.4777" x2="1889.6787" y2="-255.821" gradientTransform="matrix(-0.7882 0.6154 0.6154 0.7882 1829.4399 -805.5377)">
			<stop  offset="0" style="stop-color:#AECDFF"/>
			<stop  offset="0.0562" style="stop-color:#B6D2FF"/>
			<stop  offset="0.3126" style="stop-color:#D6E6FF"/>
			<stop  offset="0.5607" style="stop-color:#EDF4FF"/>
			<stop  offset="0.7947" style="stop-color:#FAFCFF"/>
			<stop  offset="1" style="stop-color:#FFFFFF"/>
		</linearGradient>
		<path class="st33" d="M175.39,129.26c2.58-0.89,5.38,0.6,6.33,3.16c2.23,6.01,6.65,19.18,4.25,22.91
			c-3.15,4.88-3.37,3.63-5.44-0.94C178.75,150.44,167.91,131.85,175.39,129.26z"/>
		<path class="st34" d="M172.97,163.59c0,0,19.78-18.91,7.19-32.87c-12.58-13.96-27.87-0.2-26.25,4.87
			c1.62,5.08,6.11,27.37,11.15,28S172.97,163.59,172.97,163.59z"/>
		<g>
			<ellipse class="st35" cx="167.67" cy="116.91" rx="13.89" ry="11.32"/>
			
				<linearGradient id="SVGID_26_" gradientUnits="userSpaceOnUse" x1="2019.4987" y1="126.4417" x2="2039.5404" y2="126.4417" gradientTransform="matrix(-0.9999 -0.013 -0.013 0.9999 2200.6038 18.264)">
				<stop  offset="0" style="stop-color:#3282ED"/>
				<stop  offset="1" style="stop-color:#60A2F0"/>
			</linearGradient>
			<path class="st36" d="M175.28,115.26l1.41-3.1c0,0,4.06,4.32,2.63,8.87s-12.92,3.79-15.43,3.08c-2.5-0.72-5.05-3.87-4.1-6.6
				s3.64-4.83,3.64-4.83l1.26,2.99L175.28,115.26z"/>
			<circle class="st21" cx="175.87" cy="119.14" r="1.69"/>
			<circle class="st21" cx="165.74" cy="119.43" r="1.69"/>
		</g>
		<linearGradient id="SVGID_27_" gradientUnits="userSpaceOnUse" x1="154.244" y1="107.3386" x2="180.7997" y2="107.3386">
			<stop  offset="0" style="stop-color:#3282ED"/>
			<stop  offset="1" style="stop-color:#60A2F0"/>
		</linearGradient>
		<path class="st37" d="M180.79,113.19c0,0,0.77-13.1-14.6-12.14s-11.53,12.63-11.53,12.63h3.16c0,0-1.76-9.24,8.45-9.91
			c13.57-0.88,11.98,5.74,11.98,5.74L180.79,113.19z"/>
		<g>
			
				<linearGradient id="SVGID_28_" gradientUnits="userSpaceOnUse" x1="2018.8394" y1="110.5374" x2="2021.3762" y2="110.5374" gradientTransform="matrix(-1 0 0 1 2199.644 0)">
				<stop  offset="0" style="stop-color:#00DBFF"/>
				<stop  offset="0.1675" style="stop-color:#00BCEC"/>
				<stop  offset="0.5349" style="stop-color:#016CBA"/>
				<stop  offset="1" style="stop-color:#010077"/>
			</linearGradient>
			<path class="st38" d="M180.59,112.66c0,0,0.13-2.23-0.79-4.77c1.15,2.77,1,5.31,1,5.31l-2.53-3.68c0,0,0.02-0.07,0.03-0.19
				L180.59,112.66z"/>
			
				<linearGradient id="SVGID_29_" gradientUnits="userSpaceOnUse" x1="2021.6976" y1="108.4146" x2="2045.1107" y2="108.4146" gradientTransform="matrix(-1 0 0 1 2199.644 0)">
				<stop  offset="0" style="stop-color:#00DBFF"/>
				<stop  offset="0.1675" style="stop-color:#00BCEC"/>
				<stop  offset="0.5349" style="stop-color:#016CBA"/>
				<stop  offset="1" style="stop-color:#010077"/>
			</linearGradient>
			<path class="st39" d="M157.63,113.14c0,0-1.76-9.24,8.45-9.91c8.93-0.58,11.29,2.09,11.87,3.98c-0.86-1.82-3.55-3.97-11.66-3.44
				c-10.22,0.66-8.45,9.91-8.45,9.91h-3.16c0,0-0.06-0.2-0.14-0.54H157.63z"/>
		</g>
		<g>
			<ellipse class="st40" cx="155.79" cy="116.7" rx="3.16" ry="3.92"/>
			<ellipse class="st41" cx="155.3" cy="116.7" rx="3.16" ry="3.92"/>
			<ellipse class="st42" cx="155" cy="116.7" rx="2.37" ry="3.25"/>
			<ellipse class="st43" cx="154.55" cy="116.76" rx="1.52" ry="2.14"/>
			<ellipse class="st21" cx="154.24" cy="116.5" rx="0.78" ry="1.1"/>
		</g>
		
			<linearGradient id="SVGID_30_" gradientUnits="userSpaceOnUse" x1="2036.1042" y1="126.9972" x2="2050.1187" y2="155.6539" gradientTransform="matrix(-1 0 0 1 2199.644 0)">
			<stop  offset="0" style="stop-color:#AECDFF"/>
			<stop  offset="0.0562" style="stop-color:#B6D2FF"/>
			<stop  offset="0.3126" style="stop-color:#D6E6FF"/>
			<stop  offset="0.5607" style="stop-color:#EDF4FF"/>
			<stop  offset="0.7947" style="stop-color:#FAFCFF"/>
			<stop  offset="1" style="stop-color:#FFFFFF"/>
		</linearGradient>
		<path class="st44" d="M160.18,130.4c2.58,0.88,3.87,3.78,3.04,6.38c-1.95,6.11-6.56,19.22-10.75,20.67
			c-5.48,1.91-4.89,0.79-3.71-4.09C149.79,149.16,152.7,127.84,160.18,130.4z"/>
		
			<linearGradient id="SVGID_31_" gradientUnits="userSpaceOnUse" x1="2023.3883" y1="135.1478" x2="2027.9993" y2="144.5763" gradientTransform="matrix(-1 0 0 1 2199.644 0)">
			<stop  offset="0" style="stop-color:#3282ED"/>
			<stop  offset="1" style="stop-color:#60A2F0"/>
		</linearGradient>
		<path class="st45" d="M166.7,140.85c0,2.36,2.09,4.27,6.37,4.27s7.28-1.91,7.28-4.27c0-2.36-3.01-4.27-7.28-4.27
			S166.7,138.49,166.7,140.85z"/>
	</g>
	<g id="data_cube_11_" class="st46">
		<linearGradient id="SVGID_32_" gradientUnits="userSpaceOnUse" x1="242.6913" y1="57.6734" x2="260.3827" y2="57.6734">
			<stop  offset="0" style="stop-color:#6DACEF"/>
			<stop  offset="1" style="stop-color:#97C9FE"/>
		</linearGradient>
		<polygon class="st47" points="260.38,63.48 242.69,73.69 242.71,51.85 260.38,41.65 		"/>
		<linearGradient id="SVGID_33_" gradientUnits="userSpaceOnUse" x1="225" y1="57.6573" x2="242.7106" y2="57.6573">
			<stop  offset="0" style="stop-color:#3282ED"/>
			<stop  offset="1" style="stop-color:#60A2F0"/>
		</linearGradient>
		<polygon class="st48" points="225,63.48 242.69,73.69 242.71,51.85 225,41.62 		"/>
		<linearGradient id="SVGID_34_" gradientUnits="userSpaceOnUse" x1="225.0032" y1="41.6375" x2="260.382" y2="41.6375">
			<stop  offset="0" style="stop-color:#7AB4F4"/>
			<stop  offset="1" style="stop-color:#DFEDFA"/>
		</linearGradient>
		<polygon class="st49" points="242.71,51.85 225,41.62 242.64,31.43 260.38,41.65 		"/>
		<linearGradient id="SVGID_35_" gradientUnits="userSpaceOnUse" x1="235.8256" y1="78.2344" x2="235.8256" y2="108.5734">
			<stop  offset="0" style="stop-color:#6DACEF"/>
			<stop  offset="1" style="stop-color:#97C9FE"/>
		</linearGradient>
		<rect x="235.25" y="78.16" class="st50" width="1.16" height="30.44"/>
		<linearGradient id="SVGID_36_" gradientUnits="userSpaceOnUse" x1="246.1656" y1="87.8024" x2="246.1656" y2="118.1414">
			<stop  offset="0" style="stop-color:#6DACEF"/>
			<stop  offset="1" style="stop-color:#97C9FE"/>
		</linearGradient>
		<rect x="245.59" y="87.73" class="st51" width="1.16" height="30.44"/>
		<linearGradient id="SVGID_37_" gradientUnits="userSpaceOnUse" x1="251.775" y1="75.1031" x2="251.775" y2="105.4421">
			<stop  offset="0" style="stop-color:#6DACEF"/>
			<stop  offset="1" style="stop-color:#97C9FE"/>
		</linearGradient>
		<rect x="251.19" y="75.03" class="st52" width="1.16" height="30.44"/>
	</g>
</g>
</svg>
